<svg xmlns="http://www.w3.org/2000/svg" xmlns:xlink="http://www.w3.org/1999/xlink" width="352" height="595.28" viewBox="0 0 352 595.28">
  <defs>
    <style>
      .cls-1, .cls-12, .cls-16 {
        fill: none;
      }

      .cls-2 {
        isolation: isolate;
      }

      .cls-3 {
        opacity: 0.5;
        mix-blend-mode: multiply;
      }

      .cls-4 {
        clip-path: url(#clip-path);
      }

      .cls-5 {
        fill: #bfbfbf;
      }

      .cls-6 {
        fill: #8c8c8c;
      }

      .cls-7 {
        fill: #285951;
      }

      .cls-8 {
        fill: #df8650;
      }

      .cls-9 {
        fill: #eaeded;
      }

      .cls-10 {
        fill: #dbe3df;
      }

      .cls-11 {
        clip-path: url(#clip-path-2);
      }

      .cls-12 {
        stroke: #f0f2f1;
        stroke-width: 3px;
      }

      .cls-12, .cls-16 {
        stroke-linejoin: round;
      }

      .cls-13 {
        fill: #f2f2f2;
      }

      .cls-14 {
        fill: #b1bebc;
      }

      .cls-15 {
        fill: #d37342;
      }

      .cls-16 {
        stroke: #f2f0f0;
        stroke-linecap: round;
        stroke-width: 1.25px;
      }

      .cls-17 {
        fill: #b66439;
      }

      .cls-18 {
        fill: #f2f0f0;
      }

      .cls-19 {
        fill: #d7603f;
      }

      .cls-20 {
        fill: #e6e4e4;
      }

      .cls-21 {
        fill: #2d2d2d;
      }

      .cls-22 {
        fill: #e7a97c;
      }
    </style>
    <clipPath id="clip-path">
      <rect id="SVGID" class="cls-1" x="112.35" y="392.13" width="108.7" height="8.46"/>
    </clipPath>
    <clipPath id="clip-path-2">
      <path id="SVGID-2" data-name="SVGID" class="cls-1" d="M117.57,347a59.32,59.32,0,0,0,1.57,13.58h95.12A58.77,58.77,0,0,0,215.84,347c0-29.8-22-54-49.14-54s-49.13,24.16-49.13,54"/>
    </clipPath>
  </defs>
  <title>abuelo</title>
  <g class="cls-2">
    <g id="abuelo">
      <g>
        <g class="cls-3">
          <g class="cls-4">
            <path class="cls-5" d="M221.05,396.36c0,2.34-24.33,4.23-54.35,4.23s-54.35-1.89-54.35-4.23,24.33-4.23,54.35-4.23,54.35,1.9,54.35,4.23"/>
          </g>
        </g>
        <path class="cls-6" d="M99.67,325.7c-1.33,3.66,3.36,8.72,10.46,11.29s14,1.69,15.27-2-3.36-8.71-10.47-11.28-13.93-1.7-15.26,2"/>
        <path class="cls-7" d="M183.59,356.29H122.82l7.09,31.41a12.39,12.39,0,0,0,24.19-.06l2.73-12.43h19.74l2.74,12.43a12.39,12.39,0,0,0,24.19.06l7.08-31.41Z"/>
        <path class="cls-8" d="M128.89,346.56c-.9-6.18-9.64-20.76,4.47-30.29a7.69,7.69,0,1,0-8.67-12.7c-17,12.09-36.71,25-12.64,52.16"/>
        <path class="cls-8" d="M242.21,353.26A13.27,13.27,0,1,1,229,340a13.27,13.27,0,0,1,13.26,13.27"/>
        <path class="cls-8" d="M215.68,353.26c0-6.25.67-29.05-14.67-36.43A7.69,7.69,0,0,1,207.75,303c21.2,10.59,34.46,28.08,34.46,50.26"/>
        <path class="cls-9" d="M211.35,336.58c0-6.24-3.41-16.86-10.33-19.75-3.92-1.63-5.41-6.46-3.55-10.28a7.67,7.67,0,0,1,8.44-4.18,60.81,60.81,0,0,1,29.81,18.9s-9.7,11.27-24.37,15.31"/>
        <path class="cls-9" d="M126,337.31c-.91-6.18.92-17.17,7.36-21,3.64-2.19,4.41-7.18,2-10.69a7.66,7.66,0,0,0-9-2.9,60.76,60.76,0,0,0-26.75,23c4-4.41,21.35-5.07,26.33,11.61"/>
        <path class="cls-10" d="M215.83,347c0-29.8-22-54-49.13-54s-49.13,24.16-49.13,54a59.32,59.32,0,0,0,1.57,13.58h95.12A58.77,58.77,0,0,0,215.83,347"/>
        <g class="cls-11">
          <path class="cls-12" d="M196.93,351.13c0-32.08-13.53-58.08-30.23-58.08s-30.22,26-30.22,58.08a109.58,109.58,0,0,0,1,14.62H196A109.55,109.55,0,0,0,196.93,351.13Z"/>
        </g>
        <path class="cls-13" d="M166.7,322.35l22.67-26.75A41.4,41.4,0,0,1,206,309l-14.21,9.71-8.61-5L181,322.35Z"/>
        <path class="cls-14" d="M206,309q-3.35,2.75-6.77,5.35t-6.94,5.09l-.44.32-.5-.28c-1.46-.79-2.9-1.6-4.34-2.42s-2.89-1.63-4.31-2.48l1.42-.6c-.72,2.88-1.5,5.74-2.28,8.61l-.18.65-.63,0c-2.38-.09-4.77-.17-7.16-.31-1.19-.05-2.38-.15-3.58-.23s-2.38-.17-3.58-.29c1.2-.13,2.39-.21,3.58-.29s2.39-.19,3.58-.24c2.39-.13,4.78-.22,7.16-.3l-.8.63c.65-2.9,1.3-5.8,2-8.68l.31-1.23,1.12.62c1.44.81,2.87,1.66,4.3,2.49s2.85,1.68,4.26,2.55l-.94,0q3.6-2.35,7.27-4.61T206,309"/>
        <path class="cls-13" d="M166.7,322.35,144,295.6A41.33,41.33,0,0,0,127.42,309l14.2,9.71,8.61-5,2.15,8.65Z"/>
        <path class="cls-14" d="M127.42,309c2.51,1.41,5,2.86,7.44,4.36s4.87,3,7.26,4.61l-.94,0c1.41-.87,2.84-1.71,4.27-2.55s2.85-1.68,4.3-2.49l1.12-.62.3,1.23c.71,2.88,1.37,5.78,2,8.68l-.81-.63c2.39.08,4.78.17,7.16.3,1.19.05,2.39.16,3.58.24s2.39.16,3.58.29c-1.19.12-2.38.21-3.58.29s-2.39.18-3.58.23c-2.38.14-4.77.22-7.16.31l-.62,0-.18-.65c-.79-2.87-1.57-5.73-2.29-8.61l1.43.6c-1.43.85-2.87,1.66-4.31,2.48s-2.88,1.63-4.34,2.42l-.51.28-.44-.32q-3.51-2.49-6.94-5.09T127.42,309"/>
        <polygon class="cls-15" points="144.03 295.6 166.7 322.35 189.37 295.6 144.03 295.6"/>
        <path class="cls-16" d="M206,259.78c1.88,7.13,8.64,11.53,15.08,9.83s10.15-8.87,8.26-16-8.63-11.53-15.08-9.82S204.14,252.65,206,259.78Z"/>
        <path class="cls-16" d="M205.83,249.24c1.72,6.52,7.6,10.61,13.12,9.15s8.61-7.92,6.89-14.44-7.6-10.61-13.12-9.15S204.11,242.73,205.83,249.24Z"/>
        <path class="cls-16" d="M127.38,259.78c-1.88,7.13-8.63,11.53-15.08,9.83s-10.14-8.87-8.26-16,8.64-11.53,15.08-9.82S129.27,252.65,127.38,259.78Z"/>
        <path class="cls-16" d="M127.57,249.24c-1.72,6.52-7.59,10.61-13.12,9.15s-8.61-7.92-6.88-14.44,7.59-10.61,13.12-9.15S129.3,242.73,127.57,249.24Z"/>
        <path class="cls-15" d="M127.42,270.14a11.7,11.7,0,1,1-11.7-11.7,11.7,11.7,0,0,1,11.7,11.7"/>
        <path class="cls-15" d="M206,270.14a11.7,11.7,0,1,0,11.7-11.7,11.7,11.7,0,0,0-11.7,11.7"/>
        <path class="cls-8" d="M219.83,257.32c0,28.52-23.78,51.64-53.13,51.64s-53.13-23.12-53.13-51.64,23.79-51.64,53.13-51.64,53.13,23.12,53.13,51.64"/>
        <path class="cls-17" d="M218.23,270a49.63,49.63,0,0,1-6.82,16,53,53,0,0,1-11.89,12.76,54.17,54.17,0,0,1-65.5.1,52.82,52.82,0,0,1-11.93-12.72,49.55,49.55,0,0,1-6.87-15.93,52.6,52.6,0,0,0,19.52,27.68,54.42,54.42,0,0,0,64.06-.09A52.64,52.64,0,0,0,218.23,270"/>
        <path class="cls-18" d="M180.82,265.93c-4.88-3.17-11-2.43-14.12,1.58-3.07-4-9.23-4.75-14.12-1.58-9,5.82-11,18.67-11,18.67s12.55,3.41,21.52-2.41a12,12,0,0,0,3.56-3.54,12.13,12.13,0,0,0,3.56,3.54c9,5.82,21.52,2.41,21.52,2.41s-2-12.85-11-18.67"/>
        <path d="M152.38,255.28c0,2.79-1.87,5.06-4.18,5.06s-4.17-2.27-4.17-5.06,1.87-5.06,4.17-5.06,4.18,2.27,4.18,5.06"/>
        <path class="cls-19" d="M139,270.14a8.47,8.47,0,1,1-8.46-8.16,8.32,8.32,0,0,1,8.46,8.16"/>
        <path class="cls-19" d="M194.43,270.14a8.47,8.47,0,1,0,8.46-8.16,8.32,8.32,0,0,0-8.46,8.16"/>
        <path d="M181,255.28c0,2.79,1.87,5.06,4.18,5.06s4.17-2.27,4.17-5.06-1.86-5.06-4.17-5.06-4.18,2.27-4.18,5.06"/>
        <path class="cls-20" d="M192,239.33c5.79,3.67,12,4.25,13.88,1.29s-1.3-8.34-7.09-12-12-4.25-13.88-1.29,1.3,8.33,7.09,12"/>
        <path class="cls-20" d="M141.46,239.33c-5.79,3.67-12,4.25-13.89,1.29s1.3-8.34,7.09-12,12-4.25,13.89-1.29-1.3,8.33-7.09,12"/>
        <path class="cls-18" d="M146.52,209.17c5.94,12.3,29.83,14.44,35.93-.88,2.45-6.14-.71-13.8-7.87-14.78,0,0,2.87,6.93-.55,7.92s-15-11.78-27.51,7.74"/>
        <path class="cls-21" d="M111,397.37h-.34a2.82,2.82,0,0,1-2.81-2.81V345a2.82,2.82,0,0,1,2.81-2.8H111a2.81,2.81,0,0,1,2.81,2.8v49.54a2.81,2.81,0,0,1-2.81,2.81"/>
        <path class="cls-8" d="M99.64,333.05c-.78,5.92,3.88,11.42,10.4,12.26s12.42-3.26,13.19-9.19-3.88-11.41-10.4-12.26-12.42,3.27-13.19,9.19"/>
        <path class="cls-8" d="M96,342.83c0,7.13,6.43,12.9,14.37,12.9s14.36-5.77,14.36-12.9-6.43-12.89-14.36-12.89S96,335.71,96,342.83"/>
        <path class="cls-22" d="M124.73,342.83a12.74,12.74,0,0,0-4.88-8.89,15.57,15.57,0,0,0-19,0A12.78,12.78,0,0,0,96,342.83a11.18,11.18,0,0,1,.87-5.33A13.48,13.48,0,0,1,100.1,333a15.55,15.55,0,0,1,20.53,0,13.51,13.51,0,0,1,3.24,4.48,11.29,11.29,0,0,1,.86,5.33"/>
      </g>
    </g>
  </g>
</svg>
