<svg xmlns="http://www.w3.org/2000/svg" xmlns:xlink="http://www.w3.org/1999/xlink" width="352" height="595.28" viewBox="0 0 352 595.28">
  <defs>
    <style>
      .cls-1 {
        fill: none;
      }

      .cls-2 {
        isolation: isolate;
      }

      .cls-3 {
        opacity: 0.5;
        mix-blend-mode: multiply;
      }

      .cls-4 {
        clip-path: url(#clip-path);
      }

      .cls-5 {
        fill: #bfbfbf;
      }

      .cls-6 {
        fill: #12281e;
      }

      .cls-7 {
        fill: #df8650;
      }

      .cls-8 {
        fill: #e6f490;
      }

      .cls-9 {
        fill: #6151a3;
      }

      .cls-10 {
        fill: #def171;
      }

      .cls-11 {
        clip-path: url(#clip-path-2);
      }

      .cls-12 {
        fill: #d37342;
      }

      .cls-13 {
        fill: #b66439;
      }

      .cls-14 {
        fill: #20120b;
      }

      .cls-15 {
        fill: #d7603f;
      }

      .cls-16 {
        fill: #0b1711;
      }
    </style>
    <clipPath id="clip-path">
      <rect id="SVGID" class="cls-1" x="119.14" y="392.13" width="87.93" height="8.46"/>
    </clipPath>
    <clipPath id="clip-path-2">
      <path id="SVGID-2" data-name="SVGID" class="cls-1" d="M147.56,310.85c0,7.28,7,13.19,15.55,13.19s15.55-5.91,15.55-13.19-7-13.2-15.55-13.2-15.55,5.91-15.55,13.2"/>
    </clipPath>
  </defs>
  <title>mama</title>
  <g class="cls-2">
    <g id="mama">
      <g>
        <g class="cls-3">
          <g class="cls-4">
            <path class="cls-5" d="M207.07,396.36c0,2.34-19.68,4.23-44,4.23s-44-1.89-44-4.23,19.69-4.23,44-4.23,44,1.9,44,4.23"/>
          </g>
        </g>
        <path class="cls-6" d="M163.11,174.18c57.13,0,67.71,54.59,67.71,73.59A57.54,57.54,0,0,1,216.22,286a165,165,0,0,0-53.11-9.21A164.91,164.91,0,0,0,110,286a57.52,57.52,0,0,1-14.61-38.21c0-19,10.58-73.59,67.72-73.59"/>
        <path class="cls-7" d="M209.64,330.12h0L192.49,303h0c0-.08-.09-.17-.15-.25a9,9,0,0,0-14.88,10.12l.18.23h0l18.88,25.94h0a7.94,7.94,0,0,0,13.12-8.92"/>
        <path class="cls-8" d="M193.44,301.63a10.56,10.56,0,1,0-13.89,15.28l15.64-11.32a10.23,10.23,0,0,0-1.75-4"/>
        <path class="cls-7" d="M146.34,300.43a9,9,0,0,0-12.46,2.33c-.06.08-.1.17-.15.25h0l-17.17,27.1h0A7.94,7.94,0,0,0,129.69,339h0l18.88-25.94h0l.18-.23a9,9,0,0,0-2.42-12.45"/>
        <path class="cls-8" d="M147.47,299.32a10.52,10.52,0,0,0-14.7,2.31,10.23,10.23,0,0,0-1.75,4l15.64,11.32a10.48,10.48,0,0,0,.81-17.59"/>
        <path class="cls-7" d="M150.53,397.37h0a6.48,6.48,0,0,0,6.44-5.69l4.17-33.78H136.57l7.63,34.39a6.48,6.48,0,0,0,6.33,5.08"/>
        <path class="cls-7" d="M175.68,397.37h0a6.48,6.48,0,0,1-6.44-5.69l-4.17-33.78h24.57L182,392.29a6.48,6.48,0,0,1-6.33,5.08"/>
        <path class="cls-9" d="M195.35,349.47c0-17.4-14.44-31.5-32.24-31.5s-32.25,14.1-32.25,31.5A30.77,30.77,0,0,0,134,362.89h58.27a30.63,30.63,0,0,0,3.11-13.42"/>
        <path class="cls-10" d="M178.66,310.85c0,7.28-7,13.19-15.55,13.19s-15.55-5.91-15.55-13.19,7-13.2,15.55-13.2,15.55,5.91,15.55,13.2"/>
        <g class="cls-11">
          <polygon class="cls-12" points="179.91 292.71 146.31 292.71 163.11 310.85 179.91 292.71"/>
        </g>
        <path class="cls-12" d="M106,260.8a10.58,10.58,0,1,0,10.58-10.58A10.58,10.58,0,0,0,106,260.8"/>
        <path class="cls-12" d="M220.24,260.8a10.58,10.58,0,1,1-10.58-10.58,10.58,10.58,0,0,1,10.58,10.58"/>
        <path class="cls-7" d="M163.11,299.15c-26.7,0-48.35-20.73-48.35-48.93,0-35.65,21.65-54.89,48.35-54.89s48.34,19.24,48.34,54.89c0,28.2-21.64,48.93-48.34,48.93"/>
        <path class="cls-13" d="M210.47,260.42a48.22,48.22,0,0,1-5.55,15.63,47.36,47.36,0,0,1-10.72,12.79,49.15,49.15,0,0,1-62.2,0,46.9,46.9,0,0,1-16.25-28.42,48.86,48.86,0,0,0,17,27.49,49.27,49.27,0,0,0,60.68,0,48.94,48.94,0,0,0,17-27.49"/>
        <path class="cls-14" d="M148.86,252.14c0,3.09-1.69,5.6-3.78,5.6s-3.78-2.51-3.78-5.6,1.7-5.6,3.78-5.6,3.78,2.51,3.78,5.6"/>
        <path class="cls-14" d="M184.91,252.14c0,3.09-1.69,5.6-3.78,5.6s-3.78-2.51-3.78-5.6,1.69-5.6,3.78-5.6,3.78,2.51,3.78,5.6"/>
        <path class="cls-15" d="M141.32,264.12c0,3.25-3.28,5.87-7.33,5.87s-7.32-2.62-7.32-5.87,3.28-5.86,7.32-5.86,7.33,2.62,7.33,5.86"/>
        <path class="cls-15" d="M184.89,264.12c0,3.25,3.28,5.87,7.33,5.87s7.32-2.62,7.32-5.87-3.28-5.86-7.32-5.86-7.33,2.62-7.33,5.86"/>
        <path d="M151,269.67a8.54,8.54,0,0,0,3.23,4.14,11.87,11.87,0,0,0,5,1.84,13.53,13.53,0,0,0,5.34-.28,8.08,8.08,0,0,0,4.42-2.75v0a.52.52,0,0,1,.88.54A8.14,8.14,0,0,1,165,277a13.2,13.2,0,0,1-6.14.55,11.92,11.92,0,0,1-5.73-2.39,8.48,8.48,0,0,1-3.17-5.28.52.52,0,0,1,.43-.59.51.51,0,0,1,.56.34"/>
        <path class="cls-6" d="M134.3,228a11.67,11.67,0,0,1,1.95-3.91,11.9,11.9,0,0,1,3.33-3,12.61,12.61,0,0,1,4.14-1.65,11.5,11.5,0,0,1,4.46-.07,1.74,1.74,0,0,1,.11,3.4l-.33.07a30.75,30.75,0,0,0-3.08.88,14.82,14.82,0,0,0-2.83,1.37,12.76,12.76,0,0,0-2.43,1.92,25.55,25.55,0,0,0-2.15,2.48l-.13.16a1.76,1.76,0,0,1-3-1.62"/>
        <path class="cls-6" d="M118.8,226c6.49-18.69,31-35.62,33.87,4.29,0,0,32.22,12.61,61.5-8.68-38.8-77.43-104.91-16.17-95.37,4.39"/>
        <path class="cls-16" d="M118.8,226a38.39,38.39,0,0,1,7.33-13.33,27,27,0,0,1,5.78-5.13,13.94,13.94,0,0,1,7.46-2.51,9.83,9.83,0,0,1,7.31,3.25,20.62,20.62,0,0,1,4,6.81,58,58,0,0,1,3,15.13l-.61-.83a68.83,68.83,0,0,0,15.47,3.36,74.72,74.72,0,0,0,23.77-1.48,64.09,64.09,0,0,0,7.62-2.4c5.08-1.69,9.7-4.45,14.29-7.26a64.63,64.63,0,0,1-13.93,8.18,68.38,68.38,0,0,1-7.67,2.71,71.87,71.87,0,0,1-8,1.63,67.11,67.11,0,0,1-16.27.41l-4.06-.47c-1.34-.24-2.69-.43-4-.71a53.94,53.94,0,0,1-7.93-2.17l-.57-.21,0-.62A57.24,57.24,0,0,0,149,215.67a19.38,19.38,0,0,0-3.57-6.28,8.52,8.52,0,0,0-6.09-2.92,12.63,12.63,0,0,0-6.81,2.07,27.19,27.19,0,0,0-5.73,4.72,40.29,40.29,0,0,0-8,12.71"/>
      </g>
    </g>
  </g>
</svg>
