<svg xmlns="http://www.w3.org/2000/svg" xmlns:xlink="http://www.w3.org/1999/xlink" width="352" height="595.28" viewBox="0 0 352 595.28">
  <defs>
    <style>
      .cls-1, .cls-6 {
        fill: none;
      }

      .cls-2 {
        isolation: isolate;
      }

      .cls-3 {
        opacity: 0.5;
        mix-blend-mode: multiply;
      }

      .cls-4 {
        clip-path: url(#clip-path);
      }

      .cls-5 {
        fill: #bfbfbf;
      }

      .cls-6 {
        stroke: #fae329;
        stroke-linecap: round;
        stroke-miterlimit: 10;
        stroke-width: 2.5px;
      }

      .cls-7 {
        fill: #df8650;
      }

      .cls-8 {
        fill: #fff;
      }

      .cls-9 {
        fill: #fae329;
      }

      .cls-10 {
        fill: #080a3b;
      }

      .cls-11 {
        fill: #b66439;
      }

      .cls-12 {
        fill: #d7603f;
      }

      .cls-13 {
        fill: #030314;
      }
    </style>
    <clipPath id="clip-path">
      <rect id="SVGID" class="cls-1" x="142.51" y="392.13" width="66.98" height="8.46"/>
    </clipPath>
  </defs>
  <title>nina</title>
  <g class="cls-2">
    <g id="nina">
      <g>
        <g class="cls-3">
          <g class="cls-4">
            <path class="cls-5" d="M209.49,396.36c0,2.34-15,4.23-33.49,4.23s-33.49-1.89-33.49-4.23,15-4.23,33.49-4.23,33.49,1.9,33.49,4.23"/>
          </g>
        </g>
        <path class="cls-6" d="M205.22,235.35c1.58,3.94-1.61,8.93-7.13,11.14S182.75,248.39,176,248c4.83-8.78,10.85-13.53,16.37-15.74S203.64,231.41,205.22,235.35Z"/>
        <path class="cls-6" d="M146.78,235.35c-1.58,3.94,1.61,8.93,7.13,11.14s15.34,1.9,22.09,1.47c-4.83-8.78-10.85-13.53-16.37-15.74S148.36,231.41,146.78,235.35Z"/>
        <path class="cls-7" d="M209.49,356.59,198,342.21l0,0c-.05-.06-.08-.13-.13-.18a6.85,6.85,0,0,0-10.31,9c0,.06.11.1.16.15v0l12.7,13.3s0,0,0,0a6.07,6.07,0,0,0,9.13-8"/>
        <path class="cls-8" d="M197.8,342s-2.63,2-5.48,4.52-4.83,4.52-4.83,4.52a6.86,6.86,0,0,1,10.31-9"/>
        <path class="cls-7" d="M163.85,341.44a6.83,6.83,0,0,0-9.65.61c0,.05-.08.12-.13.18l0,0-11.54,14.38a6.07,6.07,0,0,0,9.13,8l0,0,12.7-13.3,0,0c.05-.05.12-.09.17-.15a6.83,6.83,0,0,0-.67-9.64"/>
        <path class="cls-8" d="M154.2,342s2.63,2,5.48,4.52,4.83,4.52,4.83,4.52a6.86,6.86,0,0,0-10.31-9"/>
        <path class="cls-7" d="M175.45,373.05l-8.26,20.42a6.25,6.25,0,0,1-12-3.19l3-21.95Z"/>
        <path class="cls-7" d="M176.55,373.05l8.26,20.42a6.25,6.25,0,0,0,12-3.19l-3-21.95Z"/>
        <path class="cls-9" d="M189.62,336.94l7.68,35.54s-8.18,3.16-21.3,3.16-21.3-3.16-21.3-3.16l7.68-35.54"/>
        <path class="cls-10" d="M225.44,291.84c0,25.68-22.13,46.49-49.44,46.49s-49.44-20.81-49.44-46.49,22.13-46.49,49.44-46.49,49.44,20.81,49.44,46.49"/>
        <path class="cls-8" d="M185.28,339c0,5.73-4.15,10.38-9.28,10.38s-9.28-4.65-9.28-10.38,4.15-10.39,9.28-10.39,9.28,4.65,9.28,10.39"/>
        <path class="cls-7" d="M221.6,295.6A45.6,45.6,0,1,1,176,250.22a45.49,45.49,0,0,1,45.6,45.38"/>
        <path class="cls-11" d="M219.93,307.82A44,44,0,0,1,214,321.36a45.59,45.59,0,0,1-76,0,43.71,43.71,0,0,1-5.91-13.54,46.49,46.49,0,0,0,16.76,23.47,45.87,45.87,0,0,0,54.33,0,46.55,46.55,0,0,0,16.76-23.47"/>
        <path d="M196.68,297.65c0,3.4-1.93,6.15-4.31,6.15s-4.31-2.75-4.31-6.15,1.93-6.14,4.31-6.14,4.31,2.75,4.31,6.14"/>
        <path d="M155.33,297.65c0,3.4,1.93,6.15,4.3,6.15s4.31-2.75,4.31-6.15-1.93-6.14-4.31-6.14-4.3,2.75-4.3,6.14"/>
        <path class="cls-12" d="M211.27,309.6c0,3.24-2.92,5.87-6.52,5.87s-6.52-2.63-6.52-5.87,2.92-5.87,6.52-5.87,6.52,2.63,6.52,5.87"/>
        <path d="M167.9,309.94a9,9,0,0,0,3.07,4.62,7.76,7.76,0,0,0,10.06,0,9.11,9.11,0,0,0,3.07-4.62v0a.52.52,0,0,1,.63-.37.52.52,0,0,1,.38.54,8.94,8.94,0,0,1-2.94,5.79,8.89,8.89,0,0,1-12.34,0,8.94,8.94,0,0,1-2.94-5.79.51.51,0,0,1,1-.17Z"/>
        <path class="cls-10" d="M176,268.07a29.92,29.92,0,0,0,45.64,5.86c-7.46-16.79-25.08-28.58-45.64-28.58s-38.18,11.79-45.64,28.58A29.92,29.92,0,0,0,176,268.07"/>
        <path class="cls-13" d="M190.74,274.79a8,8,0,0,1,4.24-.12,9.1,9.1,0,0,1,3.89,2,8.88,8.88,0,0,1,2.95,7.79.84.84,0,0,1-1,.7.85.85,0,0,1-.67-.57v0a12.44,12.44,0,0,0-3.42-5.55,11,11,0,0,0-5.88-2.61h0a.85.85,0,0,1-.7-1,.88.88,0,0,1,.58-.67"/>
        <path class="cls-13" d="M161.11,276.43a11,11,0,0,0-5.88,2.61,12.34,12.34,0,0,0-3.41,5.55v0a.84.84,0,0,1-1.63-.13,8.89,8.89,0,0,1,3-7.79,9,9,0,0,1,3.88-2,8,8,0,0,1,4.24.12.84.84,0,0,1-.12,1.63Z"/>
      </g>
    </g>
  </g>
</svg>
