<svg xmlns="http://www.w3.org/2000/svg" xmlns:xlink="http://www.w3.org/1999/xlink" width="2143.16" height="1216.27" viewBox="0 0 2143.16 1216.27">
  <defs>
    <style>
      .cls-1, .cls-12, .cls-13, .cls-15, .cls-19, .cls-23, .cls-24, .cls-36, .cls-40, .cls-47, .cls-5, .cls-7 {
        fill: none;
      }

      .cls-2 {
        fill: #f95966;
      }

      .cls-3 {
        clip-path: url(#clip-path);
      }

      .cls-4 {
        fill: #db4e5a;
      }

      .cls-5 {
        stroke: #f95966;
      }

      .cls-12, .cls-13, .cls-15, .cls-19, .cls-23, .cls-24, .cls-47, .cls-5, .cls-7 {
        stroke-miterlimit: 10;
      }

      .cls-12, .cls-5 {
        stroke-width: 6px;
      }

      .cls-6 {
        clip-path: url(#clip-path-4);
      }

      .cls-12, .cls-13, .cls-15, .cls-19, .cls-7 {
        stroke: #fa8286;
      }

      .cls-13, .cls-7 {
        stroke-width: 4px;
      }

      .cls-8 {
        clip-path: url(#clip-path-5);
      }

      .cls-9 {
        fill: #f96973;
      }

      .cls-10 {
        fill: #fa7279;
      }

      .cls-11 {
        clip-path: url(#clip-path-18);
      }

      .cls-13, .cls-23, .cls-40, .cls-47 {
        stroke-linecap: round;
      }

      .cls-14 {
        clip-path: url(#clip-path-33);
      }

      .cls-15 {
        stroke-width: 7px;
      }

      .cls-16 {
        fill: #fa8286;
      }

      .cls-17 {
        fill: #fa9394;
      }

      .cls-18 {
        fill: #fa7a7f;
      }

      .cls-19 {
        stroke-width: 5px;
      }

      .cls-20 {
        clip-path: url(#clip-path-79);
      }

      .cls-21 {
        clip-path: url(#clip-path-80);
      }

      .cls-22 {
        fill: #ea5360;
      }

      .cls-23 {
        stroke: #fa777d;
        stroke-width: 12px;
      }

      .cls-24 {
        stroke: #fa9394;
        stroke-width: 8px;
      }

      .cls-25 {
        fill: #fb9b9b;
      }

      .cls-26 {
        clip-path: url(#clip-path-189);
      }

      .cls-27 {
        fill: #fa8b8d;
      }

      .cls-28 {
        fill: #fdd5d2;
      }

      .cls-29 {
        fill: #fcc5c2;
      }

      .cls-30 {
        fill: #8c8c8c;
      }

      .cls-31 {
        fill: #285951;
      }

      .cls-32 {
        fill: #df8650;
      }

      .cls-33 {
        fill: #eaeded;
      }

      .cls-34 {
        fill: #dbe3df;
      }

      .cls-35 {
        clip-path: url(#clip-path-208);
      }

      .cls-36 {
        stroke: #f0f2f1;
        stroke-width: 10.43px;
      }

      .cls-36, .cls-40 {
        stroke-linejoin: round;
      }

      .cls-37 {
        fill: #f2f2f2;
      }

      .cls-38 {
        fill: #b1bebc;
      }

      .cls-39 {
        fill: #d37342;
      }

      .cls-40 {
        stroke: #f2f0f0;
        stroke-width: 4.35px;
      }

      .cls-41 {
        fill: #b66439;
      }

      .cls-42 {
        fill: #f2f0f0;
      }

      .cls-43 {
        fill: #d7603f;
      }

      .cls-44 {
        fill: #e6e4e4;
      }

      .cls-45 {
        fill: #2d2d2d;
      }

      .cls-46 {
        fill: #e7a97c;
      }

      .cls-47 {
        stroke: #c42a11;
        stroke-width: 8.69px;
      }

      .cls-48 {
        fill: #fff;
      }

      .cls-49 {
        fill: #c42a11;
      }

      .cls-50 {
        fill: #080a3b;
      }

      .cls-51 {
        fill: #030314;
      }

      .cls-52 {
        fill: #364f6e;
      }

      .cls-53 {
        fill: #20120b;
      }

      .cls-54 {
        fill: #e6f490;
      }

      .cls-55 {
        fill: #3a8c8a;
      }

      .cls-56 {
        fill: #def171;
      }

      .cls-57 {
        clip-path: url(#clip-path-295);
      }

      .cls-58 {
        fill: #9da481;
      }

      .cls-59 {
        fill: #81876a;
      }

      .cls-60 {
        fill: #bfc3a4;
      }

      .cls-61 {
        fill: #94c435;
      }

      .cls-62 {
        fill: #a6d73f;
      }

      .cls-63 {
        fill: #5c922e;
      }

      .cls-64 {
        fill: #73a932;
      }

      .cls-65 {
        opacity: 0.5;
      }

      .cls-66 {
        clip-path: url(#clip-path-324);
      }

      .cls-67 {
        fill: #f0f2ee;
      }

      .cls-68 {
        fill: #7d2c33;
      }

      .cls-69, .cls-73, .cls-78 {
        isolation: isolate;
      }

      .cls-69 {
        font-size: 62px;
      }

      .cls-69, .cls-78 {
        font-family: ZurichBT-LightCondensed, Zurich Light Condensed BT;
        font-weight: 300;
      }

      .cls-70 {
        letter-spacing: -0.02em;
      }

      .cls-71 {
        fill: #ffe03c;
      }

      .cls-72, .cls-73 {
        fill: #483807;
      }

      .cls-73 {
        font-size: 44.71px;
        font-family: RobotRadicals, Robot Radicals;
      }

      .cls-74 {
        fill: #e8eae5;
      }

      .cls-75 {
        fill: #c09f18;
      }

      .cls-76 {
        fill: #927916;
      }

      .cls-77 {
        fill: #866f16;
      }

      .cls-78 {
        font-size: 35.47px;
      }
    </style>
    <clipPath id="clip-path" transform="translate(111.03 136.27)">
      <rect class="cls-1" width="1920" height="1079.97"/>
    </clipPath>
    <clipPath id="clip-path-4" transform="translate(111.03 136.27)">
      <rect class="cls-1" x="842.38" y="228.21" width="1919.92" height="1079.92" transform="translate(1015.1 2562.27) rotate(-89.39)"/>
    </clipPath>
    <clipPath id="clip-path-5" transform="translate(111.03 136.27)">
      <rect class="cls-1" x="-1.3" y="-5.46" width="1919.91" height="1079.92" transform="translate(-5.4 9.81) rotate(-0.58)"/>
    </clipPath>
    <clipPath id="clip-path-18" transform="translate(111.03 136.27)">
      <rect class="cls-1" x="292.98" y="63.92" width="1920.05" height="1080" transform="translate(215.54 1530.43) rotate(-67.5)"/>
    </clipPath>
    <clipPath id="clip-path-33" transform="translate(111.03 136.27)">
      <rect class="cls-1" x="-14.7" y="-73.96" width="1920.05" height="1080" transform="translate(-106.39 397.24) rotate(-22.5)"/>
    </clipPath>
    <clipPath id="clip-path-79" transform="translate(111.03 136.27)">
      <rect class="cls-1" x="-456.96" y="-1358.14" width="1919.96" height="1079.95" transform="matrix(0.05, -1, 1, 0.05, 1295.77, -275.97)"/>
    </clipPath>
    <clipPath id="clip-path-80" transform="translate(111.03 136.27)">
      <rect class="cls-1" x="-478.07" y="-1369.03" width="1920.06" height="1080.01" transform="translate(1298.27 -325.84) rotate(-88.52)"/>
    </clipPath>
    <clipPath id="clip-path-189" transform="translate(111.03 136.27)">
      <rect class="cls-1" width="1920" height="1080"/>
    </clipPath>
    <clipPath id="clip-path-208" transform="translate(111.03 136.27)">
      <path class="cls-1" d="M1257.25,855.18a130.93,130.93,0,0,0,3.48,30.09h210.79a130.86,130.86,0,0,0,3.48-30.09c0-66-48.74-119.58-108.88-119.58s-108.87,53.54-108.87,119.58"/>
    </clipPath>
    <clipPath id="clip-path-295" transform="translate(111.03 136.27)">
      <path class="cls-1" d="M806,790.51c0,16.14,15.43,29.23,34.46,29.23s34.46-13.09,34.46-29.23-15.43-29.24-34.46-29.24S806,774.37,806,790.51"/>
    </clipPath>
    <clipPath id="clip-path-324" transform="translate(111.03 136.27)">
      <rect class="cls-1" y="882.51" width="1920" height="197.47"/>
    </clipPath>
  </defs>
  <title>nivel3</title>
  <g id="fondo">
    <g id="fondo-2" data-name="fondo">
      <rect class="cls-2" x="111.03" y="136.27" width="1920" height="1079.97"/>
      <g>
        <g class="cls-3">
          <path class="cls-4" d="M513.18,664.33a89.68,89.68,0,1,1-89.68-89.68,89.68,89.68,0,0,1,89.68,89.68" transform="translate(111.03 136.27)"/>
        </g>
        <g class="cls-3">
          <path class="cls-5" d="M475.44,664.33a52,52,0,1,1-51.95-51.94A51.94,51.94,0,0,1,475.44,664.33Z" transform="translate(111.03 136.27)"/>
        </g>
        <g class="cls-3">
          <path class="cls-4" d="M1406.82,228.37a89.68,89.68,0,1,1,89.68,89.68,89.68,89.68,0,0,1-89.68-89.68" transform="translate(111.03 136.27)"/>
        </g>
        <g class="cls-6">
          <circle class="cls-7" cx="1607.47" cy="364.7" r="105.06"/>
        </g>
        <g class="cls-8">
          <circle class="cls-7" cx="534.5" cy="800.57" r="105.05"/>
        </g>
        <g class="cls-3">
          <path class="cls-9" d="M1091.1,352.72A63.24,63.24,0,1,1,1154.34,416a63.24,63.24,0,0,1-63.24-63.24" transform="translate(111.03 136.27)"/>
        </g>
        <g class="cls-3">
          <path class="cls-10" d="M1146.06,240.39a8.28,8.28,0,1,1,8.28,8.28,8.28,8.28,0,0,1-8.28-8.28" transform="translate(111.03 136.27)"/>
        </g>
        <g class="cls-3">
          <path class="cls-10" d="M1091,259.57a8.28,8.28,0,1,1,11.31,3,8.28,8.28,0,0,1-11.31-3" transform="translate(111.03 136.27)"/>
        </g>
        <g class="cls-3">
          <path class="cls-10" d="M1052.91,303.72a8.28,8.28,0,1,1,11.31-3,8.28,8.28,0,0,1-11.31,3" transform="translate(111.03 136.27)"/>
        </g>
        <g class="cls-3">
          <path class="cls-10" d="M1042,361a8.28,8.28,0,1,1,8.28-8.28A8.28,8.28,0,0,1,1042,361" transform="translate(111.03 136.27)"/>
        </g>
        <g class="cls-3">
          <path class="cls-10" d="M1105.34,454.15a8.28,8.28,0,1,1-3-11.31,8.28,8.28,0,0,1,3,11.31" transform="translate(111.03 136.27)"/>
        </g>
        <g class="cls-3">
          <path class="cls-10" d="M1162.62,465.06a8.28,8.28,0,1,1-8.28-8.28,8.28,8.28,0,0,1,8.28,8.28" transform="translate(111.03 136.27)"/>
        </g>
        <g class="cls-3">
          <path class="cls-10" d="M1217.68,445.87a8.28,8.28,0,1,1-11.31-3,8.28,8.28,0,0,1,11.31,3" transform="translate(111.03 136.27)"/>
        </g>
        <g class="cls-3">
          <path class="cls-10" d="M1255.76,401.72a8.28,8.28,0,1,1-11.31,3,8.28,8.28,0,0,1,11.31-3" transform="translate(111.03 136.27)"/>
        </g>
        <g class="cls-3">
          <path class="cls-10" d="M1266.68,344.44a8.28,8.28,0,1,1-8.28,8.28,8.28,8.28,0,0,1,8.28-8.28" transform="translate(111.03 136.27)"/>
        </g>
        <g class="cls-3">
          <path class="cls-10" d="M1247.49,289.38a8.28,8.28,0,1,1-3,11.31,8.28,8.28,0,0,1,3-11.31" transform="translate(111.03 136.27)"/>
        </g>
        <g class="cls-3">
          <path class="cls-10" d="M1203.34,251.3a8.28,8.28,0,1,1,3,11.31,8.28,8.28,0,0,1-3-11.31" transform="translate(111.03 136.27)"/>
        </g>
        <g class="cls-11">
          <circle class="cls-12" cx="1154.36" cy="352.7" r="23.68" transform="translate(497.77 1420.49) rotate(-67.5)"/>
        </g>
        <g class="cls-3">
          <path class="cls-13" d="M1294.28,258.36A168.82,168.82,0,0,1,1183.8,518.92" transform="translate(111.03 136.27)"/>
        </g>
        <g class="cls-3">
          <path class="cls-13" d="M1057.73,491.12A168.78,168.78,0,0,1,1154.34,184" transform="translate(111.03 136.27)"/>
        </g>
        <g class="cls-3">
          <path class="cls-9" d="M830,540a63.24,63.24,0,1,1-63.24-63.24A63.24,63.24,0,0,1,830,540" transform="translate(111.03 136.27)"/>
        </g>
        <g class="cls-3">
          <path class="cls-10" d="M775.05,652.31a8.28,8.28,0,1,1-8.28-8.28,8.28,8.28,0,0,1,8.28,8.28" transform="translate(111.03 136.27)"/>
        </g>
        <g class="cls-3">
          <path class="cls-10" d="M830.11,633.12a8.28,8.28,0,1,1-11.31-3,8.28,8.28,0,0,1,11.31,3" transform="translate(111.03 136.27)"/>
        </g>
        <g class="cls-3">
          <path class="cls-10" d="M868.2,589a8.28,8.28,0,1,1-11.31,3,8.27,8.27,0,0,1,11.31-3" transform="translate(111.03 136.27)"/>
        </g>
        <g class="cls-3">
          <path class="cls-10" d="M879.11,531.7a8.28,8.28,0,1,1-8.28,8.28,8.28,8.28,0,0,1,8.28-8.28" transform="translate(111.03 136.27)"/>
        </g>
        <g class="cls-3">
          <path class="cls-10" d="M815.77,438.55a8.28,8.28,0,1,1,3,11.31,8.28,8.28,0,0,1-3-11.31" transform="translate(111.03 136.27)"/>
        </g>
        <g class="cls-3">
          <path class="cls-10" d="M758.49,427.64a8.28,8.28,0,1,1,8.28,8.28,8.28,8.28,0,0,1-8.28-8.28" transform="translate(111.03 136.27)"/>
        </g>
        <g class="cls-3">
          <path class="cls-10" d="M703.43,446.83a8.28,8.28,0,1,1,11.31,3,8.28,8.28,0,0,1-11.31-3" transform="translate(111.03 136.27)"/>
        </g>
        <g class="cls-3">
          <path class="cls-10" d="M665.35,491a8.28,8.28,0,1,1,11.31-3,8.28,8.28,0,0,1-11.31,3" transform="translate(111.03 136.27)"/>
        </g>
        <g class="cls-3">
          <path class="cls-10" d="M654.43,548.25a8.28,8.28,0,1,1,8.28-8.28,8.28,8.28,0,0,1-8.28,8.28" transform="translate(111.03 136.27)"/>
        </g>
        <g class="cls-3">
          <path class="cls-10" d="M673.62,603.31a8.28,8.28,0,1,1,3-11.31,8.28,8.28,0,0,1-3,11.31" transform="translate(111.03 136.27)"/>
        </g>
        <g class="cls-3">
          <path class="cls-10" d="M717.77,641.4a8.28,8.28,0,1,1-3-11.31,8.28,8.28,0,0,1,3,11.31" transform="translate(111.03 136.27)"/>
        </g>
        <g class="cls-14">
          <circle class="cls-12" cx="877.82" cy="676.24" r="23.68"/>
        </g>
        <g class="cls-3">
          <path class="cls-13" d="M626.83,634.33A168.8,168.8,0,0,1,737.3,373.78" transform="translate(111.03 136.27)"/>
        </g>
        <g class="cls-3">
          <path class="cls-13" d="M863.38,401.58a168.78,168.78,0,0,1-96.61,307.17" transform="translate(111.03 136.27)"/>
        </g>
        <g class="cls-3">
          <path class="cls-4" d="M930.17,446.35a30.39,30.39,0,1,1,30.38,30.39,30.39,30.39,0,0,1-30.38-30.39" transform="translate(111.03 136.27)"/>
        </g>
        <g class="cls-3">
          <path class="cls-7" d="M934.07,391.18c46.6-22.37,96.23-15.8,110.85,14.67s-11.29,73.3-57.89,95.67-96.23,15.8-110.85-14.67S887.48,413.55,934.07,391.18Z" transform="translate(111.03 136.27)"/>
        </g>
        <g class="cls-3">
          <path class="cls-4" d="M1010.91,648.3a15.19,15.19,0,1,1-15.19-15.19,15.19,15.19,0,0,1,15.19,15.19" transform="translate(111.03 136.27)"/>
        </g>
        <g class="cls-3">
          <path class="cls-4" d="M974.87,692.55a15.19,15.19,0,1,1-15.19-15.19,15.19,15.19,0,0,1,15.19,15.19" transform="translate(111.03 136.27)"/>
        </g>
        <g class="cls-3">
          <path class="cls-4" d="M1029.22,699.34A15.19,15.19,0,1,1,1014,684.15a15.19,15.19,0,0,1,15.19,15.19" transform="translate(111.03 136.27)"/>
        </g>
        <g class="cls-3">
          <path class="cls-4" d="M909.09,244.4a15.19,15.19,0,1,1,15.19,15.19,15.19,15.19,0,0,1-15.19-15.19" transform="translate(111.03 136.27)"/>
        </g>
        <g class="cls-3">
          <path class="cls-4" d="M945.13,200.15a15.19,15.19,0,1,1,15.19,15.19,15.19,15.19,0,0,1-15.19-15.19" transform="translate(111.03 136.27)"/>
        </g>
        <g class="cls-3">
          <path class="cls-4" d="M890.78,193.36A15.19,15.19,0,1,1,906,208.55a15.19,15.19,0,0,1-15.19-15.19" transform="translate(111.03 136.27)"/>
        </g>
        <g class="cls-3">
          <path class="cls-4" d="M1759.68,228.34a15.19,15.19,0,1,1,10-19,15.19,15.19,0,0,1-10,19" transform="translate(111.03 136.27)"/>
        </g>
        <g class="cls-3">
          <path class="cls-4" d="M1706.72,207.08a15.19,15.19,0,1,1,10-19,15.19,15.19,0,0,1-10,19" transform="translate(111.03 136.27)"/>
        </g>
        <g class="cls-3">
          <path class="cls-4" d="M1716.38,261a15.19,15.19,0,1,1,10-19,15.19,15.19,0,0,1-10,19" transform="translate(111.03 136.27)"/>
        </g>
        <g class="cls-3">
          <path class="cls-4" d="M160.32,664.35a15.19,15.19,0,1,1-10,19,15.19,15.19,0,0,1,10-19" transform="translate(111.03 136.27)"/>
        </g>
        <g class="cls-3">
          <path class="cls-4" d="M213.28,685.62a15.19,15.19,0,1,1-10,19,15.19,15.19,0,0,1,10-19" transform="translate(111.03 136.27)"/>
        </g>
        <g class="cls-3">
          <path class="cls-4" d="M203.62,631.7a15.19,15.19,0,1,1-10,19,15.19,15.19,0,0,1,10-19" transform="translate(111.03 136.27)"/>
        </g>
        <g class="cls-3">
          <path class="cls-9" d="M949.39,11.71a148,148,0,1,1-148-148,148,148,0,0,1,148,148" transform="translate(111.03 136.27)"/>
        </g>
        <g class="cls-3">
          <path class="cls-9" d="M970.61,881a148,148,0,1,1,148,148,148,148,0,0,1-148-148" transform="translate(111.03 136.27)"/>
        </g>
        <g class="cls-3">
          <path class="cls-15" d="M1316.73-7.49a64.21,64.21,0,0,1,64.21-64.21,64.21,64.21,0,0,1,64.21,64.21,64.21,64.21,0,0,1-64.21,64.21A64.21,64.21,0,0,1,1316.73-7.49Z" transform="translate(111.03 136.27)"/>
        </g>
        <g class="cls-3">
          <circle class="cls-7" cx="1491.97" cy="128.78" r="114.82"/>
        </g>
        <g class="cls-3">
          <path class="cls-12" d="M1571.58,58.57a30,30,0,1,1,30,30A30,30,0,0,1,1571.58,58.57Z" transform="translate(111.03 136.27)"/>
        </g>
        <g class="cls-3">
          <path class="cls-16" d="M1520.89,36.09a10.24,10.24,0,1,1,10.23,10.23,10.23,10.23,0,0,1-10.23-10.23" transform="translate(111.03 136.27)"/>
        </g>
        <g class="cls-3">
          <path class="cls-4" d="M1848.54,791.92a54,54,0,1,1,54,54,54,54,0,0,1-54-54" transform="translate(111.03 136.27)"/>
        </g>
        <g class="cls-3">
          <path class="cls-17" d="M1678.81,844a30.39,30.39,0,1,1,30.39,30.39A30.39,30.39,0,0,1,1678.81,844" transform="translate(111.03 136.27)"/>
        </g>
        <g class="cls-3">
          <path class="cls-9" d="M1751.47,80.4a30.39,30.39,0,1,1,30.38,30.39,30.39,30.39,0,0,1-30.38-30.39" transform="translate(111.03 136.27)"/>
        </g>
        <g class="cls-3">
          <path class="cls-18" d="M1902.52,255a19.54,19.54,0,1,0,19.54,19.54A19.54,19.54,0,0,0,1902.52,255" transform="translate(111.03 136.27)"/>
        </g>
        <g class="cls-3">
          <path class="cls-18" d="M1825.49,286.87a19.54,19.54,0,1,0,27.63,0,19.55,19.55,0,0,0-27.63,0" transform="translate(111.03 136.27)"/>
        </g>
        <g class="cls-3">
          <path class="cls-18" d="M1793.58,363.91a19.54,19.54,0,1,0,19.54-19.54,19.54,19.54,0,0,0-19.54,19.54" transform="translate(111.03 136.27)"/>
        </g>
        <g class="cls-3">
          <path class="cls-18" d="M1825.49,440.94a19.54,19.54,0,1,0,0-27.63,19.54,19.54,0,0,0,0,27.63" transform="translate(111.03 136.27)"/>
        </g>
        <g class="cls-3">
          <path class="cls-18" d="M1902.52,472.85A19.54,19.54,0,1,0,1883,453.31a19.54,19.54,0,0,0,19.54,19.54" transform="translate(111.03 136.27)"/>
        </g>
        <g class="cls-3">
          <circle class="cls-12" cx="2013.55" cy="928.19" r="82.2"/>
        </g>
        <g class="cls-3">
          <circle class="cls-19" cx="2013.55" cy="928.19" r="127.11"/>
        </g>
        <g class="cls-3">
          <path class="cls-7" d="M1562.74,308.23c131.84,27,231,143.63,231,283.44,0,159.79-129.53,289.32-289.32,289.32s-289.32-129.53-289.32-289.32c0-134.52,91.8-247.59,216.18-280" transform="translate(111.03 136.27)"/>
        </g>
        <g class="cls-3">
          <path class="cls-15" d="M604.38,900.18A64.21,64.21,0,1,1,540.17,836,64.21,64.21,0,0,1,604.38,900.18Z" transform="translate(111.03 136.27)"/>
        </g>
        <g class="cls-3">
          <circle class="cls-7" cx="651.2" cy="1036.45" r="114.82"/>
        </g>
        <g class="cls-3">
          <path class="cls-12" d="M349.53,834.13a30,30,0,1,1-30-30A30,30,0,0,1,349.53,834.13Z" transform="translate(111.03 136.27)"/>
        </g>
        <g class="cls-3">
          <path class="cls-16" d="M400.22,856.61A10.24,10.24,0,1,1,390,846.38a10.23,10.23,0,0,1,10.24,10.23" transform="translate(111.03 136.27)"/>
        </g>
        <g class="cls-3">
          <path class="cls-4" d="M72.57,100.77a54,54,0,1,1-54-54,54,54,0,0,1,54,54" transform="translate(111.03 136.27)"/>
        </g>
        <g class="cls-3">
          <path class="cls-17" d="M216.19,36a21.75,21.75,0,1,1-21.75-21.74A21.75,21.75,0,0,1,216.19,36" transform="translate(111.03 136.27)"/>
        </g>
        <g class="cls-3">
          <path class="cls-9" d="M169.64,812.29a30.39,30.39,0,1,1-30.39-30.39,30.39,30.39,0,0,1,30.39,30.39" transform="translate(111.03 136.27)"/>
        </g>
        <g class="cls-3">
          <path class="cls-18" d="M18.59,637.73A19.54,19.54,0,1,0-.95,618.19a19.54,19.54,0,0,0,19.54,19.54" transform="translate(111.03 136.27)"/>
        </g>
        <g class="cls-3">
          <path class="cls-18" d="M95.62,605.82a19.54,19.54,0,1,0-27.64,0,19.55,19.55,0,0,0,27.64,0" transform="translate(111.03 136.27)"/>
        </g>
        <g class="cls-3">
          <path class="cls-18" d="M127.53,528.79A19.54,19.54,0,1,0,108,548.33a19.54,19.54,0,0,0,19.54-19.54" transform="translate(111.03 136.27)"/>
        </g>
        <g class="cls-3">
          <path class="cls-18" d="M95.62,451.75a19.54,19.54,0,1,0,0,27.63,19.55,19.55,0,0,0,0-27.63" transform="translate(111.03 136.27)"/>
        </g>
        <g class="cls-3">
          <path class="cls-18" d="M18.59,419.84a19.54,19.54,0,1,0,19.54,19.54,19.54,19.54,0,0,0-19.54-19.54" transform="translate(111.03 136.27)"/>
        </g>
        <g class="cls-20">
          <circle class="cls-12" cx="129.61" cy="237.04" r="82.2"/>
        </g>
        <g class="cls-21">
          <circle class="cls-19" cx="129.62" cy="237.04" r="127.11"/>
        </g>
        <g class="cls-3">
          <path class="cls-7" d="M358.37,584.47c-131.84-27-231-143.63-231-283.44,0-159.79,129.53-289.32,289.32-289.32S706,141.24,706,301c0,134.52-91.8,247.6-216.18,280" transform="translate(111.03 136.27)"/>
        </g>
        <g class="cls-3">
          <path class="cls-17" d="M817.07,310.49a7.83,7.83,0,1,1-7.83-7.83,7.83,7.83,0,0,1,7.83,7.83" transform="translate(111.03 136.27)"/>
        </g>
        <g class="cls-3">
          <path class="cls-17" d="M784.91,317.32a7.83,7.83,0,1,1-11.07,0,7.82,7.82,0,0,1,11.07,0" transform="translate(111.03 136.27)"/>
        </g>
        <g class="cls-3">
          <path class="cls-17" d="M767,344.89a7.83,7.83,0,1,1-7.83,7.83,7.84,7.84,0,0,1,7.83-7.83" transform="translate(111.03 136.27)"/>
        </g>
        <g class="cls-3">
          <path class="cls-17" d="M773.83,377.05a7.83,7.83,0,1,1,0,11.07,7.82,7.82,0,0,1,0-11.07" transform="translate(111.03 136.27)"/>
        </g>
        <g class="cls-3">
          <path class="cls-17" d="M801.4,395a7.83,7.83,0,1,1,7.83,7.83A7.84,7.84,0,0,1,801.4,395" transform="translate(111.03 136.27)"/>
        </g>
        <g class="cls-3">
          <path class="cls-17" d="M833.56,388.12a7.83,7.83,0,1,1,11.07,0,7.82,7.82,0,0,1-11.07,0" transform="translate(111.03 136.27)"/>
        </g>
        <g class="cls-3">
          <path class="cls-17" d="M851.47,360.55a7.83,7.83,0,1,1,7.83-7.83,7.83,7.83,0,0,1-7.83,7.83" transform="translate(111.03 136.27)"/>
        </g>
        <g class="cls-3">
          <path class="cls-17" d="M844.64,328.4a7.83,7.83,0,1,1,0-11.07,7.82,7.82,0,0,1,0,11.07" transform="translate(111.03 136.27)"/>
        </g>
        <g class="cls-3">
          <path class="cls-17" d="M1102.93,582.21a7.83,7.83,0,1,1,7.83,7.83,7.83,7.83,0,0,1-7.83-7.83" transform="translate(111.03 136.27)"/>
        </g>
        <g class="cls-3">
          <path class="cls-17" d="M1135.09,575.38a7.83,7.83,0,1,1,11.07,0,7.82,7.82,0,0,1-11.07,0" transform="translate(111.03 136.27)"/>
        </g>
        <g class="cls-3">
          <path class="cls-17" d="M1153,547.81a7.83,7.83,0,1,1,7.83-7.83,7.84,7.84,0,0,1-7.83,7.83" transform="translate(111.03 136.27)"/>
        </g>
        <g class="cls-3">
          <path class="cls-17" d="M1146.17,515.65a7.83,7.83,0,1,1,0-11.07,7.82,7.82,0,0,1,0,11.07" transform="translate(111.03 136.27)"/>
        </g>
        <g class="cls-3">
          <path class="cls-17" d="M1118.6,497.74a7.83,7.83,0,1,1-7.83-7.83,7.83,7.83,0,0,1,7.83,7.83" transform="translate(111.03 136.27)"/>
        </g>
        <g class="cls-3">
          <path class="cls-17" d="M1086.44,504.57a7.83,7.83,0,1,1-11.08,0,7.82,7.82,0,0,1,11.08,0" transform="translate(111.03 136.27)"/>
        </g>
        <g class="cls-3">
          <path class="cls-17" d="M1068.53,532.14a7.83,7.83,0,1,1-7.83,7.83,7.84,7.84,0,0,1,7.83-7.83" transform="translate(111.03 136.27)"/>
        </g>
        <g class="cls-3">
          <path class="cls-17" d="M1075.36,564.3a7.83,7.83,0,1,1,0,11.07,7.82,7.82,0,0,1,0-11.07" transform="translate(111.03 136.27)"/>
        </g>
        <g class="cls-3">
          <path class="cls-22" d="M601.85,302.35c0,102.88-83.4,186.27-186.27,186.27s-186.27-83.4-186.27-186.27,83.4-186.27,186.27-186.27,186.27,83.39,186.27,186.27" transform="translate(111.03 136.27)"/>
        </g>
        <g class="cls-3">
          <path class="cls-2" d="M415.57,212a90.34,90.34,0,1,0,90.33,90.34A90.34,90.34,0,0,0,415.57,212" transform="translate(111.03 136.27)"/>
        </g>
        <g class="cls-3">
          <path class="cls-18" d="M415.57,275.65a26.7,26.7,0,1,0,26.7,26.7,26.69,26.69,0,0,0-26.7-26.7" transform="translate(111.03 136.27)"/>
        </g>
        <g class="cls-3">
          <line class="cls-23" x1="472.92" y1="238.26" x2="465.32" y2="209.92"/>
        </g>
        <g class="cls-3">
          <line class="cls-23" x1="379.93" y1="291.95" x2="359.18" y2="271.2"/>
        </g>
        <g class="cls-3">
          <line class="cls-23" x1="326.24" y1="384.93" x2="297.9" y2="377.34"/>
        </g>
        <g class="cls-3">
          <line class="cls-23" x1="326.24" y1="492.3" x2="297.9" y2="499.9"/>
        </g>
        <g class="cls-3">
          <line class="cls-23" x1="379.93" y1="585.29" x2="359.18" y2="606.04"/>
        </g>
        <g class="cls-3">
          <line class="cls-23" x1="472.92" y1="638.98" x2="465.32" y2="667.32"/>
        </g>
        <g class="cls-3">
          <line class="cls-23" x1="580.29" y1="638.98" x2="587.88" y2="667.32"/>
        </g>
        <g class="cls-3">
          <line class="cls-23" x1="673.27" y1="585.29" x2="694.02" y2="606.04"/>
        </g>
        <g class="cls-3">
          <line class="cls-23" x1="726.96" y1="492.3" x2="755.3" y2="499.9"/>
        </g>
        <g class="cls-3">
          <line class="cls-23" x1="726.96" y1="384.93" x2="755.3" y2="377.34"/>
        </g>
        <g class="cls-3">
          <line class="cls-23" x1="673.27" y1="291.95" x2="694.02" y2="271.2"/>
        </g>
        <g class="cls-3">
          <line class="cls-23" x1="580.29" y1="238.26" x2="587.88" y2="209.92"/>
        </g>
        <g class="cls-3">
          <polygon class="cls-2" points="526.7 365.48 517.86 209.92 547.54 209.92 538.7 365.48 526.7 365.48"/>
        </g>
        <g class="cls-3">
          <polygon class="cls-2" points="490.11 375.23 404.68 244.93 430.39 230.09 500.51 369.23 490.11 375.23"/>
        </g>
        <g class="cls-3">
          <polygon class="cls-2" points="463.31 401.96 324.17 331.84 339.01 306.14 469.31 391.57 463.31 401.96"/>
        </g>
        <g class="cls-3">
          <polygon class="cls-2" points="453.46 438.52 297.9 447.37 297.9 417.68 453.46 426.52 453.46 438.52"/>
        </g>
        <g class="cls-3">
          <polygon class="cls-2" points="463.21 475.11 332.92 560.54 318.07 534.84 457.21 464.71 463.21 475.11"/>
        </g>
        <g class="cls-3">
          <polygon class="cls-2" points="489.95 501.91 419.83 641.05 394.12 626.21 479.55 495.91 489.95 501.91"/>
        </g>
        <g class="cls-3">
          <polygon class="cls-2" points="526.51 511.76 535.35 667.32 505.66 667.32 514.51 511.76 526.51 511.76"/>
        </g>
        <g class="cls-3">
          <polygon class="cls-2" points="563.09 502.01 648.53 632.3 622.82 647.15 552.7 508.01 563.09 502.01"/>
        </g>
        <g class="cls-3">
          <polygon class="cls-2" points="589.9 475.27 729.03 545.39 714.19 571.1 583.9 485.67 589.9 475.27"/>
        </g>
        <g class="cls-3">
          <polygon class="cls-2" points="599.74 438.71 755.3 429.87 755.3 459.56 599.74 450.71 599.74 438.71"/>
        </g>
        <g class="cls-3">
          <polygon class="cls-2" points="589.99 402.13 720.29 316.69 735.13 342.4 595.99 412.52 589.99 402.13"/>
        </g>
        <g class="cls-3">
          <polygon class="cls-2" points="563.26 375.32 633.38 236.19 659.08 251.03 573.65 381.32 563.26 375.32"/>
        </g>
        <g class="cls-3">
          <path class="cls-22" d="M1690.7,591.67c0,102.88-83.4,186.28-186.28,186.28s-186.28-83.4-186.28-186.28,83.4-186.27,186.28-186.27,186.28,83.39,186.28,186.27" transform="translate(111.03 136.27)"/>
        </g>
        <g class="cls-3">
          <path class="cls-2" d="M1504.43,501.33a90.34,90.34,0,1,0,90.33,90.34,90.34,90.34,0,0,0-90.33-90.34" transform="translate(111.03 136.27)"/>
        </g>
        <g class="cls-3">
          <path class="cls-18" d="M1504.43,565a26.7,26.7,0,1,0,26.7,26.7,26.7,26.7,0,0,0-26.7-26.7" transform="translate(111.03 136.27)"/>
        </g>
        <g class="cls-3">
          <line class="cls-23" x1="1561.77" y1="527.58" x2="1554.18" y2="499.24"/>
        </g>
        <g class="cls-3">
          <line class="cls-23" x1="1468.79" y1="581.27" x2="1448.04" y2="560.52"/>
        </g>
        <g class="cls-3">
          <line class="cls-23" x1="1415.1" y1="674.25" x2="1386.76" y2="666.66"/>
        </g>
        <g class="cls-3">
          <line class="cls-23" x1="1415.1" y1="781.62" x2="1386.76" y2="789.22"/>
        </g>
        <g class="cls-3">
          <line class="cls-23" x1="1468.79" y1="874.61" x2="1448.04" y2="895.36"/>
        </g>
        <g class="cls-3">
          <line class="cls-23" x1="1561.77" y1="928.3" x2="1554.18" y2="956.64"/>
        </g>
        <g class="cls-3">
          <line class="cls-23" x1="1669.14" y1="928.3" x2="1676.74" y2="956.64"/>
        </g>
        <g class="cls-3">
          <line class="cls-23" x1="1762.13" y1="874.61" x2="1782.88" y2="895.36"/>
        </g>
        <g class="cls-3">
          <line class="cls-23" x1="1815.82" y1="781.62" x2="1844.16" y2="789.22"/>
        </g>
        <g class="cls-3">
          <line class="cls-23" x1="1815.82" y1="674.25" x2="1844.16" y2="666.66"/>
        </g>
        <g class="cls-3">
          <line class="cls-23" x1="1762.13" y1="581.27" x2="1782.88" y2="560.52"/>
        </g>
        <g class="cls-3">
          <line class="cls-23" x1="1669.14" y1="527.58" x2="1676.74" y2="499.24"/>
        </g>
        <g class="cls-3">
          <polygon class="cls-2" points="1615.55 654.8 1606.71 499.24 1636.4 499.24 1627.55 654.8 1615.55 654.8"/>
        </g>
        <g class="cls-3">
          <polygon class="cls-2" points="1578.97 664.55 1493.53 534.25 1519.24 519.41 1589.36 658.55 1578.97 664.55"/>
        </g>
        <g class="cls-3">
          <polygon class="cls-2" points="1552.16 691.28 1413.03 621.16 1427.87 595.46 1558.16 680.89 1552.16 691.28"/>
        </g>
        <g class="cls-3">
          <polygon class="cls-2" points="1542.32 727.84 1386.76 736.69 1386.76 707 1542.32 715.84 1542.32 727.84"/>
        </g>
        <g class="cls-3">
          <polygon class="cls-2" points="1552.07 764.43 1421.77 849.86 1406.93 824.16 1546.07 754.03 1552.07 764.43"/>
        </g>
        <g class="cls-3">
          <polygon class="cls-2" points="1578.8 791.23 1508.68 930.37 1482.98 915.53 1568.41 785.23 1578.8 791.23"/>
        </g>
        <g class="cls-3">
          <polygon class="cls-2" points="1615.36 801.08 1624.2 956.64 1594.52 956.64 1603.36 801.08 1615.36 801.08"/>
        </g>
        <g class="cls-3">
          <polygon class="cls-2" points="1651.95 791.33 1737.38 921.62 1711.67 936.47 1641.55 797.33 1651.95 791.33"/>
        </g>
        <g class="cls-3">
          <polygon class="cls-2" points="1678.75 764.59 1817.89 834.71 1803.05 860.42 1672.75 774.99 1678.75 764.59"/>
        </g>
        <g class="cls-3">
          <polygon class="cls-2" points="1688.6 728.03 1844.16 719.19 1844.16 748.88 1688.6 740.03 1688.6 728.03"/>
        </g>
        <g class="cls-3">
          <polygon class="cls-2" points="1678.85 691.45 1809.14 606.01 1823.99 631.72 1684.85 701.84 1678.85 691.45"/>
        </g>
        <g class="cls-3">
          <polygon class="cls-2" points="1652.11 664.64 1722.23 525.51 1747.94 540.35 1662.51 670.64 1652.11 664.64"/>
        </g>
        <g class="cls-3">
          <path class="cls-17" d="M689.48,730.32a26.4,26.4,0,1,1-13.71-34.72,26.4,26.4,0,0,1,13.71,34.72" transform="translate(111.03 136.27)"/>
        </g>
        <g class="cls-3">
          <path class="cls-17" d="M698.77,671.87c-2.14,4.93-8.66,6.85-14.57,4.28s-9-8.64-6.83-13.57,8.66-6.85,14.57-4.28,9,8.64,6.83,13.57" transform="translate(111.03 136.27)"/>
        </g>
        <g class="cls-3">
          <line class="cls-24" x1="799.1" y1="803.5" x2="776.29" y2="856.09"/>
        </g>
        <g class="cls-3">
          <path class="cls-17" d="M655.05,662.22c2,5-1.28,11-7.28,13.33s-12.45.23-14.42-4.76,1.28-11,7.28-13.33,12.45-.24,14.42,4.76" transform="translate(111.03 136.27)"/>
        </g>
        <g class="cls-3">
          <line class="cls-24" x1="755.23" y1="802.78" x2="776.29" y2="856.09"/>
        </g>
        <g class="cls-3">
          <path class="cls-17" d="M617.32,686.31c4.93,2.14,6.85,8.66,4.28,14.57s-8.64,9-13.57,6.83-6.85-8.66-4.28-14.57,8.64-9,13.57-6.83" transform="translate(111.03 136.27)"/>
        </g>
        <g class="cls-3">
          <line class="cls-24" x1="723.71" y1="833.28" x2="776.29" y2="856.09"/>
        </g>
        <g class="cls-3">
          <path class="cls-17" d="M607.66,730c5-2,11,1.28,13.33,7.28s.23,12.45-4.76,14.42-11-1.28-13.33-7.28S602.67,732,607.66,730" transform="translate(111.03 136.27)"/>
        </g>
        <g class="cls-3">
          <line class="cls-24" x1="722.98" y1="877.14" x2="776.29" y2="856.09"/>
        </g>
        <g class="cls-3">
          <path class="cls-17" d="M631.75,767.76c2.14-4.93,8.66-6.85,14.57-4.28s9,8.64,6.83,13.57-8.66,6.85-14.57,4.28-9-8.64-6.83-13.57" transform="translate(111.03 136.27)"/>
        </g>
        <g class="cls-3">
          <line class="cls-24" x1="753.48" y1="908.67" x2="776.29" y2="856.09"/>
        </g>
        <g class="cls-3">
          <path class="cls-17" d="M675.46,777.41c-2-5,1.28-11,7.27-13.33s12.45-.23,14.42,4.76-1.28,11-7.28,13.33-12.43.24-14.41-4.76" transform="translate(111.03 136.27)"/>
        </g>
        <g class="cls-3">
          <line class="cls-24" x1="797.34" y1="909.4" x2="776.29" y2="856.09"/>
        </g>
        <g class="cls-3">
          <path class="cls-17" d="M713.2,753.33c-4.93-2.14-6.85-8.66-4.28-14.57s8.64-9,13.57-6.83,6.85,8.66,4.28,14.57-8.64,9-13.57,6.83" transform="translate(111.03 136.27)"/>
        </g>
        <g class="cls-3">
          <line class="cls-24" x1="828.87" y1="878.89" x2="776.29" y2="856.09"/>
        </g>
        <g class="cls-3">
          <path class="cls-17" d="M722.85,709.61c-5,2-11-1.28-13.33-7.28s-.23-12.45,4.76-14.42,11,1.28,13.33,7.28.24,12.45-4.76,14.42" transform="translate(111.03 136.27)"/>
        </g>
        <g class="cls-3">
          <line class="cls-24" x1="829.6" y1="835.03" x2="776.29" y2="856.09"/>
        </g>
        <g class="cls-3">
          <path class="cls-2" d="M675.48,724.25a11.15,11.15,0,1,1-5.79-14.66,11.14,11.14,0,0,1,5.79,14.66" transform="translate(111.03 136.27)"/>
        </g>
        <g class="cls-3">
          <path class="cls-17" d="M1279,183.39a26.4,26.4,0,1,1-13.71-34.72A26.4,26.4,0,0,1,1279,183.39" transform="translate(111.03 136.27)"/>
        </g>
        <g class="cls-3">
          <path class="cls-17" d="M1288.25,124.94c-2.14,4.93-8.66,6.85-14.57,4.28s-9-8.64-6.83-13.57,8.66-6.85,14.57-4.28,9,8.64,6.83,13.57" transform="translate(111.03 136.27)"/>
        </g>
        <g class="cls-3">
          <line class="cls-24" x1="1388.58" y1="256.57" x2="1365.77" y2="309.15"/>
        </g>
        <g class="cls-3">
          <path class="cls-17" d="M1244.54,115.29c2,5-1.28,11-7.28,13.33s-12.45.23-14.42-4.76,1.28-11,7.28-13.33,12.44-.24,14.42,4.76" transform="translate(111.03 136.27)"/>
        </g>
        <g class="cls-3">
          <line class="cls-24" x1="1344.72" y1="255.84" x2="1365.77" y2="309.15"/>
        </g>
        <g class="cls-3">
          <path class="cls-17" d="M1206.8,139.37c4.93,2.14,6.85,8.66,4.28,14.57s-8.64,9-13.57,6.83-6.85-8.66-4.28-14.57,8.64-9,13.57-6.83" transform="translate(111.03 136.27)"/>
        </g>
        <g class="cls-3">
          <line class="cls-24" x1="1313.19" y1="286.34" x2="1365.77" y2="309.15"/>
        </g>
        <g class="cls-3">
          <path class="cls-17" d="M1197.15,183.09c5-2,11,1.28,13.33,7.28s.23,12.45-4.76,14.42-11-1.28-13.33-7.28-.24-12.45,4.76-14.42" transform="translate(111.03 136.27)"/>
        </g>
        <g class="cls-3">
          <line class="cls-24" x1="1312.46" y1="330.21" x2="1365.77" y2="309.15"/>
        </g>
        <g class="cls-3">
          <path class="cls-17" d="M1221.23,220.82c2.14-4.93,8.66-6.85,14.57-4.28s9,8.64,6.83,13.57-8.66,6.85-14.57,4.28-9-8.64-6.83-13.57" transform="translate(111.03 136.27)"/>
        </g>
        <g class="cls-3">
          <line class="cls-24" x1="1342.96" y1="361.74" x2="1365.77" y2="309.15"/>
        </g>
        <g class="cls-3">
          <path class="cls-17" d="M1265,230.48c-2-5,1.28-11,7.28-13.33s12.45-.23,14.42,4.76-1.28,11-7.28,13.33-12.45.23-14.42-4.76" transform="translate(111.03 136.27)"/>
        </g>
        <g class="cls-3">
          <line class="cls-24" x1="1386.83" y1="362.46" x2="1365.77" y2="309.15"/>
        </g>
        <g class="cls-3">
          <path class="cls-17" d="M1302.68,206.39c-4.93-2.14-6.85-8.66-4.28-14.57s8.64-9,13.57-6.83,6.85,8.66,4.28,14.57-8.64,9-13.57,6.83" transform="translate(111.03 136.27)"/>
        </g>
        <g class="cls-3">
          <line class="cls-24" x1="1418.35" y1="331.96" x2="1365.77" y2="309.15"/>
        </g>
        <g class="cls-3">
          <path class="cls-17" d="M1312.34,162.68c-5,2-11-1.28-13.33-7.27s-.23-12.45,4.76-14.42,11,1.28,13.33,7.28.23,12.43-4.76,14.41" transform="translate(111.03 136.27)"/>
        </g>
        <g class="cls-3">
          <line class="cls-24" x1="1419.08" y1="288.1" x2="1365.77" y2="309.15"/>
        </g>
        <g class="cls-3">
          <path class="cls-2" d="M1265,177.32a11.15,11.15,0,1,1-5.79-14.66,11.14,11.14,0,0,1,5.79,14.66" transform="translate(111.03 136.27)"/>
        </g>
        <g class="cls-3">
          <path class="cls-5" d="M1548.45,225.47a51.95,51.95,0,1,1-52-51.94A51.94,51.94,0,0,1,1548.45,225.47Z" transform="translate(111.03 136.27)"/>
        </g>
      </g>
      <rect class="cls-25" x="111.03" y="946.24" width="1920" height="270"/>
      <g>
        <g class="cls-26">
          <path class="cls-27" d="M570.47,968.6c69.25,0,125.39,7.94,125.39,17.73s-56.14,17.73-125.39,17.73-125.39-7.94-125.39-17.73,56.14-17.73,125.39-17.73" transform="translate(111.03 136.27)"/>
        </g>
        <g class="cls-26">
          <path class="cls-28" d="M570.47,967.81c21.51-.1,43,.49,64.52,2.17,10.73.88,21.45,2,32.11,3.79A153.37,153.37,0,0,1,683,977.16a56.19,56.19,0,0,1,7.79,2.71,19.93,19.93,0,0,1,3.75,2.14,8.67,8.67,0,0,1,1.71,1.67,4.47,4.47,0,0,1,1,2.64,4.56,4.56,0,0,1-.94,2.65,8.43,8.43,0,0,1-1.7,1.68,20,20,0,0,1-3.74,2.17,55.18,55.18,0,0,1-7.79,2.76A154.27,154.27,0,0,1,667.13,999c-10.66,1.8-21.38,3-32.12,3.92-21.47,1.82-43,2.55-64.55,2.59s-43.07-.76-64.55-2.58c-10.73-.93-21.46-2.12-32.12-3.93a156.35,156.35,0,0,1-15.89-3.46,56.08,56.08,0,0,1-7.79-2.76,20,20,0,0,1-3.74-2.17,8.43,8.43,0,0,1-1.7-1.68,4.56,4.56,0,0,1-.94-2.66,4.5,4.5,0,0,1,.95-2.65,8.41,8.41,0,0,1,1.71-1.67,19.93,19.93,0,0,1,3.75-2.14,55.8,55.8,0,0,1,7.79-2.71,159.37,159.37,0,0,1,15.89-3.39c10.66-1.76,21.38-2.91,32.11-3.79,21.5-1.66,43-2.25,64.54-2.15v1.57c-21.48.13-43,1-64.33,2.86-10.68,1-21.35,2.16-31.89,4a156.48,156.48,0,0,0-15.61,3.42,54.43,54.43,0,0,0-7.4,2.62,17.71,17.71,0,0,0-3.23,1.86c-.95.7-1.63,1.6-1.59,2.21s.65,1.5,1.6,2.19a16.91,16.91,0,0,0,3.24,1.83,53.54,53.54,0,0,0,7.41,2.57,156.9,156.9,0,0,0,15.61,3.36c10.54,1.76,21.21,2.93,31.89,3.83,21.37,1.77,42.84,2.45,64.3,2.45s42.93-.68,64.3-2.45c10.68-.9,21.35-2.07,31.89-3.83a156.26,156.26,0,0,0,15.61-3.35,53.54,53.54,0,0,0,7.41-2.57,17.49,17.49,0,0,0,3.24-1.84c1-.69,1.64-1.58,1.61-2.19s-.64-1.51-1.59-2.21a18.05,18.05,0,0,0-3.23-1.86,53.25,53.25,0,0,0-7.41-2.62,154.32,154.32,0,0,0-15.61-3.42c-10.54-1.81-21.21-3-31.89-4-21.37-1.91-42.85-2.73-64.33-2.86v-1.57Z" transform="translate(111.03 136.27)"/>
        </g>
        <g class="cls-26">
          <path class="cls-29" d="M570.47,979.58c29.85,0,54,3,54,6.75s-24.2,6.75-54,6.75-54.05-3-54.05-6.75,24.2-6.75,54.05-6.75" transform="translate(111.03 136.27)"/>
        </g>
        <g class="cls-26">
          <path class="cls-27" d="M1362.75,967.4c69.25,0,125.39,7.94,125.39,17.73s-56.14,17.73-125.39,17.73-125.4-7.94-125.4-17.73,56.15-17.73,125.4-17.73" transform="translate(111.03 136.27)"/>
        </g>
        <g class="cls-26">
          <path class="cls-28" d="M1362.75,966.61c21.51-.1,43,.49,64.52,2.18,10.73.88,21.45,2,32.11,3.79a153.37,153.37,0,0,1,15.89,3.39,56.19,56.19,0,0,1,7.79,2.71,19.93,19.93,0,0,1,3.75,2.14,8.67,8.67,0,0,1,1.71,1.67,4.47,4.47,0,0,1,1,2.65,4.56,4.56,0,0,1-.94,2.65,8.43,8.43,0,0,1-1.7,1.68,19.44,19.44,0,0,1-3.74,2.16,55.18,55.18,0,0,1-7.79,2.76,154.27,154.27,0,0,1-15.89,3.46c-10.66,1.81-21.38,3-32.12,3.92-21.48,1.82-43,2.55-64.55,2.59s-43.07-.76-64.55-2.58c-10.74-.93-21.46-2.12-32.12-3.93a159.06,159.06,0,0,1-15.89-3.45,56.08,56.08,0,0,1-7.79-2.76,20,20,0,0,1-3.74-2.17,8.43,8.43,0,0,1-1.7-1.68,4.19,4.19,0,0,1,0-5.3,8.1,8.1,0,0,1,1.71-1.66,19.93,19.93,0,0,1,3.75-2.14,57.12,57.12,0,0,1,7.79-2.71,159.37,159.37,0,0,1,15.89-3.39c10.66-1.76,21.38-2.91,32.11-3.79,21.49-1.7,43-2.29,64.54-2.19v1.57c-21.48.13-43,1-64.33,2.86-10.68,1-21.35,2.16-31.89,4a156.48,156.48,0,0,0-15.61,3.42,55.06,55.06,0,0,0-7.41,2.62,17.71,17.71,0,0,0-3.23,1.86c-1,.7-1.63,1.6-1.59,2.21s.65,1.5,1.61,2.19a16.61,16.61,0,0,0,3.24,1.83,53.54,53.54,0,0,0,7.41,2.57,156.9,156.9,0,0,0,15.61,3.36c10.54,1.76,21.21,2.93,31.89,3.83,21.37,1.77,42.84,2.45,64.3,2.45s42.93-.68,64.3-2.45c10.68-.9,21.35-2.07,31.89-3.83a156.26,156.26,0,0,0,15.61-3.35,53.54,53.54,0,0,0,7.41-2.57,17.49,17.49,0,0,0,3.24-1.84c1-.69,1.64-1.58,1.61-2.19s-.64-1.51-1.59-2.21a18.05,18.05,0,0,0-3.23-1.86,53.25,53.25,0,0,0-7.41-2.62A153.73,153.73,0,0,0,1459,975c-10.54-1.81-21.21-3-31.89-4-21.37-1.91-42.85-2.73-64.33-2.86v-1.57Z" transform="translate(111.03 136.27)"/>
        </g>
        <g class="cls-26">
          <path class="cls-29" d="M1362.75,978.38c29.85,0,54,3,54,6.75s-24.2,6.75-54,6.75-54.06-3-54.06-6.75,24.21-6.75,54.06-6.75" transform="translate(111.03 136.27)"/>
        </g>
        <g class="cls-26">
          <path class="cls-27" d="M840.45,985.8c44.45,0,80.49,6.84,80.49,15.29s-36,15.29-80.49,15.29S760,1009.54,760,1001.09s36-15.29,80.49-15.29" transform="translate(111.03 136.27)"/>
        </g>
        <g class="cls-26">
          <path class="cls-28" d="M840.45,985a373.65,373.65,0,0,1,42.16,1.91,188.89,188.89,0,0,1,20.91,3.4,73.46,73.46,0,0,1,10.26,3.07,25.75,25.75,0,0,1,4.93,2.51,11.11,11.11,0,0,1,2.26,2,4.7,4.7,0,0,1,0,6.47,10.88,10.88,0,0,1-2.25,2,26.24,26.24,0,0,1-4.92,2.56,71.69,71.69,0,0,1-10.26,3.14,189.38,189.38,0,0,1-20.91,3.54,385,385,0,0,1-84.4,0,186.28,186.28,0,0,1-20.91-3.54,73.8,73.8,0,0,1-10.26-3.14,26,26,0,0,1-4.93-2.56,11,11,0,0,1-2.25-2,4.7,4.7,0,0,1,0-6.47,11.11,11.11,0,0,1,2.26-2,26.11,26.11,0,0,1,4.94-2.51,73.46,73.46,0,0,1,10.26-3.07,186.57,186.57,0,0,1,20.91-3.4,371.11,371.11,0,0,1,42.16-1.9v1.57a370.92,370.92,0,0,0-41.9,2.59,187,187,0,0,0-20.6,3.55,71,71,0,0,0-9.87,3,24.88,24.88,0,0,0-4.42,2.28,8.86,8.86,0,0,0-1.7,1.48,2.81,2.81,0,0,0-.67,1.55,2.88,2.88,0,0,0,.69,1.53,8.91,8.91,0,0,0,1.71,1.46,24.07,24.07,0,0,0,4.42,2.23,72.18,72.18,0,0,0,9.87,3,189.47,189.47,0,0,0,20.6,3.42,372.6,372.6,0,0,0,41.86,2.18,367.7,367.7,0,0,0,41.86-2.18,184.73,184.73,0,0,0,20.6-3.42,73.58,73.58,0,0,0,9.87-3,23.85,23.85,0,0,0,4.43-2.23,8.26,8.26,0,0,0,1.71-1.46,2.88,2.88,0,0,0,.69-1.53,2.81,2.81,0,0,0-.67-1.55,8.86,8.86,0,0,0-1.7-1.48,23,23,0,0,0-4.42-2.28,72,72,0,0,0-9.87-3,187.4,187.4,0,0,0-20.6-3.55,370.92,370.92,0,0,0-41.9-2.59V985Z" transform="translate(111.03 136.27)"/>
        </g>
        <g class="cls-26">
          <path class="cls-29" d="M840.45,995.27c19.16,0,34.7,2.6,34.7,5.82s-15.53,5.82-34.7,5.82-34.7-2.61-34.7-5.82,15.53-5.82,34.7-5.82" transform="translate(111.03 136.27)"/>
        </g>
        <g class="cls-26">
          <path class="cls-27" d="M1094.1,983.58c44.45,0,80.49,6.85,80.49,15.29s-36,15.29-80.49,15.29-80.49-6.84-80.49-15.29,36-15.29,80.49-15.29" transform="translate(111.03 136.27)"/>
        </g>
        <g class="cls-26">
          <path class="cls-28" d="M1094.1,982.79a373.65,373.65,0,0,1,42.16,1.91,188.89,188.89,0,0,1,20.91,3.4,73.06,73.06,0,0,1,10.26,3.07,25.75,25.75,0,0,1,4.93,2.51,11.11,11.11,0,0,1,2.26,2,4.69,4.69,0,0,1,0,6.46,10.88,10.88,0,0,1-2.25,2,25.67,25.67,0,0,1-4.93,2.55,71.69,71.69,0,0,1-10.26,3.14,191.76,191.76,0,0,1-20.91,3.54,385,385,0,0,1-84.4,0,186.28,186.28,0,0,1-20.91-3.54,72.08,72.08,0,0,1-10.26-3.14,26,26,0,0,1-4.93-2.56,11.24,11.24,0,0,1-2.25-2,4.7,4.7,0,0,1,0-6.47,11.11,11.11,0,0,1,2.26-2,26.11,26.11,0,0,1,4.94-2.51,73.46,73.46,0,0,1,10.26-3.07,186.57,186.57,0,0,1,20.91-3.4,380.86,380.86,0,0,1,42.17-1.88v1.57a370.92,370.92,0,0,0-41.9,2.59,187,187,0,0,0-20.6,3.55,71,71,0,0,0-9.87,3,23.23,23.23,0,0,0-4.41,2.28,8.86,8.86,0,0,0-1.7,1.48,2.81,2.81,0,0,0-.67,1.55,2.88,2.88,0,0,0,.69,1.53,8.54,8.54,0,0,0,1.71,1.45,24.07,24.07,0,0,0,4.42,2.23,72.18,72.18,0,0,0,9.87,3,187.07,187.07,0,0,0,20.6,3.42,403.91,403.91,0,0,0,83.72,0,184.73,184.73,0,0,0,20.6-3.42,73.58,73.58,0,0,0,9.87-3,23.85,23.85,0,0,0,4.43-2.23,8.26,8.26,0,0,0,1.71-1.46,2.88,2.88,0,0,0,.69-1.53,2.84,2.84,0,0,0-.67-1.55,8.86,8.86,0,0,0-1.7-1.48,23,23,0,0,0-4.42-2.28,72.4,72.4,0,0,0-9.87-3A187.4,187.4,0,0,0,1136,987a370.92,370.92,0,0,0-41.9-2.59v-1.58Z" transform="translate(111.03 136.27)"/>
        </g>
        <g class="cls-26">
          <path class="cls-29" d="M1094.1,993.05c19.16,0,34.7,2.6,34.7,5.82s-15.53,5.82-34.7,5.82-34.7-2.61-34.7-5.82,15.53-5.82,34.7-5.82" transform="translate(111.03 136.27)"/>
        </g>
      </g>
      <g>
        <g class="cls-26">
          <path class="cls-30" d="M1217.58,808c-2.94,8.11,7.44,19.31,23.19,25s30.89,3.75,33.83-4.36-7.45-19.31-23.19-25-30.89-3.75-33.83,4.36" transform="translate(111.03 136.27)"/>
        </g>
        <g class="cls-26">
          <path class="cls-31" d="M1403.54,875.73H1268.89l15.7,69.62a27.45,27.45,0,0,0,53.59-.13l6.07-27.57H1388l6.07,27.57a27.45,27.45,0,0,0,53.59.13l15.7-69.62Z" transform="translate(111.03 136.27)"/>
        </g>
        <g class="cls-26">
          <path class="cls-32" d="M1282.34,854.18c-2-13.69-21.37-46,9.89-67.13A17,17,0,0,0,1273,758.9c-37.72,26.79-81.34,55.41-28,115.6" transform="translate(111.03 136.27)"/>
        </g>
        <g class="cls-26">
          <path class="cls-32" d="M1474.66,869c0-13.84,1.49-64.37-32.5-80.72a17,17,0,1,1,14.92-30.64c47,23.45,76.38,62.21,76.38,111.36" transform="translate(111.03 136.27)"/>
        </g>
        <g class="cls-26">
          <path class="cls-33" d="M1465.06,832.06c0-13.84-7.54-37.36-22.9-43.77-8.68-3.62-12-14.32-7.86-22.78s13.41-10.73,18.7-9.26c43.09,12,66,41.88,66,41.88s-21.47,25-54,33.93" transform="translate(111.03 136.27)"/>
        </g>
        <g class="cls-26">
          <path class="cls-33" d="M1275.93,833.68c-2-13.69,2-38.06,16.3-46.63,8.07-4.85,9.78-15.91,4.47-23.68s-14.83-8.67-19.85-6.44c-40.88,18.15-59.28,51-59.28,51,8.89-9.78,47.32-11.24,58.36,25.72" transform="translate(111.03 136.27)"/>
        </g>
        <g class="cls-26">
          <path class="cls-34" d="M1475,855.18c0-66-48.75-119.58-108.88-119.58s-108.88,53.54-108.88,119.58a130.93,130.93,0,0,0,3.48,30.09h210.79a130.38,130.38,0,0,0,3.49-30.09" transform="translate(111.03 136.27)"/>
        </g>
      </g>
      <g class="cls-35">
        <path class="cls-36" d="M1433.1,864.31c0-71.08-30-128.71-67-128.71s-67,57.63-67,128.71a243.44,243.44,0,0,0,2.14,32.38H1431A240.21,240.21,0,0,0,1433.1,864.31Z" transform="translate(111.03 136.27)"/>
      </g>
      <g>
        <g class="cls-26">
          <path class="cls-37" d="M1366.13,800.52l50.24-59.27a91.6,91.6,0,0,1,36.81,29.61l-31.48,21.51-19.08-11-4.76,19.16Z" transform="translate(111.03 136.27)"/>
        </g>
        <g class="cls-26">
          <path class="cls-38" d="M1453.18,770.86c-2.44,2.06-4.93,4-7.43,6l-3.76,2.94-3.8,2.89c-2.52,1.94-5.09,3.81-7.65,5.7s-5.14,3.73-7.73,5.59l-1,.69-1.13-.61c-3.23-1.75-6.43-3.54-9.63-5.35s-6.38-3.64-9.54-5.49l3.17-1.35-1.23,4.78c-.42,1.59-.82,3.19-1.26,4.77l-2.59,9.53-.39,1.44-1.39,0-7.93-.29c-2.65-.09-5.29-.25-7.93-.38s-5.29-.33-7.93-.49-5.29-.4-7.93-.68c2.65-.28,5.29-.47,7.93-.68s5.29-.36,7.93-.49,5.29-.29,7.93-.38l7.93-.29-1.78,1.39,2.17-9.63c.35-1.61.75-3.2,1.12-4.81l1.16-4.8.67-2.77,2.51,1.42c3.19,1.81,6.36,3.66,9.53,5.51s6.32,3.74,9.45,5.66l-2.1.08c2.66-1.73,5.31-3.49,8-5.17s5.36-3.41,8.09-5.06l4.07-2.49,4.11-2.44c2.75-1.59,5.51-3.18,8.32-4.71" transform="translate(111.03 136.27)"/>
        </g>
        <g class="cls-26">
          <path class="cls-37" d="M1366.13,800.52l-50.24-59.27a91.6,91.6,0,0,0-36.81,29.61l31.48,21.51,19.08-11,4.77,19.16Z" transform="translate(111.03 136.27)"/>
        </g>
        <g class="cls-26">
          <path class="cls-38" d="M1279.07,770.86c2.8,1.53,5.56,3.12,8.31,4.73l4.11,2.44,4.07,2.49c2.73,1.65,5.4,3.36,8.09,5.06s5.35,3.43,8,5.17l-2.1-.08c3.13-1.92,6.29-3.79,9.45-5.66s6.34-3.7,9.53-5.51l2.5-1.42.67,2.77,1.16,4.8c.37,1.6.77,3.2,1.12,4.81l2.17,9.63-1.78-1.39,7.93.29c2.64.09,5.29.25,7.93.38s5.29.33,7.93.49,5.29.4,7.93.68c-2.65.28-5.29.47-7.93.68s-5.29.36-7.93.49-5.29.29-7.93.38l-7.93.29-1.39,0-.39-1.44-2.59-9.53c-.44-1.59-.84-3.18-1.26-4.77l-1.23-4.78,3.17,1.35c-3.17,1.85-6.36,3.67-9.54,5.49s-6.4,3.6-9.63,5.35l-1.13.61-1-.69c-2.58-1.85-5.18-3.68-7.73-5.59s-5.13-3.76-7.65-5.7l-3.8-2.89-3.76-2.94c-2.48-2-5-4-7.41-6" transform="translate(111.03 136.27)"/>
        </g>
        <g class="cls-26">
          <polygon class="cls-39" points="1426.91 877.52 1477.16 936.79 1527.4 877.52 1426.91 877.52"/>
        </g>
        <g class="cls-26">
          <path class="cls-40" d="M1453.25,661.88c4.18,15.8,19.14,25.55,33.42,21.78s22.48-19.64,18.3-35.45-19.14-25.55-33.42-21.78S1449.08,646.07,1453.25,661.88Z" transform="translate(111.03 136.27)"/>
        </g>
        <g class="cls-26">
          <path class="cls-40" d="M1452.83,638.52c3.81,14.44,16.83,23.52,29.08,20.28s19.08-17.56,15.26-32-16.83-23.52-29.07-20.28S1449,624.08,1452.83,638.52Z" transform="translate(111.03 136.27)"/>
        </g>
        <g class="cls-26">
          <path class="cls-40" d="M1279,661.88c-4.18,15.8-19.14,25.55-33.42,21.78s-22.48-19.64-18.3-35.45,19.14-25.55,33.42-21.78S1283.17,646.07,1279,661.88Z" transform="translate(111.03 136.27)"/>
        </g>
        <g class="cls-26">
          <path class="cls-40" d="M1279.42,638.52c-3.82,14.44-16.83,23.52-29.08,20.28s-19.07-17.56-15.26-32,16.83-23.52,29.08-20.28S1283.23,624.08,1279.42,638.52Z" transform="translate(111.03 136.27)"/>
        </g>
        <g class="cls-26">
          <path class="cls-39" d="M1279.07,684.84a25.93,25.93,0,1,1-25.93-25.93,25.93,25.93,0,0,1,25.93,25.93" transform="translate(111.03 136.27)"/>
        </g>
        <g class="cls-26">
          <path class="cls-39" d="M1453.18,684.84a25.93,25.93,0,1,0,25.93-25.93,25.93,25.93,0,0,0-25.93,25.93" transform="translate(111.03 136.27)"/>
        </g>
        <g class="cls-26">
          <path class="cls-32" d="M1483.86,656.43c0,63.2-52.71,114.43-117.74,114.43s-117.74-51.24-117.74-114.43S1301.09,542,1366.12,542s117.74,51.23,117.74,114.43" transform="translate(111.03 136.27)"/>
        </g>
        <g class="cls-26">
          <path class="cls-41" d="M1480.31,684.43a110.15,110.15,0,0,1-15.1,35.34,115.23,115.23,0,0,1-26.33,28.3,118.49,118.49,0,0,1-34.23,18.23,121.09,121.09,0,0,1-76.68.12,118.27,118.27,0,0,1-34.29-18.12,115.44,115.44,0,0,1-26.42-28.22A110.07,110.07,0,0,1,1252,684.79a116.68,116.68,0,0,0,43.26,61.34,120.61,120.61,0,0,0,142-.21,116.6,116.6,0,0,0,43.06-61.49" transform="translate(111.03 136.27)"/>
        </g>
        <g class="cls-26">
          <path class="cls-42" d="M1397.42,675.5c-10.83-7-24.48-5.37-31.29,3.51-6.81-8.89-20.46-10.54-31.29-3.51-19.87,12.9-24.28,41.38-24.28,41.38s27.81,7.56,47.68-5.34a27,27,0,0,0,7.89-7.8,27,27,0,0,0,7.89,7.8c19.87,12.9,47.68,5.34,47.68,5.34s-4.41-28.48-24.28-41.38" transform="translate(111.03 136.27)"/>
        </g>
        <g class="cls-26">
          <path d="M1334.39,651.9c0,6.19-4.14,11.21-9.26,11.21s-9.26-5-9.26-11.21,4.14-11.21,9.26-11.21,9.26,5,9.26,11.21" transform="translate(111.03 136.27)"/>
        </g>
        <g class="cls-26">
          <path class="cls-43" d="M1304.69,684.84c0,10-8.4,18.09-18.75,18.09s-18.75-8.1-18.75-18.09,8.39-18.09,18.75-18.09,18.75,8.09,18.75,18.09" transform="translate(111.03 136.27)"/>
        </g>
        <g class="cls-26">
          <path class="cls-43" d="M1427.56,684.84c0,10,8.39,18.09,18.75,18.09s18.75-8.1,18.75-18.09-8.4-18.09-18.75-18.09-18.75,8.09-18.75,18.09" transform="translate(111.03 136.27)"/>
        </g>
        <g class="cls-26">
          <path d="M1397.86,651.9c0,6.19,4.14,11.21,9.25,11.21s9.26-5,9.26-11.21-4.14-11.21-9.26-11.21-9.25,5-9.25,11.21" transform="translate(111.03 136.27)"/>
        </g>
        <g class="cls-26">
          <path class="cls-44" d="M1422.07,616.55c12.83,8.14,26.61,9.42,30.77,2.86s-2.88-18.47-15.71-26.61-26.61-9.42-30.77-2.86,2.87,18.47,15.71,26.61" transform="translate(111.03 136.27)"/>
        </g>
        <g class="cls-26">
          <path class="cls-44" d="M1310.18,616.55c-12.83,8.14-26.61,9.42-30.77,2.86s2.87-18.47,15.71-26.61,26.61-9.42,30.77-2.86-2.87,18.47-15.71,26.61" transform="translate(111.03 136.27)"/>
        </g>
        <g class="cls-26">
          <path class="cls-42" d="M1321.41,549.72c13.16,27.26,66.09,32,79.63-2,5.42-13.61-1.59-30.57-17.45-32.76,0,0,6.34,15.37-1.22,17.57s-33.18-26.11-61,17.14" transform="translate(111.03 136.27)"/>
        </g>
        <g class="cls-26">
          <path class="cls-45" d="M1242.61,966.77h-.76a6.24,6.24,0,0,1-6.22-6.22V850.77a6.24,6.24,0,0,1,6.22-6.22h.76a6.24,6.24,0,0,1,6.22,6.22V960.55a6.24,6.24,0,0,1-6.22,6.22" transform="translate(111.03 136.27)"/>
        </g>
        <g class="cls-26">
          <path class="cls-32" d="M1217.51,824.24c-1.71,13.13,8.61,25.3,23,27.18s27.53-7.24,29.24-20.37-8.61-25.3-23-27.18-27.53,7.24-29.24,20.37" transform="translate(111.03 136.27)"/>
        </g>
        <g class="cls-26">
          <path class="cls-32" d="M1209.46,845.92c0,15.79,14.25,28.58,31.83,28.58s31.83-12.8,31.83-28.58-14.25-28.58-31.83-28.58-31.83,12.79-31.83,28.58" transform="translate(111.03 136.27)"/>
        </g>
        <g class="cls-26">
          <path class="cls-46" d="M1273.12,845.92a27.69,27.69,0,0,0-3.44-11.08,29.43,29.43,0,0,0-7.39-8.61,34.57,34.57,0,0,0-32.09-5.34,32.59,32.59,0,0,0-9.91,5.34,29.45,29.45,0,0,0-7.39,8.61,28,28,0,0,0-3.45,11.08,24.47,24.47,0,0,1,1.91-11.83,28.66,28.66,0,0,1,7.16-9.93,32.71,32.71,0,0,1,10.57-6.38,35.1,35.1,0,0,1,24.38,0,32.81,32.81,0,0,1,10.57,6.38,28.63,28.63,0,0,1,7.16,9.92,24.47,24.47,0,0,1,1.92,11.83" transform="translate(111.03 136.27)"/>
        </g>
        <g class="cls-26">
          <path class="cls-47" d="M1167.47,550.46c3.5,8.73-3.58,19.79-15.81,24.69s-34,4.21-49,3.25c10.7-19.46,24-30,36.27-34.88S1164,541.72,1167.47,550.46Z" transform="translate(111.03 136.27)"/>
        </g>
        <g class="cls-26">
          <path class="cls-47" d="M1038,550.46c-3.5,8.73,3.58,19.79,15.81,24.69s34,4.21,49,3.25c-10.71-19.46-24-30-36.27-34.88S1041.47,541.72,1038,550.46Z" transform="translate(111.03 136.27)"/>
        </g>
        <g class="cls-26">
          <path class="cls-32" d="M1176.93,819.13l-25.58-31.86h0l-.31-.39a15.19,15.19,0,0,0-22.86,20c.11.13.23.23.34.35h0l28.11,29.45.09.12a13.44,13.44,0,0,0,20.23-17.71" transform="translate(111.03 136.27)"/>
        </g>
        <g class="cls-26">
          <path class="cls-48" d="M1151,786.89s-5.83,4.48-12.15,10-10.72,10-10.72,10a15.2,15.2,0,0,1,22.87-20" transform="translate(111.03 136.27)"/>
        </g>
        <g class="cls-26">
          <path class="cls-32" d="M1075.79,785.54a15.15,15.15,0,0,0-21.38,1.35l-.31.39h0l-25.58,31.86a13.45,13.45,0,0,0,20.23,17.72l.09-.12,28.11-29.45h0l.34-.35a15.16,15.16,0,0,0-1.48-21.38" transform="translate(111.03 136.27)"/>
        </g>
        <g class="cls-26">
          <path class="cls-48" d="M1054.41,786.89s5.83,4.48,12.15,10,10.72,10,10.72,10a15.2,15.2,0,0,0-22.87-20" transform="translate(111.03 136.27)"/>
        </g>
        <g class="cls-26">
          <path class="cls-32" d="M1101.51,855.6l-18.31,45.23a13.85,13.85,0,0,1-26.56-7.07l6.64-48.64Z" transform="translate(111.03 136.27)"/>
        </g>
        <g class="cls-26">
          <path class="cls-32" d="M1103.93,855.6l18.31,45.23a13.85,13.85,0,0,0,26.56-7.07l-6.64-48.64Z" transform="translate(111.03 136.27)"/>
        </g>
        <g class="cls-26">
          <path class="cls-49" d="M1132.9,775.56l17,78.76s-18.12,7-47.19,7-47.19-7-47.19-7l17-78.76" transform="translate(111.03 136.27)"/>
        </g>
        <g class="cls-26">
          <path class="cls-50" d="M1212.29,675.63c0,56.9-49.06,103-109.57,103s-109.57-46.13-109.57-103,49.05-103,109.57-103,109.57,46.13,109.57,103" transform="translate(111.03 136.27)"/>
        </g>
        <g class="cls-26">
          <path class="cls-39" d="M985.39,711a21,21,0,1,0,21-21,21,21,0,0,0-21,21" transform="translate(111.03 136.27)"/>
        </g>
        <g class="cls-26">
          <path class="cls-39" d="M1220.06,711a21,21,0,1,1-21-21,21,21,0,0,1,21,21" transform="translate(111.03 136.27)"/>
        </g>
        <g class="cls-26">
          <path class="cls-50" d="M1226.72,614.56c-13.86,9.42-32.09,6.78-40.71-5.91s-4.38-30.61,9.48-40,53.42-15.8,71.92,32.14c-16.78-3.07-26.83,4.38-40.69,13.8" transform="translate(111.03 136.27)"/>
        </g>
        <g class="cls-26">
          <path class="cls-48" d="M1123.29,780c0,12.71-9.21,23-20.57,23s-20.57-10.3-20.57-23,9.21-23,20.57-23,20.57,10.31,20.57,23" transform="translate(111.03 136.27)"/>
        </g>
        <g class="cls-26">
          <path class="cls-50" d="M978.72,614.56c13.86,9.42,32.09,6.78,40.71-5.91s4.38-30.61-9.48-40-53.42-15.8-71.92,32.14c16.78-3.07,26.83,4.38,40.69,13.8" transform="translate(111.03 136.27)"/>
        </g>
        <g class="cls-26">
          <path class="cls-32" d="M1203.77,684c0,55.54-45.24,100.57-101,100.57s-101-45-101-100.57,45.24-100.57,101-100.57,101,45,101,100.57" transform="translate(111.03 136.27)"/>
        </g>
        <g class="cls-26">
          <path class="cls-41" d="M1200.06,711.05a97.51,97.51,0,0,1-13.11,30,100.59,100.59,0,0,1-51.54,39.82,101.65,101.65,0,0,1-65.38,0,100.59,100.59,0,0,1-51.54-39.82,97.51,97.51,0,0,1-13.11-30,103.16,103.16,0,0,0,37.15,52,101.59,101.59,0,0,0,120.38,0,103.1,103.1,0,0,0,37.15-52" transform="translate(111.03 136.27)"/>
        </g>
        <g class="cls-26">
          <path d="M1148.53,688.52c0,7.52-4.27,13.61-9.54,13.61s-9.54-6.09-9.54-13.61,4.27-13.61,9.54-13.61,9.54,6.09,9.54,13.61" transform="translate(111.03 136.27)"/>
        </g>
        <g class="cls-26">
          <path d="M1056.91,688.52c0,7.52,4.27,13.61,9.54,13.61S1076,696,1076,688.52s-4.27-13.61-9.54-13.61-9.54,6.09-9.54,13.61" transform="translate(111.03 136.27)"/>
        </g>
        <g class="cls-26">
          <path class="cls-43" d="M1024.57,715c0,7.18,6.47,13,14.44,13s14.45-5.82,14.45-13S1047,702,1039,702s-14.44,5.83-14.44,13" transform="translate(111.03 136.27)"/>
        </g>
        <g class="cls-26">
          <path class="cls-43" d="M1180.87,715c0,7.18-6.47,13-14.45,13S1152,722.17,1152,715s6.47-13,14.45-13,14.45,5.83,14.45,13" transform="translate(111.03 136.27)"/>
        </g>
        <g class="cls-26">
          <path d="M1084.78,715.73a20.1,20.1,0,0,0,6.81,10.25,17.14,17.14,0,0,0,22.26,0,20.17,20.17,0,0,0,6.81-10.24v0a1.14,1.14,0,0,1,2.24.37,19.8,19.8,0,0,1-6.51,12.85,21.17,21.17,0,0,1-6.27,4,19.23,19.23,0,0,1-14.82,0,21,21,0,0,1-6.27-4,19.8,19.8,0,0,1-6.51-12.84,1.14,1.14,0,0,1,2.24-.38Z" transform="translate(111.03 136.27)"/>
        </g>
        <g class="cls-26">
          <path class="cls-50" d="M1102.72,623a66.28,66.28,0,0,0,101.13,13c-16.53-37.2-55.58-63.34-101.13-63.34s-84.6,26.15-101.13,63.34a66.28,66.28,0,0,0,101.13-13" transform="translate(111.03 136.27)"/>
        </g>
        <g class="cls-26">
          <path class="cls-51" d="M1135.38,637.86a17.7,17.7,0,0,1,9.4-.28,19.78,19.78,0,0,1,8.61,4.52,20.42,20.42,0,0,1,5.48,7.95,18.14,18.14,0,0,1,1.07,9.3,1.86,1.86,0,0,1-2.14,1.54,1.89,1.89,0,0,1-1.47-1.24l0-.07a34.16,34.16,0,0,0-3.09-6.86,24.18,24.18,0,0,0-4.47-5.44,21.57,21.57,0,0,0-5.85-3.75,30.78,30.78,0,0,0-7.19-2l-.09,0a1.87,1.87,0,0,1-.24-3.62" transform="translate(111.03 136.27)"/>
        </g>
        <g class="cls-26">
          <path class="cls-51" d="M1069.73,641.48a30.78,30.78,0,0,0-7.19,2,21.42,21.42,0,0,0-5.85,3.75,24.18,24.18,0,0,0-4.47,5.44,34.42,34.42,0,0,0-3.09,6.86l0,.07a1.85,1.85,0,0,1-2.37,1.16,1.88,1.88,0,0,1-1.24-1.47,18.14,18.14,0,0,1,1.07-9.3,20.52,20.52,0,0,1,5.48-7.95,19.88,19.88,0,0,1,8.61-4.52,17.9,17.9,0,0,1,9.4.28,1.87,1.87,0,0,1-.24,3.61Z" transform="translate(111.03 136.27)"/>
        </g>
        <g class="cls-26">
          <path class="cls-39" d="M692.46,639.19a25.93,25.93,0,1,1-25.93-25.93,25.93,25.93,0,0,1,25.93,25.93" transform="translate(111.03 136.27)"/>
        </g>
        <g class="cls-26">
          <path class="cls-39" d="M428.15,639.19a25.93,25.93,0,1,0,25.93-25.93,25.93,25.93,0,0,0-25.93,25.93" transform="translate(111.03 136.27)"/>
        </g>
        <g class="cls-26">
          <path class="cls-52" d="M469.23,865.54l16.22,82.61a24.27,24.27,0,0,0,47.64,0l8.1-41.25h38.23l8.1,41.25a24.27,24.27,0,0,0,47.64,0l16.22-82.61Z" transform="translate(111.03 136.27)"/>
        </g>
        <g class="cls-26">
          <path class="cls-32" d="M644.3,713.77h0a29.89,29.89,0,0,1,38.57,17.3L721,831.25a29.89,29.89,0,1,1-55.87,21.27L627,752.34a29.89,29.89,0,0,1,17.3-38.57" transform="translate(111.03 136.27)"/>
        </g>
        <g class="cls-26">
          <path class="cls-33" d="M714.37,785l-28.45-55.29a33.44,33.44,0,0,0-41.62-16h0a33.43,33.43,0,0,0-20.48,39.59l15.52,60.21c1.09,2.85,18.76-1.23,39.48-9.11s36.63-16.6,35.55-19.45" transform="translate(111.03 136.27)"/>
        </g>
        <g class="cls-26">
          <path class="cls-32" d="M476.31,713.77h0a29.9,29.9,0,0,0-38.58,17.3L399.6,831.26a29.9,29.9,0,0,0,55.88,21.27l38.14-100.18a29.91,29.91,0,0,0-17.31-38.58" transform="translate(111.03 136.27)"/>
        </g>
        <g class="cls-26">
          <path class="cls-33" d="M476.31,713.77h0a33.43,33.43,0,0,0-41.62,16L406.24,785c-1.09,2.85,14.83,11.56,35.55,19.45s38.4,12,39.48,9.11l15.52-60.21a33.43,33.43,0,0,0-20.48-39.59" transform="translate(111.03 136.27)"/>
        </g>
        <g class="cls-26">
          <path class="cls-34" d="M645.75,700l13.68,171.88s-48.2,8.42-98.46,8.42-98.46-8.42-98.46-8.42L476.19,700Z" transform="translate(111.03 136.27)"/>
        </g>
        <g class="cls-26">
          <line class="cls-36" x1="722.9" y1="869.34" x2="727.08" y2="1013.71"/>
        </g>
        <g class="cls-26">
          <line class="cls-36" x1="619.77" y1="869.34" x2="615.59" y2="1013.71"/>
        </g>
        <g class="cls-26">
          <polygon class="cls-39" points="721.74 842.71 671.34 909.46 620.93 842.71 721.74 842.71"/>
        </g>
        <g class="cls-26">
          <polygon class="cls-37" points="756.78 836.25 767.69 856.63 731.52 893.09 711.43 880.38 703.19 904.64 671.34 909.46 726.62 836.25 756.78 836.25"/>
        </g>
        <g class="cls-26">
          <path class="cls-38" d="M656.66,720.36q-4.08,5-8.31,9.84c-2.8,3.25-5.68,6.42-8.54,9.61-5.75,6.36-11.62,12.59-17.55,18.76L620.89,760l-1.74-1.07c-3.37-2.08-6.75-4.16-10.1-6.27s-6.69-4.24-10-6.38l3.81-1.35q-2.12,6-4.3,12.07t-4.47,12l-.46,1.22-1.14.13c-2.67.29-5.34.61-8,.86l-8,.79c-2.68.22-5.36.48-8,.67s-5.37.39-8.07.51c2.61-.68,5.23-1.3,7.86-1.9s5.26-1.16,7.88-1.74l7.9-1.62c2.63-.55,5.27-1,7.91-1.55l-1.61,1.34q1.85-6.13,3.77-12.25t3.94-12.19l1-3.1,2.79,1.75c3.36,2.11,6.72,4.2,10.06,6.34s6.67,4.28,10,6.44l-3.11.35q9.19-9,18.63-17.7c3.17-2.88,6.32-5.79,9.55-8.61s6.48-5.64,9.79-8.38" transform="translate(111.03 136.27)"/>
        </g>
        <g class="cls-26">
          <polygon class="cls-37" points="585.89 836.25 574.98 856.63 611.15 893.09 631.24 880.38 639.48 904.64 671.34 909.46 616.05 836.25 585.89 836.25"/>
        </g>
        <g class="cls-26">
          <path class="cls-38" d="M464,720.36c3.31,2.74,6.58,5.53,9.77,8.39s6.37,5.73,9.55,8.61q9.47,8.7,18.62,17.7l-3.11-.35c3.33-2.16,6.65-4.32,10-6.44s6.7-4.23,10.06-6.34l2.79-1.75,1,3.1q2,6.09,3.94,12.19t3.77,12.25l-1.61-1.34c2.64.51,5.28,1,7.91,1.55l7.9,1.62c2.63.58,5.26,1.13,7.88,1.74s5.25,1.22,7.86,1.9c-2.7-.12-5.38-.31-8.07-.51s-5.36-.45-8-.67l-8-.79c-2.68-.25-5.34-.57-8-.86l-1.15-.13-.46-1.22q-2.28-6-4.47-12t-4.3-12.07l3.81,1.35c-3.34,2.13-6.67,4.28-10,6.38s-6.73,4.19-10.1,6.27L499.69,760l-1.37-1.42q-8.9-9.26-17.55-18.76c-2.86-3.2-5.74-6.36-8.54-9.61s-5.57-6.51-8.28-9.85" transform="translate(111.03 136.27)"/>
        </g>
        <g class="cls-26">
          <path class="cls-50" d="M454.08,650.33s-25.93-48.68-25.93-120.13c20.5-45.94,66.08-90.15,132.15-90.15S672,484.26,692.45,530.2c0,71.45-25.93,120.13-25.93,120.13" transform="translate(111.03 136.27)"/>
        </g>
        <g class="cls-26">
          <path class="cls-32" d="M560.31,480.44a107.62,107.62,0,0,1,108.2,108.2c0,59.76-.76,107.51-.76,107.51,0,8.07-39.29,20.41-107.44,20.41s-107.44-12.34-107.44-20.41c0,0-.76-47.75-.76-107.51a107.62,107.62,0,0,1,108.2-108.2" transform="translate(111.03 136.27)"/>
        </g>
        <g class="cls-26">
          <path class="cls-41" d="M667.75,696.15a4.63,4.63,0,0,1-1.48,3.14,16,16,0,0,1-2.73,2.28,41.69,41.69,0,0,1-6.24,3.36A103.66,103.66,0,0,1,644,709.64a218.44,218.44,0,0,1-27.58,5.72c-9.28,1.41-18.64,2.26-28,2.91s-18.73.83-28.11.89-18.75-.29-28.11-.88-18.71-1.5-28-2.91a218.08,218.08,0,0,1-27.58-5.72,103.66,103.66,0,0,1-13.31-4.71,42.68,42.68,0,0,1-6.24-3.37,16.52,16.52,0,0,1-2.73-2.28,4.59,4.59,0,0,1-1.48-3.14,4.46,4.46,0,0,0,1.76,2.86,15.24,15.24,0,0,0,2.86,1.89,41.39,41.39,0,0,0,6.36,2.69,112,112,0,0,0,13.4,3.57c4.53,1,9.09,1.76,13.68,2.43s9.18,1.27,13.8,1.74c9.23.92,18.48,1.65,27.75,2s18.55.64,27.84.6,18.57-.17,27.84-.59,18.52-1.09,27.75-2a273.12,273.12,0,0,0,27.48-4.17,112.09,112.09,0,0,0,13.4-3.58,42.9,42.9,0,0,0,6.36-2.7A15.28,15.28,0,0,0,666,699a4.45,4.45,0,0,0,1.74-2.84" transform="translate(111.03 136.27)"/>
        </g>
        <g class="cls-26">
          <path class="cls-53" d="M611.27,609.3c0,6.55-4.25,11.86-9.49,11.86s-9.49-5.31-9.49-11.86,4.25-11.86,9.49-11.86,9.49,5.31,9.49,11.86" transform="translate(111.03 136.27)"/>
        </g>
        <g class="cls-26">
          <path class="cls-53" d="M509.34,609.3c0,6.55,4.25,11.86,9.49,11.86s9.49-5.31,9.49-11.86-4.25-11.86-9.49-11.86-9.49,5.31-9.49,11.86" transform="translate(111.03 136.27)"/>
        </g>
        <g class="cls-26">
          <path class="cls-43" d="M638.83,639.3c0,4.14-6.71,7.5-15,7.5s-15-3.36-15-7.5,6.72-7.5,15-7.5,15,3.36,15,7.5" transform="translate(111.03 136.27)"/>
        </g>
        <g class="cls-26">
          <path class="cls-43" d="M481.78,639.3c0,4.14,6.71,7.5,15,7.5s15-3.36,15-7.5-6.71-7.5-15-7.5-15,3.36-15,7.5" transform="translate(111.03 136.27)"/>
        </g>
        <g class="cls-26">
          <path class="cls-50" d="M640.21,552.16c-2.78,6.1-14.07,6.94-25.21,1.87s-17.92-14.14-15.14-20.24,14.07-6.94,25.21-1.87,17.92,14.14,15.14,20.24" transform="translate(111.03 136.27)"/>
        </g>
        <g class="cls-26">
          <path class="cls-50" d="M480.4,552.16c2.78,6.1,14.07,6.94,25.21,1.87s17.92-14.14,15.14-20.24-14.07-6.94-25.21-1.87-17.92,14.14-15.14,20.24" transform="translate(111.03 136.27)"/>
        </g>
        <g class="cls-26">
          <path class="cls-53" d="M524.37,653.32a38,38,0,0,0,4.49,5.31c.88.76,1.66,1.61,2.61,2.28l1.35,1.08,1.43,1a39.57,39.57,0,0,0,12.53,5.55,50.38,50.38,0,0,0,13.78,1.36l3.51-.2c1.17-.13,2.34-.3,3.51-.45.59-.07,1.18-.13,1.77-.22l1.75-.35c1.17-.23,2.35-.44,3.53-.64h.09a1.14,1.14,0,0,1,1.31.93,1.15,1.15,0,0,1-.73,1.26q-1.74.63-3.51,1.23L570,672c-.6.17-1.21.3-1.81.45-1.21.27-2.43.57-3.66.82l-3.74.48a45.05,45.05,0,0,1-15.11-1A37.61,37.61,0,0,1,532,666.11l-1.51-1.18-1.4-1.3a36.19,36.19,0,0,1-2.62-2.78,29.8,29.8,0,0,1-4.07-6.44,1.14,1.14,0,0,1,.58-1.51,1.13,1.13,0,0,1,1.4.4Z" transform="translate(111.03 136.27)"/>
        </g>
        <g class="cls-26">
          <path class="cls-50" d="M475.77,469c42.3,71.38,144.26,70.82,216.69,14.6C638.39,445,583.17,430.67,566.7,430.67s-54.93,9.38-90.93,38.29" transform="translate(111.03 136.27)"/>
        </g>
        <g class="cls-26">
          <path class="cls-51" d="M487.64,485.43a114.65,114.65,0,0,0,21.64,17.67,117.74,117.74,0,0,0,25,11.9,132.25,132.25,0,0,0,27,6,149.8,149.8,0,0,0,27.69.72,171.31,171.31,0,0,0,27.48-3.93,196.29,196.29,0,0,0,26.66-8,226.09,226.09,0,0,0,49.31-26.28A182.55,182.55,0,0,1,644.41,513a179.21,179.21,0,0,1-27,8.85,168.93,168.93,0,0,1-28.14,4.26,148.89,148.89,0,0,1-28.47-1,126.42,126.42,0,0,1-27.63-6.93,110.54,110.54,0,0,1-25.09-13.32,100.1,100.1,0,0,1-20.46-19.43" transform="translate(111.03 136.27)"/>
        </g>
        <g class="cls-26">
          <path class="cls-50" d="M840.45,487.66c126.61,0,150.06,121,150.06,163.08,0,52.32-32.37,84.67-32.37,84.67S905,715,840.45,715s-117.69,20.4-117.69,20.4-32.37-32.35-32.37-84.67c0-42.11,23.44-163.08,150.06-163.08" transform="translate(111.03 136.27)"/>
        </g>
        <g class="cls-26">
          <path class="cls-32" d="M943.6,833.21h0l-38-60.06h0c-.12-.18-.21-.37-.34-.55a19.93,19.93,0,0,0-33,22.41c.12.18.26.34.39.52h0L914.45,853h0a17.62,17.62,0,0,0,29.13-19.8" transform="translate(111.03 136.27)"/>
        </g>
        <g class="cls-26">
          <path class="cls-54" d="M907.67,770.09a23.39,23.39,0,0,0-37.9,27.42,23,23,0,0,0,7.11,6.43l34.67-25.09a22.87,22.87,0,0,0-3.88-8.76" transform="translate(111.03 136.27)"/>
        </g>
        <g class="cls-26">
          <path class="cls-32" d="M803.3,767.42a19.87,19.87,0,0,0-27.62,5.18c-.12.18-.22.37-.34.55h0L737.27,833.2h0A17.62,17.62,0,0,0,766.41,853h0l41.84-57.48h0c.13-.17.27-.34.39-.52a19.86,19.86,0,0,0-5.34-27.59" transform="translate(111.03 136.27)"/>
        </g>
        <g class="cls-26">
          <path class="cls-54" d="M805.79,765a23.33,23.33,0,0,0-32.58,5.12,23.08,23.08,0,0,0-3.89,8.77L804,804a23,23,0,0,0,7.11-6.43A23.32,23.32,0,0,0,805.79,765" transform="translate(111.03 136.27)"/>
        </g>
        <g class="cls-26">
          <path class="cls-32" d="M812.59,982.25h0a14.37,14.37,0,0,0,14.26-12.61l9.25-74.86H781.65L798.56,971a14.37,14.37,0,0,0,14,11.26" transform="translate(111.03 136.27)"/>
        </g>
        <g class="cls-26">
          <path class="cls-32" d="M868.3,982.25h0A14.37,14.37,0,0,1,854,969.64l-9.25-74.86h54.45L882.33,971a14.37,14.37,0,0,1-14,11.26" transform="translate(111.03 136.27)"/>
        </g>
        <g class="cls-26">
          <path class="cls-55" d="M911.9,876.09c0-38.55-32-69.79-71.46-69.79S769,837.55,769,876.09a68.06,68.06,0,0,0,6.89,29.75H905a67.79,67.79,0,0,0,6.9-29.75" transform="translate(111.03 136.27)"/>
        </g>
        <g class="cls-26">
          <path class="cls-56" d="M874.91,790.51c0,16.15-15.43,29.23-34.46,29.23S806,806.65,806,790.51s15.43-29.23,34.46-29.23,34.46,13.09,34.46,29.23" transform="translate(111.03 136.27)"/>
        </g>
      </g>
      <g class="cls-57">
        <polygon class="cls-39" points="988.7 886.6 914.25 886.6 951.48 926.78 988.7 886.6"/>
      </g>
      <g>
        <g class="cls-26">
          <path class="cls-39" d="M713.83,679.61a23.45,23.45,0,1,0,23.45-23.45,23.45,23.45,0,0,0-23.45,23.45" transform="translate(111.03 136.27)"/>
        </g>
        <g class="cls-26">
          <path class="cls-39" d="M967.06,679.61a23.45,23.45,0,1,1-23.45-23.45,23.45,23.45,0,0,1,23.45,23.45" transform="translate(111.03 136.27)"/>
        </g>
        <g class="cls-26">
          <path class="cls-32" d="M840.45,764.58c-59.17,0-107.13-45.94-107.13-108.42,0-79,48-121.63,107.13-121.63s107.13,42.64,107.13,121.63c0,62.48-48,108.42-107.13,108.42" transform="translate(111.03 136.27)"/>
        </g>
        <g class="cls-26">
          <path class="cls-41" d="M945.4,678.76a106.19,106.19,0,0,1-12.28,34.65,103.64,103.64,0,0,1-23.74,28.36,105.32,105.32,0,0,1-32.28,18.32,110.92,110.92,0,0,1-73.3,0,105.32,105.32,0,0,1-32.28-18.32,103.64,103.64,0,0,1-23.74-28.36,106,106,0,0,1-12.28-34.65,108,108,0,0,0,172.17,60.92,107.39,107.39,0,0,0,32.25-43.41,119.68,119.68,0,0,0,5.48-17.51" transform="translate(111.03 136.27)"/>
        </g>
        <g class="cls-26">
          <path class="cls-53" d="M808.87,660.42c0,6.85-3.75,12.41-8.37,12.41s-8.37-5.55-8.37-12.41,3.75-12.4,8.37-12.4,8.37,5.55,8.37,12.4" transform="translate(111.03 136.27)"/>
        </g>
        <g class="cls-26">
          <path class="cls-53" d="M888.76,660.42c0,6.85-3.75,12.41-8.37,12.41S872,667.28,872,660.42s3.75-12.4,8.37-12.4,8.37,5.55,8.37,12.4" transform="translate(111.03 136.27)"/>
        </g>
        <g class="cls-26">
          <path class="cls-43" d="M792.17,687c0,7.18-7.27,13-16.23,13s-16.24-5.82-16.24-13,7.27-13,16.24-13,16.23,5.82,16.23,13" transform="translate(111.03 136.27)"/>
        </g>
        <g class="cls-26">
          <path class="cls-43" d="M888.72,687c0,7.18,7.27,13,16.23,13s16.23-5.82,16.23-13-7.27-13-16.23-13-16.23,5.82-16.23,13" transform="translate(111.03 136.27)"/>
        </g>
        <g class="cls-26">
          <path d="M813.52,699.26a18.79,18.79,0,0,0,7.13,9.17,26.07,26.07,0,0,0,11,4.1,29.08,29.08,0,0,0,6,.28,27.88,27.88,0,0,0,5.89-.9,17.8,17.8,0,0,0,9.78-6.11l0,0a1.14,1.14,0,0,1,2,1.17,15.2,15.2,0,0,1-4.44,5.41,21.31,21.31,0,0,1-6.15,3.27A29.22,29.22,0,0,1,831,716.82a26.58,26.58,0,0,1-12.7-5.28,19.89,19.89,0,0,1-4.65-5.24,18,18,0,0,1-2.37-6.49,1.14,1.14,0,0,1,2.2-.56Z" transform="translate(111.03 136.27)"/>
        </g>
        <g class="cls-26">
          <path class="cls-50" d="M776.62,607c.23-.76.49-1.52.77-2.27a15.56,15.56,0,0,1,1-2.23,24.85,24.85,0,0,1,2.61-4.17,26,26,0,0,1,7.37-6.71A27.63,27.63,0,0,1,797.5,588c.8-.14,1.6-.29,2.41-.39s1.61-.15,2.43-.17,1.62,0,2.44.05c.4,0,.83.08,1.24.12l.64.09.73.13a3.46,3.46,0,0,1,1.54,6.13l-2,1.57a1.08,1.08,0,0,1-.33.1l-.42.1c-.29.07-.57.12-.87.21-.59.14-1.18.29-1.76.46s-1.16.34-1.74.51-1.14.38-1.7.57a33.68,33.68,0,0,0-6.27,3,29.18,29.18,0,0,0-5.39,4.24,33.48,33.48,0,0,0-2.42,2.6,14.67,14.67,0,0,0-1.15,1.43c-.38.49-.77,1-1.2,1.46l-.41.46a3.88,3.88,0,0,1-6.62-3.68" transform="translate(111.03 136.27)"/>
        </g>
        <g class="cls-26">
          <path class="cls-50" d="M742.26,602.42c14.39-41.41,68.6-78.93,75,9.51,0,0,71.42,28,136.29-19.23-86-171.58-232.48-35.84-211.34,9.72" transform="translate(111.03 136.27)"/>
        </g>
        <g class="cls-26">
          <path class="cls-51" d="M742.26,602.42a84.28,84.28,0,0,1,16.25-29.54,61.37,61.37,0,0,1,12.77-11.43c4.82-3.14,10.47-5.52,16.58-5.57a21.72,21.72,0,0,1,4.54.46,22.54,22.54,0,0,1,4.36,1.45,24.3,24.3,0,0,1,7.31,5.35,45.47,45.47,0,0,1,8.9,15.08,92.64,92.64,0,0,1,4.41,16.62,167.22,167.22,0,0,1,2.1,16.93l-1.37-1.86A129.75,129.75,0,0,0,835,614.59a157.46,157.46,0,0,0,17.43,2.71,162.28,162.28,0,0,0,35.25-.16,160.4,160.4,0,0,0,17.4-3.08A152.24,152.24,0,0,0,922,608.92a156.45,156.45,0,0,0,31.62-16.23A138.72,138.72,0,0,1,922.8,611a151.59,151.59,0,0,1-17,5.93,154.09,154.09,0,0,1-17.68,3.68,157.37,157.37,0,0,1-36.1.88,164,164,0,0,1-17.9-2.67c-3-.59-5.9-1.31-8.82-2.08s-5.79-1.64-8.74-2.75l-1.27-.48-.1-1.38a162,162,0,0,0-1.95-16.51,97.32,97.32,0,0,0-4.05-16,41.73,41.73,0,0,0-7.84-13.92,22,22,0,0,0-6.1-4.7,17.78,17.78,0,0,0-7.4-1.81c-5.2-.13-10.42,1.85-15.08,4.61a60.39,60.39,0,0,0-12.7,10.46,90.19,90.19,0,0,0-17.79,28.16" transform="translate(111.03 136.27)"/>
        </g>
      </g>
      <polygon class="cls-58" points="1588.47 1123 553.59 1123 531.97 1006.31 1610.09 1006.31 1588.47 1123"/>
      <polygon class="cls-59" points="531.97 1006.31 542.12 1061.07 1599.94 1061.07 1610.09 1006.31 531.97 1006.31"/>
      <polygon class="cls-60" points="1662.09 1021.54 479.97 1021.54 464.78 945.03 1677.28 945.03 1662.09 1021.54"/>
      <polygon class="cls-58" points="1551.14 1021.54 590.92 1021.54 585.33 983.28 1556.73 983.28 1551.14 1021.54"/>
      <g>
        <g class="cls-26">
          <path class="cls-61" d="M591.48,808.76h-63L527.81,762a7.67,7.67,0,0,1,7.68-7.79h49a7.68,7.68,0,0,1,7.68,7.79Z" transform="translate(111.03 136.27)"/>
        </g>
        <g class="cls-26">
          <path class="cls-62" d="M555.4,808.76H550a11.33,11.33,0,0,1-11.33-11.24L538.51,774a11.32,11.32,0,0,1,11.33-11.41h5.74A11.34,11.34,0,0,1,566.91,774l-.18,23.53a11.33,11.33,0,0,1-11.33,11.24" transform="translate(111.03 136.27)"/>
        </g>
        <g class="cls-26">
          <path class="cls-63" d="M614.65,808.76H505.33l-.6-7.93a10,10,0,0,1,9.92-10.7h90.68a9.94,9.94,0,0,1,9.92,10.7Z" transform="translate(111.03 136.27)"/>
        </g>
        <g class="cls-26">
          <polygon class="cls-64" points="659.82 945.03 630.7 945.03 630.33 926.4 660.2 926.4 659.82 945.03"/>
        </g>
        <g class="cls-26">
          <path class="cls-61" d="M1391.5,808.76h-63l-.69-46.72a7.67,7.67,0,0,1,7.68-7.79h49a7.68,7.68,0,0,1,7.68,7.79Z" transform="translate(111.03 136.27)"/>
        </g>
        <g class="cls-26">
          <path class="cls-62" d="M1355.43,808.76h-5.38a11.33,11.33,0,0,1-11.33-11.24l-.18-23.53a11.32,11.32,0,0,1,11.33-11.41h5.74A11.33,11.33,0,0,1,1366.94,774l-.18,23.53a11.34,11.34,0,0,1-11.33,11.24" transform="translate(111.03 136.27)"/>
        </g>
        <g class="cls-26">
          <path class="cls-63" d="M1414.67,808.76H1305.35l-.6-7.93a10,10,0,0,1,9.92-10.7h90.68a9.94,9.94,0,0,1,9.92,10.7Z" transform="translate(111.03 136.27)"/>
        </g>
        <g class="cls-26">
          <polygon class="cls-64" points="1459.85 945.03 1430.73 945.03 1430.36 926.4 1460.22 926.4 1459.85 945.03"/>
        </g>
        <g class="cls-26">
          <path class="cls-61" d="M858.15,808.76h-63L794.48,762a7.67,7.67,0,0,1,7.68-7.79h49a7.68,7.68,0,0,1,7.68,7.79Z" transform="translate(111.03 136.27)"/>
        </g>
        <g class="cls-26">
          <path class="cls-62" d="M822.08,808.76H816.7a11.33,11.33,0,0,1-11.33-11.24L805.19,774a11.32,11.32,0,0,1,11.33-11.41h5.74A11.33,11.33,0,0,1,833.59,774l-.18,23.53a11.34,11.34,0,0,1-11.33,11.24" transform="translate(111.03 136.27)"/>
        </g>
        <g class="cls-26">
          <path class="cls-63" d="M881.32,808.76H772l-.6-7.93a10,10,0,0,1,9.92-10.7H872a9.94,9.94,0,0,1,9.92,10.7Z" transform="translate(111.03 136.27)"/>
        </g>
        <g class="cls-26">
          <polygon class="cls-64" points="926.5 945.03 897.38 945.03 897 926.4 926.87 926.4 926.5 945.03"/>
        </g>
        <g class="cls-26">
          <path class="cls-61" d="M1124.83,808.76h-63l-.69-46.72a7.67,7.67,0,0,1,7.68-7.79h49a7.68,7.68,0,0,1,7.68,7.79Z" transform="translate(111.03 136.27)"/>
        </g>
        <g class="cls-26">
          <path class="cls-62" d="M1088.75,808.76h-5.38A11.33,11.33,0,0,1,1072,797.52l-.18-23.53a11.32,11.32,0,0,1,11.33-11.41h5.74A11.33,11.33,0,0,1,1100.26,774l-.18,23.53a11.33,11.33,0,0,1-11.33,11.24" transform="translate(111.03 136.27)"/>
        </g>
        <g class="cls-26">
          <path class="cls-63" d="M1148,808.76H1038.68l-.6-7.93a10,10,0,0,1,9.92-10.7h90.68a9.94,9.94,0,0,1,9.92,10.7Z" transform="translate(111.03 136.27)"/>
        </g>
        <g class="cls-26">
          <polygon class="cls-64" points="1193.17 945.03 1164.05 945.03 1163.68 926.4 1193.55 926.4 1193.17 945.03"/>
        </g>
      </g>
      <rect class="cls-1" x="111.03" y="136.27" width="1920" height="1080"/>
      <rect class="cls-1" x="111.03" y="136.27" width="1920" height="1080"/>
      <rect class="cls-1" x="111.03" y="136.27" width="1920" height="1080"/>
      <rect class="cls-1" x="111.03" y="136.27" width="1920" height="1080"/>
      <g class="cls-65">
        <g class="cls-66">
          <path class="cls-48" d="M1539.54,882.51H390.46a40.7,40.7,0,0,0-38.21,26.66L314.58,1011.6a47.25,47.25,0,0,1-44.34,30.94H0V1080H1920v-37.44H1659.75a47.24,47.24,0,0,1-44.34-30.94l-37.67-102.43a40.68,40.68,0,0,0-38.2-26.66" transform="translate(111.03 136.27)"/>
        </g>
      </g>
      <rect class="cls-1" x="111.03" y="136.27" width="1920" height="1080"/>
      <rect class="cls-1" x="111.03" y="136.27" width="1920" height="1080"/>
      <rect class="cls-1" x="111.03" y="136.27" width="1920" height="1080"/>
      <rect class="cls-1" x="111.03" y="136.27" width="1920" height="1080"/>
    </g>
  </g>
  <g id="bocadillo">
    <g id="bocadillo-2" data-name="bocadillo">
      <path class="cls-67" d="M535.11,257.85c-6.29,0-9.94-8.62-12.67-17.05s-5.55-20.52-8.08-34.74c-5-28.34-8.29-61.13-8.29-83.54,0-9.41.56-16.85,1.66-22.11,1.63-7.78,4.85-11.73,9.55-11.73h885.44c4.71,0,7.92,3.95,9.55,11.73,1.1,5.27,1.66,12.71,1.66,22.11,0,22.41-3.25,55.2-8.29,83.54-2.53,14.22-5.32,26.23-8.08,34.74-4.88,15-9.14,17.05-12.67,17.05Z" transform="translate(111.03 136.27)"/>
      <path class="cls-68" d="M1402.72,93.17c17.46,0-3,160.18-17.83,160.18H535.11c-14.86,0-35.29-160.18-17.83-160.18h885.44m0-9H517.28a12.6,12.6,0,0,0-10.74,6.44,27.94,27.94,0,0,0-3.22,8.87c-1.17,5.57-1.76,13.32-1.76,23,0,22.65,3.28,55.75,8.36,84.33,2.56,14.42,5.41,26.64,8.23,35.34,2.12,6.54,6.54,20.16,17,20.16h849.78c10.41,0,14.83-13.62,16.95-20.16,2.82-8.7,5.67-20.92,8.23-35.34,5.08-28.58,8.36-61.68,8.36-84.33,0-9.72-.59-17.47-1.76-23a27.7,27.7,0,0,0-3.22-8.87,12.54,12.54,0,0,0-10.72-6.44" transform="translate(111.03 136.27)"/>
      <text class="cls-69" transform="translate(688.3 339.66)">TEX<tspan class="cls-70" x="83.58" y="0">T</tspan><tspan x="108.69" y="0">O_ACCION </tspan></text>
    </g>
  </g>
  <g id="btn-despues">
    <g id="btn-despues-2" data-name="btn-despues">
      <path class="cls-71" d="M1192.53,408.22c-8.15,0-14.78-6.27-14.78-14V308.32c0-7.71,6.63-14,14.78-14H1502c8.15,0,14.78,6.27,14.78,14v85.92c0,7.71-6.63,14-14.78,14Z" transform="translate(111.03 136.27)"/>
      <path class="cls-67" d="M1502,299.85c5.12,0,9.28,3.8,9.28,8.48v85.92c0,4.67-4.17,8.48-9.28,8.48H1192.53c-5.12,0-9.28-3.8-9.28-8.48V308.33c0-4.67,4.17-8.48,9.28-8.48H1502m0-11H1192.53c-11.2,0-20.28,8.72-20.28,19.48v85.92c0,10.76,9.08,19.48,20.28,19.48H1502c11.2,0,20.28-8.72,20.28-19.48V308.33c0-10.76-9.08-19.48-20.28-19.48" transform="translate(111.03 136.27)"/>
      <g>
        <path class="cls-72" d="M1213,373.29V331.93h26.59l8.86,8.86v32.5Zm14.77-29.55v17.72h5.91V343.74Z" transform="translate(111.03 136.27)"/>
        <path class="cls-72" d="M1253.78,331.93h29.54v11.82h-14.77v2.95h14.77v11.82h-14.77v3h14.77v11.82h-29.54Z" transform="translate(111.03 136.27)"/>
        <path class="cls-72" d="M1288.63,331.93h35.45v11.82H1303.4v2.95h20.68v26.59h-35.45V361.47h20.68v-3h-20.68Z" transform="translate(111.03 136.27)"/>
        <path class="cls-72" d="M1364.91,358.51l-20.68,5.91v8.86h-14.77V331.92h35.45v26.59Zm-14.77-7.68v-7.09h-5.91v8.86Z" transform="translate(111.03 136.27)"/>
        <path class="cls-72" d="M1405.73,331.93v41.36h-35.45V331.93h14.77v29.54H1391V331.93Z" transform="translate(111.03 136.27)"/>
        <path class="cls-72" d="M1411.1,331.93h29.54v11.82h-14.77v2.95h14.77v11.82h-14.77v3h14.77v11.82H1411.1Z" transform="translate(111.03 136.27)"/>
        <path class="cls-72" d="M1446,331.93h35.45v11.82h-20.68v2.95h20.68v26.59H1446V361.47h20.68v-3H1446Z" transform="translate(111.03 136.27)"/>
      </g>
      <text class="cls-73" transform="translate(1524.77 474.05) scale(1.35 1)">-</text>
    </g>
  </g>
  <g id="btn-durante">
    <g id="btn-durante-2" data-name="btn-durante">
      <path class="cls-71" d="M805.28,408.22c-8.15,0-14.78-6.27-14.78-14V308.32c0-7.71,6.63-14,14.78-14h309.43c8.15,0,14.78,6.27,14.78,14v85.92c0,7.71-6.63,14-14.78,14Z" transform="translate(111.03 136.27)"/>
      <path class="cls-67" d="M1114.72,299.85c5.12,0,9.28,3.8,9.28,8.48v85.92c0,4.67-4.17,8.48-9.28,8.48H805.28c-5.12,0-9.28-3.8-9.28-8.48V308.33c0-4.67,4.16-8.48,9.28-8.48h309.44m0-11H805.28c-11.2,0-20.28,8.72-20.28,19.48v85.92c0,10.76,9.08,19.48,20.28,19.48h309.43c11.2,0,20.28-8.72,20.28-19.48V308.33c0-10.76-9.07-19.48-20.27-19.48" transform="translate(111.03 136.27)"/>
      <g>
        <path class="cls-72" d="M827.19,373.29V331.93h26.59l8.86,8.86v32.5ZM842,343.74v17.72h5.91V343.74Z" transform="translate(111.03 136.27)"/>
        <path class="cls-72" d="M903.46,331.93v41.36H868V331.93h14.77v29.54h5.91V331.93Z" transform="translate(111.03 136.27)"/>
        <path class="cls-72" d="M923.61,364.42v8.86H908.84V331.92h35.45v26.59l-8.21,2.33,8.21,12.44H929.52Zm5.91-13.59v-7.09h-5.91v8.86Z" transform="translate(111.03 136.27)"/>
        <path class="cls-72" d="M970.34,362.74l-5.91,1.68v8.86H949.66V331.92h35.45v41.36H970.34Zm0-11.91v-7.09h-5.91v8.86Z" transform="translate(111.03 136.27)"/>
        <path class="cls-72" d="M1011.16,373.29V343.75h-5.91v29.54H990.48V331.93h35.45v41.36Z" transform="translate(111.03 136.27)"/>
        <path class="cls-72" d="M1052,343.74v29.54h-14.77V343.74h-5.91V331.92h26.59v11.82Z" transform="translate(111.03 136.27)"/>
        <path class="cls-72" d="M1063.21,331.93h29.54v11.82H1078v2.95h14.77v11.82H1078v3h14.77v11.82h-29.54Z" transform="translate(111.03 136.27)"/>
      </g>
    </g>
  </g>
  <g id="btn-antes">
    <g id="btn-antes-2" data-name="btn-antes">
      <path class="cls-71" d="M418,408.22c-8.15,0-14.78-6.27-14.78-14V308.32c0-7.71,6.63-14,14.78-14H727.47c8.15,0,14.78,6.27,14.78,14v85.92c0,7.71-6.63,14-14.78,14Z" transform="translate(111.03 136.27)"/>
      <path class="cls-67" d="M727.47,299.85c5.12,0,9.28,3.8,9.28,8.48v85.92c0,4.67-4.17,8.48-9.28,8.48H418c-5.12,0-9.28-3.8-9.28-8.48V308.33c0-4.67,4.16-8.48,9.28-8.48H727.47m0-11H418c-11.2,0-20.28,8.72-20.28,19.48v85.92c0,10.76,9.08,19.48,20.28,19.48H727.47c11.2,0,20.28-8.72,20.28-19.48V308.33c0-10.76-9.07-19.48-20.28-19.48" transform="translate(111.03 136.27)"/>
      <g>
        <path class="cls-72" d="M501.45,362.74l-5.91,1.68v8.86H480.77V331.92h35.45v41.36H501.45V362.74Zm0-11.91v-7.09h-5.91v8.86Z" transform="translate(111.03 136.27)"/>
        <path class="cls-72" d="M542.27,373.29V343.75h-5.91v29.54H521.6V331.93h35.45v41.36Z" transform="translate(111.03 136.27)"/>
        <path class="cls-72" d="M583.1,343.74v29.54H568.33V343.74h-5.91V331.92H589v11.82Z" transform="translate(111.03 136.27)"/>
        <path class="cls-72" d="M594.32,331.93h29.54v11.82H609.09v2.95h14.77v11.82H609.09v3h14.77v11.82H594.32Z" transform="translate(111.03 136.27)"/>
        <path class="cls-72" d="M629.17,331.93h35.45v11.82H643.94v2.95h20.68v26.59H629.17V361.47h20.68v-3H629.17Z" transform="translate(111.03 136.27)"/>
      </g>
    </g>
  </g>
  <g id="nav-9">
    <g id="nav-9-2" data-name="nav-9">
      <path class="cls-74" d="M1553.43,989a60.57,60.57,0,1,1-60.58-60.56h0A60.56,60.56,0,0,1,1553.43,989" transform="translate(111.03 136.27)"/>
      <path class="cls-75" d="M1544.11,989a51.24,51.24,0,1,1-51.25-51.23h0A51.23,51.23,0,0,1,1544.11,989" transform="translate(111.03 136.27)"/>
      <path class="cls-76" d="M1535.67,989a42.82,42.82,0,1,1-42.82-42.82h0A42.82,42.82,0,0,1,1535.67,989" transform="translate(111.03 136.27)"/>
      <path class="cls-77" d="M1535.67,989s-15.11-8.82-42.82-8.82S1450,989,1450,989a42.82,42.82,0,0,1,85.64,0" transform="translate(111.03 136.27)"/>
      <text class="cls-78" transform="translate(1567.63 1140.67)">nav-9</text>
    </g>
  </g>
  <g id="nav-8">
    <g id="nav-8-2" data-name="nav-8">
      <g id="nav-4">
        <path class="cls-74" d="M1420.28,989a60.56,60.56,0,1,1-60.56-60.56h0A60.57,60.57,0,0,1,1420.28,989" transform="translate(111.03 136.27)"/>
        <path class="cls-75" d="M1411,989a51.24,51.24,0,1,1-51.25-51.23h0A51.25,51.25,0,0,1,1411,989" transform="translate(111.03 136.27)"/>
        <path class="cls-76" d="M1402.55,989a42.83,42.83,0,1,1-42.83-42.82h0A42.84,42.84,0,0,1,1402.55,989" transform="translate(111.03 136.27)"/>
        <path class="cls-77" d="M1402.55,989s-15.11-8.82-42.82-8.82-42.82,8.82-42.82,8.82a42.82,42.82,0,1,1,85.64,0" transform="translate(111.03 136.27)"/>
      </g>
      <path class="cls-77" d="M1402.55,989s-15.11-8.82-42.82-8.82-42.82,8.82-42.82,8.82a42.82,42.82,0,1,1,85.64,0" transform="translate(111.03 136.27)"/>
      <text class="cls-78" transform="translate(1435.66 1140.69)">nav-8</text>
    </g>
  </g>
  <g id="nav-7">
    <g id="nav-7-2" data-name="nav-7">
      <path class="cls-74" d="M1287.15,989a60.56,60.56,0,1,1-60.55-60.59A60.55,60.55,0,0,1,1287.15,989a0,0,0,0,0,0,0" transform="translate(111.03 136.27)"/>
      <path class="cls-75" d="M1277.83,989a51.24,51.24,0,1,1-51.23-51.26A51.24,51.24,0,0,1,1277.83,989s0,0,0,0" transform="translate(111.03 136.27)"/>
      <path class="cls-76" d="M1269.41,989a42.83,42.83,0,1,1-42.83-42.85A42.83,42.83,0,0,1,1269.41,989a0,0,0,0,1,0,0" transform="translate(111.03 136.27)"/>
      <path class="cls-77" d="M1269.41,989s-15.11-8.82-42.82-8.82-42.82,8.82-42.82,8.82a42.82,42.82,0,0,1,85.64,0" transform="translate(111.03 136.27)"/>
      <text class="cls-78" transform="translate(1304.35 1140.73)">nav-7</text>
    </g>
  </g>
  <g id="nav-6">
    <g id="nav-6-2" data-name="nav-6">
      <path class="cls-74" d="M1154,989a60.56,60.56,0,1,1-60.56-60.56h0A60.57,60.57,0,0,1,1154,989" transform="translate(111.03 136.27)"/>
      <path class="cls-75" d="M1144.69,989a51.24,51.24,0,1,1-51.25-51.23h0A51.24,51.24,0,0,1,1144.69,989" transform="translate(111.03 136.27)"/>
      <path class="cls-76" d="M1136.28,989a42.82,42.82,0,1,1-42.82-42.82h0A42.84,42.84,0,0,1,1136.28,989" transform="translate(111.03 136.27)"/>
      <path class="cls-77" d="M1136.28,989s-15.11-8.82-42.82-8.82-42.82,8.82-42.82,8.82a42.82,42.82,0,0,1,85.64,0" transform="translate(111.03 136.27)"/>
      <text class="cls-78" transform="translate(1167.58 1140.69)">nav-6</text>
    </g>
  </g>
  <g id="nav-5">
    <g id="nav-5-2" data-name="nav-5">
      <path class="cls-74" d="M1020.88,989a60.57,60.57,0,1,1-60.58-60.56h0A60.56,60.56,0,0,1,1020.88,989" transform="translate(111.03 136.27)"/>
      <path class="cls-75" d="M1011.56,989a51.24,51.24,0,1,1-51.25-51.23h0A51.24,51.24,0,0,1,1011.56,989" transform="translate(111.03 136.27)"/>
      <path class="cls-76" d="M1003.12,989a42.83,42.83,0,1,1-42.83-42.82h0A42.83,42.83,0,0,1,1003.12,989" transform="translate(111.03 136.27)"/>
      <path class="cls-77" d="M1003.12,989s-15.11-8.82-42.82-8.82S917.48,989,917.48,989a42.82,42.82,0,1,1,85.64,0" transform="translate(111.03 136.27)"/>
      <text class="cls-78" transform="translate(1035.08 1140.67)">nav-5</text>
    </g>
  </g>
  <g id="nav-4-2" data-name="nav-4">
    <g id="nav-4-3" data-name="nav-4">
      <g id="nav-4-4" data-name="nav-4">
        <path class="cls-74" d="M887.73,989a60.56,60.56,0,1,1-60.56-60.56h0A60.57,60.57,0,0,1,887.73,989" transform="translate(111.03 136.27)"/>
        <path class="cls-75" d="M878.41,989a51.24,51.24,0,1,1-51.25-51.23h0A51.26,51.26,0,0,1,878.41,989" transform="translate(111.03 136.27)"/>
        <path class="cls-76" d="M870,989a42.83,42.83,0,1,1-42.83-42.82h0A42.83,42.83,0,0,1,870,989" transform="translate(111.03 136.27)"/>
        <path class="cls-77" d="M870,989s-15.11-8.82-42.82-8.82S784.35,989,784.35,989A42.82,42.82,0,0,1,870,989" transform="translate(111.03 136.27)"/>
        <text class="cls-78" transform="translate(903.11 1140.69)">nav-4</text>
      </g>
      <path class="cls-77" d="M870,989s-15.11-8.82-42.82-8.82S784.35,989,784.35,989A42.82,42.82,0,0,1,870,989" transform="translate(111.03 136.27)"/>
    </g>
  </g>
  <g id="nav-3">
    <g id="nav-3-2" data-name="nav-3">
      <path class="cls-74" d="M754.59,989A60.56,60.56,0,1,1,694,928.44,60.55,60.55,0,0,1,754.59,989a0,0,0,0,0,0,0" transform="translate(111.03 136.27)"/>
      <path class="cls-75" d="M745.27,989A51.24,51.24,0,1,1,694,937.77,51.24,51.24,0,0,1,745.27,989s0,0,0,0" transform="translate(111.03 136.27)"/>
      <path class="cls-76" d="M736.86,989A42.83,42.83,0,1,1,694,946.18,42.83,42.83,0,0,1,736.86,989a0,0,0,0,1,0,0" transform="translate(111.03 136.27)"/>
      <path class="cls-77" d="M736.86,989s-15.11-8.82-42.82-8.82S651.22,989,651.22,989a42.82,42.82,0,0,1,85.64,0" transform="translate(111.03 136.27)"/>
      <text class="cls-78" transform="translate(771.8 1140.73)">nav-3</text>
    </g>
  </g>
  <g id="nav-2">
    <g id="nav-2-2" data-name="nav-2">
      <path class="cls-74" d="M621.46,989a60.56,60.56,0,1,1-60.56-60.56h0A60.57,60.57,0,0,1,621.46,989" transform="translate(111.03 136.27)"/>
      <path class="cls-75" d="M612.14,989a51.24,51.24,0,1,1-51.25-51.23h0A51.26,51.26,0,0,1,612.14,989" transform="translate(111.03 136.27)"/>
      <path class="cls-76" d="M603.73,989a42.83,42.83,0,1,1-42.83-42.82h0A42.84,42.84,0,0,1,603.73,989" transform="translate(111.03 136.27)"/>
      <path class="cls-77" d="M603.73,989s-15.11-8.82-42.82-8.82S518.09,989,518.09,989a42.82,42.82,0,0,1,85.64,0" transform="translate(111.03 136.27)"/>
      <text class="cls-78" transform="translate(635.02 1140.69)">nav-2</text>
    </g>
  </g>
  <g id="nav-1">
    <g id="nav-1-2" data-name="nav-1">
      <path class="cls-48" d="M488.33,989a60.57,60.57,0,1,1-60.58-60.56h0A60.57,60.57,0,0,1,488.33,989" transform="translate(111.03 136.27)"/>
      <path class="cls-75" d="M478.63,989a51.24,51.24,0,1,1-51.25-51.23h0A51.23,51.23,0,0,1,478.63,989" transform="translate(111.03 136.27)"/>
      <path class="cls-76" d="M470.23,989a42.83,42.83,0,1,1-42.83-42.82h0A42.83,42.83,0,0,1,470.23,989" transform="translate(111.03 136.27)"/>
      <path class="cls-77" d="M470.23,989s-15.11-8.82-42.82-8.82S384.59,989,384.59,989a42.82,42.82,0,0,1,85.64,0" transform="translate(111.03 136.27)"/>
      <text class="cls-78" transform="translate(501.95 1140.67)">nav-1</text>
    </g>
  </g>
</svg>
