<svg xmlns="http://www.w3.org/2000/svg" xmlns:xlink="http://www.w3.org/1999/xlink" width="1920" height="1080" viewBox="0 0 1920 1080">
  <defs>
    <style>
      .cls-1, .cls-10, .cls-11, .cls-15, .cls-17, .cls-18, .cls-29, .cls-33, .cls-40, .cls-5, .cls-53, .cls-6, .cls-9 {
        fill: none;
      }

      .cls-2 {
        fill: #44afa7;
      }

      .cls-3 {
        clip-path: url(#clip-path);
      }

      .cls-4 {
        fill: #3c9a93;
      }

      .cls-5 {
        stroke: #44afa7;
      }

      .cls-10, .cls-11, .cls-15, .cls-17, .cls-18, .cls-40, .cls-5, .cls-53, .cls-6, .cls-9 {
        stroke-miterlimit: 10;
      }

      .cls-5, .cls-9 {
        stroke-width: 6px;
      }

      .cls-10, .cls-11, .cls-15, .cls-6, .cls-9 {
        stroke: #72c3b9;
      }

      .cls-10, .cls-6 {
        stroke-width: 4px;
      }

      .cls-7 {
        fill: #56b7ae;
      }

      .cls-8 {
        fill: #60bbb2;
      }

      .cls-10, .cls-17, .cls-33, .cls-40 {
        stroke-linecap: round;
      }

      .cls-11 {
        stroke-width: 7px;
      }

      .cls-12 {
        fill: #72c3b9;
      }

      .cls-13 {
        fill: #85cbc1;
      }

      .cls-14 {
        fill: #69bfb6;
      }

      .cls-15 {
        stroke-width: 5px;
      }

      .cls-16 {
        fill: #40a69f;
      }

      .cls-17 {
        stroke: #65bdb4;
        stroke-width: 12px;
      }

      .cls-18 {
        stroke: #85cbc1;
        stroke-width: 8px;
      }

      .cls-19 {
        fill: #8ecfc5;
      }

      .cls-20 {
        fill: #7cc7bd;
      }

      .cls-21 {
        fill: #d0ebe5;
      }

      .cls-22 {
        fill: #bde4db;
      }

      .cls-23 {
        fill: #8c8c8c;
      }

      .cls-24 {
        fill: #285951;
      }

      .cls-25 {
        fill: #df8650;
      }

      .cls-26 {
        fill: #eaeded;
      }

      .cls-27 {
        fill: #dbe3df;
      }

      .cls-28 {
        clip-path: url(#clip-path-2);
      }

      .cls-29 {
        stroke: #f0f2f1;
        stroke-width: 10.43px;
      }

      .cls-29, .cls-33 {
        stroke-linejoin: round;
      }

      .cls-30 {
        fill: #f2f2f2;
      }

      .cls-31 {
        fill: #b1bebc;
      }

      .cls-32 {
        fill: #d37342;
      }

      .cls-33 {
        stroke: #f2f0f0;
        stroke-width: 4.35px;
      }

      .cls-34 {
        fill: #b66439;
      }

      .cls-35 {
        fill: #f2f0f0;
      }

      .cls-36 {
        fill: #d7603f;
      }

      .cls-37 {
        fill: #e6e4e4;
      }

      .cls-38 {
        fill: #2d2d2d;
      }

      .cls-39 {
        fill: #e7a97c;
      }

      .cls-40 {
        stroke: #c42a11;
        stroke-width: 8.69px;
      }

      .cls-41 {
        fill: #fff;
      }

      .cls-42 {
        fill: #c42a11;
      }

      .cls-43, .cls-55, .cls-58 {
        fill: #080a3b;
      }

      .cls-44 {
        fill: #030314;
      }

      .cls-45 {
        fill: #364f6e;
      }

      .cls-46 {
        fill: #20120b;
      }

      .cls-47 {
        fill: #e6f490;
      }

      .cls-48 {
        fill: #3a8c8a;
      }

      .cls-49 {
        fill: #def171;
      }

      .cls-50 {
        clip-path: url(#clip-path-3);
      }

      .cls-51 {
        opacity: 0.5;
      }

      .cls-52 {
        clip-path: url(#clip-path-4);
      }

      .cls-53 {
        stroke: #f0f2ee;
        stroke-width: 3.5px;
      }

      .cls-54 {
        fill: #f7e33e;
      }

      .cls-55, .cls-58, .cls-59 {
        isolation: isolate;
      }

      .cls-55 {
        font-size: 48px;
        font-family: RobotRadicals, Robot Radicals;
      }

      .cls-56 {
        fill: #f0f2ee;
      }

      .cls-57 {
        fill: #225754;
      }

      .cls-58 {
        font-size: 75.76px;
        font-family: Atmos;
      }

      .cls-59 {
        font-size: 62px;
        font-family: ZurichBT-LightCondensed, Zurich LtCn BT;
        font-weight: 300;
      }

      .cls-60 {
        letter-spacing: -0.02em;
      }

      .cls-61 {
        letter-spacing: -0.07em;
      }

      .cls-62 {
        clip-path: url(#clip-path-5);
      }

      .cls-63 {
        clip-path: url(#clip-path-6);
      }

      .cls-64 {
        clip-path: url(#clip-path-7);
      }

      .cls-65 {
        letter-spacing: 0.02em;
      }
    </style>
    <clipPath id="clip-path">
      <rect class="cls-1" width="1920" height="1080"/>
    </clipPath>
    <clipPath id="clip-path-2">
      <path class="cls-1" d="M1602.57,880.17a130.83,130.83,0,0,0,3.48,30.09h210.79a130.83,130.83,0,0,0,3.48-30.09c0-66-48.75-119.58-108.88-119.58s-108.87,53.54-108.87,119.58"/>
    </clipPath>
    <clipPath id="clip-path-3">
      <path class="cls-1" d="M378.62,848.31c0,16.14,15.43,29.23,34.46,29.23s34.46-13.09,34.46-29.23-15.43-29.23-34.46-29.23-34.46,13.08-34.46,29.23"/>
    </clipPath>
    <clipPath id="clip-path-4">
      <rect class="cls-1" y="882.53" width="1920" height="197.47"/>
    </clipPath>
    <clipPath id="clip-path-5">
      <path class="cls-1" d="M603.4,383.7c-224.84,0-201.52,23.32-201.52,52.09s-23.32,52.1,201.52,52.1H1091V383.7Z"/>
    </clipPath>
    <clipPath id="clip-path-6">
      <path class="cls-1" d="M1418.06,383.7c-224.85,0-201.52,23.32-201.52,52.09s-23.33,52.1,201.52,52.1h487.57V383.7Z"/>
    </clipPath>
    <clipPath id="clip-path-7">
      <path class="cls-1" d="M651.46,505.38c27.2,0,49.26,23.91,49.26,53.4s-22.06,53.41-49.26,53.41H1518.6V505.38Z"/>
    </clipPath>
  </defs>
  <title>nivel1</title>
  <g id="fondo">
    <g>
      <rect class="cls-2" width="1920" height="1080"/>
      <g class="cls-3">
        <g>
          <path class="cls-4" d="M513.18,664.35a89.68,89.68,0,1,1-89.68-89.68h0a89.68,89.68,0,0,1,89.68,89.68"/>
          <path class="cls-5" d="M475.44,664.35a52,52,0,1,1-52-51.94h0a51.93,51.93,0,0,1,51.94,51.94Z"/>
          <path class="cls-4" d="M1406.82,228.39a89.68,89.68,0,1,1,89.68,89.68,89.68,89.68,0,0,1-89.68-89.68h0"/>
          <circle class="cls-6" cx="1496.51" cy="228.4" r="105.06"/>
          <circle class="cls-6" cx="423.49" cy="664.32" r="105.06"/>
          <path class="cls-7" d="M1091.1,352.75A63.24,63.24,0,1,1,1154.34,416a63.24,63.24,0,0,1-63.24-63.25"/>
          <path class="cls-8" d="M1146.06,240.41a8.28,8.28,0,1,1,8.28,8.28,8.28,8.28,0,0,1-8.28-8.28h0"/>
          <path class="cls-8" d="M1091,259.6a8.28,8.28,0,1,1,11.32,3h0a8.28,8.28,0,0,1-11.31-3"/>
          <path class="cls-8" d="M1052.91,303.75a8.28,8.28,0,1,1,11.32-3h0a8.29,8.29,0,0,1-11.31,3"/>
          <path class="cls-8" d="M1042,361a8.28,8.28,0,1,1,8.28-8.28A8.28,8.28,0,0,1,1042,361h0"/>
          <path class="cls-8" d="M1105.34,454.17a8.28,8.28,0,1,1-3-11.32h0a8.28,8.28,0,0,1,3,11.31"/>
          <path class="cls-8" d="M1162.62,465.08a8.28,8.28,0,1,1-8.29-8.27h0a8.28,8.28,0,0,1,8.28,8.27"/>
          <path class="cls-8" d="M1217.68,445.89a8.28,8.28,0,1,1-11.32-3h0a8.28,8.28,0,0,1,11.31,3"/>
          <path class="cls-8" d="M1255.76,401.75a8.27,8.27,0,1,1-11.31,3,8.27,8.27,0,0,1,11.31-3h0"/>
          <path class="cls-8" d="M1266.68,344.47a8.28,8.28,0,1,1-8.28,8.28,8.28,8.28,0,0,1,8.28-8.28h0"/>
          <path class="cls-8" d="M1247.49,289.41a8.28,8.28,0,1,1-3,11.32h0a8.26,8.26,0,0,1,3-11.3h0"/>
          <path class="cls-8" d="M1203.34,251.32a8.28,8.28,0,1,1,3,11.32h0a8.26,8.26,0,0,1-3-11.3h0"/>
          <circle class="cls-9" cx="1154.35" cy="352.75" r="23.68" transform="translate(386.7 1284.23) rotate(-67.5)"/>
          <path class="cls-10" d="M1294.28,258.39A168.81,168.81,0,0,1,1183.81,519"/>
          <path class="cls-10" d="M1057.73,491.14A168.77,168.77,0,0,1,1154.34,184"/>
          <path class="cls-7" d="M830,540a63.24,63.24,0,1,1-63.24-63.24h0A63.24,63.24,0,0,1,830,540"/>
          <path class="cls-8" d="M775.05,652.34a8.28,8.28,0,1,1-8.28-8.28,8.28,8.28,0,0,1,8.28,8.28h0"/>
          <path class="cls-8" d="M830.11,633.15a8.28,8.28,0,1,1-11.32-3h0a8.28,8.28,0,0,1,11.31,3"/>
          <path class="cls-8" d="M868.2,589a8.28,8.28,0,1,1-11.32,3h0a8.28,8.28,0,0,1,11.31-3"/>
          <path class="cls-8" d="M879.11,531.72a8.28,8.28,0,1,1-8.28,8.28,8.28,8.28,0,0,1,8.28-8.28h0"/>
          <path class="cls-8" d="M815.77,438.57a8.28,8.28,0,1,1,3,11.32h0a8.29,8.29,0,0,1-3-11.31"/>
          <path class="cls-8" d="M758.49,427.66a8.28,8.28,0,1,1,8.28,8.28,8.28,8.28,0,0,1-8.28-8.28h0"/>
          <path class="cls-8" d="M703.43,446.85a8.28,8.28,0,1,1,11.32,3h0a8.29,8.29,0,0,1-11.31-3"/>
          <path class="cls-8" d="M665.35,491a8.28,8.28,0,1,1,11.31-3v0a8.29,8.29,0,0,1-11.3,3"/>
          <path class="cls-8" d="M654.43,548.28a8.28,8.28,0,1,1,8.28-8.28,8.28,8.28,0,0,1-8.28,8.28h0"/>
          <path class="cls-8" d="M673.62,603.34a8.28,8.28,0,1,1,3-11.32h0a8.27,8.27,0,0,1-3,11.31h0"/>
          <path class="cls-8" d="M717.77,641.43a8.28,8.28,0,1,1-3-11.32h0a8.28,8.28,0,0,1,3,11.31"/>
          <circle class="cls-9" cx="762.35" cy="539.97" r="23.57"/>
          <path class="cls-10" d="M626.83,634.36A168.81,168.81,0,0,1,737.3,373.8"/>
          <path class="cls-10" d="M863.38,401.6a168.78,168.78,0,0,1-96.61,307.17"/>
          <path class="cls-4" d="M930.17,446.37a30.39,30.39,0,1,1,30.39,30.39h0a30.38,30.38,0,0,1-30.38-30.38h0"/>
          <path class="cls-6" d="M934.07,391.2c46.6-22.36,96.23-15.79,110.86,14.68s-11.3,73.3-57.89,95.66-96.23,15.8-110.85-14.67S887.48,413.57,934.07,391.2Z"/>
          <path class="cls-4" d="M1010.91,648.32a15.2,15.2,0,1,1-15.21-15.19h0a15.21,15.21,0,0,1,15.2,15.19"/>
          <path class="cls-4" d="M974.87,692.57a15.19,15.19,0,1,1-15.19-15.19,15.19,15.19,0,0,1,15.19,15.19h0"/>
          <path class="cls-4" d="M1029.22,699.36A15.19,15.19,0,1,1,1014,684.17a15.19,15.19,0,0,1,15.22,15.19"/>
          <path class="cls-4" d="M909.09,244.42a15.2,15.2,0,1,1,15.2,15.2,15.21,15.21,0,0,1-15.2-15.2h0"/>
          <path class="cls-4" d="M945.13,200.18a15.19,15.19,0,1,1,15.19,15.19,15.19,15.19,0,0,1-15.19-15.19"/>
          <path class="cls-4" d="M890.78,193.38A15.19,15.19,0,1,1,906,208.58a15.19,15.19,0,0,1-15.22-15.2h0"/>
          <path class="cls-4" d="M1759.68,228.37a15.2,15.2,0,1,1,10-19v0a15.19,15.19,0,0,1-10,19"/>
          <path class="cls-4" d="M1706.72,207.1a15.19,15.19,0,1,1,10-19h0a15.19,15.19,0,0,1-10,19"/>
          <path class="cls-4" d="M1716.38,261a15.19,15.19,0,1,1,10-19h0a15.2,15.2,0,0,1-10,19"/>
          <path class="cls-4" d="M160.32,664.38a15.19,15.19,0,1,1-10,19h0a15.19,15.19,0,0,1,10-19"/>
          <path class="cls-4" d="M213.28,685.64a15.19,15.19,0,1,1-10,19h0a15.2,15.2,0,0,1,10-19"/>
          <path class="cls-4" d="M203.62,631.73a15.19,15.19,0,1,1-10,19h0a15.2,15.2,0,0,1,10-19"/>
          <path class="cls-7" d="M949.39,11.73a148,148,0,1,1-148-148,148,148,0,0,1,148,148"/>
          <path class="cls-7" d="M970.61,881a148,148,0,1,1,148,148,148,148,0,0,1-148-148h0"/>
          <circle class="cls-11" cx="1380.95" cy="-7.43" r="64.21" transform="translate(0.52 31.33) rotate(-1.3)"/>
          <circle class="cls-6" cx="1380.94" cy="-7.46" r="114.82"/>
          <path class="cls-9" d="M1571.58,58.6a30,30,0,1,1,30,30A30,30,0,0,1,1571.58,58.6Z"/>
          <path class="cls-12" d="M1520.89,36.11a10.24,10.24,0,1,1,10.24,10.24h0a10.23,10.23,0,0,1-10.24-10.22v0"/>
          <path class="cls-4" d="M1848.54,792a54,54,0,1,1,54,54,54,54,0,0,1-54-54h0"/>
          <path class="cls-13" d="M1678.81,844a30.39,30.39,0,1,1,30.39,30.39A30.4,30.4,0,0,1,1678.81,844h0"/>
          <path class="cls-7" d="M1751.47,80.43a30.39,30.39,0,1,1,30.4,30.38h0a30.4,30.4,0,0,1-30.39-30.38"/>
          <path class="cls-14" d="M1902.52,255a19.54,19.54,0,1,0,19.54,19.54A19.54,19.54,0,0,0,1902.52,255h0"/>
          <path class="cls-14" d="M1825.49,286.9a19.54,19.54,0,1,0,27.63,0h0a19.54,19.54,0,0,0-27.63,0"/>
          <path class="cls-14" d="M1793.58,363.93a19.54,19.54,0,1,0,19.54-19.54,19.54,19.54,0,0,0-19.54,19.54h0"/>
          <path class="cls-14" d="M1825.49,441a19.54,19.54,0,1,0,0-27.64,19.53,19.53,0,0,0,0,27.64h0"/>
          <path class="cls-14" d="M1902.52,472.88A19.54,19.54,0,1,0,1883,453.32v0a19.54,19.54,0,0,0,19.54,19.54h0"/>
          <circle class="cls-9" cx="1902.52" cy="791.95" r="82.2"/>
          <circle class="cls-15" cx="1902.52" cy="791.95" r="127.11"/>
          <path class="cls-6" d="M1562.74,308.25c131.83,27,231,143.63,231,283.44,0,159.79-129.53,289.32-289.32,289.32S1215.1,751.48,1215.1,591.69c0-134.51,91.8-247.59,216.17-280"/>
          <path class="cls-11" d="M604.38,900.21A64.21,64.21,0,1,1,540.17,836a64.21,64.21,0,0,1,64.21,64.21Z"/>
          <circle class="cls-6" cx="540.17" cy="900.21" r="114.82"/>
          <path class="cls-9" d="M349.53,834.15a30,30,0,1,1-30-30h0A30,30,0,0,1,349.53,834.15Z"/>
          <path class="cls-12" d="M400.22,856.63A10.24,10.24,0,1,1,390,846.4h0a10.23,10.23,0,0,1,10.24,10.22h0"/>
          <path class="cls-4" d="M72.57,100.8a54,54,0,1,1-54-54,54,54,0,0,1,54,54"/>
          <path class="cls-13" d="M216.19,36a21.75,21.75,0,1,1-21.76-21.74h0A21.74,21.74,0,0,1,216.19,36h0"/>
          <path class="cls-7" d="M169.64,812.32a30.39,30.39,0,1,1-30.39-30.39,30.4,30.4,0,0,1,30.39,30.39h0"/>
          <path class="cls-14" d="M18.59,637.76A19.54,19.54,0,1,0-.95,618.22a19.54,19.54,0,0,0,19.54,19.54"/>
          <path class="cls-14" d="M95.62,605.85a19.54,19.54,0,1,0-27.63,0h0a19.56,19.56,0,0,0,27.63,0"/>
          <path class="cls-14" d="M127.53,528.81A19.54,19.54,0,1,0,108,548.35h0a19.54,19.54,0,0,0,19.54-19.54"/>
          <path class="cls-14" d="M95.62,451.78a19.54,19.54,0,1,0,0,27.63h0a19.54,19.54,0,0,0,0-27.63"/>
          <path class="cls-14" d="M18.59,419.87a19.54,19.54,0,1,0,19.54,19.54,19.54,19.54,0,0,0-19.54-19.54h0"/>
          <circle class="cls-9" cx="18.6" cy="100.8" r="82.2"/>
          <circle class="cls-15" cx="18.59" cy="100.8" r="127.11"/>
          <path class="cls-6" d="M358.37,584.49c-131.84-27-231-143.62-231-283.44,0-159.78,129.53-289.32,289.32-289.32S706,141.27,706,301.05c0,134.52-91.8,247.6-216.18,280"/>
          <path class="cls-13" d="M817.07,310.51a7.84,7.84,0,1,1-7.85-7.83h0a7.84,7.84,0,0,1,7.83,7.83h0"/>
          <path class="cls-13" d="M784.91,317.35a7.83,7.83,0,1,1-11.07,0h0a7.82,7.82,0,0,1,11.06,0h0"/>
          <path class="cls-13" d="M767,344.92a7.83,7.83,0,1,1-7.83,7.83,7.84,7.84,0,0,1,7.83-7.83h0"/>
          <path class="cls-13" d="M773.83,377.07a7.83,7.83,0,1,1,0,11.08,7.82,7.82,0,0,1,0-11.08"/>
          <path class="cls-13" d="M801.4,395a7.84,7.84,0,1,1,7.85,7.83h0A7.84,7.84,0,0,1,801.4,395h0"/>
          <path class="cls-13" d="M833.56,388.15a7.83,7.83,0,1,1,11.08,0,7.82,7.82,0,0,1-11.08,0h0"/>
          <path class="cls-13" d="M851.47,360.58a7.83,7.83,0,1,1,7.83-7.83,7.84,7.84,0,0,1-7.83,7.83h0"/>
          <path class="cls-13" d="M844.64,328.42a7.83,7.83,0,1,1,0-11.07h0a7.82,7.82,0,0,1,0,11.07"/>
          <path class="cls-13" d="M1102.93,582.23a7.83,7.83,0,1,1,7.83,7.83h0a7.85,7.85,0,0,1-7.83-7.83"/>
          <path class="cls-13" d="M1135.09,575.4a7.83,7.83,0,1,1,11.08,0,7.82,7.82,0,0,1-11.08,0l0,0"/>
          <path class="cls-13" d="M1153,547.83a7.83,7.83,0,1,1,7.83-7.83h0a7.84,7.84,0,0,1-7.83,7.83"/>
          <path class="cls-13" d="M1146.17,515.67a7.83,7.83,0,1,1,0-11.07h0a7.82,7.82,0,0,1,0,11.07"/>
          <path class="cls-13" d="M1118.6,497.77a7.84,7.84,0,1,1-7.85-7.83h0a7.85,7.85,0,0,1,7.83,7.83"/>
          <path class="cls-13" d="M1086.44,504.6a7.83,7.83,0,1,1-11.08,0,7.82,7.82,0,0,1,11.08,0l0,0"/>
          <path class="cls-13" d="M1068.53,532.17a7.83,7.83,0,1,1-7.83,7.83h0a7.84,7.84,0,0,1,7.83-7.83"/>
          <path class="cls-13" d="M1075.36,564.33a7.83,7.83,0,1,1,0,11.07h0a7.82,7.82,0,0,1,0-11.07"/>
          <path class="cls-16" d="M601.85,302.37c0,102.88-83.4,186.28-186.28,186.28S229.3,405.25,229.3,302.37,312.7,116.1,415.57,116.1s186.28,83.4,186.28,186.27"/>
          <path class="cls-2" d="M415.57,212a90.34,90.34,0,1,0,90.34,90.34h0A90.33,90.33,0,0,0,415.58,212h0"/>
          <path class="cls-14" d="M415.57,275.68a26.7,26.7,0,1,0,26.7,26.7h0a26.71,26.71,0,0,0-26.7-26.69"/>
          <line class="cls-17" x1="361.89" y1="102.02" x2="354.29" y2="73.68"/>
          <line class="cls-17" x1="268.9" y1="155.7" x2="248.15" y2="134.95"/>
          <line class="cls-17" x1="215.21" y1="248.69" x2="186.87" y2="241.09"/>
          <line class="cls-17" x1="215.21" y1="356.06" x2="186.87" y2="363.65"/>
          <line class="cls-17" x1="268.9" y1="449.05" x2="248.15" y2="469.79"/>
          <line class="cls-17" x1="361.89" y1="502.73" x2="354.29" y2="531.07"/>
          <line class="cls-17" x1="469.26" y1="502.73" x2="476.85" y2="531.07"/>
          <line class="cls-17" x1="562.24" y1="449.05" x2="582.99" y2="469.79"/>
          <line class="cls-17" x1="615.93" y1="356.06" x2="644.27" y2="363.65"/>
          <line class="cls-17" x1="615.93" y1="248.69" x2="644.27" y2="241.09"/>
          <line class="cls-17" x1="562.24" y1="155.7" x2="582.99" y2="134.95"/>
          <line class="cls-17" x1="469.26" y1="102.02" x2="476.85" y2="73.68"/>
          <polygon class="cls-2" points="415.67 229.23 406.82 73.67 436.51 73.67 427.67 229.23 415.67 229.23"/>
          <polygon class="cls-2" points="379.08 238.98 293.65 108.69 319.36 93.85 389.48 232.98 379.08 238.98"/>
          <polygon class="cls-2" points="352.28 265.72 213.14 195.6 227.98 169.89 358.28 255.33 352.28 265.72"/>
          <polygon class="cls-2" points="342.43 302.28 186.87 311.12 186.87 281.44 342.43 290.28 342.43 302.28"/>
          <polygon class="cls-2" points="352.18 338.86 221.89 424.3 207.04 398.59 346.18 328.47 352.18 338.86"/>
          <polygon class="cls-2" points="378.92 365.67 308.8 504.81 283.09 489.96 368.52 359.67 378.92 365.67"/>
          <polygon class="cls-2" points="415.48 375.52 424.32 531.07 394.63 531.07 403.48 375.52 415.48 375.52"/>
          <polygon class="cls-2" points="452.06 365.76 537.5 496.06 511.79 510.9 441.67 371.76 452.06 365.76"/>
          <polygon class="cls-2" points="478.87 339.03 618 409.15 603.16 434.86 472.87 349.42 478.87 339.03"/>
          <polygon class="cls-2" points="488.71 302.47 644.27 293.63 644.27 323.31 488.71 314.47 488.71 302.47"/>
          <polygon class="cls-2" points="478.96 265.89 609.26 180.45 624.1 206.16 484.96 276.28 478.96 265.89"/>
          <polygon class="cls-2" points="452.23 239.08 522.35 99.94 548.05 114.78 462.62 245.08 452.23 239.08"/>
          <path class="cls-16" d="M1690.7,591.69c0,102.88-83.39,186.28-186.27,186.28s-186.28-83.4-186.28-186.28,83.4-186.27,186.28-186.27,186.27,83.4,186.27,186.27"/>
          <path class="cls-2" d="M1504.43,501.36a90.34,90.34,0,1,0,90.33,90.35v0a90.34,90.34,0,0,0-90.33-90.33"/>
          <path class="cls-14" d="M1504.43,565a26.7,26.7,0,1,0,26.7,26.7h0A26.69,26.69,0,0,0,1504.44,565h0"/>
          <line class="cls-17" x1="1450.74" y1="391.34" x2="1443.15" y2="363"/>
          <line class="cls-17" x1="1357.76" y1="445.02" x2="1337.01" y2="424.28"/>
          <line class="cls-17" x1="1304.07" y1="538.01" x2="1275.73" y2="530.41"/>
          <line class="cls-17" x1="1304.07" y1="645.38" x2="1275.73" y2="652.97"/>
          <line class="cls-17" x1="1357.76" y1="738.37" x2="1337.01" y2="759.11"/>
          <line class="cls-17" x1="1450.74" y1="792.05" x2="1443.15" y2="820.39"/>
          <line class="cls-17" x1="1558.11" y1="792.05" x2="1565.71" y2="820.39"/>
          <line class="cls-17" x1="1651.1" y1="738.37" x2="1671.85" y2="759.11"/>
          <line class="cls-17" x1="1704.79" y1="645.38" x2="1733.13" y2="652.97"/>
          <line class="cls-17" x1="1704.79" y1="538.01" x2="1733.13" y2="530.41"/>
          <line class="cls-17" x1="1651.1" y1="445.02" x2="1671.85" y2="424.28"/>
          <line class="cls-17" x1="1558.11" y1="391.34" x2="1565.71" y2="363"/>
          <polygon class="cls-2" points="1504.52 518.55 1495.68 363 1525.37 363 1516.52 518.55 1504.52 518.55"/>
          <polygon class="cls-2" points="1467.94 528.3 1382.5 398.01 1408.21 383.17 1478.33 522.3 1467.94 528.3"/>
          <polygon class="cls-2" points="1441.13 555.04 1302 484.92 1316.84 459.21 1447.13 544.65 1441.13 555.04"/>
          <polygon class="cls-2" points="1431.29 591.6 1275.73 600.44 1275.73 570.76 1431.29 579.6 1431.29 591.6"/>
          <polygon class="cls-2" points="1441.04 628.18 1310.74 713.62 1295.9 687.91 1435.04 617.79 1441.04 628.18"/>
          <polygon class="cls-2" points="1467.77 654.99 1397.65 794.13 1371.95 779.28 1457.38 648.99 1467.77 654.99"/>
          <polygon class="cls-2" points="1504.33 664.84 1513.17 820.39 1483.49 820.39 1492.33 664.84 1504.33 664.84"/>
          <polygon class="cls-2" points="1540.92 655.09 1626.35 785.38 1600.64 800.22 1530.52 661.09 1540.92 655.09"/>
          <polygon class="cls-2" points="1567.72 628.35 1706.86 698.47 1692.02 724.18 1561.72 638.74 1567.72 628.35"/>
          <polygon class="cls-2" points="1577.57 591.79 1733.13 582.95 1733.13 612.63 1577.57 603.79 1577.57 591.79"/>
          <polygon class="cls-2" points="1567.82 555.21 1698.11 469.77 1712.96 495.48 1573.82 565.6 1567.82 555.21"/>
          <polygon class="cls-2" points="1541.08 528.4 1611.2 389.26 1636.91 404.11 1551.47 534.4 1541.08 528.4"/>
          <path class="cls-13" d="M689.48,730.34a26.4,26.4,0,1,1-13.72-34.72h0a26.39,26.39,0,0,1,13.72,34.72"/>
          <path class="cls-13" d="M698.77,671.9c-2.14,4.93-8.66,6.85-14.57,4.28s-9-8.64-6.83-13.56,8.66-6.85,14.57-4.29,9,8.64,6.83,13.57"/>
          <line class="cls-18" x1="688.07" y1="667.26" x2="665.26" y2="719.84"/>
          <path class="cls-13" d="M655.05,662.25c2,5-1.28,11-7.27,13.33s-12.45.23-14.42-4.76,1.28-11,7.27-13.34,12.45-.23,14.42,4.77"/>
          <line class="cls-18" x1="644.2" y1="666.53" x2="665.26" y2="719.84"/>
          <path class="cls-13" d="M617.32,686.33c4.93,2.14,6.84,8.66,4.28,14.57s-8.64,9-13.57,6.83-6.84-8.66-4.28-14.57,8.64-9,13.57-6.83"/>
          <line class="cls-18" x1="612.68" y1="697.03" x2="665.26" y2="719.84"/>
          <path class="cls-13" d="M607.66,730.05c5-2,11,1.28,13.34,7.27s.23,12.45-4.77,14.42-11-1.28-13.33-7.27-.23-12.45,4.76-14.42"/>
          <line class="cls-18" x1="611.95" y1="740.9" x2="665.26" y2="719.84"/>
          <path class="cls-13" d="M631.75,767.78c2.14-4.93,8.66-6.84,14.57-4.28s9,8.64,6.83,13.57-8.66,6.84-14.57,4.28-9-8.64-6.83-13.57"/>
          <line class="cls-18" x1="642.45" y1="772.42" x2="665.26" y2="719.84"/>
          <path class="cls-13" d="M675.46,777.44c-2-5,1.29-11,7.28-13.34s12.45-.23,14.42,4.77-1.28,11-7.27,13.33-12.45.23-14.43-4.76"/>
          <line class="cls-18" x1="686.31" y1="773.15" x2="665.26" y2="719.84"/>
          <path class="cls-13" d="M713.2,753.35c-4.93-2.14-6.85-8.66-4.28-14.57s8.64-9,13.56-6.83,6.85,8.66,4.29,14.57-8.64,9-13.57,6.83"/>
          <line class="cls-18" x1="717.84" y1="742.65" x2="665.26" y2="719.84"/>
          <path class="cls-13" d="M722.85,709.64c-5,2-11-1.29-13.33-7.28s-.23-12.45,4.76-14.42,11,1.28,13.34,7.27.23,12.45-4.77,14.43"/>
          <line class="cls-18" x1="718.57" y1="698.79" x2="665.26" y2="719.84"/>
          <path class="cls-2" d="M675.48,724.28a11.14,11.14,0,1,1-5.79-14.66,11.15,11.15,0,0,1,5.79,14.66h0"/>
          <path class="cls-13" d="M1230.52,162.4a26.4,26.4,0,1,1,13.72,34.72h0a26.39,26.39,0,0,1-13.72-34.72"/>
          <path class="cls-13" d="M1221.23,220.85c2.14-4.93,8.66-6.85,14.57-4.29s9,8.64,6.83,13.57-8.66,6.85-14.57,4.29-9-8.64-6.83-13.57"/>
          <line class="cls-18" x1="1231.93" y1="225.49" x2="1254.74" y2="172.91"/>
          <path class="cls-13" d="M1265,230.5c-2-5,1.28-11,7.27-13.33s12.45-.24,14.42,4.76-1.28,11-7.27,13.33-12.45.24-14.42-4.76"/>
          <line class="cls-18" x1="1275.8" y1="226.22" x2="1254.74" y2="172.91"/>
          <path class="cls-13" d="M1302.68,206.42c-4.93-2.14-6.85-8.67-4.28-14.58s8.64-9,13.57-6.83,6.84,8.67,4.28,14.58-8.64,9-13.57,6.83"/>
          <line class="cls-18" x1="1307.32" y1="195.71" x2="1254.74" y2="172.91"/>
          <path class="cls-13" d="M1312.34,162.7c-5,2-11-1.28-13.34-7.27s-.23-12.45,4.77-14.43,11,1.29,13.33,7.28.23,12.45-4.76,14.42"/>
          <line class="cls-18" x1="1308.05" y1="151.85" x2="1254.74" y2="172.91"/>
          <path class="cls-13" d="M1288.25,125c-2.14,4.93-8.66,6.85-14.57,4.29s-9-8.64-6.83-13.57,8.66-6.85,14.57-4.28,9,8.63,6.83,13.56"/>
          <line class="cls-18" x1="1277.55" y1="120.32" x2="1254.74" y2="172.91"/>
          <path class="cls-13" d="M1244.54,115.31c2,5-1.29,11-7.28,13.33s-12.45.24-14.42-4.76,1.28-11,7.27-13.33,12.45-.24,14.43,4.76"/>
          <line class="cls-18" x1="1233.69" y1="119.6" x2="1254.74" y2="172.91"/>
          <path class="cls-13" d="M1206.8,139.4c4.93,2.13,6.85,8.66,4.28,14.57s-8.64,9-13.56,6.83-6.85-8.66-4.29-14.57,8.64-9,13.57-6.83"/>
          <line class="cls-18" x1="1202.16" y1="150.1" x2="1254.74" y2="172.91"/>
          <path class="cls-13" d="M1197.15,183.11c5-2,11,1.29,13.33,7.28s.23,12.45-4.77,14.42-11-1.28-13.33-7.28-.23-12.44,4.77-14.42"/>
          <line class="cls-18" x1="1201.43" y1="193.96" x2="1254.74" y2="172.91"/>
          <path class="cls-2" d="M1244.52,168.47a11.14,11.14,0,1,1,5.79,14.66,11.15,11.15,0,0,1-5.79-14.66h0"/>
          <circle class="cls-5" cx="1496.5" cy="225.49" r="51.94" transform="translate(278.87 1124.23) rotate(-45)"/>
        </g>
      </g>
      <rect class="cls-19" y="810" width="1920" height="270"/>
      <rect class="cls-1" width="1940" height="1080"/>
      <rect class="cls-1" y="50" width="1940" height="1080"/>
      <g>
        <g>
          <path class="cls-20" d="M1711.49,997.44c69.25,0,125.4,7.94,125.4,17.73s-56.15,17.73-125.4,17.73-125.39-7.94-125.39-17.73,56.14-17.73,125.39-17.73"/>
          <path class="cls-21" d="M1711.49,996.66c21.52-.1,43,.49,64.52,2.17,10.74.88,21.46,2,32.12,3.8A156.54,156.54,0,0,1,1824,1006a56.54,56.54,0,0,1,7.79,2.71,20.18,20.18,0,0,1,3.75,2.14,9,9,0,0,1,1.71,1.67,4.19,4.19,0,0,1,0,5.3,9,9,0,0,1-1.7,1.67,20.32,20.32,0,0,1-3.75,2.17,57.51,57.51,0,0,1-7.78,2.76,156.89,156.89,0,0,1-15.9,3.46c-10.65,1.8-21.38,3-32.11,3.92-21.48,1.83-43,2.55-64.55,2.59s-43.07-.76-64.54-2.58c-10.74-.93-21.46-2.12-32.12-3.93a156.89,156.89,0,0,1-15.9-3.46,56.17,56.17,0,0,1-7.78-2.76,20.27,20.27,0,0,1-3.75-2.16,8.73,8.73,0,0,1-1.7-1.68,4.2,4.2,0,0,1,0-5.31,8.67,8.67,0,0,1,1.71-1.66,20.18,20.18,0,0,1,3.75-2.14A54.57,54.57,0,0,1,1599,1006a153.94,153.94,0,0,1,15.9-3.39c10.65-1.76,21.38-2.91,32.11-3.79,21.48-1.68,43-2.27,64.52-2.17v1.57c-21.48.13-43,.95-64.33,2.86-10.68,1-21.35,2.16-31.89,4a156.75,156.75,0,0,0-15.61,3.42,52.5,52.5,0,0,0-7.4,2.63,17.31,17.31,0,0,0-3.3,1.87,3.19,3.19,0,0,0-1.59,2.2,3.59,3.59,0,0,0,1.61,2.19,17,17,0,0,0,3.24,1.83,53.69,53.69,0,0,0,7.41,2.58,153.7,153.7,0,0,0,15.61,3.35c10.54,1.77,21.21,2.93,31.89,3.83,21.37,1.77,42.84,2.45,64.3,2.45s42.93-.67,64.31-2.44c10.68-.91,21.34-2.07,31.88-3.84a157.26,157.26,0,0,0,15.62-3.35,52.36,52.36,0,0,0,7.41-2.57,18.11,18.11,0,0,0,3.24-1.83,3.19,3.19,0,0,0,1.6-2.2,3.57,3.57,0,0,0-1.59-2.21,18.17,18.17,0,0,0-3.23-1.86,53.87,53.87,0,0,0-7.41-2.62,154,154,0,0,0-15.61-3.42c-10.54-1.81-21.21-3-31.89-4-21.37-1.91-42.85-2.73-64.33-2.86Z"/>
          <path class="cls-22" d="M1711.49,1008.43c29.86,0,54.06,3,54.06,6.74s-24.2,6.75-54.06,6.75-54-3-54-6.75,24.2-6.74,54-6.74"/>
        </g>
        <path class="cls-23" d="M1562.9,850.57c-2.94,8.11,7.44,19.31,23.19,25s30.89,3.75,33.83-4.36-7.44-19.31-23.19-25-30.89-3.75-33.83,4.36"/>
        <path class="cls-24" d="M1748.86,918.35H1614.21l15.7,69.62a27.45,27.45,0,0,0,53.59-.13l6.08-27.57h43.73l6.07,27.57a27.46,27.46,0,0,0,53.6.13l15.69-69.62Z"/>
        <path class="cls-25" d="M1627.66,896.8c-2-13.69-21.37-46,9.89-67.13a17,17,0,1,0-19.21-28.15c-37.72,26.79-81.34,55.41-28,115.6"/>
        <path class="cls-25" d="M1878.77,911.64a29.4,29.4,0,1,1-29.4-29.4,29.4,29.4,0,0,1,29.4,29.4h0"/>
        <path class="cls-25" d="M1820,911.64c0-13.84,1.5-64.38-32.49-80.73a17,17,0,1,1,14.92-30.64c47,23.45,76.37,62.21,76.37,111.37"/>
        <path class="cls-26" d="M1810.38,874.68c0-13.84-7.55-37.36-22.9-43.77-8.69-3.62-12-14.32-7.86-22.78s13.41-10.73,18.7-9.25c43.09,12,66,41.88,66,41.88s-21.48,25-54,33.92"/>
        <path class="cls-26" d="M1621.25,876.29c-2-13.69,2-38,16.3-46.62,8.07-4.85,9.78-15.91,4.47-23.68s-14.83-8.67-19.85-6.45c-40.88,18.16-59.27,51-59.27,51,8.87-9.77,47.31-11.24,58.35,25.72"/>
        <path class="cls-27" d="M1820.32,897.8c0-66-48.75-119.58-108.88-119.58s-108.87,53.54-108.87,119.58a130.83,130.83,0,0,0,3.48,30.09h210.79a130.83,130.83,0,0,0,3.48-30.09"/>
        <path class="cls-20" d="M1459.63,1000.62c44.45,0,80.49,6.85,80.49,15.29s-36,15.29-80.49,15.29-80.49-6.85-80.49-15.29,36-15.29,80.49-15.29"/>
        <path class="cls-21" d="M1459.63,999.84a371,371,0,0,1,42.16,1.91,184.73,184.73,0,0,1,20.91,3.4,73.33,73.33,0,0,1,10.26,3.07,26.64,26.64,0,0,1,4.94,2.5,11.33,11.33,0,0,1,2.26,2,4.7,4.7,0,0,1,0,6.47,10.72,10.72,0,0,1-2.25,2,25.27,25.27,0,0,1-4.92,2.56,72.29,72.29,0,0,1-10.26,3.14,185.13,185.13,0,0,1-20.91,3.54,385.37,385.37,0,0,1-84.4,0,189.71,189.71,0,0,1-20.91-3.53,75,75,0,0,1-10.26-3.14,26.81,26.81,0,0,1-4.93-2.56,11.9,11.9,0,0,1-2.25-2,4.7,4.7,0,0,1,0-6.47,11.33,11.33,0,0,1,2.26-2,26.08,26.08,0,0,1,4.94-2.51,74.7,74.7,0,0,1,10.26-3.07,189.33,189.33,0,0,1,20.91-3.4,371,371,0,0,1,42.16-1.9v1.57a371.5,371.5,0,0,0-41.9,2.59,186.26,186.26,0,0,0-20.6,3.55,72.2,72.2,0,0,0-9.87,3.05,22.74,22.74,0,0,0-4.41,2.28,8.26,8.26,0,0,0-1.7,1.48,2.08,2.08,0,0,0-.14,2.94l.14.14a8.75,8.75,0,0,0,1.7,1.45,23.61,23.61,0,0,0,4.43,2.24,72,72,0,0,0,9.87,3,184,184,0,0,0,20.6,3.42,402.62,402.62,0,0,0,83.73,0,186.64,186.64,0,0,0,20.6-3.41,72,72,0,0,0,9.87-3,24.1,24.1,0,0,0,4.42-2.23,8.53,8.53,0,0,0,1.71-1.46,2.08,2.08,0,0,0,0-3.08,8.9,8.9,0,0,0-1.7-1.48,23.74,23.74,0,0,0-4.42-2.29,70.63,70.63,0,0,0-9.87-3,191.53,191.53,0,0,0-20.6-3.56,371.49,371.49,0,0,0-41.9-2.58Z"/>
        <path class="cls-22" d="M1459.63,1010.09c19.16,0,34.7,2.6,34.7,5.82s-15.54,5.82-34.7,5.82-34.7-2.61-34.7-5.82,15.54-5.82,34.7-5.82"/>
        <g class="cls-28">
          <path class="cls-29" d="M1778.42,889.3c0-71.08-30-128.71-67-128.71s-67,57.63-67,128.71a243.45,243.45,0,0,0,2.14,32.38h129.68A241.82,241.82,0,0,0,1778.42,889.3Z"/>
        </g>
        <path class="cls-30" d="M1711.44,825.51l50.25-59.27a91.53,91.53,0,0,1,36.8,29.61L1767,817.36l-19.08-11-4.76,19.16Z"/>
        <path class="cls-31" d="M1798.49,795.85c-2.44,2.06-4.92,4-7.43,6l-3.76,2.94-3.8,2.89c-2.52,1.94-5.09,3.81-7.65,5.7s-5.14,3.73-7.72,5.59l-1,.69-1.13-.61q-4.83-2.64-9.62-5.35c-3.19-1.82-6.38-3.64-9.55-5.5l3.17-1.34-1.22,4.78c-.42,1.59-.82,3.18-1.26,4.77L1745,826l-.4,1.44h-1.38l-7.94-.29c-2.64-.09-5.29-.26-7.93-.38s-5.29-.33-7.93-.49-5.29-.4-7.94-.68c2.65-.27,5.29-.47,7.94-.68s5.28-.36,7.93-.49,5.29-.29,7.93-.37l7.94-.29-1.78,1.39,2.17-9.63c.35-1.61.75-3.21,1.12-4.81l1.16-4.8.66-2.77,2.51,1.43c3.19,1.81,6.36,3.66,9.53,5.51s6.32,3.74,9.45,5.65l-2.1.08c2.67-1.73,5.32-3.48,8-5.16s5.36-3.41,8.09-5.06l4.07-2.49,4.1-2.43c2.75-1.62,5.51-3.21,8.31-4.74"/>
        <path class="cls-30" d="M1711.44,825.51l-50.24-59.27a91.56,91.56,0,0,0-36.81,29.61l31.48,21.51,19.07-11,4.77,19.16Z"/>
        <path class="cls-31" d="M1624.39,795.85c2.8,1.53,5.57,3.12,8.31,4.74l4.11,2.43,4.07,2.49c2.72,1.65,5.4,3.36,8.09,5.06s5.35,3.43,8,5.16l-2.1-.08q4.71-2.86,9.45-5.65c3.17-1.85,6.34-3.7,9.54-5.51l2.5-1.43.67,2.77,1.15,4.8c.38,1.6.77,3.2,1.13,4.81l2.17,9.63-1.78-1.39,7.93.29c2.65.08,5.29.25,7.94.37s5.28.33,7.93.49,5.29.41,7.93.68c-2.64.28-5.29.48-7.93.68s-5.29.36-7.93.49-5.29.29-7.94.38l-7.93.29h-1.39l-.39-1.44-2.6-9.53c-.44-1.59-.83-3.18-1.25-4.77l-1.23-4.78,3.17,1.34c-3.16,1.86-6.35,3.68-9.54,5.5s-6.4,3.59-9.63,5.35l-1.13.61-1-.69c-2.59-1.86-5.18-3.69-7.73-5.59s-5.13-3.76-7.65-5.7l-3.8-2.89-3.76-2.94c-2.5-2-5-4-7.43-6"/>
        <polygon class="cls-32" points="1661.2 766.25 1711.44 825.51 1761.69 766.25 1661.2 766.25"/>
        <path class="cls-33" d="M1798.57,686.87c4.18,15.8,19.14,25.55,33.42,21.77s22.48-19.64,18.31-35.44-19.14-25.55-33.43-21.78S1794.39,671.06,1798.57,686.87Z"/>
        <path class="cls-33" d="M1798.15,663.51C1802,678,1815,687,1827.23,683.79s19.07-17.56,15.26-32-16.84-23.51-29.08-20.28S1794.34,649.07,1798.15,663.51Z"/>
        <path class="cls-33" d="M1624.31,686.87c-4.17,15.8-19.14,25.55-33.42,21.77s-22.48-19.64-18.3-35.44,19.14-25.55,33.42-21.78S1628.49,671.06,1624.31,686.87Z"/>
        <path class="cls-33" d="M1624.73,663.51c-3.81,14.44-16.83,23.52-29.07,20.28s-19.08-17.56-15.26-32,16.83-23.51,29.07-20.28S1628.55,649.07,1624.73,663.51Z"/>
        <path class="cls-32" d="M1624.39,709.83a25.93,25.93,0,1,1-25.93-25.93,25.93,25.93,0,0,1,25.93,25.93v0"/>
        <path class="cls-32" d="M1798.49,709.83a25.93,25.93,0,1,0,25.93-25.93,25.93,25.93,0,0,0-25.93,25.93v0"/>
        <path class="cls-25" d="M1829.18,681.42c0,63.2-52.71,114.43-117.74,114.43s-117.73-51.23-117.73-114.43S1646.42,567,1711.44,567s117.74,51.24,117.74,114.44"/>
        <path class="cls-34" d="M1825.63,709.42a109.94,109.94,0,0,1-15.11,35.35,115.27,115.27,0,0,1-26.33,28.3A118.55,118.55,0,0,1,1750,791.3a121,121,0,0,1-76.68.12A118.57,118.57,0,0,1,1639,773.3a115.49,115.49,0,0,1-26.42-28.22,109.84,109.84,0,0,1-15.22-35.3,116.75,116.75,0,0,0,43.26,61.35,120.65,120.65,0,0,0,142-.22,116.6,116.6,0,0,0,43.06-61.49"/>
        <path class="cls-35" d="M1742.73,700.49c-10.83-7-24.47-5.38-31.29,3.51-6.81-8.89-20.46-10.54-31.29-3.51-19.87,12.9-24.28,41.38-24.28,41.38s27.81,7.56,47.68-5.35a26.91,26.91,0,0,0,7.89-7.8,26.82,26.82,0,0,0,7.9,7.8c19.87,12.91,47.68,5.35,47.68,5.35s-4.41-28.48-24.29-41.38"/>
        <path d="M1679.71,676.89c0,6.19-4.15,11.21-9.26,11.21s-9.25-5-9.25-11.21,4.14-11.21,9.25-11.21,9.26,5,9.26,11.21"/>
        <path class="cls-36" d="M1650,709.83c0,10-8.4,18.09-18.75,18.09s-18.75-8.1-18.75-18.09,8.39-18.1,18.75-18.1,18.75,8.1,18.75,18.1"/>
        <path class="cls-36" d="M1772.88,709.83c0,10,8.39,18.09,18.75,18.09s18.75-8.1,18.75-18.09-8.4-18.1-18.75-18.1-18.75,8.1-18.75,18.1"/>
        <path d="M1743.18,676.89c0,6.19,4.14,11.21,9.25,11.21s9.26-5,9.26-11.21-4.15-11.21-9.26-11.21-9.25,5-9.25,11.21"/>
        <path class="cls-37" d="M1767.39,641.54c12.83,8.14,26.6,9.42,30.76,2.86s-2.87-18.47-15.7-26.61-26.61-9.42-30.77-2.86,2.87,18.47,15.71,26.61"/>
        <path class="cls-37" d="M1655.5,641.54c-12.84,8.14-26.61,9.42-30.77,2.86s2.87-18.47,15.71-26.61,26.61-9.42,30.77-2.86-2.88,18.47-15.71,26.61"/>
        <path class="cls-35" d="M1666.73,574.71c13.15,27.26,66.09,32,79.62-2,5.43-13.6-1.59-30.56-17.44-32.76,0,0,6.34,15.37-1.22,17.56s-33.18-26.1-61,17.15"/>
        <path class="cls-38" d="M1587.93,991.76h-.76a6.24,6.24,0,0,1-6.22-6.22V875.76a6.24,6.24,0,0,1,6.22-6.22h.76a6.24,6.24,0,0,1,6.22,6.22V985.54a6.24,6.24,0,0,1-6.22,6.22"/>
        <path class="cls-25" d="M1562.82,849.23c-1.71,13.13,8.61,25.3,23,27.18s27.53-7.24,29.24-20.37-8.61-25.3-23-27.18-27.53,7.24-29.24,20.37"/>
        <path class="cls-25" d="M1554.77,870.91c0,15.79,14.26,28.58,31.83,28.58s31.83-12.79,31.83-28.58-14.25-28.58-31.83-28.58-31.83,12.79-31.83,28.58"/>
        <path class="cls-39" d="M1618.44,870.91a27.65,27.65,0,0,0-3.45-11.09,29.34,29.34,0,0,0-7.38-8.61,34.51,34.51,0,0,0-32.09-5.33,32.41,32.41,0,0,0-9.9,5.34,29.37,29.37,0,0,0-7.39,8.61,27.64,27.64,0,0,0-3.44,11.08,24.36,24.36,0,0,1,1.91-11.83,28.46,28.46,0,0,1,7.16-9.93,32.74,32.74,0,0,1,10.57-6.38,35.11,35.11,0,0,1,24.37,0,32.46,32.46,0,0,1,10.57,6.38,28.64,28.64,0,0,1,7.16,9.92,24.48,24.48,0,0,1,1.92,11.83"/>
        <path class="cls-40" d="M1524.38,656.88c3.5,8.73-3.57,19.79-15.8,24.69s-34,4.21-48.95,3.25c10.71-19.46,24-30,36.27-34.88S1520.88,648.15,1524.38,656.88Z"/>
        <path class="cls-40" d="M1394.88,656.88c-3.5,8.73,3.58,19.79,15.81,24.69s34,4.21,48.94,3.25c-10.7-19.46-24-30-36.27-34.88S1398.38,648.15,1394.88,656.88Z"/>
        <path class="cls-25" d="M1533.84,925.55l-25.57-31.87h0c-.1-.13-.19-.27-.3-.39a15.2,15.2,0,0,0-22.87,20c.11.13.23.24.35.36h0l28.11,29.45.09.12a13.45,13.45,0,0,0,20.23-17.72"/>
        <path class="cls-41" d="M1508,893.31s-5.84,4.48-12.15,10-10.72,10-10.72,10a15.2,15.2,0,0,1,22.87-20"/>
        <path class="cls-25" d="M1432.7,892a15.14,15.14,0,0,0-21.37,1.34h0c-.11.12-.21.26-.31.39h0l-25.58,31.87a13.45,13.45,0,0,0,20.23,17.72l.09-.12,28.11-29.45h0c.11-.13.23-.23.34-.36a15.14,15.14,0,0,0-1.46-21.36l0,0"/>
        <path class="cls-41" d="M1411.32,893.31s5.83,4.48,12.14,10,10.72,10,10.72,10a15.19,15.19,0,0,0-22.86-20"/>
        <path class="cls-25" d="M1458.42,962l-18.31,45.24a13.84,13.84,0,0,1-26.55-7.07l6.63-48.64Z"/>
        <path class="cls-25" d="M1460.84,962l18.31,45.24a13.85,13.85,0,0,0,26.56-7.07l-6.64-48.64Z"/>
        <path class="cls-42" d="M1489.81,882l17,78.76s-18.11,7-47.19,7-47.19-7-47.19-7l17-78.76"/>
        <path class="cls-43" d="M1569.2,782.06c0,56.9-49.06,103-109.57,103s-109.57-46.12-109.57-103,49.06-103,109.57-103,109.57,46.13,109.57,103"/>
        <path class="cls-32" d="M1342.3,817.46a21,21,0,1,0,21-21,21,21,0,0,0-21,21h0"/>
        <path class="cls-32" d="M1577,817.46a21,21,0,1,1-21-21,21,21,0,0,1,21,21h0"/>
        <path class="cls-43" d="M1583.63,721c-13.86,9.42-32.08,6.78-40.71-5.91s-4.37-30.6,9.49-40,53.42-15.81,71.92,32.14c-16.79-3.08-26.84,4.37-40.7,13.79"/>
        <path class="cls-41" d="M1480.2,886.46c0,12.71-9.21,23-20.57,23s-20.57-10.31-20.57-23,9.21-23,20.57-23,20.57,10.3,20.57,23"/>
        <path class="cls-43" d="M1335.63,721c13.86,9.42,32.09,6.78,40.71-5.91s4.37-30.6-9.48-40-53.43-15.81-71.92,32.14c16.78-3.08,26.83,4.37,40.69,13.79"/>
        <path class="cls-25" d="M1560.68,790.39c0,55.54-45.24,100.57-101,100.57s-101-45-101-100.57,45.24-100.56,101-100.56,101,45,101,100.56"/>
        <path class="cls-34" d="M1557,817.47a97.29,97.29,0,0,1-13.11,30,101,101,0,0,1-168.46,0,97.52,97.52,0,0,1-13.11-30,103.23,103.23,0,0,0,37.15,52,101.62,101.62,0,0,0,120.39,0,103.11,103.11,0,0,0,37.14-52"/>
        <path d="M1505.44,794.94c0,7.52-4.27,13.62-9.54,13.62s-9.54-6.1-9.54-13.62,4.27-13.61,9.54-13.61,9.54,6.09,9.54,13.61"/>
        <path d="M1413.82,794.94c0,7.52,4.27,13.62,9.54,13.62s9.54-6.1,9.54-13.62-4.27-13.61-9.54-13.61-9.54,6.09-9.54,13.61"/>
        <path class="cls-36" d="M1381.48,821.41c0,7.18,6.47,13,14.45,13s14.44-5.82,14.44-13-6.46-13-14.44-13-14.45,5.82-14.45,13"/>
        <path class="cls-36" d="M1537.78,821.41c0,7.18-6.47,13-14.45,13s-14.44-5.82-14.44-13,6.46-13,14.44-13,14.45,5.82,14.45,13"/>
        <path d="M1441.69,822.15a20.07,20.07,0,0,0,6.81,10.25,17.13,17.13,0,0,0,22.26,0,20.2,20.2,0,0,0,6.81-10.25h0a1.14,1.14,0,0,1,2.24.37,19.83,19.83,0,0,1-6.5,12.85,21,21,0,0,1-6.28,4,19.23,19.23,0,0,1-14.82,0,21,21,0,0,1-6.27-4,19.79,19.79,0,0,1-6.51-12.84,1.14,1.14,0,0,1,2.24-.37Z"/>
        <path class="cls-43" d="M1459.63,729.37a66.27,66.27,0,0,0,101.13,13c-16.52-37.2-55.58-63.34-101.13-63.34s-84.6,26.14-101.13,63.34a66.25,66.25,0,0,0,101.13-13"/>
        <path class="cls-44" d="M1492.29,744.28a17.65,17.65,0,0,1,9.4-.28,19.91,19.91,0,0,1,8.61,4.51,20.47,20.47,0,0,1,5.48,8,18,18,0,0,1,1.08,9.3,1.87,1.87,0,0,1-3.61.31v-.07a33.91,33.91,0,0,0-3.09-6.87,24.34,24.34,0,0,0-4.47-5.44,21.55,21.55,0,0,0-5.85-3.75,30.35,30.35,0,0,0-7.19-2h-.09a1.86,1.86,0,0,1-.24-3.61"/>
        <path class="cls-44" d="M1426.64,747.91a30.27,30.27,0,0,0-7.18,2,21.52,21.52,0,0,0-5.86,3.75,24.34,24.34,0,0,0-4.47,5.44A34.87,34.87,0,0,0,1406,766v.07a1.86,1.86,0,0,1-2.36,1.17,1.88,1.88,0,0,1-1.24-1.48,18,18,0,0,1,1.07-9.3,20.47,20.47,0,0,1,5.48-8,19.91,19.91,0,0,1,8.61-4.51,17.65,17.65,0,0,1,9.4.28,1.86,1.86,0,0,1-.24,3.61Z"/>
      </g>
      <rect class="cls-1" width="1940" height="1080"/>
      <g>
        <path class="cls-20" d="M191.22,1006.22c69.26,0,125.4,7.93,125.4,17.72s-56.14,17.73-125.4,17.73-125.39-7.94-125.39-17.73,56.14-17.72,125.39-17.72"/>
        <path class="cls-21" d="M191.22,1005.43c21.52-.1,43.05.49,64.52,2.18,10.74.87,21.46,2,32.12,3.79a156.38,156.38,0,0,1,15.89,3.38,56.54,56.54,0,0,1,7.79,2.71,20.76,20.76,0,0,1,3.75,2.14,8.2,8.2,0,0,1,1.71,1.67,4.19,4.19,0,0,1,0,5.3,9,9,0,0,1-1.7,1.67,20.32,20.32,0,0,1-3.75,2.17,56.17,56.17,0,0,1-7.78,2.76,154,154,0,0,1-15.89,3.46c-10.66,1.8-21.39,3-32.12,3.92-21.48,1.83-43,2.55-64.55,2.59s-43.07-.76-64.54-2.58c-10.74-.93-21.46-2.12-32.12-3.93a156.7,156.7,0,0,1-15.89-3.46,55,55,0,0,1-7.79-2.76,19.34,19.34,0,0,1-3.74-2.16,8.51,8.51,0,0,1-1.71-1.68,4.19,4.19,0,0,1,0-5.3,8.2,8.2,0,0,1,1.71-1.67,20.18,20.18,0,0,1,3.75-2.14,56.54,56.54,0,0,1,7.79-2.71,156.61,156.61,0,0,1,15.9-3.39c10.66-1.76,21.38-2.91,32.11-3.79,21.48-1.68,43-2.27,64.52-2.17V1007c-21.47.13-42.95,1-64.33,2.87-10.68,1-21.34,2.15-31.89,4a154,154,0,0,0-15.61,3.43,52.45,52.45,0,0,0-7.4,2.62,16.72,16.72,0,0,0-3.23,1.86,3.16,3.16,0,0,0-1.59,2.2,3.6,3.6,0,0,0,1.6,2.19A17.28,17.28,0,0,0,72,1028a55.49,55.49,0,0,0,7.41,2.57A153.79,153.79,0,0,0,95,1033.89c10.54,1.77,21.21,2.93,31.89,3.83,21.37,1.77,42.84,2.45,64.3,2.45s42.93-.67,64.31-2.44c10.68-.91,21.34-2.07,31.89-3.84a156.47,156.47,0,0,0,15.61-3.35,52.36,52.36,0,0,0,7.41-2.57,18.11,18.11,0,0,0,3.24-1.83c1-.7,1.63-1.58,1.61-2.2a3.55,3.55,0,0,0-1.6-2.21,17.58,17.58,0,0,0-3.23-1.86,53.87,53.87,0,0,0-7.41-2.62,154,154,0,0,0-15.61-3.42c-10.54-1.81-21.21-3-31.89-4-21.37-1.91-42.85-2.73-64.33-2.86Z"/>
        <path class="cls-22" d="M191.22,1017.2c29.86,0,54.06,3,54.06,6.74s-24.2,6.75-54.06,6.75-54.05-3-54.05-6.75,24.2-6.74,54.05-6.74"/>
        <path class="cls-20" d="M413.08,1023.42c44.45,0,80.49,6.84,80.49,15.28s-36,15.29-80.49,15.29-80.49-6.84-80.49-15.29,36-15.28,80.49-15.28"/>
        <path class="cls-21" d="M413.08,1022.63a373.34,373.34,0,0,1,42.16,1.91,189.33,189.33,0,0,1,20.91,3.4,76.12,76.12,0,0,1,10.26,3.07,26,26,0,0,1,4.93,2.51,11,11,0,0,1,2.26,2,5.38,5.38,0,0,1,1.3,3.22,5.47,5.47,0,0,1-1.28,3.25,11.28,11.28,0,0,1-2.25,2,27,27,0,0,1-4.92,2.56,75,75,0,0,1-10.26,3.14,192.13,192.13,0,0,1-20.91,3.54,385.37,385.37,0,0,1-84.4,0,189.74,189.74,0,0,1-20.91-3.54,72.29,72.29,0,0,1-10.26-3.14,26.77,26.77,0,0,1-4.93-2.55,11.28,11.28,0,0,1-2.25-2,4.71,4.71,0,0,1,0-6.48,11.33,11.33,0,0,1,2.26-2,26,26,0,0,1,4.94-2.5A73.33,73.33,0,0,1,350,1028a184.73,184.73,0,0,1,20.91-3.4,373.34,373.34,0,0,1,42.16-1.91v1.57a371.5,371.5,0,0,0-41.9,2.59,191.53,191.53,0,0,0-20.6,3.56,69.51,69.51,0,0,0-9.87,3.05,23.7,23.7,0,0,0-4.42,2.28,8.9,8.9,0,0,0-1.7,1.48,2.85,2.85,0,0,0-.66,1.54,2.81,2.81,0,0,0,.68,1.53,8.53,8.53,0,0,0,1.71,1.46,23.88,23.88,0,0,0,4.43,2.23,70.63,70.63,0,0,0,9.87,3,188.48,188.48,0,0,0,20.59,3.42,405.39,405.39,0,0,0,83.73,0,184,184,0,0,0,20.6-3.42,73.86,73.86,0,0,0,9.87-3,23.61,23.61,0,0,0,4.43-2.24,9.12,9.12,0,0,0,1.71-1.45,2.1,2.1,0,0,0,.12-3l-.12-.12a8.9,8.9,0,0,0-1.7-1.48,24.32,24.32,0,0,0-4.42-2.28,72.2,72.2,0,0,0-9.87-3.05,186.67,186.67,0,0,0-20.6-3.55,371.5,371.5,0,0,0-41.9-2.59Z"/>
        <path class="cls-22" d="M413.08,1032.89c19.16,0,34.7,2.6,34.7,5.81s-15.54,5.82-34.7,5.82-34.7-2.6-34.7-5.82,15.54-5.81,34.7-5.81"/>
        <path class="cls-32" d="M325.24,697a25.93,25.93,0,1,1-25.93-25.93h0A25.91,25.91,0,0,1,325.24,697h0"/>
        <path class="cls-32" d="M60.94,697a25.93,25.93,0,1,0,25.93-25.93h0A25.91,25.91,0,0,0,60.94,697h0"/>
        <path class="cls-45" d="M102,923.34,118.24,1006a24.27,24.27,0,0,0,47.64,0L174,964.7h38.23l8.07,41.3a24.28,24.28,0,0,0,47.65,0l16.22-82.61Z"/>
        <path class="cls-25" d="M277.08,771.57h0a29.9,29.9,0,0,1,38.58,17.3l38.13,100.19a29.89,29.89,0,0,1-55.87,21.27L259.78,810.14a29.87,29.87,0,0,1,17.28-38.56h0"/>
        <path class="cls-26" d="M347.15,842.8,318.7,787.51a33.43,33.43,0,0,0-62.1,23.64l15.52,60.22c1.08,2.85,18.76-1.23,39.48-9.12s36.64-16.59,35.55-19.45"/>
        <path class="cls-25" d="M109.1,771.57h0a29.9,29.9,0,0,0-38.58,17.3L32.39,889.06a29.9,29.9,0,0,0,55.88,21.27L126.4,810.14a29.87,29.87,0,0,0-17.28-38.56h0"/>
        <path class="cls-26" d="M109.1,771.57h0a33.43,33.43,0,0,0-41.62,15.94L39,842.8c-1.09,2.86,14.83,11.56,35.55,19.45s38.4,12,39.48,9.12l15.52-60.22a33.42,33.42,0,0,0-20.48-39.58"/>
        <path class="cls-27" d="M278.54,757.77l13.68,171.88s-48.19,8.43-98.45,8.43-98.46-8.43-98.46-8.43L109,757.77Z"/>
        <line class="cls-29" x1="244.66" y1="790.86" x2="248.84" y2="935.24"/>
        <line class="cls-29" x1="141.52" y1="790.86" x2="137.34" y2="935.24"/>
        <polygon class="cls-32" points="243.5 764.24 193.09 830.99 142.68 764.24 243.5 764.24"/>
        <polygon class="cls-30" points="278.54 757.77 289.45 778.16 253.27 814.62 233.19 801.9 224.95 826.16 193.09 830.99 248.38 757.77 278.54 757.77"/>
        <path class="cls-31" d="M289.45,778.16q-4.08,5-8.31,9.84c-2.8,3.25-5.69,6.42-8.54,9.61q-8.62,9.54-17.55,18.77l-1.37,1.42-1.74-1.07c-3.37-2.08-6.75-4.16-10.1-6.27s-6.69-4.25-10-6.38l3.81-1.35q-2.11,6-4.3,12.07t-4.47,12l-.46,1.22-1.14.13c-2.67.29-5.34.61-8,.86l-8,.79c-2.68.22-5.35.48-8,.66s-5.37.39-8.07.52c2.61-.68,5.23-1.3,7.86-1.9s5.25-1.16,7.88-1.75l7.9-1.62c2.63-.55,5.28-1,7.91-1.55l-1.6,1.35q1.84-6.15,3.77-12.25t3.94-12.19l1-3.1,2.79,1.75c3.36,2.11,6.72,4.2,10.06,6.34s6.66,4.28,10,6.44l-3.11.35q9.19-9,18.63-17.7c3.17-2.88,6.32-5.79,9.54-8.61s6.47-5.65,9.78-8.39"/>
        <polygon class="cls-30" points="107.64 757.77 96.73 778.16 132.91 814.62 153 801.9 161.24 826.16 193.09 830.99 137.8 757.77 107.64 757.77"/>
        <path class="cls-31" d="M96.73,778.16q5,4.11,9.78,8.39c3.22,2.82,6.37,5.73,9.54,8.61q9.47,8.7,18.63,17.7l-3.11-.35c3.33-2.16,6.65-4.32,10-6.44l10.06-6.34,2.79-1.75,1,3.1q2,6.07,3.94,12.19t3.77,12.25l-1.6-1.35c2.63.51,5.28,1,7.91,1.55l7.9,1.62c2.63.59,5.26,1.13,7.88,1.75s5.25,1.22,7.86,1.9c-2.7-.13-5.38-.31-8.07-.52s-5.36-.44-8-.66l-8-.79c-2.68-.25-5.35-.57-8-.86l-1.14-.13-.46-1.22q-2.28-6-4.47-12t-4.3-12.07l3.81,1.35c-3.34,2.13-6.67,4.28-10,6.38s-6.73,4.19-10.1,6.27l-1.74,1.07-1.37-1.42q-8.9-9.25-17.55-18.77c-2.85-3.19-5.74-6.36-8.54-9.61s-5.59-6.51-8.31-9.84"/>
        <path class="cls-43" d="M86.86,708.13S60.94,659.45,60.94,588c20.5-45.94,66.07-90.15,132.15-90.15S304.74,542.06,325.24,588c0,71.45-25.92,120.13-25.92,120.13"/>
        <path class="cls-25" d="M193.09,538.23a107.63,107.63,0,0,1,108.2,107.06v1.15c0,59.75-.76,107.5-.76,107.5,0,8.07-39.29,20.41-107.44,20.41S85.65,762,85.65,753.94c0,0-.76-47.75-.76-107.5A107.63,107.63,0,0,1,191.94,538.23h1.15"/>
        <path class="cls-34" d="M300.53,753.94a4.66,4.66,0,0,1-1.48,3.14,16.58,16.58,0,0,1-2.73,2.29,42.12,42.12,0,0,1-6.24,3.36,104.1,104.1,0,0,1-13.31,4.71,217.71,217.71,0,0,1-27.58,5.72c-9.29,1.41-18.64,2.26-28,2.91s-18.74.83-28.11.89-18.75-.3-28.11-.88-18.7-1.5-28-2.91a217.71,217.71,0,0,1-27.58-5.72,102.64,102.64,0,0,1-13.31-4.72,41.21,41.21,0,0,1-6.24-3.36,16.58,16.58,0,0,1-2.73-2.29,4.66,4.66,0,0,1-1.48-3.14,4.41,4.41,0,0,0,1.76,2.86,15.62,15.62,0,0,0,2.86,1.9,44.41,44.41,0,0,0,6.36,2.69A110.69,110.69,0,0,0,110,765c4.52,1,9.09,1.77,13.68,2.43s9.18,1.27,13.79,1.74c9.23.92,18.48,1.66,27.75,2s18.55.64,27.84.6,18.57-.17,27.84-.59,18.52-1.09,27.75-2A274.6,274.6,0,0,0,276.16,765a113,113,0,0,0,13.39-3.58,41.81,41.81,0,0,0,6.36-2.69,15.62,15.62,0,0,0,2.86-1.9,4.41,4.41,0,0,0,1.76-2.86"/>
        <path class="cls-46" d="M244.06,667.1c0,6.55-4.25,11.86-9.5,11.86s-9.49-5.31-9.49-11.86,4.25-11.87,9.49-11.87,9.5,5.31,9.5,11.87"/>
        <path class="cls-46" d="M142.12,667.1c0,6.55,4.25,11.86,9.5,11.86s9.49-5.31,9.49-11.86-4.25-11.87-9.49-11.87-9.5,5.31-9.5,11.87"/>
        <path class="cls-36" d="M271.61,697.1c0,4.14-6.71,7.5-15,7.5s-15-3.36-15-7.5,6.72-7.5,15-7.5,15,3.35,15,7.5"/>
        <path class="cls-36" d="M114.57,697.1c0,4.14,6.71,7.5,15,7.5s15-3.36,15-7.5-6.72-7.5-15-7.5-15,3.35-15,7.5"/>
        <path class="cls-43" d="M273,610c-2.78,6.1-14.07,6.94-25.21,1.87s-17.92-14.14-15.14-20.25,14.06-6.94,25.21-1.86S275.78,603.85,273,610"/>
        <path class="cls-43" d="M113.18,610c2.78,6.1,14.07,6.94,25.21,1.87s17.92-14.14,15.14-20.25-14.06-6.94-25.21-1.86S110.4,603.85,113.18,610"/>
        <path class="cls-46" d="M157.15,711.12a39.29,39.29,0,0,0,4.49,5.31c.88.76,1.66,1.6,2.61,2.28l1.35,1.08,1.43,1a39.23,39.23,0,0,0,12.53,5.54,50.35,50.35,0,0,0,13.78,1.37l3.51-.2c1.17-.13,2.34-.3,3.52-.45.58-.07,1.18-.13,1.76-.22l1.75-.34c1.17-.23,2.35-.44,3.53-.64h.09a1.14,1.14,0,0,1,1.31.94h0a1.11,1.11,0,0,1-.73,1.25c-1.16.43-2.33.84-3.5,1.23l-1.77.59c-.6.17-1.21.3-1.82.45-1.21.27-2.43.56-3.65.81l-3.74.48a45.17,45.17,0,0,1-15.11-1,37.66,37.66,0,0,1-13.73-6.6l-1.51-1.19-1.4-1.3a31.15,31.15,0,0,1-2.63-2.77,30.39,30.39,0,0,1-4.06-6.44,1.14,1.14,0,1,1,2-1.11Z"/>
        <path class="cls-43" d="M108.56,526.76c42.3,71.37,144.26,70.82,216.68,14.6C271.18,502.81,216,488.47,199.49,488.47s-54.93,9.38-90.93,38.29"/>
        <path class="cls-44" d="M120.42,543.23a115.55,115.55,0,0,0,21.64,17.67,117.86,117.86,0,0,0,25.05,11.9,132.69,132.69,0,0,0,27,6.05,149.84,149.84,0,0,0,27.69.72,172.13,172.13,0,0,0,27.48-3.94,194.64,194.64,0,0,0,26.66-8,225.77,225.77,0,0,0,49.3-26.28,182.78,182.78,0,0,1-48.05,29.44,179,179,0,0,1-27,8.84,169.25,169.25,0,0,1-28.14,4.26,148.89,148.89,0,0,1-28.47-1A126,126,0,0,1,166,576a110.38,110.38,0,0,1-25.09-13.32,100.28,100.28,0,0,1-20.46-19.43"/>
        <path class="cls-43" d="M413.08,545.45c126.61,0,150.06,121,150.06,163.08,0,52.32-32.37,84.67-32.37,84.67s-53.18-20.4-117.69-20.4-117.69,20.4-117.69,20.4S263,760.85,263,708.53c0-42.1,23.45-163.08,150.06-163.08"/>
        <path class="cls-25" d="M526.23,891h0l-38-60.07h0c-.12-.19-.22-.38-.34-.56a19.94,19.94,0,0,0-33,22.41c.13.18.27.34.39.52h0l41.84,57.48h0A17.62,17.62,0,0,0,526.23,891"/>
        <path class="cls-47" d="M490.3,827.89a23.39,23.39,0,0,0-37.89,27.42,22.91,22.91,0,0,0,7.11,6.43l34.67-25.09a23,23,0,0,0-3.89-8.76"/>
        <path class="cls-25" d="M375.93,825.22a19.88,19.88,0,0,0-27.62,5.17c-.12.18-.22.37-.33.56h0L310,891h0a17.62,17.62,0,0,0,29.12,19.8h0l41.84-57.48h0c.13-.18.27-.34.39-.52A19.85,19.85,0,0,0,376,825.24h0"/>
        <path class="cls-47" d="M378.43,822.77a23.32,23.32,0,0,0-32.58,5.12h0a23,23,0,0,0-3.89,8.76l34.67,25.1a23,23,0,0,0,7.12-6.44,23.32,23.32,0,0,0-5.32-32.54"/>
        <path class="cls-25" d="M385.22,1040h0a14.37,14.37,0,0,0,14.26-12.61l9.25-74.86H354.28l16.91,76.22a14.37,14.37,0,0,0,14,11.25"/>
        <path class="cls-25" d="M450.94,1040h0a14.35,14.35,0,0,1-14.26-12.61l-9.25-74.86h54.44L465,1028.79A14.38,14.38,0,0,1,451,1040"/>
        <path class="cls-48" d="M484.53,933.89c0-38.55-32-69.8-71.45-69.8s-71.46,31.25-71.46,69.8a68.17,68.17,0,0,0,6.89,29.75H477.64a68,68,0,0,0,6.89-29.75"/>
        <path class="cls-49" d="M447.54,848.31c0,16.15-15.43,29.23-34.46,29.23s-34.46-13.08-34.46-29.23,15.43-29.23,34.46-29.23,34.46,13.08,34.46,29.23"/>
        <g class="cls-50">
          <polygon class="cls-32" points="450.31 808.13 375.85 808.13 413.08 848.31 450.31 808.13"/>
        </g>
        <path class="cls-32" d="M286.46,737.41A23.45,23.45,0,1,0,310,714h0a23.43,23.43,0,0,0-23.45,23.43v0"/>
        <path class="cls-32" d="M549.69,737.41A23.45,23.45,0,1,1,526.2,714h0a23.43,23.43,0,0,1,23.44,23.44h0"/>
        <path class="cls-25" d="M413.08,822.38C353.91,822.38,306,776.44,306,714c0-79,48-121.63,107.13-121.63S520.21,635,520.21,714c0,62.48-48,108.42-107.13,108.42"/>
        <path class="cls-34" d="M518,736.56a106.09,106.09,0,0,1-12.28,34.64A103.54,103.54,0,0,1,482,799.56a105.35,105.35,0,0,1-32.28,18.32,110.88,110.88,0,0,1-73.3,0,105.55,105.55,0,0,1-32.28-18.32A103.61,103.61,0,0,1,320.4,771.2a105.92,105.92,0,0,1-12.28-34.65,107.35,107.35,0,0,0,204.43,17.51,119.93,119.93,0,0,0,5.48-17.5"/>
        <path class="cls-46" d="M381.51,718.22c0,6.85-3.75,12.41-8.37,12.41s-8.37-5.56-8.37-12.41,3.74-12.4,8.37-12.4,8.37,5.55,8.37,12.4"/>
        <path class="cls-46" d="M471.39,718.22c0,6.85-3.75,12.41-8.37,12.41s-8.37-5.56-8.37-12.41,3.75-12.4,8.37-12.4,8.37,5.55,8.37,12.4"/>
        <path class="cls-36" d="M364.8,744.77c0,7.18-7.27,13-16.24,13s-16.23-5.83-16.23-13,7.27-13,16.23-13,16.24,5.82,16.24,13"/>
        <path class="cls-36" d="M471.36,744.77c0,7.18,7.27,13,16.23,13s16.24-5.83,16.24-13-7.27-13-16.24-13-16.23,5.82-16.23,13"/>
        <path d="M386.15,757.06a18.86,18.86,0,0,0,7.13,9.17,26,26,0,0,0,11,4.1,29.37,29.37,0,0,0,6,.28,27.33,27.33,0,0,0,5.89-.89A17.8,17.8,0,0,0,426,763.6h0a1.14,1.14,0,0,1,1.95,1.17,15.22,15.22,0,0,1-4.44,5.41,21.57,21.57,0,0,1-6.15,3.28,29.33,29.33,0,0,1-13.63,1.19,26.61,26.61,0,0,1-12.7-5.29,19.85,19.85,0,0,1-4.65-5.23,18,18,0,0,1-2.37-6.5,1.15,1.15,0,0,1,2.21-.56Z"/>
        <path class="cls-43" d="M349.25,664.81c.23-.76.5-1.51.77-2.27a15.34,15.34,0,0,1,1-2.23,25.34,25.34,0,0,1,2.61-4.17,26,26,0,0,1,7.37-6.71,27.39,27.39,0,0,1,9.18-3.65c.8-.15,1.6-.29,2.41-.4a21.88,21.88,0,0,1,2.43-.17c.82,0,1.62,0,2.44.06a10.82,10.82,0,0,1,1.24.12l.63.09.73.13a3.46,3.46,0,0,1,1.54,6.14l-2,1.57a1.39,1.39,0,0,1-.33.1l-.42.1c-.29.07-.57.12-.87.21-.59.14-1.18.28-1.76.45l-1.74.51c-.57.16-1.14.38-1.7.57a33.12,33.12,0,0,0-6.27,3,28.7,28.7,0,0,0-5.39,4.24c-.87.78-1.6,1.71-2.42,2.61a13,13,0,0,0-1.14,1.43c-.38.49-.78,1-1.21,1.46l-.4.46a3.88,3.88,0,0,1-6.62-3.69"/>
        <path class="cls-43" d="M314.89,660.22c14.39-41.41,68.6-78.93,75.05,9.51,0,0,71.42,27.94,136.3-19.24-86-171.57-232.49-35.83-211.35,9.73"/>
        <path class="cls-44" d="M314.89,660.22a84.26,84.26,0,0,1,16.25-29.54,61.2,61.2,0,0,1,12.77-11.43c4.82-3.14,10.47-5.52,16.58-5.57a21.59,21.59,0,0,1,4.54.46,22.31,22.31,0,0,1,4.36,1.45,24.2,24.2,0,0,1,7.3,5.35,45.3,45.3,0,0,1,8.9,15.08A92.54,92.54,0,0,1,390,652.64a165.82,165.82,0,0,1,2.1,16.93l-1.37-1.85a132.82,132.82,0,0,0,16.86,4.68,166.73,166.73,0,0,0,52.68,2.6,160.43,160.43,0,0,0,17.4-3.09,147.07,147.07,0,0,0,16.95-5.14,156.64,156.64,0,0,0,31.62-16.23,138.08,138.08,0,0,1-30.82,18.26,152,152,0,0,1-17,5.93,149.62,149.62,0,0,1-53.78,4.57,163.68,163.68,0,0,1-17.9-2.67c-3-.6-5.9-1.31-8.82-2.09a91.56,91.56,0,0,1-8.74-2.75l-1.28-.48-.09-1.38a161,161,0,0,0-2-16.51,97.78,97.78,0,0,0-4-16A41.53,41.53,0,0,0,374,623.5a21.66,21.66,0,0,0-6.1-4.7,17.61,17.61,0,0,0-7.4-1.8c-5.2-.14-10.41,1.85-15.07,4.61a59.36,59.36,0,0,0-12.7,10.46,90.07,90.07,0,0,0-17.79,28.15"/>
      </g>
      <rect class="cls-1" width="1940" height="1080"/>
      <rect class="cls-1" width="1940" height="1080"/>
      <rect class="cls-1" width="1940" height="1080"/>
      <rect class="cls-1" width="1940" height="1080"/>
      <rect class="cls-1" width="1940" height="1080"/>
      <rect class="cls-1" width="1940" height="1080"/>
      <g class="cls-51">
        <g class="cls-52">
          <path class="cls-41" d="M1349.54,882.53H570.46a40.71,40.71,0,0,0-38.21,26.66l-37.67,102.43a47.23,47.23,0,0,1-44.33,30.94H0V1080H1920v-37.44H1469.76a47.23,47.23,0,0,1-44.34-30.94l-37.67-102.43a40.71,40.71,0,0,0-38.21-26.66"/>
        </g>
      </g>
      <path class="cls-53" d="M1920,1042.56H1469.76a47.23,47.23,0,0,1-44.34-30.94l-37.67-102.43a40.7,40.7,0,0,0-38.21-26.66H570.46a40.7,40.7,0,0,0-38.21,26.66l-37.67,102.43a47.23,47.23,0,0,1-44.33,30.94H0"/>
      <rect class="cls-1" width="1940" height="1080"/>
      <rect class="cls-1" width="1940" height="1080"/>
      <rect class="cls-1" width="1940" height="1080"/>
      <rect class="cls-1" width="1940" height="1080"/>
      <rect class="cls-1" width="1920" height="1080"/>
      <path class="cls-54" d="M387.62,435.79a39.13,39.13,0,1,1-39.13-39.13,39.13,39.13,0,0,1,39.13,39.13h0"/>
      <text class="cls-55" transform="translate(333.26 451.79)">A</text>
      <path class="cls-54" d="M1197.29,435.79a39.14,39.14,0,1,1-39.15-39.13h0a39.13,39.13,0,0,1,39.13,39.13h0"/>
      <text class="cls-55" transform="translate(1142.9 451.79)">B</text>
      <path class="cls-54" d="M690.59,558.78a39.14,39.14,0,1,1-39.15-39.13h0a39.13,39.13,0,0,1,39.13,39.13h0"/>
      <text class="cls-55" transform="translate(636.22 574.77)">C</text>
    </g>
  </g>
  <g id="bocadillo">
    <g id="bocadillo-2" data-name="bocadillo">
      <path class="cls-56" d="M1005.09,338.62H559.88c-19.82,0-36.39-9.71-39.38-23.09L475.8,130.15c-2-8.87,0-16.88,5.68-22.62,4-4,11.64-8.83,25.74-8.83H1590.94c14.1,0,21.78,4.8,25.74,8.83,5.64,5.74,7.66,13.75,5.69,22.56L1577.64,315.6c-3,13.31-19.54,23-39.36,23H1062.81L1052.19,382Z"/>
      <path class="cls-57" d="M1590.94,103.2c21.37,0,29.26,12.32,26.19,26.05L1572.42,314.7c-2.5,11.16-17,19.42-34.14,19.42H1058.47l-9.39,38.34-41.64-38.34H559.88c-17.11,0-31.64-8.26-34.14-19.42L481,129.25c-3.07-13.73,4.82-26,26.19-26H1590.94m0-9H507.22c-16.17,0-25.16,5.69-29.85,10.46-6.67,6.79-9.1,16.11-6.83,26.26v.13l44.71,185.39c3.51,15.47,22.25,26.68,44.6,26.68h442.87l38.46,35.42,14.1,13,4.22-17.24,7.63-31.16h471.12c22.35,0,41.09-11.21,44.61-26.68l44.7-185.39v-.18c2.27-10.15-.16-19.47-6.83-26.26-4.69-4.77-13.68-10.46-29.85-10.46"/>
      <path class="cls-54" d="M1040,148.19a57.55,57.55,0,1,1,57.55-57.55A57.56,57.56,0,0,1,1040,148.19"/>
      <path class="cls-57" d="M1040,37.59a53.05,53.05,0,1,1-53,53.1v0a53,53,0,0,1,53-53m0-9a62.05,62.05,0,1,0,62,62.1v0a62.1,62.1,0,0,0-62-62"/>
      <text class="cls-58" transform="translate(1017.73 118.78)">?</text>
      <text class="cls-59" transform="translate(532.64 227.83)">TEX<tspan class="cls-60" x="83.58" y="0">T</tspan><tspan x="108.77" y="0">O_PREGUN</tspan><tspan class="cls-61" x="363.64" y="0">T</tspan><tspan x="385.71" y="0">A</tspan></text>
    </g>
  </g>
  <g id="opcion-a">
    <g id="opcion-a-2" data-name="opcion-a">
      <g class="cls-62">
        <path class="cls-56" d="M1035.88,474H349.78a38.18,38.18,0,0,1,0-76.35h686.1a38.18,38.18,0,0,1,0,76.35"/>
      </g>
      <text class="cls-59" transform="translate(422.13 451.79)">opcion-a</text>
    </g>
  </g>
  <g id="opcion-b">
    <g id="opcion-b-2" data-name="opcion-b">
      <g class="cls-63">
        <path class="cls-56" d="M1850.54,474h-686.1a38.18,38.18,0,0,1,0-76.35h686.1a38.18,38.18,0,0,1,0,76.35"/>
      </g>
      <text class="cls-59" transform="translate(1231.92 451.79)">opcion-b</text>
    </g>
  </g>
  <g id="opcion-c">
    <g id="opcion-c-2" data-name="opcion-c">
      <g class="cls-64">
        <path class="cls-56" d="M1481.42,597.92h-830c-19.86,0-36.1-17.61-36.1-39.14s16.24-39.13,36.1-39.13h830c19.85,0,36.1,17.61,36.1,39.13s-16.25,39.14-36.1,39.14"/>
      </g>
      <text class="cls-59" transform="translate(729.65 582.44)">opcion<tspan class="cls-65" x="146.8" y="0">-</tspan><tspan x="165.17" y="0">c</tspan></text>
    </g>
  </g>
</svg>
