<svg xmlns="http://www.w3.org/2000/svg" xmlns:xlink="http://www.w3.org/1999/xlink" width="1920" height="1080" viewBox="0 0 1920 1080">
  <defs>
    <style>
      .cls-1, .cls-10, .cls-11, .cls-15, .cls-17, .cls-18, .cls-29, .cls-33, .cls-40, .cls-5, .cls-6, .cls-9 {
        fill: none;
      }

      .cls-2 {
        fill: #fc854a;
      }

      .cls-3 {
        clip-path: url(#clip-path);
      }

      .cls-4 {
        fill: #de7541;
      }

      .cls-5 {
        stroke: #fc854a;
      }

      .cls-10, .cls-11, .cls-15, .cls-17, .cls-18, .cls-40, .cls-5, .cls-6, .cls-9 {
        stroke-miterlimit: 10;
      }

      .cls-5, .cls-9 {
        stroke-width: 6px;
      }

      .cls-10, .cls-11, .cls-15, .cls-6, .cls-9 {
        stroke: #fca470;
      }

      .cls-10, .cls-6 {
        stroke-width: 4px;
      }

      .cls-7 {
        fill: #fc9258;
      }

      .cls-8 {
        fill: #fc9860;
      }

      .cls-10, .cls-17, .cls-33, .cls-40 {
        stroke-linecap: round;
      }

      .cls-11 {
        stroke-width: 7px;
      }

      .cls-12 {
        fill: #fca470;
      }

      .cls-13 {
        fill: #fcb080;
      }

      .cls-14 {
        fill: #fc9e68;
      }

      .cls-15 {
        stroke-width: 5px;
      }

      .cls-16 {
        fill: #ed7d45;
      }

      .cls-17 {
        stroke: #fc9b65;
        stroke-width: 12px;
      }

      .cls-18 {
        stroke: #fcb080;
        stroke-width: 8px;
      }

      .cls-19 {
        fill: #fcb689;
      }

      .cls-20 {
        fill: #fcaa78;
      }

      .cls-21 {
        fill: #fee1ca;
      }

      .cls-22 {
        fill: #fdd5b7;
      }

      .cls-23 {
        fill: #8c8c8c;
      }

      .cls-24 {
        fill: #285951;
      }

      .cls-25 {
        fill: #df8650;
      }

      .cls-26 {
        fill: #eaeded;
      }

      .cls-27 {
        fill: #dbe3df;
      }

      .cls-28 {
        clip-path: url(#clip-path-6);
      }

      .cls-29 {
        stroke: #f0f2f1;
        stroke-width: 10.43px;
      }

      .cls-29, .cls-33 {
        stroke-linejoin: round;
      }

      .cls-30 {
        fill: #f2f2f2;
      }

      .cls-31 {
        fill: #b1bebc;
      }

      .cls-32 {
        fill: #d37342;
      }

      .cls-33 {
        stroke: #f2f0f0;
        stroke-width: 4.35px;
      }

      .cls-34 {
        fill: #b66439;
      }

      .cls-35 {
        fill: #f2f0f0;
      }

      .cls-36 {
        fill: #d7603f;
      }

      .cls-37 {
        fill: #e6e4e4;
      }

      .cls-38 {
        fill: #2d2d2d;
      }

      .cls-39 {
        fill: #e7a97c;
      }

      .cls-40 {
        stroke: #c42a11;
        stroke-width: 8.69px;
      }

      .cls-41 {
        fill: #fff;
      }

      .cls-42 {
        fill: #c42a11;
      }

      .cls-43 {
        fill: #080a3b;
      }

      .cls-44 {
        fill: #030314;
      }

      .cls-45 {
        fill: #364f6e;
      }

      .cls-46 {
        fill: #20120b;
      }

      .cls-47 {
        fill: #e6f490;
      }

      .cls-48 {
        fill: #3a8c8a;
      }

      .cls-49 {
        fill: #def171;
      }

      .cls-50 {
        clip-path: url(#clip-path-8);
      }

      .cls-51 {
        fill: #f0f2ee;
      }

      .cls-52 {
        fill: #7e4325;
      }

      .cls-53 {
        fill: #ffe636;
      }

      .cls-54 {
        isolation: isolate;
        font-size: 62px;
        font-family: ZurichBT-LightCondensed, Zurich Light Condensed BT;
        font-weight: 300;
      }

      .cls-55 {
        letter-spacing: -0.02em;
      }
    </style>
    <clipPath id="clip-path">
      <rect class="cls-1" width="1920" height="1080"/>
    </clipPath>
    <clipPath id="clip-path-6">
      <path class="cls-1" d="M1581.13,863.15a130.86,130.86,0,0,0,3.48,30.09H1795.4a130.86,130.86,0,0,0,3.48-30.09c0-66-48.74-119.58-108.87-119.58s-108.88,53.54-108.88,119.58"/>
    </clipPath>
    <clipPath id="clip-path-8">
      <path class="cls-1" d="M398.44,810.72c0,16.14,15.43,29.23,34.46,29.23s34.46-13.09,34.46-29.23-15.43-29.24-34.46-29.24-34.46,13.09-34.46,29.24"/>
    </clipPath>
  </defs>
  <title>nivel_4.1</title>
  <g id="fondo">
    <rect class="cls-2" width="1920" height="1080"/>
    <g class="cls-3">
      <path class="cls-4" d="M513.18,664.35a89.68,89.68,0,1,1-89.68-89.68,89.68,89.68,0,0,1,89.68,89.68"/>
      <circle class="cls-5" cx="423.5" cy="664.35" r="51.95" transform="translate(-345.73 494.04) rotate(-45)"/>
      <path class="cls-4" d="M1406.82,228.39a89.68,89.68,0,1,1,89.68,89.68,89.68,89.68,0,0,1-89.68-89.68"/>
      <circle class="cls-6" cx="1496.5" cy="228.39" r="105.06" transform="translate(1252.2 1722.38) rotate(-89.39)"/>
      <circle class="cls-6" cx="423.5" cy="664.35" r="105.06" transform="translate(-317.93 930.8) rotate(-77.25)"/>
      <path class="cls-7" d="M1091.1,352.75A63.24,63.24,0,1,1,1154.34,416a63.24,63.24,0,0,1-63.24-63.24"/>
      <path class="cls-8" d="M1146.06,240.41a8.28,8.28,0,1,1,8.28,8.28,8.28,8.28,0,0,1-8.28-8.28"/>
      <path class="cls-8" d="M1091,259.6a8.28,8.28,0,1,1,11.31,3,8.28,8.28,0,0,1-11.31-3"/>
      <path class="cls-8" d="M1052.91,303.75a8.28,8.28,0,1,1,11.31-3,8.29,8.29,0,0,1-11.31,3"/>
      <path class="cls-8" d="M1042,361a8.28,8.28,0,1,1,8.28-8.28A8.28,8.28,0,0,1,1042,361"/>
      <path class="cls-8" d="M1105.34,454.17a8.28,8.28,0,1,1-3-11.31,8.28,8.28,0,0,1,3,11.31"/>
      <path class="cls-8" d="M1162.62,465.08a8.28,8.28,0,1,1-8.28-8.27,8.28,8.28,0,0,1,8.28,8.27"/>
      <path class="cls-8" d="M1217.68,445.89a8.28,8.28,0,1,1-11.31-3,8.28,8.28,0,0,1,11.31,3"/>
      <path class="cls-8" d="M1255.76,401.75a8.28,8.28,0,1,1-11.31,3,8.27,8.27,0,0,1,11.31-3"/>
      <path class="cls-8" d="M1266.68,344.47a8.28,8.28,0,1,1-8.28,8.28,8.27,8.27,0,0,1,8.28-8.28"/>
      <path class="cls-8" d="M1247.49,289.41a8.28,8.28,0,1,1-3,11.31,8.26,8.26,0,0,1,3-11.31"/>
      <path class="cls-8" d="M1203.34,251.32a8.28,8.28,0,1,1,3,11.31,8.28,8.28,0,0,1-3-11.31"/>
      <circle class="cls-9" cx="1154.34" cy="352.75" r="23.68" transform="translate(386.7 1284.23) rotate(-67.5)"/>
      <path class="cls-10" d="M1294.28,258.39A168.82,168.82,0,0,1,1183.81,519"/>
      <path class="cls-10" d="M1057.73,491.14A168.77,168.77,0,0,1,1154.34,184"/>
      <path class="cls-7" d="M830,540a63.24,63.24,0,1,1-63.24-63.24A63.24,63.24,0,0,1,830,540"/>
      <path class="cls-8" d="M775.05,652.34a8.28,8.28,0,1,1-8.28-8.28,8.28,8.28,0,0,1,8.28,8.28"/>
      <path class="cls-8" d="M830.11,633.15a8.28,8.28,0,1,1-11.31-3,8.28,8.28,0,0,1,11.31,3"/>
      <path class="cls-8" d="M868.2,589a8.28,8.28,0,1,1-11.31,3,8.29,8.29,0,0,1,11.31-3"/>
      <path class="cls-8" d="M879.11,531.72a8.28,8.28,0,1,1-8.28,8.28,8.28,8.28,0,0,1,8.28-8.28"/>
      <path class="cls-8" d="M815.77,438.57a8.28,8.28,0,1,1,3,11.31,8.29,8.29,0,0,1-3-11.31"/>
      <path class="cls-8" d="M758.49,427.66a8.28,8.28,0,1,1,8.28,8.28,8.28,8.28,0,0,1-8.28-8.28"/>
      <path class="cls-8" d="M703.43,446.85a8.28,8.28,0,1,1,11.31,3,8.29,8.29,0,0,1-11.31-3"/>
      <path class="cls-8" d="M665.35,491a8.28,8.28,0,1,1,11.3-3,8.27,8.27,0,0,1-11.3,3"/>
      <path class="cls-8" d="M654.43,548.28a8.28,8.28,0,1,1,8.28-8.28,8.28,8.28,0,0,1-8.28,8.28"/>
      <path class="cls-8" d="M673.62,603.34a8.28,8.28,0,1,1,3-11.31,8.27,8.27,0,0,1-3,11.31"/>
      <path class="cls-8" d="M717.77,641.43a8.28,8.28,0,1,1-3-11.31,8.28,8.28,0,0,1,3,11.31"/>
      <circle class="cls-9" cx="766.77" cy="540" r="23.68" transform="matrix(0.92, -0.38, 0.38, 0.92, -148.28, 334.54)"/>
      <path class="cls-10" d="M626.83,634.36A168.81,168.81,0,0,1,737.3,373.8"/>
      <path class="cls-10" d="M863.38,401.6a168.78,168.78,0,0,1-96.61,307.17"/>
      <path class="cls-4" d="M930.17,446.37a30.39,30.39,0,1,1,30.38,30.39,30.38,30.38,0,0,1-30.38-30.39"/>
      <ellipse class="cls-6" cx="960.56" cy="446.37" rx="93.59" ry="61.2" transform="translate(-98.57 459.63) rotate(-25.64)"/>
      <path class="cls-4" d="M1010.91,648.32a15.2,15.2,0,1,1-15.2-15.19,15.21,15.21,0,0,1,15.2,15.19"/>
      <path class="cls-4" d="M974.87,692.57a15.19,15.19,0,1,1-15.19-15.19,15.19,15.19,0,0,1,15.19,15.19"/>
      <path class="cls-4" d="M1029.22,699.36A15.19,15.19,0,1,1,1014,684.17a15.2,15.2,0,0,1,15.19,15.19"/>
      <path class="cls-4" d="M909.09,244.42a15.2,15.2,0,1,1,15.2,15.2,15.2,15.2,0,0,1-15.2-15.2"/>
      <path class="cls-4" d="M945.13,200.18a15.19,15.19,0,1,1,15.19,15.19,15.2,15.2,0,0,1-15.19-15.19"/>
      <path class="cls-4" d="M890.78,193.38A15.19,15.19,0,1,1,906,208.57a15.19,15.19,0,0,1-15.19-15.19"/>
      <path class="cls-4" d="M1759.68,228.37a15.2,15.2,0,1,1,10-19,15.19,15.19,0,0,1-10,19"/>
      <path class="cls-4" d="M1706.72,207.1a15.19,15.19,0,1,1,10-19,15.19,15.19,0,0,1-10,19"/>
      <path class="cls-4" d="M1716.38,261a15.19,15.19,0,1,1,10-19,15.2,15.2,0,0,1-10,19"/>
      <path class="cls-4" d="M160.32,664.38a15.19,15.19,0,1,1-10,19,15.19,15.19,0,0,1,10-19"/>
      <path class="cls-4" d="M213.28,685.64a15.19,15.19,0,1,1-10,19,15.2,15.2,0,0,1,10-19"/>
      <path class="cls-4" d="M203.62,631.73a15.19,15.19,0,1,1-10,19,15.2,15.2,0,0,1,10-19"/>
      <path class="cls-7" d="M949.39,11.73a148,148,0,1,1-148-148,148,148,0,0,1,148,148"/>
      <path class="cls-7" d="M970.61,881a148,148,0,1,1,148,148,148,148,0,0,1-148-148"/>
      <circle class="cls-11" cx="1380.94" cy="-7.46" r="64.21" transform="translate(1319.6 1372.14) rotate(-87.14)"/>
      <circle class="cls-6" cx="1380.94" cy="-7.46" r="114.82"/>
      <path class="cls-9" d="M1571.58,58.59a30,30,0,1,1,30,30A30,30,0,0,1,1571.58,58.59Z"/>
      <path class="cls-12" d="M1520.89,36.11a10.24,10.24,0,1,1,10.24,10.24,10.23,10.23,0,0,1-10.24-10.24"/>
      <path class="cls-4" d="M1848.54,792a54,54,0,1,1,54,54,54,54,0,0,1-54-54"/>
      <path class="cls-13" d="M1678.81,844a30.39,30.39,0,1,1,30.39,30.39A30.39,30.39,0,0,1,1678.81,844"/>
      <path class="cls-7" d="M1751.47,80.43a30.39,30.39,0,1,1,30.39,30.38,30.4,30.4,0,0,1-30.39-30.38"/>
      <path class="cls-14" d="M1902.52,255a19.54,19.54,0,1,0,19.54,19.54A19.54,19.54,0,0,0,1902.52,255"/>
      <path class="cls-14" d="M1825.49,286.9a19.54,19.54,0,1,0,27.63,0,19.54,19.54,0,0,0-27.63,0"/>
      <path class="cls-14" d="M1793.58,363.93a19.54,19.54,0,1,0,19.54-19.54,19.54,19.54,0,0,0-19.54,19.54"/>
      <path class="cls-14" d="M1825.49,441a19.54,19.54,0,1,0,0-27.64,19.54,19.54,0,0,0,0,27.64"/>
      <path class="cls-14" d="M1902.52,472.88A19.54,19.54,0,1,0,1883,453.34a19.54,19.54,0,0,0,19.54,19.54"/>
      <circle class="cls-9" cx="1902.52" cy="791.95" r="82.2"/>
      <circle class="cls-15" cx="1902.52" cy="791.95" r="127.11"/>
      <path class="cls-6" d="M1562.74,308.25c131.83,27,231,143.63,231,283.44,0,159.79-129.53,289.33-289.32,289.33s-289.32-129.54-289.32-289.33c0-134.51,91.8-247.59,216.17-280"/>
      <path class="cls-11" d="M604.38,900.21A64.21,64.21,0,1,1,540.17,836,64.2,64.2,0,0,1,604.38,900.21Z"/>
      <circle class="cls-6" cx="540.17" cy="900.21" r="114.82"/>
      <path class="cls-9" d="M349.53,834.15a30,30,0,1,1-30-30A30,30,0,0,1,349.53,834.15Z"/>
      <path class="cls-12" d="M400.22,856.63A10.24,10.24,0,1,1,390,846.4a10.23,10.23,0,0,1,10.24,10.23"/>
      <path class="cls-4" d="M72.57,100.8a54,54,0,1,1-54-54,54,54,0,0,1,54,54"/>
      <path class="cls-13" d="M216.19,36a21.75,21.75,0,1,1-21.74-21.74A21.74,21.74,0,0,1,216.19,36"/>
      <path class="cls-7" d="M169.64,812.32a30.39,30.39,0,1,1-30.39-30.39,30.39,30.39,0,0,1,30.39,30.39"/>
      <path class="cls-14" d="M18.59,637.76A19.54,19.54,0,1,0-.95,618.22a19.54,19.54,0,0,0,19.54,19.54"/>
      <path class="cls-14" d="M95.62,605.85a19.54,19.54,0,1,0-27.63,0,19.55,19.55,0,0,0,27.63,0"/>
      <path class="cls-14" d="M127.53,528.81A19.54,19.54,0,1,0,108,548.35a19.54,19.54,0,0,0,19.54-19.54"/>
      <path class="cls-14" d="M95.62,451.78a19.54,19.54,0,1,0,0,27.63,19.54,19.54,0,0,0,0-27.63"/>
      <path class="cls-14" d="M18.59,419.87a19.54,19.54,0,1,0,19.54,19.54,19.54,19.54,0,0,0-19.54-19.54"/>
      <circle class="cls-9" cx="18.59" cy="100.8" r="82.2" transform="translate(-82.7 116.5) rotate(-88.36)"/>
      <circle class="cls-15" cx="18.59" cy="100.8" r="127.11"/>
      <path class="cls-6" d="M358.37,584.5c-131.84-27-231-143.63-231-283.45,0-159.78,129.53-289.32,289.32-289.32S706,141.27,706,301.05c0,134.52-91.8,247.6-216.18,280"/>
      <path class="cls-13" d="M817.07,310.51a7.84,7.84,0,1,1-7.83-7.83,7.83,7.83,0,0,1,7.83,7.83"/>
      <path class="cls-13" d="M784.91,317.35a7.83,7.83,0,1,1-11.07,0,7.82,7.82,0,0,1,11.07,0"/>
      <path class="cls-13" d="M767,344.92a7.83,7.83,0,1,1-7.83,7.83,7.82,7.82,0,0,1,7.83-7.83"/>
      <path class="cls-13" d="M773.83,377.07a7.83,7.83,0,1,1,0,11.08,7.83,7.83,0,0,1,0-11.08"/>
      <path class="cls-13" d="M801.4,395a7.84,7.84,0,1,1,7.84,7.83A7.84,7.84,0,0,1,801.4,395"/>
      <path class="cls-13" d="M833.56,388.15a7.83,7.83,0,1,1,11.08,0,7.83,7.83,0,0,1-11.08,0"/>
      <path class="cls-13" d="M851.47,360.58a7.83,7.83,0,1,1,7.83-7.83,7.83,7.83,0,0,1-7.83,7.83"/>
      <path class="cls-13" d="M844.64,328.42a7.83,7.83,0,1,1,0-11.07,7.83,7.83,0,0,1,0,11.07"/>
      <path class="cls-13" d="M1102.93,582.23a7.83,7.83,0,1,1,7.83,7.83,7.84,7.84,0,0,1-7.83-7.83"/>
      <path class="cls-13" d="M1135.09,575.4a7.83,7.83,0,1,1,11.08,0,7.82,7.82,0,0,1-11.08,0"/>
      <path class="cls-13" d="M1153,547.83a7.83,7.83,0,1,1,7.83-7.83,7.82,7.82,0,0,1-7.83,7.83"/>
      <path class="cls-13" d="M1146.17,515.67a7.83,7.83,0,1,1,0-11.07,7.83,7.83,0,0,1,0,11.07"/>
      <path class="cls-13" d="M1118.6,497.77a7.84,7.84,0,1,1-7.83-7.83,7.84,7.84,0,0,1,7.83,7.83"/>
      <path class="cls-13" d="M1086.44,504.6a7.83,7.83,0,1,1-11.08,0,7.82,7.82,0,0,1,11.08,0"/>
      <path class="cls-13" d="M1068.53,532.17a7.83,7.83,0,1,1-7.83,7.83,7.83,7.83,0,0,1,7.83-7.83"/>
      <path class="cls-13" d="M1075.36,564.33a7.83,7.83,0,1,1,0,11.07,7.83,7.83,0,0,1,0-11.07"/>
      <path class="cls-16" d="M601.85,302.37c0,102.88-83.4,186.28-186.28,186.28S229.3,405.25,229.3,302.37,312.7,116.1,415.57,116.1s186.28,83.4,186.28,186.27"/>
      <path class="cls-2" d="M415.57,212a90.34,90.34,0,1,0,90.34,90.33A90.33,90.33,0,0,0,415.57,212"/>
      <path class="cls-14" d="M415.57,275.68a26.7,26.7,0,1,0,26.7,26.69,26.7,26.7,0,0,0-26.7-26.69"/>
      <line class="cls-17" x1="361.89" y1="102.02" x2="354.29" y2="73.68"/>
      <line class="cls-17" x1="268.9" y1="155.7" x2="248.15" y2="134.96"/>
      <line class="cls-17" x1="215.21" y1="248.69" x2="186.87" y2="241.09"/>
      <line class="cls-17" x1="215.21" y1="356.06" x2="186.87" y2="363.65"/>
      <line class="cls-17" x1="268.9" y1="449.05" x2="248.15" y2="469.79"/>
      <line class="cls-17" x1="361.89" y1="502.73" x2="354.29" y2="531.07"/>
      <line class="cls-17" x1="469.26" y1="502.73" x2="476.85" y2="531.07"/>
      <line class="cls-17" x1="562.24" y1="449.05" x2="582.99" y2="469.79"/>
      <line class="cls-17" x1="615.93" y1="356.06" x2="644.27" y2="363.65"/>
      <line class="cls-17" x1="615.93" y1="248.69" x2="644.27" y2="241.09"/>
      <line class="cls-17" x1="562.24" y1="155.7" x2="582.99" y2="134.96"/>
      <line class="cls-17" x1="469.26" y1="102.02" x2="476.85" y2="73.68"/>
      <polygon class="cls-2" points="415.67 229.23 406.82 73.68 436.51 73.68 427.67 229.23 415.67 229.23"/>
      <polygon class="cls-2" points="379.08 238.98 293.65 108.69 319.36 93.85 389.48 232.98 379.08 238.98"/>
      <polygon class="cls-2" points="352.28 265.72 213.14 195.6 227.98 169.89 358.28 255.33 352.28 265.72"/>
      <polygon class="cls-2" points="342.43 302.28 186.87 311.12 186.87 281.44 342.43 290.28 342.43 302.28"/>
      <polygon class="cls-2" points="352.18 338.86 221.89 424.3 207.04 398.59 346.18 328.47 352.18 338.86"/>
      <polygon class="cls-2" points="378.92 365.67 308.8 504.81 283.09 489.96 368.52 359.67 378.92 365.67"/>
      <polygon class="cls-2" points="415.48 375.52 424.32 531.07 394.63 531.07 403.48 375.52 415.48 375.52"/>
      <polygon class="cls-2" points="452.06 365.76 537.5 496.06 511.79 510.9 441.67 371.76 452.06 365.76"/>
      <polygon class="cls-2" points="478.87 339.03 618 409.15 603.16 434.86 472.87 349.42 478.87 339.03"/>
      <polygon class="cls-2" points="488.71 302.47 644.27 293.63 644.27 323.31 488.71 314.47 488.71 302.47"/>
      <polygon class="cls-2" points="478.96 265.88 609.26 180.45 624.1 206.16 484.96 276.28 478.96 265.88"/>
      <polygon class="cls-2" points="452.23 239.08 522.35 99.94 548.05 114.78 462.62 245.08 452.23 239.08"/>
      <path class="cls-16" d="M1690.7,591.69c0,102.88-83.39,186.28-186.27,186.28s-186.28-83.4-186.28-186.28,83.4-186.27,186.28-186.27,186.27,83.4,186.27,186.27"/>
      <path class="cls-2" d="M1504.43,501.36a90.34,90.34,0,1,0,90.33,90.33,90.34,90.34,0,0,0-90.33-90.33"/>
      <path class="cls-14" d="M1504.43,565a26.7,26.7,0,1,0,26.7,26.69,26.69,26.69,0,0,0-26.7-26.69"/>
      <line class="cls-17" x1="1450.74" y1="391.34" x2="1443.15" y2="363"/>
      <line class="cls-17" x1="1357.76" y1="445.02" x2="1337.01" y2="424.28"/>
      <line class="cls-17" x1="1304.07" y1="538.01" x2="1275.73" y2="530.41"/>
      <line class="cls-17" x1="1304.07" y1="645.38" x2="1275.73" y2="652.97"/>
      <line class="cls-17" x1="1357.76" y1="738.37" x2="1337.01" y2="759.11"/>
      <line class="cls-17" x1="1450.74" y1="792.05" x2="1443.15" y2="820.39"/>
      <line class="cls-17" x1="1558.11" y1="792.05" x2="1565.71" y2="820.39"/>
      <line class="cls-17" x1="1651.1" y1="738.37" x2="1671.85" y2="759.11"/>
      <line class="cls-17" x1="1704.79" y1="645.38" x2="1733.13" y2="652.97"/>
      <line class="cls-17" x1="1704.79" y1="538.01" x2="1733.13" y2="530.41"/>
      <line class="cls-17" x1="1651.1" y1="445.02" x2="1671.85" y2="424.28"/>
      <line class="cls-17" x1="1558.11" y1="391.34" x2="1565.71" y2="363"/>
      <polygon class="cls-2" points="1504.52 518.55 1495.68 363 1525.37 363 1516.52 518.55 1504.52 518.55"/>
      <polygon class="cls-2" points="1467.94 528.3 1382.5 398.01 1408.21 383.17 1478.33 522.3 1467.94 528.3"/>
      <polygon class="cls-2" points="1441.13 555.04 1302 484.92 1316.84 459.21 1447.13 544.65 1441.13 555.04"/>
      <polygon class="cls-2" points="1431.29 591.6 1275.73 600.44 1275.73 570.76 1431.29 579.6 1431.29 591.6"/>
      <polygon class="cls-2" points="1441.04 628.18 1310.74 713.62 1295.9 687.91 1435.04 617.79 1441.04 628.18"/>
      <polygon class="cls-2" points="1467.77 654.99 1397.65 794.13 1371.95 779.28 1457.38 648.99 1467.77 654.99"/>
      <polygon class="cls-2" points="1504.33 664.84 1513.17 820.39 1483.49 820.39 1492.33 664.84 1504.33 664.84"/>
      <polygon class="cls-2" points="1540.92 655.09 1626.35 785.38 1600.64 800.22 1530.52 661.09 1540.92 655.09"/>
      <polygon class="cls-2" points="1567.72 628.35 1706.86 698.47 1692.02 724.18 1561.72 638.74 1567.72 628.35"/>
      <polygon class="cls-2" points="1577.57 591.79 1733.13 582.95 1733.13 612.63 1577.57 603.79 1577.57 591.79"/>
      <polygon class="cls-2" points="1567.82 555.21 1698.11 469.77 1712.96 495.48 1573.82 565.6 1567.82 555.21"/>
      <polygon class="cls-2" points="1541.08 528.4 1611.2 389.26 1636.91 404.11 1551.47 534.4 1541.08 528.4"/>
      <path class="cls-13" d="M689.48,730.34a26.4,26.4,0,1,1-13.72-34.72,26.4,26.4,0,0,1,13.72,34.72"/>
      <path class="cls-13" d="M698.77,671.9c-2.14,4.93-8.66,6.85-14.57,4.28s-9-8.64-6.83-13.56,8.66-6.85,14.57-4.29,9,8.64,6.83,13.57"/>
      <line class="cls-18" x1="688.07" y1="667.26" x2="665.26" y2="719.84"/>
      <path class="cls-13" d="M655.05,662.25c2,5-1.28,11-7.27,13.33s-12.45.23-14.42-4.76,1.28-11,7.27-13.34,12.45-.23,14.42,4.77"/>
      <line class="cls-18" x1="644.2" y1="666.53" x2="665.26" y2="719.84"/>
      <path class="cls-13" d="M617.32,686.33c4.93,2.14,6.84,8.66,4.28,14.57s-8.64,9-13.57,6.83-6.84-8.66-4.28-14.57,8.64-9,13.57-6.83"/>
      <line class="cls-18" x1="612.68" y1="697.03" x2="665.26" y2="719.84"/>
      <path class="cls-13" d="M607.66,730.05c5-2,11,1.28,13.34,7.27s.23,12.45-4.77,14.42-11-1.28-13.33-7.27-.23-12.45,4.76-14.42"/>
      <line class="cls-18" x1="611.95" y1="740.9" x2="665.26" y2="719.84"/>
      <path class="cls-13" d="M631.75,767.78c2.14-4.93,8.66-6.84,14.57-4.28s9,8.64,6.83,13.57-8.66,6.84-14.57,4.28-9-8.64-6.83-13.57"/>
      <line class="cls-18" x1="642.45" y1="772.42" x2="665.26" y2="719.84"/>
      <path class="cls-13" d="M675.46,777.44c-2-5,1.29-11,7.28-13.34s12.45-.23,14.42,4.77-1.28,11-7.27,13.33-12.45.23-14.43-4.76"/>
      <line class="cls-18" x1="686.31" y1="773.15" x2="665.26" y2="719.84"/>
      <path class="cls-13" d="M713.2,753.35c-4.93-2.14-6.85-8.66-4.28-14.57s8.64-9,13.56-6.83,6.85,8.66,4.29,14.57-8.64,9-13.57,6.83"/>
      <line class="cls-18" x1="717.84" y1="742.65" x2="665.26" y2="719.84"/>
      <path class="cls-13" d="M722.85,709.63c-5,2-11-1.28-13.33-7.27s-.23-12.45,4.76-14.42,11,1.28,13.34,7.27.23,12.45-4.77,14.42"/>
      <line class="cls-18" x1="718.57" y1="698.79" x2="665.26" y2="719.84"/>
      <path class="cls-2" d="M675.48,724.27a11.14,11.14,0,1,1-5.79-14.65,11.13,11.13,0,0,1,5.79,14.65"/>
      <path class="cls-13" d="M1279,183.41a26.4,26.4,0,1,1-13.72-34.72A26.4,26.4,0,0,1,1279,183.41"/>
      <path class="cls-13" d="M1288.25,125c-2.14,4.93-8.66,6.85-14.57,4.29s-9-8.64-6.83-13.57,8.66-6.85,14.57-4.28,9,8.63,6.83,13.56"/>
      <line class="cls-18" x1="1277.55" y1="120.32" x2="1254.74" y2="172.91"/>
      <path class="cls-13" d="M1244.54,115.31c2,5-1.29,11-7.28,13.33s-12.45.24-14.42-4.76,1.28-11,7.27-13.33,12.45-.24,14.43,4.76"/>
      <line class="cls-18" x1="1233.69" y1="119.6" x2="1254.74" y2="172.91"/>
      <path class="cls-13" d="M1206.8,139.4c4.93,2.14,6.85,8.66,4.28,14.57s-8.64,9-13.56,6.83-6.85-8.66-4.29-14.57,8.64-9,13.57-6.83"/>
      <line class="cls-18" x1="1202.16" y1="150.1" x2="1254.74" y2="172.91"/>
      <path class="cls-13" d="M1197.15,183.11c5-2,11,1.29,13.33,7.28s.23,12.45-4.77,14.42-11-1.28-13.33-7.28-.23-12.44,4.77-14.42"/>
      <line class="cls-18" x1="1201.43" y1="193.96" x2="1254.74" y2="172.91"/>
      <path class="cls-13" d="M1221.23,220.85c2.14-4.93,8.66-6.85,14.57-4.29s9,8.64,6.83,13.57-8.66,6.85-14.57,4.28-9-8.63-6.83-13.56"/>
      <line class="cls-18" x1="1231.93" y1="225.49" x2="1254.74" y2="172.91"/>
      <path class="cls-13" d="M1265,230.5c-2-5,1.28-11,7.27-13.33s12.45-.24,14.42,4.76-1.28,11-7.27,13.34-12.45.23-14.42-4.77"/>
      <line class="cls-18" x1="1275.8" y1="226.22" x2="1254.74" y2="172.91"/>
      <path class="cls-13" d="M1302.68,206.42c-4.93-2.14-6.85-8.67-4.28-14.58s8.64-9,13.57-6.83,6.84,8.67,4.28,14.58-8.64,9-13.57,6.83"/>
      <line class="cls-18" x1="1307.32" y1="195.71" x2="1254.74" y2="172.91"/>
      <path class="cls-13" d="M1312.34,162.7c-5,2-11-1.28-13.34-7.27s-.23-12.45,4.77-14.43,11,1.29,13.33,7.28.23,12.45-4.76,14.42"/>
      <line class="cls-18" x1="1308.05" y1="151.85" x2="1254.74" y2="172.91"/>
      <path class="cls-2" d="M1265,177.34a11.14,11.14,0,1,1-5.78-14.66,11.13,11.13,0,0,1,5.78,14.66"/>
      <path class="cls-5" d="M1548.45,225.49a51.95,51.95,0,1,1-52-51.94A51.94,51.94,0,0,1,1548.45,225.49Z"/>
    </g>
    <rect class="cls-19" y="810" width="1920" height="270"/>
    <g class="cls-3">
      <path class="cls-20" d="M233.84,968.63c69.25,0,125.39,7.93,125.39,17.72s-56.14,17.73-125.39,17.73-125.4-7.94-125.4-17.73,56.14-17.72,125.4-17.72"/>
      <path class="cls-21" d="M233.84,967.84c21.51-.1,43,.49,64.52,2.17,10.73.88,21.45,2,32.11,3.79a159.56,159.56,0,0,1,15.9,3.39,57.12,57.12,0,0,1,7.79,2.71,20.25,20.25,0,0,1,3.75,2.14,8.63,8.63,0,0,1,1.7,1.67,4.17,4.17,0,0,1,0,5.29,8.17,8.17,0,0,1-1.7,1.68,20,20,0,0,1-3.74,2.17,57.81,57.81,0,0,1-7.79,2.76,156.35,156.35,0,0,1-15.89,3.46c-10.66,1.8-21.38,3-32.12,3.92-21.47,1.82-43,2.55-64.54,2.59s-43.07-.76-64.55-2.58c-10.73-.94-21.46-2.13-32.12-3.93a156.94,156.94,0,0,1-15.89-3.46,56.08,56.08,0,0,1-7.79-2.76,20.3,20.3,0,0,1-3.74-2.16,8.43,8.43,0,0,1-1.7-1.68,4.2,4.2,0,0,1,0-5.31,8.35,8.35,0,0,1,1.71-1.66,19.86,19.86,0,0,1,3.74-2.14,55.47,55.47,0,0,1,7.8-2.71,153.93,153.93,0,0,1,15.89-3.39c10.66-1.76,21.38-2.91,32.12-3.79,21.47-1.68,43-2.27,64.52-2.17v1.57c-21.48.13-43,1-64.33,2.86-10.68,1-21.35,2.16-31.89,4A156.48,156.48,0,0,0,122,979.66a53.74,53.74,0,0,0-7.41,2.63,16.92,16.92,0,0,0-3.23,1.86c-1,.7-1.63,1.59-1.59,2.2s.65,1.5,1.61,2.19a16.83,16.83,0,0,0,3.23,1.83A54.92,54.92,0,0,0,122,993a157.06,157.06,0,0,0,15.62,3.35c10.54,1.77,21.2,2.93,31.88,3.83,21.38,1.77,42.85,2.45,64.31,2.45s42.93-.67,64.3-2.44c10.68-.91,21.35-2.07,31.89-3.84A156.26,156.26,0,0,0,345.64,993a53.22,53.22,0,0,0,7.42-2.57,17.4,17.4,0,0,0,3.23-1.84c1-.69,1.64-1.57,1.61-2.19s-.64-1.51-1.59-2.21a18.41,18.41,0,0,0-3.23-1.86,55.06,55.06,0,0,0-7.41-2.62,151.64,151.64,0,0,0-15.61-3.42c-10.54-1.81-21.21-3-31.89-4-21.38-1.91-42.86-2.73-64.33-2.86Z"/>
      <path class="cls-22" d="M233.84,979.61c29.85,0,54,3,54,6.74s-24.2,6.75-54,6.75-54.06-3-54.06-6.75,24.2-6.74,54.06-6.74"/>
      <path class="cls-20" d="M1690,955.19c69.25,0,125.39,7.93,125.39,17.73s-56.14,17.72-125.39,17.72-125.4-7.93-125.4-17.72,56.14-17.73,125.4-17.73"/>
      <path class="cls-21" d="M1690,954.4c21.51-.1,43,.49,64.52,2.18,10.73.87,21.45,2,32.11,3.79a156.74,156.74,0,0,1,15.9,3.38,57.12,57.12,0,0,1,7.79,2.71,20.9,20.9,0,0,1,3.75,2.15,8.3,8.3,0,0,1,1.7,1.66,4.47,4.47,0,0,1,1,2.64,4.52,4.52,0,0,1-.94,2.66,8.37,8.37,0,0,1-1.7,1.67,20,20,0,0,1-3.74,2.17,55.63,55.63,0,0,1-7.79,2.76,153.69,153.69,0,0,1-15.89,3.46c-10.66,1.8-21.38,3-32.12,3.92-21.47,1.83-43,2.55-64.54,2.59s-43.07-.76-64.55-2.58c-10.73-.93-21.46-2.12-32.12-3.93a159.67,159.67,0,0,1-15.89-3.45,57.47,57.47,0,0,1-7.79-2.77,19.74,19.74,0,0,1-3.74-2.16,8.43,8.43,0,0,1-1.7-1.68,4.19,4.19,0,0,1,0-5.3,8.41,8.41,0,0,1,1.71-1.67,19.86,19.86,0,0,1,3.74-2.14,56.78,56.78,0,0,1,7.8-2.71,159.37,159.37,0,0,1,15.89-3.39c10.66-1.76,21.38-2.91,32.12-3.79,21.47-1.68,43-2.27,64.52-2.17V956c-21.48.13-43,1-64.33,2.87-10.68.95-21.35,2.15-31.89,4a153.76,153.76,0,0,0-15.61,3.43,53.71,53.71,0,0,0-7.41,2.62,16.92,16.92,0,0,0-3.23,1.86c-1,.7-1.63,1.59-1.59,2.2s.65,1.5,1.61,2.19a17.4,17.4,0,0,0,3.23,1.84,53.54,53.54,0,0,0,7.41,2.57,154.28,154.28,0,0,0,15.62,3.35c10.54,1.77,21.2,2.93,31.88,3.84,21.38,1.77,42.85,2.44,64.31,2.44s42.93-.67,64.3-2.44c10.68-.91,21.35-2.07,31.89-3.83a156.29,156.29,0,0,0,15.61-3.36,53.22,53.22,0,0,0,7.42-2.57,18,18,0,0,0,3.23-1.83c1-.69,1.64-1.58,1.61-2.2s-.64-1.51-1.59-2.21a18.15,18.15,0,0,0-3.24-1.86,54.43,54.43,0,0,0-7.4-2.62,154.32,154.32,0,0,0-15.61-3.42c-10.54-1.81-21.21-3-31.89-4-21.38-1.91-42.86-2.73-64.33-2.86Z"/>
      <path class="cls-22" d="M1690,966.17c29.85,0,54,3,54,6.75s-24.2,6.74-54,6.74-54.06-3-54.06-6.74,24.2-6.75,54.06-6.75"/>
      <path class="cls-20" d="M432.9,985.83c44.45,0,80.49,6.84,80.49,15.28s-36,15.29-80.49,15.29-80.49-6.84-80.49-15.29,36-15.28,80.49-15.28"/>
      <path class="cls-21" d="M432.9,985A373.65,373.65,0,0,1,475.06,987a188.13,188.13,0,0,1,20.91,3.4,75.4,75.4,0,0,1,10.26,3.07,26.41,26.41,0,0,1,4.94,2.51,11.07,11.07,0,0,1,2.25,2,5.33,5.33,0,0,1,1.3,3.22,5.46,5.46,0,0,1-1.28,3.25,11.22,11.22,0,0,1-2.25,2,26.82,26.82,0,0,1-4.92,2.56A73.39,73.39,0,0,1,496,1012a191.35,191.35,0,0,1-20.91,3.54,385,385,0,0,1-84.4,0,189.38,189.38,0,0,1-20.91-3.54,72.48,72.48,0,0,1-10.26-3.14,26,26,0,0,1-4.93-2.56,11.15,11.15,0,0,1-2.25-2,4.71,4.71,0,0,1,0-6.48,11.43,11.43,0,0,1,2.26-2,26.36,26.36,0,0,1,4.94-2.5,72.66,72.66,0,0,1,10.26-3.07,185.83,185.83,0,0,1,20.91-3.4A373.65,373.65,0,0,1,432.9,985v1.57A370.92,370.92,0,0,0,391,989.2a187,187,0,0,0-20.6,3.56,71,71,0,0,0-9.87,3,23.23,23.23,0,0,0-4.41,2.28,8.3,8.3,0,0,0-1.7,1.48,2.81,2.81,0,0,0-.67,1.54,2.77,2.77,0,0,0,.69,1.53,8.46,8.46,0,0,0,1.7,1.46,23.85,23.85,0,0,0,4.43,2.23,71.76,71.76,0,0,0,9.87,3,189.07,189.07,0,0,0,20.6,3.42,404.93,404.93,0,0,0,83.73,0,184.18,184.18,0,0,0,20.59-3.42,73.14,73.14,0,0,0,9.87-3,23.28,23.28,0,0,0,4.43-2.24,8.54,8.54,0,0,0,1.71-1.45,2.1,2.1,0,0,0,0-3.09,8.86,8.86,0,0,0-1.7-1.48,24.54,24.54,0,0,0-4.42-2.28,72,72,0,0,0-9.87-3,187,187,0,0,0-20.6-3.55,370.92,370.92,0,0,0-41.9-2.59Z"/>
      <path class="cls-22" d="M432.9,995.29c19.16,0,34.7,2.61,34.7,5.82s-15.54,5.82-34.7,5.82-34.7-2.6-34.7-5.82,15.54-5.82,34.7-5.82"/>
      <path class="cls-20" d="M1475.08,983.6c44.45,0,80.49,6.85,80.49,15.29s-36,15.29-80.49,15.29-80.49-6.85-80.49-15.29,36-15.29,80.49-15.29"/>
      <path class="cls-21" d="M1475.08,982.82a371.33,371.33,0,0,1,42.16,1.91,186.57,186.57,0,0,1,20.91,3.4,73.46,73.46,0,0,1,10.26,3.07,26.28,26.28,0,0,1,4.93,2.5,10.85,10.85,0,0,1,2.26,2,4.7,4.7,0,0,1,0,6.47,10.63,10.63,0,0,1-2.25,2,25.64,25.64,0,0,1-4.92,2.56,72.08,72.08,0,0,1-10.26,3.14,187.05,187.05,0,0,1-20.91,3.54,385,385,0,0,1-84.4,0,186.66,186.66,0,0,1-20.91-3.54,73.34,73.34,0,0,1-10.26-3.13,27.23,27.23,0,0,1-4.93-2.56,11.53,11.53,0,0,1-2.25-2,4.7,4.7,0,0,1,0-6.47,10.81,10.81,0,0,1,2.26-2,26.11,26.11,0,0,1,4.94-2.51,74,74,0,0,1,10.26-3.07,188.13,188.13,0,0,1,20.91-3.4,371.21,371.21,0,0,1,42.16-1.9v1.57a370.92,370.92,0,0,0-41.9,2.59,187,187,0,0,0-20.6,3.55,72,72,0,0,0-9.87,3.05,23.23,23.23,0,0,0-4.41,2.28,8.3,8.3,0,0,0-1.7,1.48,2.81,2.81,0,0,0-.67,1.55,2.85,2.85,0,0,0,.68,1.53,8.83,8.83,0,0,0,1.71,1.45,23.88,23.88,0,0,0,4.43,2.24,71.73,71.73,0,0,0,9.87,3,184.18,184.18,0,0,0,20.59,3.42,403.08,403.08,0,0,0,83.73,0,186.66,186.66,0,0,0,20.6-3.41,72.18,72.18,0,0,0,9.87-3,23.85,23.85,0,0,0,4.43-2.23,8.26,8.26,0,0,0,1.71-1.46,2.88,2.88,0,0,0,.69-1.53,2.81,2.81,0,0,0-.67-1.55,8.86,8.86,0,0,0-1.7-1.48,24.26,24.26,0,0,0-4.42-2.29,70.58,70.58,0,0,0-9.87-3A189.41,189.41,0,0,0,1517,987a370.91,370.91,0,0,0-41.9-2.58Z"/>
      <path class="cls-22" d="M1475.08,993.07c19.16,0,34.7,2.6,34.7,5.82s-15.54,5.82-34.7,5.82-34.7-2.61-34.7-5.82,15.54-5.82,34.7-5.82"/>
      <rect class="cls-2" width="1920" height="1080"/>
    </g>
    <g class="cls-3">
      <path class="cls-4" d="M513.18,664.35a89.68,89.68,0,1,1-89.68-89.68,89.68,89.68,0,0,1,89.68,89.68"/>
      <circle class="cls-5" cx="423.5" cy="664.35" r="51.95" transform="translate(-345.73 494.04) rotate(-45)"/>
      <path class="cls-4" d="M1406.82,228.39a89.68,89.68,0,1,1,89.68,89.68,89.68,89.68,0,0,1-89.68-89.68"/>
      <circle class="cls-6" cx="1496.5" cy="228.39" r="105.06" transform="translate(1252.2 1722.38) rotate(-89.39)"/>
      <circle class="cls-6" cx="423.5" cy="664.35" r="105.06" transform="translate(-317.93 930.8) rotate(-77.25)"/>
      <path class="cls-7" d="M1091.1,352.75A63.24,63.24,0,1,1,1154.34,416a63.24,63.24,0,0,1-63.24-63.24"/>
      <path class="cls-8" d="M1146.06,240.41a8.28,8.28,0,1,1,8.28,8.28,8.28,8.28,0,0,1-8.28-8.28"/>
      <path class="cls-8" d="M1091,259.6a8.28,8.28,0,1,1,11.31,3,8.28,8.28,0,0,1-11.31-3"/>
      <path class="cls-8" d="M1052.91,303.75a8.28,8.28,0,1,1,11.31-3,8.29,8.29,0,0,1-11.31,3"/>
      <path class="cls-8" d="M1042,361a8.28,8.28,0,1,1,8.28-8.28A8.28,8.28,0,0,1,1042,361"/>
      <path class="cls-8" d="M1105.34,454.17a8.28,8.28,0,1,1-3-11.31,8.28,8.28,0,0,1,3,11.31"/>
      <path class="cls-8" d="M1162.62,465.08a8.28,8.28,0,1,1-8.28-8.27,8.28,8.28,0,0,1,8.28,8.27"/>
      <path class="cls-8" d="M1217.68,445.89a8.28,8.28,0,1,1-11.31-3,8.28,8.28,0,0,1,11.31,3"/>
      <path class="cls-8" d="M1255.76,401.75a8.28,8.28,0,1,1-11.31,3,8.27,8.27,0,0,1,11.31-3"/>
      <path class="cls-8" d="M1266.68,344.47a8.28,8.28,0,1,1-8.28,8.28,8.27,8.27,0,0,1,8.28-8.28"/>
      <path class="cls-8" d="M1247.49,289.41a8.28,8.28,0,1,1-3,11.31,8.26,8.26,0,0,1,3-11.31"/>
      <path class="cls-8" d="M1203.34,251.32a8.28,8.28,0,1,1,3,11.31,8.28,8.28,0,0,1-3-11.31"/>
      <circle class="cls-9" cx="1154.34" cy="352.75" r="23.68" transform="translate(386.7 1284.23) rotate(-67.5)"/>
      <path class="cls-10" d="M1294.28,258.39A168.82,168.82,0,0,1,1183.81,519"/>
      <path class="cls-10" d="M1057.73,491.14A168.77,168.77,0,0,1,1154.34,184"/>
      <path class="cls-7" d="M830,540a63.24,63.24,0,1,1-63.24-63.24A63.24,63.24,0,0,1,830,540"/>
      <path class="cls-8" d="M775.05,652.34a8.28,8.28,0,1,1-8.28-8.28,8.28,8.28,0,0,1,8.28,8.28"/>
      <path class="cls-8" d="M830.11,633.15a8.28,8.28,0,1,1-11.31-3,8.28,8.28,0,0,1,11.31,3"/>
      <path class="cls-8" d="M868.2,589a8.28,8.28,0,1,1-11.31,3,8.29,8.29,0,0,1,11.31-3"/>
      <path class="cls-8" d="M879.11,531.72a8.28,8.28,0,1,1-8.28,8.28,8.28,8.28,0,0,1,8.28-8.28"/>
      <path class="cls-8" d="M815.77,438.57a8.28,8.28,0,1,1,3,11.31,8.29,8.29,0,0,1-3-11.31"/>
      <path class="cls-8" d="M758.49,427.66a8.28,8.28,0,1,1,8.28,8.28,8.28,8.28,0,0,1-8.28-8.28"/>
      <path class="cls-8" d="M703.43,446.85a8.28,8.28,0,1,1,11.31,3,8.29,8.29,0,0,1-11.31-3"/>
      <path class="cls-8" d="M665.35,491a8.28,8.28,0,1,1,11.3-3,8.27,8.27,0,0,1-11.3,3"/>
      <path class="cls-8" d="M654.43,548.28a8.28,8.28,0,1,1,8.28-8.28,8.28,8.28,0,0,1-8.28,8.28"/>
      <path class="cls-8" d="M673.62,603.34a8.28,8.28,0,1,1,3-11.31,8.27,8.27,0,0,1-3,11.31"/>
      <path class="cls-8" d="M717.77,641.43a8.28,8.28,0,1,1-3-11.31,8.28,8.28,0,0,1,3,11.31"/>
      <circle class="cls-9" cx="766.77" cy="540" r="23.68" transform="matrix(0.92, -0.38, 0.38, 0.92, -148.28, 334.54)"/>
      <path class="cls-10" d="M626.83,634.36A168.81,168.81,0,0,1,737.3,373.8"/>
      <path class="cls-10" d="M863.38,401.6a168.78,168.78,0,0,1-96.61,307.17"/>
      <path class="cls-4" d="M930.17,446.37a30.39,30.39,0,1,1,30.38,30.39,30.38,30.38,0,0,1-30.38-30.39"/>
      <ellipse class="cls-6" cx="960.56" cy="446.37" rx="93.59" ry="61.2" transform="translate(-98.57 459.63) rotate(-25.64)"/>
      <path class="cls-4" d="M1010.91,648.32a15.2,15.2,0,1,1-15.2-15.19,15.21,15.21,0,0,1,15.2,15.19"/>
      <path class="cls-4" d="M974.87,692.57a15.19,15.19,0,1,1-15.19-15.19,15.19,15.19,0,0,1,15.19,15.19"/>
      <path class="cls-4" d="M1029.22,699.36A15.19,15.19,0,1,1,1014,684.17a15.2,15.2,0,0,1,15.19,15.19"/>
      <path class="cls-4" d="M909.09,244.42a15.2,15.2,0,1,1,15.2,15.2,15.2,15.2,0,0,1-15.2-15.2"/>
      <path class="cls-4" d="M945.13,200.18a15.19,15.19,0,1,1,15.19,15.19,15.2,15.2,0,0,1-15.19-15.19"/>
      <path class="cls-4" d="M890.78,193.38A15.19,15.19,0,1,1,906,208.57a15.19,15.19,0,0,1-15.19-15.19"/>
      <path class="cls-4" d="M1759.68,228.37a15.2,15.2,0,1,1,10-19,15.19,15.19,0,0,1-10,19"/>
      <path class="cls-4" d="M1706.72,207.1a15.19,15.19,0,1,1,10-19,15.19,15.19,0,0,1-10,19"/>
      <path class="cls-4" d="M1716.38,261a15.19,15.19,0,1,1,10-19,15.2,15.2,0,0,1-10,19"/>
      <path class="cls-4" d="M160.32,664.38a15.19,15.19,0,1,1-10,19,15.19,15.19,0,0,1,10-19"/>
      <path class="cls-4" d="M213.28,685.64a15.19,15.19,0,1,1-10,19,15.2,15.2,0,0,1,10-19"/>
      <path class="cls-4" d="M203.62,631.73a15.19,15.19,0,1,1-10,19,15.2,15.2,0,0,1,10-19"/>
      <path class="cls-7" d="M949.39,11.73a148,148,0,1,1-148-148,148,148,0,0,1,148,148"/>
      <path class="cls-7" d="M970.61,881a148,148,0,1,1,148,148,148,148,0,0,1-148-148"/>
      <circle class="cls-11" cx="1380.94" cy="-7.46" r="64.21" transform="translate(1319.6 1372.14) rotate(-87.14)"/>
      <circle class="cls-6" cx="1380.94" cy="-7.46" r="114.82"/>
      <path class="cls-9" d="M1571.58,58.59a30,30,0,1,1,30,30A30,30,0,0,1,1571.58,58.59Z"/>
      <path class="cls-12" d="M1520.89,36.11a10.24,10.24,0,1,1,10.24,10.24,10.23,10.23,0,0,1-10.24-10.24"/>
      <path class="cls-4" d="M1848.54,792a54,54,0,1,1,54,54,54,54,0,0,1-54-54"/>
      <path class="cls-13" d="M1678.81,844a30.39,30.39,0,1,1,30.39,30.39A30.39,30.39,0,0,1,1678.81,844"/>
      <path class="cls-7" d="M1751.47,80.43a30.39,30.39,0,1,1,30.39,30.38,30.4,30.4,0,0,1-30.39-30.38"/>
      <path class="cls-14" d="M1902.52,255a19.54,19.54,0,1,0,19.54,19.54A19.54,19.54,0,0,0,1902.52,255"/>
      <path class="cls-14" d="M1825.49,286.9a19.54,19.54,0,1,0,27.63,0,19.54,19.54,0,0,0-27.63,0"/>
      <path class="cls-14" d="M1793.58,363.93a19.54,19.54,0,1,0,19.54-19.54,19.54,19.54,0,0,0-19.54,19.54"/>
      <path class="cls-14" d="M1825.49,441a19.54,19.54,0,1,0,0-27.64,19.54,19.54,0,0,0,0,27.64"/>
      <path class="cls-14" d="M1902.52,472.88A19.54,19.54,0,1,0,1883,453.34a19.54,19.54,0,0,0,19.54,19.54"/>
      <circle class="cls-9" cx="1902.52" cy="791.95" r="82.2"/>
      <circle class="cls-15" cx="1902.52" cy="791.95" r="127.11"/>
      <path class="cls-6" d="M1562.74,308.25c131.83,27,231,143.63,231,283.44,0,159.79-129.53,289.33-289.32,289.33s-289.32-129.54-289.32-289.33c0-134.51,91.8-247.59,216.17-280"/>
      <path class="cls-11" d="M604.38,900.21A64.21,64.21,0,1,1,540.17,836,64.2,64.2,0,0,1,604.38,900.21Z"/>
      <circle class="cls-6" cx="540.17" cy="900.21" r="114.82"/>
      <path class="cls-9" d="M349.53,834.15a30,30,0,1,1-30-30A30,30,0,0,1,349.53,834.15Z"/>
      <path class="cls-12" d="M400.22,856.63A10.24,10.24,0,1,1,390,846.4a10.23,10.23,0,0,1,10.24,10.23"/>
      <path class="cls-4" d="M72.57,100.8a54,54,0,1,1-54-54,54,54,0,0,1,54,54"/>
      <path class="cls-13" d="M216.19,36a21.75,21.75,0,1,1-21.74-21.74A21.74,21.74,0,0,1,216.19,36"/>
      <path class="cls-7" d="M169.64,812.32a30.39,30.39,0,1,1-30.39-30.39,30.39,30.39,0,0,1,30.39,30.39"/>
      <path class="cls-14" d="M18.59,637.76A19.54,19.54,0,1,0-.95,618.22a19.54,19.54,0,0,0,19.54,19.54"/>
      <path class="cls-14" d="M95.62,605.85a19.54,19.54,0,1,0-27.63,0,19.55,19.55,0,0,0,27.63,0"/>
      <path class="cls-14" d="M127.53,528.81A19.54,19.54,0,1,0,108,548.35a19.54,19.54,0,0,0,19.54-19.54"/>
      <path class="cls-14" d="M95.62,451.78a19.54,19.54,0,1,0,0,27.63,19.54,19.54,0,0,0,0-27.63"/>
      <path class="cls-14" d="M18.59,419.87a19.54,19.54,0,1,0,19.54,19.54,19.54,19.54,0,0,0-19.54-19.54"/>
      <circle class="cls-9" cx="18.59" cy="100.8" r="82.2" transform="translate(-82.7 116.5) rotate(-88.36)"/>
      <circle class="cls-15" cx="18.59" cy="100.8" r="127.11"/>
      <path class="cls-6" d="M358.37,584.5c-131.84-27-231-143.63-231-283.45,0-159.78,129.53-289.32,289.32-289.32S706,141.27,706,301.05c0,134.52-91.8,247.6-216.18,280"/>
      <path class="cls-13" d="M817.07,310.51a7.84,7.84,0,1,1-7.83-7.83,7.83,7.83,0,0,1,7.83,7.83"/>
      <path class="cls-13" d="M784.91,317.35a7.83,7.83,0,1,1-11.07,0,7.82,7.82,0,0,1,11.07,0"/>
      <path class="cls-13" d="M767,344.92a7.83,7.83,0,1,1-7.83,7.83,7.82,7.82,0,0,1,7.83-7.83"/>
      <path class="cls-13" d="M773.83,377.07a7.83,7.83,0,1,1,0,11.08,7.83,7.83,0,0,1,0-11.08"/>
      <path class="cls-13" d="M801.4,395a7.84,7.84,0,1,1,7.84,7.83A7.84,7.84,0,0,1,801.4,395"/>
      <path class="cls-13" d="M833.56,388.15a7.83,7.83,0,1,1,11.08,0,7.83,7.83,0,0,1-11.08,0"/>
      <path class="cls-13" d="M851.47,360.58a7.83,7.83,0,1,1,7.83-7.83,7.83,7.83,0,0,1-7.83,7.83"/>
      <path class="cls-13" d="M844.64,328.42a7.83,7.83,0,1,1,0-11.07,7.83,7.83,0,0,1,0,11.07"/>
      <path class="cls-13" d="M1102.93,582.23a7.83,7.83,0,1,1,7.83,7.83,7.84,7.84,0,0,1-7.83-7.83"/>
      <path class="cls-13" d="M1135.09,575.4a7.83,7.83,0,1,1,11.08,0,7.82,7.82,0,0,1-11.08,0"/>
      <path class="cls-13" d="M1153,547.83a7.83,7.83,0,1,1,7.83-7.83,7.82,7.82,0,0,1-7.83,7.83"/>
      <path class="cls-13" d="M1146.17,515.67a7.83,7.83,0,1,1,0-11.07,7.83,7.83,0,0,1,0,11.07"/>
      <path class="cls-13" d="M1118.6,497.77a7.84,7.84,0,1,1-7.83-7.83,7.84,7.84,0,0,1,7.83,7.83"/>
      <path class="cls-13" d="M1086.44,504.6a7.83,7.83,0,1,1-11.08,0,7.82,7.82,0,0,1,11.08,0"/>
      <path class="cls-13" d="M1068.53,532.17a7.83,7.83,0,1,1-7.83,7.83,7.83,7.83,0,0,1,7.83-7.83"/>
      <path class="cls-13" d="M1075.36,564.33a7.83,7.83,0,1,1,0,11.07,7.83,7.83,0,0,1,0-11.07"/>
      <path class="cls-16" d="M601.85,302.37c0,102.88-83.4,186.28-186.28,186.28S229.3,405.25,229.3,302.37,312.7,116.1,415.57,116.1s186.28,83.4,186.28,186.27"/>
      <path class="cls-2" d="M415.57,212a90.34,90.34,0,1,0,90.34,90.33A90.33,90.33,0,0,0,415.57,212"/>
      <path class="cls-14" d="M415.57,275.68a26.7,26.7,0,1,0,26.7,26.69,26.7,26.7,0,0,0-26.7-26.69"/>
      <line class="cls-17" x1="361.89" y1="102.02" x2="354.29" y2="73.68"/>
      <line class="cls-17" x1="268.9" y1="155.7" x2="248.15" y2="134.96"/>
      <line class="cls-17" x1="215.21" y1="248.69" x2="186.87" y2="241.09"/>
      <line class="cls-17" x1="215.21" y1="356.06" x2="186.87" y2="363.65"/>
      <line class="cls-17" x1="268.9" y1="449.05" x2="248.15" y2="469.79"/>
      <line class="cls-17" x1="361.89" y1="502.73" x2="354.29" y2="531.07"/>
      <line class="cls-17" x1="469.26" y1="502.73" x2="476.85" y2="531.07"/>
      <line class="cls-17" x1="562.24" y1="449.05" x2="582.99" y2="469.79"/>
      <line class="cls-17" x1="615.93" y1="356.06" x2="644.27" y2="363.65"/>
      <line class="cls-17" x1="615.93" y1="248.69" x2="644.27" y2="241.09"/>
      <line class="cls-17" x1="562.24" y1="155.7" x2="582.99" y2="134.96"/>
      <line class="cls-17" x1="469.26" y1="102.02" x2="476.85" y2="73.68"/>
      <polygon class="cls-2" points="415.67 229.23 406.82 73.68 436.51 73.68 427.67 229.23 415.67 229.23"/>
      <polygon class="cls-2" points="379.08 238.98 293.65 108.69 319.36 93.85 389.48 232.98 379.08 238.98"/>
      <polygon class="cls-2" points="352.28 265.72 213.14 195.6 227.98 169.89 358.28 255.33 352.28 265.72"/>
      <polygon class="cls-2" points="342.43 302.28 186.87 311.12 186.87 281.44 342.43 290.28 342.43 302.28"/>
      <polygon class="cls-2" points="352.18 338.86 221.89 424.3 207.04 398.59 346.18 328.47 352.18 338.86"/>
      <polygon class="cls-2" points="378.92 365.67 308.8 504.81 283.09 489.96 368.52 359.67 378.92 365.67"/>
      <polygon class="cls-2" points="415.48 375.52 424.32 531.07 394.63 531.07 403.48 375.52 415.48 375.52"/>
      <polygon class="cls-2" points="452.06 365.76 537.5 496.06 511.79 510.9 441.67 371.76 452.06 365.76"/>
      <polygon class="cls-2" points="478.87 339.03 618 409.15 603.16 434.86 472.87 349.42 478.87 339.03"/>
      <polygon class="cls-2" points="488.71 302.47 644.27 293.63 644.27 323.31 488.71 314.47 488.71 302.47"/>
      <polygon class="cls-2" points="478.96 265.88 609.26 180.45 624.1 206.16 484.96 276.28 478.96 265.88"/>
      <polygon class="cls-2" points="452.23 239.08 522.35 99.94 548.05 114.78 462.62 245.08 452.23 239.08"/>
      <path class="cls-16" d="M1690.7,591.69c0,102.88-83.39,186.28-186.27,186.28s-186.28-83.4-186.28-186.28,83.4-186.27,186.28-186.27,186.27,83.4,186.27,186.27"/>
      <path class="cls-2" d="M1504.43,501.36a90.34,90.34,0,1,0,90.33,90.33,90.34,90.34,0,0,0-90.33-90.33"/>
      <path class="cls-14" d="M1504.43,565a26.7,26.7,0,1,0,26.7,26.69,26.69,26.69,0,0,0-26.7-26.69"/>
      <line class="cls-17" x1="1450.74" y1="391.34" x2="1443.15" y2="363"/>
      <line class="cls-17" x1="1357.76" y1="445.02" x2="1337.01" y2="424.28"/>
      <line class="cls-17" x1="1304.07" y1="538.01" x2="1275.73" y2="530.41"/>
      <line class="cls-17" x1="1304.07" y1="645.38" x2="1275.73" y2="652.97"/>
      <line class="cls-17" x1="1357.76" y1="738.37" x2="1337.01" y2="759.11"/>
      <line class="cls-17" x1="1450.74" y1="792.05" x2="1443.15" y2="820.39"/>
      <line class="cls-17" x1="1558.11" y1="792.05" x2="1565.71" y2="820.39"/>
      <line class="cls-17" x1="1651.1" y1="738.37" x2="1671.85" y2="759.11"/>
      <line class="cls-17" x1="1704.79" y1="645.38" x2="1733.13" y2="652.97"/>
      <line class="cls-17" x1="1704.79" y1="538.01" x2="1733.13" y2="530.41"/>
      <line class="cls-17" x1="1651.1" y1="445.02" x2="1671.85" y2="424.28"/>
      <line class="cls-17" x1="1558.11" y1="391.34" x2="1565.71" y2="363"/>
      <polygon class="cls-2" points="1504.52 518.55 1495.68 363 1525.37 363 1516.52 518.55 1504.52 518.55"/>
      <polygon class="cls-2" points="1467.94 528.3 1382.5 398.01 1408.21 383.17 1478.33 522.3 1467.94 528.3"/>
      <polygon class="cls-2" points="1441.13 555.04 1302 484.92 1316.84 459.21 1447.13 544.65 1441.13 555.04"/>
      <polygon class="cls-2" points="1431.29 591.6 1275.73 600.44 1275.73 570.76 1431.29 579.6 1431.29 591.6"/>
      <polygon class="cls-2" points="1441.04 628.18 1310.74 713.62 1295.9 687.91 1435.04 617.79 1441.04 628.18"/>
      <polygon class="cls-2" points="1467.77 654.99 1397.65 794.13 1371.95 779.28 1457.38 648.99 1467.77 654.99"/>
      <polygon class="cls-2" points="1504.33 664.84 1513.17 820.39 1483.49 820.39 1492.33 664.84 1504.33 664.84"/>
      <polygon class="cls-2" points="1540.92 655.09 1626.35 785.38 1600.64 800.22 1530.52 661.09 1540.92 655.09"/>
      <polygon class="cls-2" points="1567.72 628.35 1706.86 698.47 1692.02 724.18 1561.72 638.74 1567.72 628.35"/>
      <polygon class="cls-2" points="1577.57 591.79 1733.13 582.95 1733.13 612.63 1577.57 603.79 1577.57 591.79"/>
      <polygon class="cls-2" points="1567.82 555.21 1698.11 469.77 1712.96 495.48 1573.82 565.6 1567.82 555.21"/>
      <polygon class="cls-2" points="1541.08 528.4 1611.2 389.26 1636.91 404.11 1551.47 534.4 1541.08 528.4"/>
      <path class="cls-13" d="M689.48,730.34a26.4,26.4,0,1,1-13.72-34.72,26.4,26.4,0,0,1,13.72,34.72"/>
      <path class="cls-13" d="M698.77,671.9c-2.14,4.93-8.66,6.85-14.57,4.28s-9-8.64-6.83-13.56,8.66-6.85,14.57-4.29,9,8.64,6.83,13.57"/>
      <line class="cls-18" x1="688.07" y1="667.26" x2="665.26" y2="719.84"/>
      <path class="cls-13" d="M655.05,662.25c2,5-1.28,11-7.27,13.33s-12.45.23-14.42-4.76,1.28-11,7.27-13.34,12.45-.23,14.42,4.77"/>
      <line class="cls-18" x1="644.2" y1="666.53" x2="665.26" y2="719.84"/>
      <path class="cls-13" d="M617.32,686.33c4.93,2.14,6.84,8.66,4.28,14.57s-8.64,9-13.57,6.83-6.84-8.66-4.28-14.57,8.64-9,13.57-6.83"/>
      <line class="cls-18" x1="612.68" y1="697.03" x2="665.26" y2="719.84"/>
      <path class="cls-13" d="M607.66,730.05c5-2,11,1.28,13.34,7.27s.23,12.45-4.77,14.42-11-1.28-13.33-7.27-.23-12.45,4.76-14.42"/>
      <line class="cls-18" x1="611.95" y1="740.9" x2="665.26" y2="719.84"/>
      <path class="cls-13" d="M631.75,767.78c2.14-4.93,8.66-6.84,14.57-4.28s9,8.64,6.83,13.57-8.66,6.84-14.57,4.28-9-8.64-6.83-13.57"/>
      <line class="cls-18" x1="642.45" y1="772.42" x2="665.26" y2="719.84"/>
      <path class="cls-13" d="M675.46,777.44c-2-5,1.29-11,7.28-13.34s12.45-.23,14.42,4.77-1.28,11-7.27,13.33-12.45.23-14.43-4.76"/>
      <line class="cls-18" x1="686.31" y1="773.15" x2="665.26" y2="719.84"/>
      <path class="cls-13" d="M713.2,753.35c-4.93-2.14-6.85-8.66-4.28-14.57s8.64-9,13.56-6.83,6.85,8.66,4.29,14.57-8.64,9-13.57,6.83"/>
      <line class="cls-18" x1="717.84" y1="742.65" x2="665.26" y2="719.84"/>
      <path class="cls-13" d="M722.85,709.63c-5,2-11-1.28-13.33-7.27s-.23-12.45,4.76-14.42,11,1.28,13.34,7.27.23,12.45-4.77,14.42"/>
      <line class="cls-18" x1="718.57" y1="698.79" x2="665.26" y2="719.84"/>
      <path class="cls-2" d="M675.48,724.27a11.14,11.14,0,1,1-5.79-14.65,11.13,11.13,0,0,1,5.79,14.65"/>
      <path class="cls-13" d="M1279,183.41a26.4,26.4,0,1,1-13.72-34.72A26.4,26.4,0,0,1,1279,183.41"/>
      <path class="cls-13" d="M1288.25,125c-2.14,4.93-8.66,6.85-14.57,4.29s-9-8.64-6.83-13.57,8.66-6.85,14.57-4.28,9,8.63,6.83,13.56"/>
      <line class="cls-18" x1="1277.55" y1="120.32" x2="1254.74" y2="172.91"/>
      <path class="cls-13" d="M1244.54,115.31c2,5-1.29,11-7.28,13.33s-12.45.24-14.42-4.76,1.28-11,7.27-13.33,12.45-.24,14.43,4.76"/>
      <line class="cls-18" x1="1233.69" y1="119.6" x2="1254.74" y2="172.91"/>
      <path class="cls-13" d="M1206.8,139.4c4.93,2.14,6.85,8.66,4.28,14.57s-8.64,9-13.56,6.83-6.85-8.66-4.29-14.57,8.64-9,13.57-6.83"/>
      <line class="cls-18" x1="1202.16" y1="150.1" x2="1254.74" y2="172.91"/>
      <path class="cls-13" d="M1197.15,183.11c5-2,11,1.29,13.33,7.28s.23,12.45-4.77,14.42-11-1.28-13.33-7.28-.23-12.44,4.77-14.42"/>
      <line class="cls-18" x1="1201.43" y1="193.96" x2="1254.74" y2="172.91"/>
      <path class="cls-13" d="M1221.23,220.85c2.14-4.93,8.66-6.85,14.57-4.29s9,8.64,6.83,13.57-8.66,6.85-14.57,4.28-9-8.63-6.83-13.56"/>
      <line class="cls-18" x1="1231.93" y1="225.49" x2="1254.74" y2="172.91"/>
      <path class="cls-13" d="M1265,230.5c-2-5,1.28-11,7.27-13.33s12.45-.24,14.42,4.76-1.28,11-7.27,13.34-12.45.23-14.42-4.77"/>
      <line class="cls-18" x1="1275.8" y1="226.22" x2="1254.74" y2="172.91"/>
      <path class="cls-13" d="M1302.68,206.42c-4.93-2.14-6.85-8.67-4.28-14.58s8.64-9,13.57-6.83,6.84,8.67,4.28,14.58-8.64,9-13.57,6.83"/>
      <line class="cls-18" x1="1307.32" y1="195.71" x2="1254.74" y2="172.91"/>
      <path class="cls-13" d="M1312.34,162.7c-5,2-11-1.28-13.34-7.27s-.23-12.45,4.77-14.43,11,1.29,13.33,7.28.23,12.45-4.76,14.42"/>
      <line class="cls-18" x1="1308.05" y1="151.85" x2="1254.74" y2="172.91"/>
      <path class="cls-2" d="M1265,177.34a11.14,11.14,0,1,1-5.78-14.66,11.13,11.13,0,0,1,5.78,14.66"/>
      <path class="cls-5" d="M1548.45,225.49a51.95,51.95,0,1,1-52-51.94A51.94,51.94,0,0,1,1548.45,225.49Z"/>
    </g>
    <g class="cls-3">
      <rect class="cls-19" y="810" width="1920" height="270"/>
      <path class="cls-20" d="M233.84,968.63c69.25,0,125.39,7.93,125.39,17.72s-56.14,17.73-125.39,17.73-125.4-7.94-125.4-17.73,56.14-17.72,125.4-17.72"/>
      <path class="cls-21" d="M233.84,967.84c21.51-.1,43,.49,64.52,2.17,10.73.88,21.45,2,32.11,3.79a159.56,159.56,0,0,1,15.9,3.39,57.12,57.12,0,0,1,7.79,2.71,20.25,20.25,0,0,1,3.75,2.14,8.63,8.63,0,0,1,1.7,1.67,4.17,4.17,0,0,1,0,5.29,8.17,8.17,0,0,1-1.7,1.68,20,20,0,0,1-3.74,2.17,57.81,57.81,0,0,1-7.79,2.76,156.35,156.35,0,0,1-15.89,3.46c-10.66,1.8-21.38,3-32.12,3.92-21.47,1.82-43,2.55-64.54,2.59s-43.07-.76-64.55-2.58c-10.73-.94-21.46-2.13-32.12-3.93a156.94,156.94,0,0,1-15.89-3.46,56.08,56.08,0,0,1-7.79-2.76,20.3,20.3,0,0,1-3.74-2.16,8.43,8.43,0,0,1-1.7-1.68,4.2,4.2,0,0,1,0-5.31,8.35,8.35,0,0,1,1.71-1.66,19.86,19.86,0,0,1,3.74-2.14,55.47,55.47,0,0,1,7.8-2.71,153.93,153.93,0,0,1,15.89-3.39c10.66-1.76,21.38-2.91,32.12-3.79,21.47-1.68,43-2.27,64.52-2.17v1.57c-21.48.13-43,1-64.33,2.86-10.68,1-21.35,2.16-31.89,4A156.48,156.48,0,0,0,122,979.66a53.74,53.74,0,0,0-7.41,2.63,16.92,16.92,0,0,0-3.23,1.86c-1,.7-1.63,1.59-1.59,2.2s.65,1.5,1.61,2.19a16.83,16.83,0,0,0,3.23,1.83A54.92,54.92,0,0,0,122,993a157.06,157.06,0,0,0,15.62,3.35c10.54,1.77,21.2,2.93,31.88,3.83,21.38,1.77,42.85,2.45,64.31,2.45s42.93-.67,64.3-2.44c10.68-.91,21.35-2.07,31.89-3.84A156.26,156.26,0,0,0,345.64,993a53.22,53.22,0,0,0,7.42-2.57,17.4,17.4,0,0,0,3.23-1.84c1-.69,1.64-1.57,1.61-2.19s-.64-1.51-1.59-2.21a18.41,18.41,0,0,0-3.23-1.86,55.06,55.06,0,0,0-7.41-2.62,151.64,151.64,0,0,0-15.61-3.42c-10.54-1.81-21.21-3-31.89-4-21.38-1.91-42.86-2.73-64.33-2.86Z"/>
      <path class="cls-22" d="M233.84,979.61c29.85,0,54,3,54,6.74s-24.2,6.75-54,6.75-54.06-3-54.06-6.75,24.2-6.74,54.06-6.74"/>
      <path class="cls-20" d="M1690,955.19c69.25,0,125.39,7.93,125.39,17.73s-56.14,17.72-125.39,17.72-125.4-7.93-125.4-17.72,56.14-17.73,125.4-17.73"/>
      <path class="cls-21" d="M1690,954.4c21.51-.1,43,.49,64.52,2.18,10.73.87,21.45,2,32.11,3.79a156.74,156.74,0,0,1,15.9,3.38,57.12,57.12,0,0,1,7.79,2.71,20.9,20.9,0,0,1,3.75,2.15,8.3,8.3,0,0,1,1.7,1.66,4.47,4.47,0,0,1,1,2.64,4.52,4.52,0,0,1-.94,2.66,8.37,8.37,0,0,1-1.7,1.67,20,20,0,0,1-3.74,2.17,55.63,55.63,0,0,1-7.79,2.76,153.69,153.69,0,0,1-15.89,3.46c-10.66,1.8-21.38,3-32.12,3.92-21.47,1.83-43,2.55-64.54,2.59s-43.07-.76-64.55-2.58c-10.73-.93-21.46-2.12-32.12-3.93a159.67,159.67,0,0,1-15.89-3.45,57.47,57.47,0,0,1-7.79-2.77,19.74,19.74,0,0,1-3.74-2.16,8.43,8.43,0,0,1-1.7-1.68,4.19,4.19,0,0,1,0-5.3,8.41,8.41,0,0,1,1.71-1.67,19.86,19.86,0,0,1,3.74-2.14,56.78,56.78,0,0,1,7.8-2.71,159.37,159.37,0,0,1,15.89-3.39c10.66-1.76,21.38-2.91,32.12-3.79,21.47-1.68,43-2.27,64.52-2.17V956c-21.48.13-43,1-64.33,2.87-10.68.95-21.35,2.15-31.89,4a153.76,153.76,0,0,0-15.61,3.43,53.71,53.71,0,0,0-7.41,2.62,16.92,16.92,0,0,0-3.23,1.86c-1,.7-1.63,1.59-1.59,2.2s.65,1.5,1.61,2.19a17.4,17.4,0,0,0,3.23,1.84,53.54,53.54,0,0,0,7.41,2.57,154.28,154.28,0,0,0,15.62,3.35c10.54,1.77,21.2,2.93,31.88,3.84,21.38,1.77,42.85,2.44,64.31,2.44s42.93-.67,64.3-2.44c10.68-.91,21.35-2.07,31.89-3.83a156.29,156.29,0,0,0,15.61-3.36,53.22,53.22,0,0,0,7.42-2.57,18,18,0,0,0,3.23-1.83c1-.69,1.64-1.58,1.61-2.2s-.64-1.51-1.59-2.21a18.15,18.15,0,0,0-3.24-1.86,54.43,54.43,0,0,0-7.4-2.62,154.32,154.32,0,0,0-15.61-3.42c-10.54-1.81-21.21-3-31.89-4-21.38-1.91-42.86-2.73-64.33-2.86Z"/>
      <path class="cls-22" d="M1690,966.17c29.85,0,54,3,54,6.75s-24.2,6.74-54,6.74-54.06-3-54.06-6.74,24.2-6.75,54.06-6.75"/>
      <path class="cls-20" d="M432.9,985.83c44.45,0,80.49,6.84,80.49,15.28s-36,15.29-80.49,15.29-80.49-6.84-80.49-15.29,36-15.28,80.49-15.28"/>
      <path class="cls-21" d="M432.9,985A373.65,373.65,0,0,1,475.06,987a188.13,188.13,0,0,1,20.91,3.4,75.4,75.4,0,0,1,10.26,3.07,26.41,26.41,0,0,1,4.94,2.51,11.07,11.07,0,0,1,2.25,2,5.33,5.33,0,0,1,1.3,3.22,5.46,5.46,0,0,1-1.28,3.25,11.22,11.22,0,0,1-2.25,2,26.82,26.82,0,0,1-4.92,2.56A73.39,73.39,0,0,1,496,1012a191.35,191.35,0,0,1-20.91,3.54,385,385,0,0,1-84.4,0,189.38,189.38,0,0,1-20.91-3.54,72.48,72.48,0,0,1-10.26-3.14,26,26,0,0,1-4.93-2.56,11.15,11.15,0,0,1-2.25-2,4.71,4.71,0,0,1,0-6.48,11.43,11.43,0,0,1,2.26-2,26.36,26.36,0,0,1,4.94-2.5,72.66,72.66,0,0,1,10.26-3.07,185.83,185.83,0,0,1,20.91-3.4A373.65,373.65,0,0,1,432.9,985v1.57A370.92,370.92,0,0,0,391,989.2a187,187,0,0,0-20.6,3.56,71,71,0,0,0-9.87,3,23.23,23.23,0,0,0-4.41,2.28,8.3,8.3,0,0,0-1.7,1.48,2.81,2.81,0,0,0-.67,1.54,2.77,2.77,0,0,0,.69,1.53,8.46,8.46,0,0,0,1.7,1.46,23.85,23.85,0,0,0,4.43,2.23,71.76,71.76,0,0,0,9.87,3,189.07,189.07,0,0,0,20.6,3.42,404.93,404.93,0,0,0,83.73,0,184.18,184.18,0,0,0,20.59-3.42,73.14,73.14,0,0,0,9.87-3,23.28,23.28,0,0,0,4.43-2.24,8.54,8.54,0,0,0,1.71-1.45,2.1,2.1,0,0,0,0-3.09,8.86,8.86,0,0,0-1.7-1.48,24.54,24.54,0,0,0-4.42-2.28,72,72,0,0,0-9.87-3,187,187,0,0,0-20.6-3.55,370.92,370.92,0,0,0-41.9-2.59Z"/>
      <path class="cls-22" d="M432.9,995.29c19.16,0,34.7,2.61,34.7,5.82s-15.54,5.82-34.7,5.82-34.7-2.6-34.7-5.82,15.54-5.82,34.7-5.82"/>
      <path class="cls-20" d="M1475.08,983.6c44.45,0,80.49,6.85,80.49,15.29s-36,15.29-80.49,15.29-80.49-6.85-80.49-15.29,36-15.29,80.49-15.29"/>
      <path class="cls-21" d="M1475.08,982.82a371.33,371.33,0,0,1,42.16,1.91,186.57,186.57,0,0,1,20.91,3.4,73.46,73.46,0,0,1,10.26,3.07,26.28,26.28,0,0,1,4.93,2.5,10.85,10.85,0,0,1,2.26,2,4.7,4.7,0,0,1,0,6.47,10.63,10.63,0,0,1-2.25,2,25.64,25.64,0,0,1-4.92,2.56,72.08,72.08,0,0,1-10.26,3.14,187.05,187.05,0,0,1-20.91,3.54,385,385,0,0,1-84.4,0,186.66,186.66,0,0,1-20.91-3.54,73.34,73.34,0,0,1-10.26-3.13,27.23,27.23,0,0,1-4.93-2.56,11.53,11.53,0,0,1-2.25-2,4.7,4.7,0,0,1,0-6.47,10.81,10.81,0,0,1,2.26-2,26.11,26.11,0,0,1,4.94-2.51,74,74,0,0,1,10.26-3.07,188.13,188.13,0,0,1,20.91-3.4,371.21,371.21,0,0,1,42.16-1.9v1.57a370.92,370.92,0,0,0-41.9,2.59,187,187,0,0,0-20.6,3.55,72,72,0,0,0-9.87,3.05,23.23,23.23,0,0,0-4.41,2.28,8.3,8.3,0,0,0-1.7,1.48,2.81,2.81,0,0,0-.67,1.55,2.85,2.85,0,0,0,.68,1.53,8.83,8.83,0,0,0,1.71,1.45,23.88,23.88,0,0,0,4.43,2.24,71.73,71.73,0,0,0,9.87,3,184.18,184.18,0,0,0,20.59,3.42,403.08,403.08,0,0,0,83.73,0,186.66,186.66,0,0,0,20.6-3.41,72.18,72.18,0,0,0,9.87-3,23.85,23.85,0,0,0,4.43-2.23,8.26,8.26,0,0,0,1.71-1.46,2.88,2.88,0,0,0,.69-1.53,2.81,2.81,0,0,0-.67-1.55,8.86,8.86,0,0,0-1.7-1.48,24.26,24.26,0,0,0-4.42-2.29,70.58,70.58,0,0,0-9.87-3A189.41,189.41,0,0,0,1517,987a370.91,370.91,0,0,0-41.9-2.58Z"/>
      <path class="cls-22" d="M1475.08,993.07c19.16,0,34.7,2.6,34.7,5.82s-15.54,5.82-34.7,5.82-34.7-2.61-34.7-5.82,15.54-5.82,34.7-5.82"/>
    </g>
    <g class="cls-3">
      <path class="cls-23" d="M1541.46,815.93c-2.93,8.11,7.45,19.31,23.2,25s30.89,3.75,33.83-4.36-7.45-19.31-23.2-25-30.89-3.75-33.83,4.36"/>
      <path class="cls-24" d="M1727.42,883.7H1592.77l15.7,69.62a27.46,27.46,0,0,0,53.6-.13l6.07-27.57h43.73l6.07,27.57a27.46,27.46,0,0,0,53.6.13l15.7-69.62Z"/>
      <path class="cls-25" d="M1606.22,862.15c-2-13.69-21.36-46,9.9-67.13a17,17,0,1,0-19.21-28.15c-37.72,26.79-81.34,55.41-28,115.6"/>
      <path class="cls-25" d="M1857.34,877a29.4,29.4,0,1,1-29.4-29.4,29.4,29.4,0,0,1,29.4,29.4"/>
      <path class="cls-25" d="M1798.54,877c0-13.84,1.49-64.37-32.5-80.72A17,17,0,1,1,1781,765.63c47,23.45,76.38,62.21,76.38,111.36"/>
      <path class="cls-26" d="M1788.94,840c0-13.83-7.54-37.36-22.9-43.76-8.68-3.63-12-14.32-7.86-22.78s13.42-10.74,18.7-9.26c43.09,12,66.06,41.88,66.06,41.88s-21.48,25-54,33.92"/>
      <path class="cls-26" d="M1599.81,841.65c-2-13.69,2-38.06,16.31-46.63,8.06-4.85,9.77-15.9,4.47-23.68s-14.83-8.67-19.85-6.44c-40.89,18.15-59.28,51-59.28,51,8.88-9.78,47.31-11.24,58.35,25.72"/>
      <path class="cls-27" d="M1798.88,863.15c0-66-48.74-119.58-108.87-119.58s-108.88,53.54-108.88,119.58a130.8,130.8,0,0,0,3.48,30.09H1795.4a130.8,130.8,0,0,0,3.48-30.09"/>
    </g>
    <g class="cls-28">
      <path class="cls-29" d="M1757,872.28c0-71.08-30-128.71-67-128.71s-67,57.63-67,128.71a241.78,241.78,0,0,0,2.14,32.38h129.67A241.75,241.75,0,0,0,1757,872.28Z"/>
    </g>
    <g class="cls-3">
      <path class="cls-30" d="M1690,808.49l50.24-59.27a91.6,91.6,0,0,1,36.81,29.61l-31.48,21.51-19.07-11-4.77,19.15Z"/>
      <path class="cls-31" d="M1777.06,778.83c-2.45,2.06-4.93,4-7.43,6l-3.76,2.94-3.8,2.89c-2.53,1.94-5.1,3.81-7.65,5.7s-5.15,3.74-7.73,5.59l-1,.69-1.13-.61c-3.23-1.75-6.43-3.55-9.63-5.35s-6.38-3.64-9.54-5.5l3.17-1.34-1.23,4.78c-.42,1.59-.81,3.18-1.25,4.77l-2.6,9.53-.39,1.44-1.39,0-7.93-.29c-2.65-.09-5.29-.26-7.94-.38s-5.29-.33-7.93-.49-5.29-.4-7.93-.68c2.64-.27,5.29-.47,7.93-.67s5.29-.37,7.93-.5,5.29-.29,7.94-.37l7.93-.29-1.78,1.39,2.17-9.63c.35-1.61.75-3.2,1.13-4.81l1.15-4.8.67-2.77,2.5,1.43c3.2,1.81,6.37,3.66,9.54,5.51s6.31,3.74,9.45,5.66l-2.1.07c2.66-1.73,5.31-3.48,8-5.16s5.37-3.41,8.09-5.06l4.07-2.49,4.11-2.43c2.74-1.62,5.51-3.21,8.31-4.74"/>
      <path class="cls-30" d="M1690,808.49l-50.25-59.27a91.54,91.54,0,0,0-36.8,29.61l31.47,21.51,19.08-11,4.76,19.15Z"/>
      <path class="cls-31" d="M1603,778.83c2.8,1.53,5.56,3.12,8.3,4.74l4.11,2.43,4.07,2.49c2.73,1.65,5.4,3.36,8.09,5.06s5.35,3.43,8,5.16l-2.09-.07q4.69-2.88,9.45-5.66c3.17-1.85,6.34-3.7,9.53-5.51l2.51-1.43.66,2.77,1.16,4.8c.37,1.61.77,3.2,1.12,4.81l2.17,9.63-1.78-1.39,7.94.29c2.64.08,5.29.25,7.93.37s5.29.33,7.93.5,5.29.4,7.94.67c-2.65.28-5.29.48-7.94.68s-5.29.36-7.93.49-5.29.29-7.93.38l-7.94.29-1.38,0-.4-1.44-2.59-9.53c-.44-1.59-.84-3.18-1.26-4.77l-1.23-4.78,3.18,1.34c-3.17,1.86-6.36,3.68-9.55,5.5s-6.4,3.6-9.62,5.35l-1.13.61-1-.69c-2.58-1.85-5.18-3.69-7.72-5.59s-5.13-3.76-7.65-5.7l-3.8-2.89-3.76-2.94c-2.51-2-5-4-7.43-6"/>
      <polygon class="cls-32" points="1639.76 749.23 1690.01 808.49 1740.25 749.23 1639.76 749.23"/>
      <path class="cls-33" d="M1777.14,669.85c4.17,15.8,19.14,25.55,33.42,21.77s22.48-19.64,18.3-35.44-19.14-25.55-33.42-21.78S1773,654,1777.14,669.85Z"/>
      <path class="cls-33" d="M1776.72,646.49c3.81,14.44,16.83,23.52,29.07,20.28s19.08-17.56,15.26-32-16.83-23.51-29.07-20.28S1772.9,632.05,1776.72,646.49Z"/>
      <path class="cls-33" d="M1602.88,669.85c-4.18,15.8-19.14,25.55-33.43,21.77S1547,672,1551.15,656.18s19.14-25.55,33.43-21.78S1607.05,654,1602.88,669.85Z"/>
      <path class="cls-33" d="M1603.3,646.49c-3.82,14.44-16.83,23.52-29.08,20.28s-19.07-17.56-15.26-32,16.84-23.51,29.08-20.28S1607.11,632.05,1603.3,646.49Z"/>
      <path class="cls-32" d="M1603,692.81A25.93,25.93,0,1,1,1577,666.88,25.92,25.92,0,0,1,1603,692.81"/>
      <path class="cls-32" d="M1777.06,692.81A25.93,25.93,0,1,0,1803,666.88a25.92,25.92,0,0,0-25.93,25.93"/>
      <path class="cls-25" d="M1807.74,664.4c0,63.2-52.71,114.43-117.73,114.43S1572.27,727.6,1572.27,664.4,1625,550,1690,550s117.73,51.24,117.73,114.44"/>
      <path class="cls-34" d="M1804.19,692.4a110.11,110.11,0,0,1-15.1,35.35,115.4,115.4,0,0,1-26.33,28.3,118.74,118.74,0,0,1-34.23,18.23,121.09,121.09,0,0,1-76.68.12,118.51,118.51,0,0,1-34.29-18.12,115.25,115.25,0,0,1-26.42-28.22,110,110,0,0,1-15.22-35.3,116.7,116.7,0,0,0,43.26,61.35,120.63,120.63,0,0,0,142-.22,116.55,116.55,0,0,0,43.06-61.49"/>
      <path class="cls-35" d="M1721.3,683.47c-10.83-7-24.48-5.38-31.29,3.51-6.82-8.89-20.47-10.54-31.29-3.51-19.88,12.9-24.29,41.38-24.29,41.38s27.81,7.56,47.68-5.35a27,27,0,0,0,7.9-7.8,26.8,26.8,0,0,0,7.89,7.8c19.87,12.91,47.68,5.35,47.68,5.35s-4.41-28.48-24.28-41.38"/>
      <path d="M1658.27,659.87c0,6.19-4.14,11.21-9.25,11.21s-9.26-5-9.26-11.21,4.15-11.21,9.26-11.21,9.25,5,9.25,11.21"/>
      <path class="cls-36" d="M1628.57,692.81c0,10-8.39,18.09-18.75,18.09s-18.75-8.1-18.75-18.09,8.4-18.1,18.75-18.1,18.75,8.1,18.75,18.1"/>
      <path class="cls-36" d="M1751.44,692.81c0,10,8.4,18.09,18.75,18.09s18.75-8.1,18.75-18.09-8.39-18.1-18.75-18.1-18.75,8.1-18.75,18.1"/>
      <path d="M1721.74,659.87c0,6.19,4.15,11.21,9.26,11.21s9.25-5,9.25-11.21-4.14-11.21-9.25-11.21-9.26,5-9.26,11.21"/>
      <path class="cls-37" d="M1746,624.52c12.83,8.14,26.61,9.42,30.77,2.86s-2.88-18.47-15.71-26.61-26.61-9.42-30.77-2.86,2.88,18.47,15.71,26.61"/>
      <path class="cls-37" d="M1634.06,624.52c-12.83,8.14-26.61,9.42-30.76,2.86s2.87-18.47,15.7-26.61,26.61-9.42,30.77-2.86-2.87,18.47-15.71,26.61"/>
      <path class="cls-35" d="M1645.29,557.7c13.16,27.26,66.1,32,79.63-2,5.42-13.6-1.59-30.57-17.45-32.76,0,0,6.34,15.37-1.22,17.56s-33.18-26.1-61,17.16"/>
      <path class="cls-38" d="M1566.49,974.74h-.76a6.24,6.24,0,0,1-6.22-6.22V858.74a6.24,6.24,0,0,1,6.22-6.22h.76a6.24,6.24,0,0,1,6.23,6.22V968.52a6.24,6.24,0,0,1-6.23,6.22"/>
      <path class="cls-25" d="M1541.39,832.21c-1.71,13.13,8.61,25.3,23,27.18s27.53-7.24,29.24-20.37-8.61-25.3-23-27.18-27.53,7.24-29.24,20.37"/>
      <path class="cls-25" d="M1533.34,853.89c0,15.79,14.25,28.58,31.83,28.58S1597,869.68,1597,853.89s-14.25-28.58-31.83-28.58-31.83,12.79-31.83,28.58"/>
      <path class="cls-39" d="M1597,853.89a27.78,27.78,0,0,0-3.44-11.09,29.58,29.58,0,0,0-7.39-8.61,34.51,34.51,0,0,0-32.09-5.33,32.38,32.38,0,0,0-9.91,5.34,29.15,29.15,0,0,0-7.38,8.61,27.54,27.54,0,0,0-3.45,11.08,24.58,24.58,0,0,1,1.91-11.83,28.7,28.7,0,0,1,7.16-9.93,32.81,32.81,0,0,1,10.57-6.38,35.1,35.1,0,0,1,24.38,0,32.81,32.81,0,0,1,10.57,6.38,28.6,28.6,0,0,1,7.15,9.92,24.47,24.47,0,0,1,1.92,11.83"/>
      <path class="cls-40" d="M1539.83,639.86c3.5,8.73-3.58,19.79-15.81,24.69s-34,4.21-48.94,3.25c10.7-19.46,24-30,36.27-34.88S1536.33,631.13,1539.83,639.86Z"/>
      <path class="cls-40" d="M1410.33,639.86c-3.5,8.73,3.57,19.79,15.8,24.69s34,4.21,48.95,3.25c-10.71-19.46-24-30-36.27-34.88S1413.83,631.13,1410.33,639.86Z"/>
      <path class="cls-25" d="M1549.29,908.53l-25.58-31.87v0c-.1-.13-.2-.27-.31-.39a15.19,15.19,0,0,0-22.86,20c.11.13.23.24.34.36h0L1529,926.13l.09.11a13.44,13.44,0,0,0,20.23-17.71"/>
      <path class="cls-41" d="M1523.39,876.29s-5.83,4.48-12.14,10-10.72,10-10.72,10a15.19,15.19,0,0,1,22.86-20"/>
      <path class="cls-25" d="M1448.15,874.94a15.15,15.15,0,0,0-21.39,1.35c-.11.12-.2.26-.3.39v0l-25.58,31.87a13.44,13.44,0,0,0,20.23,17.71l.09-.11,28.11-29.45h0c.12-.13.24-.23.35-.36a15.15,15.15,0,0,0-1.48-21.37"/>
      <path class="cls-41" d="M1426.76,876.29s5.84,4.48,12.15,10,10.72,10,10.72,10a15.2,15.2,0,0,0-22.87-20"/>
      <path class="cls-25" d="M1473.87,945l-18.31,45.24a13.85,13.85,0,0,1-26.56-7.07l6.64-48.64Z"/>
      <path class="cls-25" d="M1476.29,945l18.31,45.24a13.84,13.84,0,0,0,26.55-7.07l-6.63-48.64Z"/>
      <path class="cls-42" d="M1505.26,865l17,78.76s-18.12,7-47.19,7-47.19-7-47.19-7l17-78.76"/>
      <path class="cls-43" d="M1584.64,765c0,56.9-49.05,103-109.56,103s-109.57-46.12-109.57-103,49.06-103,109.57-103,109.56,46.13,109.56,103"/>
      <path class="cls-32" d="M1357.75,800.44a21,21,0,1,0,21-21,21,21,0,0,0-21,21"/>
      <path class="cls-32" d="M1592.41,800.44a21,21,0,1,1-21-21,21,21,0,0,1,21,21"/>
      <path class="cls-43" d="M1599.08,704c-13.86,9.42-32.09,6.78-40.71-5.91s-4.37-30.6,9.49-40,53.42-15.81,71.91,32.14c-16.78-3.08-26.83,4.37-40.69,13.79"/>
      <path class="cls-41" d="M1495.64,869.44c0,12.72-9.2,23-20.56,23s-20.57-10.3-20.57-23,9.21-23,20.57-23,20.56,10.3,20.56,23"/>
      <path class="cls-43" d="M1351.08,704c13.86,9.42,32.08,6.78,40.71-5.91s4.37-30.6-9.49-40-53.42-15.81-71.91,32.14c16.78-3.08,26.83,4.37,40.69,13.79"/>
      <path class="cls-25" d="M1576.12,773.37c0,55.54-45.24,100.57-101,100.57s-101-45-101-100.57,45.24-100.56,101-100.56,101,45,101,100.56"/>
      <path class="cls-34" d="M1572.42,800.45a97.51,97.51,0,0,1-13.11,30,100.67,100.67,0,0,1-51.54,39.83,101.68,101.68,0,0,1-65.39,0,100.6,100.6,0,0,1-51.53-39.83,97.17,97.17,0,0,1-13.11-30,103.12,103.12,0,0,0,37.15,52,101.59,101.59,0,0,0,120.38,0,103,103,0,0,0,37.15-52"/>
      <path d="M1520.89,777.92c0,7.52-4.27,13.62-9.54,13.62s-9.54-6.1-9.54-13.62,4.27-13.61,9.54-13.61,9.54,6.09,9.54,13.61"/>
      <path d="M1429.27,777.92c0,7.52,4.27,13.62,9.54,13.62s9.54-6.1,9.54-13.62-4.27-13.61-9.54-13.61-9.54,6.09-9.54,13.61"/>
      <path class="cls-36" d="M1396.93,804.39c0,7.18,6.47,13,14.45,13s14.44-5.82,14.44-13-6.47-13-14.44-13-14.45,5.82-14.45,13"/>
      <path class="cls-36" d="M1553.23,804.39c0,7.18-6.47,13-14.45,13s-14.45-5.82-14.45-13,6.47-13,14.45-13,14.45,5.82,14.45,13"/>
      <path d="M1457.14,805.13a20.14,20.14,0,0,0,6.8,10.25,17.14,17.14,0,0,0,22.27,0,20.16,20.16,0,0,0,6.81-10.25v0a1.14,1.14,0,0,1,2.24.37,19.81,19.81,0,0,1-6.5,12.85,21.22,21.22,0,0,1-6.28,4,19.23,19.23,0,0,1-14.82,0,20.73,20.73,0,0,1-6.27-4,19.8,19.8,0,0,1-6.51-12.84,1.13,1.13,0,0,1,1-1.22,1.15,1.15,0,0,1,1.19.85Z"/>
      <path class="cls-43" d="M1475.08,712.35a66.26,66.26,0,0,0,101.13,13c-16.53-37.2-55.58-63.34-101.13-63.34s-84.6,26.14-101.13,63.34a66.26,66.26,0,0,0,101.13-13"/>
      <path class="cls-44" d="M1507.74,727.26a17.7,17.7,0,0,1,9.4-.28,19.76,19.76,0,0,1,8.61,4.51,20.52,20.52,0,0,1,5.48,8,17.93,17.93,0,0,1,1.07,9.3,1.86,1.86,0,0,1-3.6.31l0-.07a34.51,34.51,0,0,0-3.09-6.87,24.18,24.18,0,0,0-4.47-5.44,21.57,21.57,0,0,0-5.85-3.75,30.44,30.44,0,0,0-7.19-2l-.09,0a1.86,1.86,0,0,1-.24-3.61"/>
      <path class="cls-44" d="M1442.09,730.89a30.44,30.44,0,0,0-7.19,2,21.57,21.57,0,0,0-5.85,3.75,24.18,24.18,0,0,0-4.47,5.44,34,34,0,0,0-3.09,6.87l0,.07a1.87,1.87,0,0,1-3.61-.31,18,18,0,0,1,1.08-9.3,20.42,20.42,0,0,1,5.48-8A19.7,19.7,0,0,1,1433,727a17.7,17.7,0,0,1,9.4.28,1.86,1.86,0,0,1-.24,3.61Z"/>
      <path class="cls-32" d="M367.86,659.39a25.93,25.93,0,1,1-25.93-25.92,25.93,25.93,0,0,1,25.93,25.92"/>
      <path class="cls-32" d="M103.55,659.39a25.93,25.93,0,1,0,25.93-25.92,25.93,25.93,0,0,0-25.93,25.92"/>
      <path class="cls-45" d="M144.63,885.75l16.22,82.61a24.27,24.27,0,0,0,47.64,0l8.1-41.25h38.23l8.1,41.25a24.27,24.27,0,0,0,47.64,0l16.22-82.61Z"/>
      <path class="cls-25" d="M319.7,734h0a29.88,29.88,0,0,1,38.57,17.3l38.14,100.19a29.9,29.9,0,0,1-55.88,21.27L302.39,772.55A29.9,29.9,0,0,1,319.7,734"/>
      <path class="cls-26" d="M389.77,805.21l-28.45-55.29a33.43,33.43,0,0,0-62.1,23.64l15.51,60.22c1.09,2.85,18.77-1.23,39.49-9.12s36.63-16.59,35.55-19.45"/>
      <path class="cls-25" d="M151.71,734h0a29.88,29.88,0,0,0-38.57,17.3L75,851.47a29.9,29.9,0,0,0,55.88,21.27L169,772.55A29.9,29.9,0,0,0,151.71,734"/>
      <path class="cls-26" d="M151.71,734h0a33.43,33.43,0,0,0-41.62,15.94L81.64,805.21c-1.08,2.86,14.83,11.56,35.55,19.45s38.4,12,39.49,9.12l15.51-60.22A33.42,33.42,0,0,0,151.71,734"/>
      <path class="cls-27" d="M321.15,720.18l13.69,171.88s-48.2,8.43-98.46,8.43-98.46-8.43-98.46-8.43l13.69-171.88Z"/>
      <line class="cls-29" x1="287.27" y1="753.27" x2="291.45" y2="897.64"/>
      <line class="cls-29" x1="184.14" y1="753.27" x2="179.96" y2="897.64"/>
      <polygon class="cls-32" points="286.11 726.65 235.71 793.39 185.3 726.65 286.11 726.65"/>
      <polygon class="cls-30" points="321.15 720.18 332.06 740.57 295.89 777.03 275.8 764.32 267.56 788.57 235.71 793.39 290.99 720.18 321.15 720.18"/>
      <path class="cls-31" d="M332.06,740.57q-4.06,5-8.31,9.84c-2.8,3.25-5.68,6.42-8.54,9.61-5.75,6.36-11.62,12.59-17.55,18.77l-1.37,1.42-1.74-1.07c-3.37-2.08-6.74-4.16-10.09-6.28s-6.7-4.24-10-6.37l3.81-1.35c-1.41,4-2.83,8.06-4.29,12.07s-2.95,8-4.47,12l-.46,1.22-1.15.13c-2.67.29-5.34.61-8,.86l-8,.79c-2.68.22-5.36.48-8,.66s-5.37.39-8.06.51c2.61-.68,5.23-1.29,7.85-1.9s5.26-1.16,7.89-1.74l7.9-1.62c2.63-.55,5.27-1,7.91-1.55l-1.61,1.34q1.85-6.13,3.77-12.24t3.94-12.19l1-3.1,2.79,1.75c3.36,2.11,6.73,4.2,10.06,6.34s6.67,4.28,10,6.44l-3.1.35q9.18-9,18.62-17.7c3.18-2.88,6.32-5.79,9.55-8.61s6.46-5.65,9.77-8.39"/>
      <polygon class="cls-30" points="150.26 720.18 139.35 740.57 175.52 777.03 195.61 764.32 203.85 788.57 235.71 793.39 180.42 720.18 150.26 720.18"/>
      <path class="cls-31" d="M139.35,740.57q5,4.11,9.77,8.39c3.23,2.82,6.37,5.73,9.55,8.61q9.47,8.7,18.62,17.7l-3.1-.35c3.32-2.16,6.64-4.32,10-6.44s6.7-4.23,10.06-6.34l2.79-1.75,1,3.1q2,6.07,3.94,12.19t3.77,12.24l-1.61-1.34c2.64.51,5.28,1,7.91,1.55l7.9,1.62c2.63.58,5.26,1.13,7.89,1.74s5.24,1.22,7.86,1.9c-2.7-.12-5.39-.31-8.07-.51s-5.37-.44-8-.66l-8-.79c-2.67-.25-5.34-.57-8-.86l-1.15-.13-.46-1.22c-1.52-4-3-8-4.47-12s-2.88-8-4.29-12.07l3.81,1.35c-3.34,2.13-6.67,4.28-10,6.37s-6.72,4.2-10.09,6.28l-1.74,1.07-1.37-1.42c-5.93-6.18-11.8-12.41-17.55-18.77-2.86-3.19-5.74-6.36-8.54-9.61s-5.6-6.51-8.31-9.84"/>
      <path class="cls-43" d="M129.48,670.54s-25.93-48.68-25.93-120.13c20.5-45.94,66.08-90.15,132.16-90.15s111.65,44.21,132.15,90.15c0,71.45-25.93,120.13-25.93,120.13"/>
      <path class="cls-25" d="M235.71,500.64a107.63,107.63,0,0,1,108.2,108.2c0,59.76-.76,107.51-.76,107.51,0,8.07-39.29,20.41-107.44,20.41s-107.45-12.34-107.45-20.41c0,0-.76-47.75-.76-107.51a107.63,107.63,0,0,1,108.21-108.2"/>
      <path class="cls-34" d="M343.15,716.35a4.6,4.6,0,0,1-1.49,3.14,15.66,15.66,0,0,1-2.73,2.28,41.65,41.65,0,0,1-6.23,3.37,103.66,103.66,0,0,1-13.31,4.71,218.59,218.59,0,0,1-27.59,5.72c-9.28,1.41-18.63,2.26-28,2.91s-18.73.83-28.1.89-18.75-.3-28.11-.88-18.71-1.5-28-2.91A218.59,218.59,0,0,1,152,729.86a103.71,103.71,0,0,1-13.31-4.72,42.52,42.52,0,0,1-6.23-3.36,15.79,15.79,0,0,1-2.73-2.29,4.6,4.6,0,0,1-1.49-3.14,4.46,4.46,0,0,0,1.76,2.86,15.31,15.31,0,0,0,2.87,1.89,42.34,42.34,0,0,0,6.35,2.7,112.55,112.55,0,0,0,13.4,3.57c4.53,1,9.09,1.77,13.68,2.43s9.18,1.27,13.8,1.74c9.22.92,18.47,1.65,27.75,2s18.55.64,27.84.6,18.56-.17,27.83-.59,18.53-1.09,27.75-2a273.12,273.12,0,0,0,27.48-4.17,112.09,112.09,0,0,0,13.4-3.58,41.81,41.81,0,0,0,6.36-2.69,15.79,15.79,0,0,0,2.86-1.9,4.44,4.44,0,0,0,1.76-2.86"/>
      <path class="cls-46" d="M286.67,629.51c0,6.55-4.25,11.86-9.49,11.86s-9.49-5.31-9.49-11.86,4.25-11.87,9.49-11.87,9.49,5.31,9.49,11.87"/>
      <path class="cls-46" d="M184.74,629.51c0,6.55,4.25,11.86,9.49,11.86s9.49-5.31,9.49-11.86-4.25-11.87-9.49-11.87-9.49,5.31-9.49,11.87"/>
      <path class="cls-36" d="M314.23,659.51c0,4.14-6.71,7.5-15,7.5s-15-3.36-15-7.5,6.71-7.5,15-7.5,15,3.35,15,7.5"/>
      <path class="cls-36" d="M157.18,659.51c0,4.14,6.72,7.5,15,7.5s15-3.36,15-7.5-6.71-7.5-15-7.5-15,3.35-15,7.5"/>
      <path class="cls-43" d="M315.61,572.37c-2.78,6.1-14.06,6.94-25.21,1.86S272.48,560.1,275.26,554s14.07-6.94,25.21-1.86,17.92,14.13,15.14,20.24"/>
      <path class="cls-43" d="M155.8,572.37c2.78,6.1,14.06,6.94,25.21,1.86S198.93,560.1,196.15,554s-14.07-6.94-25.21-1.86S153,566.26,155.8,572.37"/>
      <path class="cls-46" d="M199.77,673.53a38.53,38.53,0,0,0,4.48,5.3c.88.77,1.67,1.61,2.61,2.29l1.35,1.07,1.43,1a39.55,39.55,0,0,0,12.53,5.54A50.46,50.46,0,0,0,236,690.07l3.51-.19c1.17-.13,2.34-.3,3.51-.45.59-.07,1.18-.13,1.77-.22l1.75-.34c1.16-.23,2.34-.44,3.53-.64l.09,0a1.15,1.15,0,0,1,1.31.94,1.13,1.13,0,0,1-.73,1.25q-1.74.65-3.51,1.23l-1.77.59c-.6.16-1.21.3-1.81.45-1.22.27-2.43.56-3.66.81l-3.74.48a45.09,45.09,0,0,1-15.11-1,37.74,37.74,0,0,1-13.73-6.6c-.5-.4-1-.78-1.5-1.19l-1.41-1.3a38,38,0,0,1-2.62-2.77,30.29,30.29,0,0,1-4.07-6.44,1.15,1.15,0,0,1,.58-1.51,1.13,1.13,0,0,1,1.4.4Z"/>
      <path class="cls-43" d="M151.17,489.17c42.3,71.37,144.27,70.82,216.69,14.6-54.07-38.55-109.29-52.89-125.76-52.89s-54.93,9.38-90.93,38.29"/>
      <path class="cls-44" d="M163,505.64a115.43,115.43,0,0,0,21.64,17.67,118.45,118.45,0,0,0,25,11.9,132.93,132.93,0,0,0,27,6,150.65,150.65,0,0,0,27.69.72A171,171,0,0,0,291.89,538a195.87,195.87,0,0,0,26.66-8,226.09,226.09,0,0,0,49.31-26.28A182.28,182.28,0,0,1,319.8,533.2a178.09,178.09,0,0,1-27,8.85,169,169,0,0,1-28.13,4.26,149,149,0,0,1-28.48-1,125.87,125.87,0,0,1-27.63-6.94,110.54,110.54,0,0,1-25.09-13.32A100.31,100.31,0,0,1,163,505.64"/>
      <path class="cls-43" d="M432.9,507.86c126.61,0,150.06,121,150.06,163.08,0,52.32-32.37,84.67-32.37,84.67s-53.18-20.4-117.69-20.4-117.69,20.4-117.69,20.4-32.37-32.35-32.37-84.67c0-42.1,23.45-163.08,150.06-163.08"/>
      <path class="cls-25" d="M536.05,853.41h0L498,793.34l0,0c-.12-.19-.21-.38-.34-.56a19.93,19.93,0,0,0-33,22.41c.12.18.26.34.39.52h0l41.84,57.48h0a17.62,17.62,0,0,0,29.12-19.8"/>
      <path class="cls-47" d="M500.13,790.3a23.39,23.39,0,0,0-37.9,27.42,23,23,0,0,0,7.11,6.43L504,799.06a23,23,0,0,0-3.89-8.76"/>
      <path class="cls-25" d="M395.76,787.63a19.86,19.86,0,0,0-27.62,5.17c-.13.18-.22.37-.34.56l0,0-38,60.06h0a17.62,17.62,0,0,0,29.12,19.8h0l41.84-57.48h0c.12-.18.26-.34.39-.52a19.86,19.86,0,0,0-5.35-27.58"/>
      <path class="cls-47" d="M398.25,785.18a23.32,23.32,0,0,0-32.58,5.11,23.06,23.06,0,0,0-3.88,8.77l34.67,25.09a23,23,0,0,0,7.11-6.43,23.31,23.31,0,0,0-5.32-32.54"/>
      <path class="cls-25" d="M405,1002.45h0a14.37,14.37,0,0,0,14.26-12.61L428.55,915H374.1L391,991.19a14.37,14.37,0,0,0,14,11.26"/>
      <path class="cls-25" d="M460.76,1002.45h0a14.37,14.37,0,0,1-14.26-12.61L437.25,915H491.7l-16.91,76.21a14.37,14.37,0,0,1-14,11.26"/>
      <path class="cls-48" d="M504.36,896.3c0-38.55-32-69.8-71.46-69.8s-71.46,31.25-71.46,69.8a68.13,68.13,0,0,0,6.89,29.75H497.47a68.13,68.13,0,0,0,6.89-29.75"/>
      <path class="cls-49" d="M467.36,810.72c0,16.14-15.43,29.23-34.46,29.23s-34.46-13.09-34.46-29.23,15.43-29.23,34.46-29.23,34.46,13.08,34.46,29.23"/>
    </g>
    <g class="cls-50">
      <polygon class="cls-32" points="470.13 770.54 395.67 770.54 432.9 810.72 470.13 770.54"/>
    </g>
    <g class="cls-3">
      <path class="cls-32" d="M306.29,699.82a23.45,23.45,0,1,0,23.44-23.45,23.44,23.44,0,0,0-23.44,23.45"/>
      <path class="cls-32" d="M559.51,699.82a23.45,23.45,0,1,1-23.44-23.45,23.44,23.44,0,0,1,23.44,23.45"/>
      <path class="cls-25" d="M432.9,784.79c-59.16,0-107.13-45.94-107.13-108.42,0-79,48-121.63,107.13-121.63S540,597.37,540,676.37c0,62.48-48,108.42-107.13,108.42"/>
      <path class="cls-34" d="M537.85,699a106,106,0,0,1-12.28,34.64A103.64,103.64,0,0,1,501.83,762a105.32,105.32,0,0,1-32.28,18.32,110.83,110.83,0,0,1-73.3,0A105.73,105.73,0,0,1,364,762a103.64,103.64,0,0,1-23.74-28.36A106,106,0,0,1,328,699a108,108,0,0,0,172.17,60.91,107.39,107.39,0,0,0,32.25-43.41,118.35,118.35,0,0,0,5.48-17.5"/>
      <path class="cls-46" d="M401.33,680.63c0,6.85-3.75,12.41-8.37,12.41s-8.37-5.56-8.37-12.41,3.75-12.4,8.37-12.4,8.37,5.55,8.37,12.4"/>
      <path class="cls-46" d="M481.21,680.63c0,6.85-3.74,12.41-8.37,12.41s-8.37-5.56-8.37-12.41,3.75-12.4,8.37-12.4,8.37,5.55,8.37,12.4"/>
      <path class="cls-36" d="M384.62,707.18c0,7.18-7.27,13-16.23,13s-16.24-5.83-16.24-13,7.27-13,16.24-13,16.23,5.82,16.23,13"/>
      <path class="cls-36" d="M481.18,707.18c0,7.18,7.27,13,16.23,13s16.24-5.83,16.24-13-7.27-13-16.24-13-16.23,5.82-16.23,13"/>
      <path d="M406,719.47a18.85,18.85,0,0,0,7.13,9.17,26.11,26.11,0,0,0,11,4.1,29.7,29.7,0,0,0,6,.28,27.15,27.15,0,0,0,5.89-.9,17.75,17.75,0,0,0,9.78-6.11l0,0a1.14,1.14,0,0,1,1.94,1.17,15.1,15.1,0,0,1-4.44,5.41,21.58,21.58,0,0,1-6.15,3.28A29.47,29.47,0,0,1,423.48,737a26.6,26.6,0,0,1-12.7-5.29,19.91,19.91,0,0,1-4.65-5.24,18,18,0,0,1-2.37-6.49,1.15,1.15,0,0,1,2.21-.56Z"/>
      <path class="cls-43" d="M369.08,627.22c.22-.76.49-1.52.77-2.27a16.72,16.72,0,0,1,.94-2.23,24.85,24.85,0,0,1,2.61-4.17,25.84,25.84,0,0,1,7.37-6.71,27.44,27.44,0,0,1,9.18-3.66c.8-.14,1.6-.29,2.41-.39s1.61-.16,2.43-.17,1.62,0,2.44.06c.4,0,.83.07,1.24.12l.64.09.72.13a3.44,3.44,0,0,1,2.82,4,3.39,3.39,0,0,1-1.28,2.14l-2,1.58a1.47,1.47,0,0,1-.33.1l-.42.1c-.29.07-.57.12-.87.2-.59.15-1.18.29-1.76.46s-1.17.35-1.74.51-1.14.38-1.7.57a33.38,33.38,0,0,0-6.27,3,29.18,29.18,0,0,0-5.39,4.24,33.54,33.54,0,0,0-2.41,2.61A13.57,13.57,0,0,0,377.3,629c-.38.49-.77,1-1.2,1.46l-.41.46a3.88,3.88,0,0,1-6.61-3.69"/>
      <path class="cls-43" d="M334.72,622.63c14.38-41.41,68.59-78.93,75,9.51,0,0,71.42,27.94,136.3-19.24-86-171.57-232.49-35.83-211.34,9.73"/>
      <path class="cls-44" d="M334.72,622.63A84.1,84.1,0,0,1,351,593.09a61.43,61.43,0,0,1,12.78-11.43c4.81-3.14,10.46-5.52,16.57-5.57a21.72,21.72,0,0,1,4.54.46,22.31,22.31,0,0,1,4.36,1.45,24.3,24.3,0,0,1,7.31,5.35,45.35,45.35,0,0,1,8.89,15.08,92.42,92.42,0,0,1,4.41,16.62,167.22,167.22,0,0,1,2.1,16.93l-1.37-1.85a132.69,132.69,0,0,0,16.87,4.68,159.65,159.65,0,0,0,17.42,2.7,161.65,161.65,0,0,0,35.25-.16,158.19,158.19,0,0,0,17.41-3.08,148.73,148.73,0,0,0,16.94-5.14,156.45,156.45,0,0,0,31.62-16.23,138.34,138.34,0,0,1-30.81,18.26,152.45,152.45,0,0,1-17,5.93,156.29,156.29,0,0,1-17.68,3.69,157.94,157.94,0,0,1-36.1.88,164,164,0,0,1-17.9-2.67c-3-.6-5.9-1.31-8.82-2.09s-5.79-1.64-8.74-2.75l-1.27-.48-.1-1.38a162.68,162.68,0,0,0-1.95-16.51,96.57,96.57,0,0,0-4.05-15.95,41.53,41.53,0,0,0-7.83-13.92,22,22,0,0,0-6.1-4.7,17.69,17.69,0,0,0-7.4-1.8c-5.21-.14-10.42,1.85-15.08,4.61a60.08,60.08,0,0,0-12.7,10.46,89.83,89.83,0,0,0-17.78,28.15"/>
    </g>
    <path class="cls-51" d="M535.11,257.85c-6.29,0-9.94-8.62-12.67-17.05s-5.55-20.52-8.08-34.74c-5-28.35-8.29-61.14-8.29-83.55,0-9.4.56-16.84,1.66-22.11,1.63-7.78,4.85-11.73,9.55-11.73h885.44c4.7,0,7.92,4,9.55,11.73,1.1,5.27,1.66,12.71,1.66,22.11,0,22.41-3.25,55.2-8.29,83.55-2.53,14.22-5.32,26.23-8.08,34.74-4.87,15-9.14,17.05-12.67,17.05Z"/>
    <path class="cls-52" d="M1402.72,93.17c17.46,0-3,160.18-17.83,160.18H535.11c-14.86,0-35.29-160.18-17.83-160.18h885.44m0-9H517.28a12.58,12.58,0,0,0-10.73,6.44,27.46,27.46,0,0,0-3.22,8.87c-1.17,5.57-1.76,13.32-1.76,23,0,22.65,3.28,55.76,8.36,84.33,2.56,14.43,5.41,26.65,8.23,35.34,2.12,6.55,6.54,20.17,17,20.17h849.78c10.41,0,14.83-13.62,16.95-20.17,2.82-8.69,5.67-20.91,8.23-35.34,5.08-28.57,8.36-61.68,8.36-84.33,0-9.71-.59-17.46-1.76-23a27.71,27.71,0,0,0-3.21-8.87,12.6,12.6,0,0,0-10.74-6.44"/>
    <path class="cls-51" d="M535.11,248.85c-6.29,0-9.94-8.62-12.67-17s-5.55-20.52-8.08-34.74c-5-28.35-8.29-61.14-8.29-83.55,0-9.4.56-16.84,1.66-22.11,1.63-7.78,4.85-11.73,9.55-11.73h885.44c4.7,0,7.92,4,9.55,11.73,1.1,5.27,1.66,12.71,1.66,22.11,0,22.41-3.25,55.2-8.29,83.55-2.53,14.22-5.32,26.23-8.08,34.74-4.87,15-9.14,17-12.67,17Z"/>
    <path class="cls-52" d="M1402.72,87.17c17.46,0-3,160.18-17.83,160.18H535.11c-14.86,0-35.29-160.18-17.83-160.18h885.44m0-9H517.28a12.58,12.58,0,0,0-10.73,6.44,27.46,27.46,0,0,0-3.22,8.87c-1.17,5.57-1.76,13.32-1.76,23,0,22.65,3.28,55.76,8.36,84.33,2.56,14.43,5.41,26.65,8.23,35.34,2.12,6.55,6.54,20.17,17,20.17h849.78c10.41,0,14.83-13.62,16.95-20.17,2.82-8.69,5.67-20.91,8.23-35.34,5.08-28.57,8.36-61.68,8.36-84.33,0-9.71-.59-17.46-1.76-23a27.71,27.71,0,0,0-3.21-8.87,12.6,12.6,0,0,0-10.74-6.44"/>
    <rect class="cls-1" width="1920" height="1080"/>
    <rect class="cls-1" width="1920" height="1080"/>
    <path class="cls-53" d="M851.75,583l9.58,10.27a4.75,4.75,0,0,1-6.94,6.48,3.9,3.9,0,0,1-.33-.38l-8.44-11.23a4,4,0,0,1,6.13-5.14"/>
    <path class="cls-53" d="M875.83,535.81l13.94,1.7a4.75,4.75,0,0,1-1.15,9.44,4,4,0,0,1-.5-.09l-13.68-3.17a4,4,0,0,1,1.39-7.88"/>
    <path class="cls-53" d="M864,484.19l11.77-7.66a4.75,4.75,0,1,1,4.75,8.22L868,491.12a4,4,0,0,1-4-6.93"/>
    <rect class="cls-1" width="1920" height="1080"/>
    <rect class="cls-1" width="1920" height="1080"/>
    <rect class="cls-1" width="1920" height="1080"/>
    <path class="cls-43" d="M1122.08,1060.52a5.39,5.39,0,1,0,5.39-5.4,5.39,5.39,0,0,0-5.39,5.4"/>
    <rect class="cls-1" width="1920" height="1080"/>
    <rect class="cls-1" width="1920" height="1080"/>
    <rect class="cls-1" width="1920" height="1080"/>
    <rect class="cls-1" width="1920" height="1080"/>
    <rect class="cls-1" width="1920" height="1080"/>
  </g>
  <g id="bocadillo">
    <text class="cls-54" transform="translate(557.71 194.31)">TEX<tspan class="cls-55" x="83.58" y="0">T</tspan><tspan x="108.69" y="0">O_ACCION </tspan></text>
  </g>
</svg>
