<svg xmlns="http://www.w3.org/2000/svg" xmlns:xlink="http://www.w3.org/1999/xlink" width="352" height="595.28" viewBox="0 0 352 595.28">
  <defs>
    <style>
      .cls-1, .cls-11 {
        fill: none;
      }

      .cls-2 {
        isolation: isolate;
      }

      .cls-3 {
        opacity: 0.5;
        mix-blend-mode: multiply;
      }

      .cls-4 {
        clip-path: url(#clip-path);
      }

      .cls-5 {
        fill: #bfbfbf;
      }

      .cls-6 {
        fill: #d37342;
      }

      .cls-7 {
        fill: #364f6e;
      }

      .cls-8 {
        fill: #df8650;
      }

      .cls-9 {
        fill: #eaeded;
      }

      .cls-10 {
        fill: #dbe3df;
      }

      .cls-11 {
        stroke: #f0f2f1;
        stroke-linejoin: round;
        stroke-width: 3px;
      }

      .cls-12 {
        fill: #f2f2f2;
      }

      .cls-13 {
        fill: #b1bebc;
      }

      .cls-14 {
        fill: #080a3b;
      }

      .cls-15 {
        fill: #b66439;
      }

      .cls-16 {
        fill: #20120b;
      }

      .cls-17 {
        fill: #d7603f;
      }

      .cls-18 {
        fill: #030314;
      }
    </style>
    <clipPath id="clip-path">
      <rect id="SVGID" class="cls-1" x="110.02" y="392.13" width="123.68" height="8.46"/>
    </clipPath>
  </defs>
  <title>papa</title>
  <g class="cls-2">
    <g id="papa">
      <rect class="cls-1" x="-825.27" y="18" width="841.89" height="595.28"/>
      <g>
        <g class="cls-3">
          <g class="cls-4">
            <path class="cls-5" d="M233.7,396.36c0,2.34-27.69,4.23-61.84,4.23S110,398.7,110,396.36s27.69-4.23,61.84-4.23,61.84,1.9,61.84,4.23"/>
          </g>
        </g>
        <path class="cls-6" d="M232.69,249.1A11.7,11.7,0,1,1,221,237.4a11.7,11.7,0,0,1,11.7,11.7"/>
        <path class="cls-6" d="M113.42,249.1a11.7,11.7,0,1,0,11.7-11.7,11.7,11.7,0,0,0-11.7,11.7"/>
        <path class="cls-7" d="M182.93,351.25H132l7.32,37.28a11,11,0,0,0,21.5,0l3.65-18.62h17.25l3.66,18.62a11,11,0,0,0,21.5,0l7.32-37.28Z"/>
        <path class="cls-8" d="M211,282.76h0a13.49,13.49,0,0,1,17.41,7.81l17.21,45.21a13.49,13.49,0,0,1-25.22,9.59l-17.21-45.2A13.49,13.49,0,0,1,211,282.76"/>
        <path class="cls-9" d="M242.58,314.9,229.74,290a15.09,15.09,0,0,0-28,10.67l7,27.17c.49,1.29,8.47-.55,17.82-4.11s16.53-7.49,16-8.78"/>
        <path class="cls-8" d="M135.15,282.76h0a13.48,13.48,0,0,0-17.4,7.81l-17.21,45.21a13.49,13.49,0,0,0,25.21,9.59L143,300.17a13.49,13.49,0,0,0-7.81-17.41"/>
        <path class="cls-9" d="M135.15,282.76h0A15.08,15.08,0,0,0,116.37,290L103.53,314.9c-.49,1.29,6.7,5.22,16,8.78s17.32,5.4,17.81,4.11l7-27.17a15.09,15.09,0,0,0-9.25-17.86"/>
        <path class="cls-10" d="M211.62,276.53l6.17,77.57a293.89,293.89,0,0,1-44.43,3.8,293.89,293.89,0,0,1-44.43-3.8l6.18-77.57Z"/>
        <line class="cls-11" x1="196.33" y1="291.46" x2="198.22" y2="356.62"/>
        <line class="cls-11" x1="149.79" y1="291.46" x2="147.9" y2="356.62"/>
        <polygon class="cls-6" points="195.81 279.45 173.06 309.57 150.31 279.45 195.81 279.45"/>
        <polygon class="cls-12" points="211.62 276.53 216.54 285.73 200.22 302.19 191.15 296.45 187.43 307.39 173.06 309.57 198.01 276.53 211.62 276.53"/>
        <path class="cls-13" d="M216.54,285.73c-1.21,1.51-2.5,3-3.76,4.43s-2.56,2.91-3.84,4.35c-2.6,2.86-5.25,5.67-7.92,8.47l-.62.64-.79-.48c-3-1.9-6.08-3.77-9.07-5.72l1.7-.6q-1.89,5.46-4,10.86l-.21.55-.51.06c-2.41.28-4.83.52-7.24.75s-4.84.42-7.27.53c2.36-.62,4.73-1.09,7.1-1.64s4.75-1,7.14-1.43l-.72.6q1.65-5.53,3.48-11l.46-1.37,1.24.77c3.05,1.87,6.05,3.82,9.06,5.75l-1.4.16c2.77-2.69,5.56-5.36,8.4-8,1.43-1.3,2.85-2.62,4.32-3.89s2.9-2.56,4.4-3.79"/>
        <polygon class="cls-12" points="134.5 276.53 129.57 285.73 145.9 302.19 154.96 296.45 158.68 307.39 173.06 309.57 148.11 276.53 134.5 276.53"/>
        <path class="cls-13" d="M129.57,285.73c1.51,1.23,3,2.52,4.41,3.79s2.88,2.59,4.31,3.89c2.85,2.62,5.64,5.29,8.41,8l-1.4-.16c3-1.93,6-3.88,9-5.75l1.24-.77.46,1.37c1.23,3.65,2.38,7.33,3.49,11l-.72-.6c2.38.44,4.76.93,7.13,1.43s4.75,1,7.11,1.64c-2.44-.11-4.85-.36-7.27-.53s-4.83-.47-7.24-.75l-.52-.06-.2-.55q-2.07-5.4-4-10.86l1.7.6c-3,1.95-6.05,3.82-9.08,5.72l-.78.48-.62-.64c-2.67-2.8-5.32-5.61-7.92-8.47-1.29-1.44-2.6-2.87-3.85-4.35s-2.54-2.92-3.76-4.43"/>
        <path class="cls-14" d="M125.12,254.13s-11.7-22-11.7-54.21c9.25-20.73,29.82-40.69,59.64-40.69s50.38,20,59.63,40.69c0,32.24-11.7,54.21-11.7,54.21"/>
        <path class="cls-8" d="M173.06,177.46a48.57,48.57,0,0,1,48.83,48.83c0,27-.35,48.51-.35,48.51,0,3.64-17.73,9.21-48.48,9.21s-48.49-5.57-48.49-9.21c0,0-.34-21.54-.34-48.51a48.57,48.57,0,0,1,48.83-48.83"/>
        <path class="cls-15" d="M221.54,274.8a2.12,2.12,0,0,1-.67,1.42,7.55,7.55,0,0,1-1.23,1,18.16,18.16,0,0,1-2.82,1.5,49.82,49.82,0,0,1-6,2.14,98.25,98.25,0,0,1-12.45,2.58,187.69,187.69,0,0,1-50.63,0,99.5,99.5,0,0,1-12.44-2.58,51.11,51.11,0,0,1-6-2.14,19,19,0,0,1-2.81-1.51,7.15,7.15,0,0,1-1.23-1,2.08,2.08,0,0,1-.68-1.42,2,2,0,0,0,.8,1.29,7.07,7.07,0,0,0,1.29.86,19.67,19.67,0,0,0,2.87,1.23,49.85,49.85,0,0,0,6.05,1.6c4.08.87,8.24,1.42,12.39,1.88a247.16,247.16,0,0,0,25.09,1.18,244,244,0,0,0,25.08-1.18,123.23,123.23,0,0,0,12.4-1.88,49.85,49.85,0,0,0,6.05-1.6,19.1,19.1,0,0,0,2.86-1.23,7.51,7.51,0,0,0,1.3-.86,2,2,0,0,0,.79-1.29"/>
        <path class="cls-16" d="M196.06,235.61c0,3-1.92,5.36-4.29,5.36s-4.28-2.4-4.28-5.36,1.92-5.35,4.28-5.35,4.29,2.4,4.29,5.35"/>
        <path class="cls-16" d="M150.06,235.61c0,3,1.92,5.36,4.28,5.36s4.28-2.4,4.28-5.36-1.91-5.35-4.28-5.35-4.28,2.4-4.28,5.35"/>
        <path class="cls-17" d="M208.49,249.15c0,1.87-3,3.38-6.76,3.38S195,251,195,249.15s3-3.38,6.77-3.38,6.76,1.51,6.76,3.38"/>
        <path class="cls-17" d="M137.62,249.15c0,1.87,3,3.38,6.77,3.38s6.77-1.51,6.77-3.38-3-3.38-6.77-3.38-6.77,1.51-6.77,3.38"/>
        <path class="cls-14" d="M209.12,209.83c-1.26,2.75-6.35,3.13-11.38.84s-8.09-6.38-6.83-9.13,6.35-3.14,11.38-.85,8.08,6.38,6.83,9.14"/>
        <path class="cls-14" d="M137,209.83c1.25,2.75,6.34,3.13,11.37.84s8.09-6.38,6.84-9.13-6.35-3.14-11.38-.85-8.09,6.38-6.83,9.14"/>
        <path class="cls-16" d="M156.84,255.48A17.34,17.34,0,0,0,167,262.33a21.57,21.57,0,0,0,6.22.62l1.59-.08,1.58-.22c1.07-.07,2.1-.39,3.18-.54h.06a.5.5,0,0,1,.57.43.51.51,0,0,1-.33.55,24.2,24.2,0,0,1-6.53,1.6,21.19,21.19,0,0,1-6.82-.46,17.56,17.56,0,0,1-6.2-3,16.41,16.41,0,0,1-2.49-2.37,14,14,0,0,1-1.84-2.9.51.51,0,0,1,.89-.5Z"/>
        <path class="cls-14" d="M134.91,172.28c19.09,32.21,65.1,32,97.78,6.59C208.3,161.47,183.37,155,176,155s-24.79,4.24-41,17.28"/>
        <path class="cls-18" d="M140.27,179.71A52,52,0,0,0,161.35,193a64.82,64.82,0,0,0,24.67,3,84.52,84.52,0,0,0,24.41-5.35,89,89,0,0,0,11.47-5.22c1.82-1,3.7-2,5.49-3.13s3.52-2.33,5.3-3.48q-2.48,2-5,3.91c-1.71,1.26-3.54,2.35-5.31,3.54A86.83,86.83,0,0,1,211,192.1,77,77,0,0,1,186.13,198a60.81,60.81,0,0,1-25.29-3.57l-1.52-.54-1.45-.69L155,191.8a20.11,20.11,0,0,1-2.77-1.6l-2.7-1.74c-1.74-1.23-3.29-2.72-4.93-4.06-1.51-1.51-2.9-3.12-4.31-4.69"/>
      </g>
    </g>
  </g>
</svg>
