<svg xmlns="http://www.w3.org/2000/svg" xmlns:xlink="http://www.w3.org/1999/xlink" width="841.89" height="595.28" viewBox="0 0 841.89 595.28">
  <defs>
    <style>
      .cls-1, .cls-11, .cls-27, .cls-34 {
        fill: none;
      }

      .cls-2 {
        isolation: isolate;
      }

      .cls-3 {
        opacity: 0.5;
        mix-blend-mode: multiply;
      }

      .cls-4 {
        clip-path: url(#clip-path);
      }

      .cls-5 {
        fill: #bfbfbf;
      }

      .cls-6 {
        fill: #d37342;
      }

      .cls-7 {
        fill: #364f6e;
      }

      .cls-8 {
        fill: #df8650;
      }

      .cls-9 {
        fill: #eaeded;
      }

      .cls-10 {
        fill: #dbe3df;
      }

      .cls-11 {
        stroke: #f0f2f1;
        stroke-width: 3px;
      }

      .cls-11, .cls-34 {
        stroke-linejoin: round;
      }

      .cls-12 {
        fill: #f2f2f2;
      }

      .cls-13 {
        fill: #b1bebc;
      }

      .cls-14 {
        fill: #080a3b;
      }

      .cls-15 {
        fill: #b66439;
      }

      .cls-16 {
        fill: #20120b;
      }

      .cls-17 {
        fill: #d7603f;
      }

      .cls-18 {
        fill: #030314;
      }

      .cls-19 {
        clip-path: url(#clip-path-2);
      }

      .cls-20 {
        fill: #12281e;
      }

      .cls-21 {
        fill: #e6f490;
      }

      .cls-22 {
        fill: #6151a3;
      }

      .cls-23 {
        fill: #def171;
      }

      .cls-24 {
        clip-path: url(#clip-path-3);
      }

      .cls-25 {
        fill: #0b1711;
      }

      .cls-26 {
        clip-path: url(#clip-path-4);
      }

      .cls-27 {
        stroke: #fae329;
        stroke-miterlimit: 10;
        stroke-width: 2.5px;
      }

      .cls-27, .cls-34 {
        stroke-linecap: round;
      }

      .cls-28 {
        fill: #fff;
      }

      .cls-29 {
        fill: #fae329;
      }

      .cls-30 {
        clip-path: url(#clip-path-5);
      }

      .cls-31 {
        fill: #8c8c8c;
      }

      .cls-32 {
        fill: #285951;
      }

      .cls-33 {
        clip-path: url(#clip-path-6);
      }

      .cls-34 {
        stroke: #f2f0f0;
        stroke-width: 1.25px;
      }

      .cls-35 {
        fill: #f2f0f0;
      }

      .cls-36 {
        fill: #e6e4e4;
      }

      .cls-37 {
        fill: #2d2d2d;
      }

      .cls-38 {
        fill: #e7a97c;
      }
    </style>
    <clipPath id="clip-path">
      <rect id="SVGID" class="cls-1" x="140.02" y="392.13" width="123.68" height="8.46"/>
    </clipPath>
    <clipPath id="clip-path-2">
      <rect id="SVGID-2" data-name="SVGID" class="cls-1" x="329.14" y="392.13" width="87.93" height="8.46"/>
    </clipPath>
    <clipPath id="clip-path-3">
      <path id="SVGID-3" data-name="SVGID" class="cls-1" d="M357.56,310.85c0,7.28,7,13.19,15.55,13.19s15.55-5.91,15.55-13.19-7-13.2-15.55-13.2-15.55,5.91-15.55,13.2"/>
    </clipPath>
    <clipPath id="clip-path-4">
      <rect id="SVGID-4" data-name="SVGID" class="cls-1" x="475.44" y="392.13" width="66.98" height="8.46"/>
    </clipPath>
    <clipPath id="clip-path-5">
      <rect id="SVGID-5" data-name="SVGID" class="cls-1" x="616.5" y="392.13" width="108.7" height="8.46"/>
    </clipPath>
    <clipPath id="clip-path-6">
      <path id="SVGID-6" data-name="SVGID" class="cls-1" d="M621.72,347a59.32,59.32,0,0,0,1.57,13.58h95.13A59.32,59.32,0,0,0,720,347c0-29.8-22-54-49.14-54s-49.13,24.16-49.13,54"/>
    </clipPath>
  </defs>
  <title>personajes familia color</title>
  <g class="cls-2">
    <g id="papa">
      <rect class="cls-1" x="-825.27" y="18" width="841.89" height="595.28"/>
      <g>
        <g class="cls-3">
          <g class="cls-4">
            <path class="cls-5" d="M263.7,396.36c0,2.34-27.69,4.23-61.84,4.23S140,398.7,140,396.36s27.69-4.23,61.84-4.23,61.84,1.9,61.84,4.23"/>
          </g>
        </g>
        <path class="cls-6" d="M262.69,249.1A11.7,11.7,0,1,1,251,237.4a11.7,11.7,0,0,1,11.7,11.7"/>
        <path class="cls-6" d="M143.42,249.1a11.7,11.7,0,1,0,11.7-11.7,11.7,11.7,0,0,0-11.7,11.7"/>
        <path class="cls-7" d="M212.93,351.25H162l7.32,37.28a11,11,0,0,0,21.5,0l3.65-18.62h17.25l3.66,18.62a11,11,0,0,0,21.5,0l7.32-37.28Z"/>
        <path class="cls-8" d="M241,282.76h0a13.49,13.49,0,0,1,17.41,7.81l17.21,45.21a13.49,13.49,0,0,1-25.22,9.59l-17.21-45.2A13.49,13.49,0,0,1,241,282.76"/>
        <path class="cls-9" d="M272.58,314.9,259.74,290a15.09,15.09,0,0,0-28,10.67l7,27.17c.49,1.29,8.47-.55,17.82-4.11s16.53-7.49,16-8.78"/>
        <path class="cls-8" d="M165.15,282.76h0a13.48,13.48,0,0,0-17.4,7.81l-17.21,45.21a13.49,13.49,0,0,0,25.21,9.59L173,300.17a13.49,13.49,0,0,0-7.81-17.41"/>
        <path class="cls-9" d="M165.15,282.76h0A15.08,15.08,0,0,0,146.37,290L133.53,314.9c-.49,1.29,6.7,5.22,16.05,8.78s17.32,5.4,17.81,4.11l7-27.17a15.09,15.09,0,0,0-9.25-17.86"/>
        <path class="cls-10" d="M241.62,276.53l6.17,77.57a293.89,293.89,0,0,1-44.43,3.8,293.89,293.89,0,0,1-44.43-3.8l6.18-77.57Z"/>
        <line class="cls-11" x1="226.33" y1="291.46" x2="228.22" y2="356.62"/>
        <line class="cls-11" x1="179.79" y1="291.46" x2="177.9" y2="356.62"/>
        <polygon class="cls-6" points="225.81 279.45 203.06 309.57 180.31 279.45 225.81 279.45"/>
        <polygon class="cls-12" points="241.62 276.53 246.54 285.73 230.22 302.19 221.15 296.45 217.43 307.39 203.06 309.57 228.01 276.53 241.62 276.53"/>
        <path class="cls-13" d="M246.54,285.73c-1.21,1.51-2.5,3-3.76,4.43s-2.56,2.91-3.84,4.35c-2.6,2.86-5.25,5.67-7.92,8.47l-.62.64-.79-.48c-3-1.9-6.08-3.77-9.07-5.72l1.7-.6q-1.89,5.46-4,10.86l-.21.55-.51.06c-2.41.28-4.83.52-7.24.75s-4.84.42-7.27.53c2.36-.62,4.73-1.09,7.1-1.64s4.75-1,7.14-1.43l-.72.6q1.65-5.53,3.48-11l.46-1.37,1.24.77c3.05,1.87,6.05,3.82,9.06,5.75l-1.4.16c2.77-2.69,5.56-5.36,8.4-8,1.43-1.3,2.85-2.62,4.32-3.89s2.9-2.56,4.4-3.79"/>
        <polygon class="cls-12" points="164.5 276.53 159.57 285.73 175.9 302.19 184.96 296.45 188.68 307.39 203.06 309.57 178.11 276.53 164.5 276.53"/>
        <path class="cls-13" d="M159.57,285.73c1.51,1.23,3,2.52,4.41,3.79s2.88,2.59,4.31,3.89c2.85,2.62,5.64,5.29,8.41,8l-1.4-.16c3-1.93,6-3.88,9-5.75l1.24-.77.46,1.37c1.23,3.65,2.38,7.33,3.49,11l-.72-.6c2.38.44,4.76.93,7.13,1.43s4.75,1,7.11,1.64c-2.44-.11-4.85-.36-7.27-.53s-4.83-.47-7.24-.75l-.52-.06-.2-.55q-2.07-5.4-4-10.86l1.7.6c-3,1.95-6.05,3.82-9.08,5.72l-.78.48-.62-.64c-2.67-2.8-5.32-5.61-7.92-8.47-1.29-1.44-2.6-2.87-3.85-4.35s-2.54-2.92-3.76-4.43"/>
        <path class="cls-14" d="M155.12,254.13s-11.7-22-11.7-54.21c9.25-20.73,29.82-40.69,59.64-40.69s50.38,20,59.63,40.69c0,32.24-11.7,54.21-11.7,54.21"/>
        <path class="cls-8" d="M203.06,177.46a48.57,48.57,0,0,1,48.83,48.83c0,27-.35,48.51-.35,48.51,0,3.64-17.73,9.21-48.48,9.21s-48.49-5.57-48.49-9.21c0,0-.34-21.54-.34-48.51a48.57,48.57,0,0,1,48.83-48.83"/>
        <path class="cls-15" d="M251.54,274.8a2.12,2.12,0,0,1-.67,1.42,7.55,7.55,0,0,1-1.23,1,18.16,18.16,0,0,1-2.82,1.5,49.82,49.82,0,0,1-6,2.14,98.25,98.25,0,0,1-12.45,2.58,187.69,187.69,0,0,1-50.63,0,99.5,99.5,0,0,1-12.44-2.58,51.11,51.11,0,0,1-6-2.14,19,19,0,0,1-2.81-1.51,7.15,7.15,0,0,1-1.23-1,2.08,2.08,0,0,1-.68-1.42,2,2,0,0,0,.8,1.29,7.07,7.07,0,0,0,1.29.86,19.67,19.67,0,0,0,2.87,1.23,49.85,49.85,0,0,0,6.05,1.6c4.08.87,8.24,1.42,12.39,1.88a247.16,247.16,0,0,0,25.09,1.18,244,244,0,0,0,25.08-1.18,123.23,123.23,0,0,0,12.4-1.88,49.85,49.85,0,0,0,6.05-1.6,19.1,19.1,0,0,0,2.86-1.23,7.51,7.51,0,0,0,1.3-.86,2,2,0,0,0,.79-1.29"/>
        <path class="cls-16" d="M226.06,235.61c0,3-1.92,5.36-4.29,5.36s-4.28-2.4-4.28-5.36,1.92-5.35,4.28-5.35,4.29,2.4,4.29,5.35"/>
        <path class="cls-16" d="M180.06,235.61c0,3,1.92,5.36,4.28,5.36s4.28-2.4,4.28-5.36-1.91-5.35-4.28-5.35-4.28,2.4-4.28,5.35"/>
        <path class="cls-17" d="M238.49,249.15c0,1.87-3,3.38-6.76,3.38S225,251,225,249.15s3-3.38,6.77-3.38,6.76,1.51,6.76,3.38"/>
        <path class="cls-17" d="M167.62,249.15c0,1.87,3,3.38,6.77,3.38s6.77-1.51,6.77-3.38-3-3.38-6.77-3.38-6.77,1.51-6.77,3.38"/>
        <path class="cls-14" d="M239.12,209.83c-1.26,2.75-6.35,3.13-11.38.84s-8.09-6.38-6.83-9.13,6.35-3.14,11.38-.85,8.08,6.38,6.83,9.14"/>
        <path class="cls-14" d="M167,209.83c1.25,2.75,6.34,3.13,11.37.84s8.09-6.38,6.84-9.13-6.35-3.14-11.38-.85-8.09,6.38-6.83,9.14"/>
        <path class="cls-16" d="M186.84,255.48A17.34,17.34,0,0,0,197,262.33a21.57,21.57,0,0,0,6.22.62l1.59-.08,1.58-.22c1.07-.07,2.1-.39,3.18-.54h.06a.5.5,0,0,1,.57.43.51.51,0,0,1-.33.55,24.2,24.2,0,0,1-6.53,1.6,21.19,21.19,0,0,1-6.82-.46,17.56,17.56,0,0,1-6.2-3,16.41,16.41,0,0,1-2.49-2.37,14,14,0,0,1-1.84-2.9.51.51,0,0,1,.89-.5Z"/>
        <path class="cls-14" d="M164.91,172.28c19.09,32.21,65.1,32,97.78,6.59C238.3,161.47,213.37,155,206,155s-24.79,4.24-41,17.28"/>
        <path class="cls-18" d="M170.27,179.71A52,52,0,0,0,191.35,193a64.82,64.82,0,0,0,24.67,3,84.52,84.52,0,0,0,24.41-5.35,89,89,0,0,0,11.47-5.22c1.82-1,3.7-2,5.49-3.13s3.52-2.33,5.3-3.48q-2.47,2-5,3.91c-1.71,1.26-3.54,2.35-5.31,3.54A86.83,86.83,0,0,1,241,192.1,77,77,0,0,1,216.13,198a60.81,60.81,0,0,1-25.29-3.57l-1.52-.54-1.45-.69L185,191.8a20.11,20.11,0,0,1-2.77-1.6l-2.7-1.74c-1.74-1.23-3.29-2.72-4.93-4.06-1.51-1.51-2.9-3.12-4.31-4.69"/>
      </g>
    </g>
    <g id="mama">
      <g>
        <g class="cls-3">
          <g class="cls-19">
            <path class="cls-5" d="M417.07,396.36c0,2.34-19.68,4.23-44,4.23s-44-1.89-44-4.23,19.69-4.23,44-4.23,44,1.9,44,4.23"/>
          </g>
        </g>
        <path class="cls-20" d="M373.11,174.18c57.13,0,67.71,54.59,67.71,73.59A57.54,57.54,0,0,1,426.22,286,157.74,157.74,0,0,0,320,286a57.52,57.52,0,0,1-14.61-38.21c0-19,10.58-73.59,67.72-73.59"/>
        <path class="cls-8" d="M419.64,330.12h0L402.49,303h0c-.05-.08-.09-.17-.15-.25a9,9,0,0,0-14.88,10.12l.18.23h0l18.88,25.94h0a7.94,7.94,0,0,0,13.12-8.92"/>
        <path class="cls-21" d="M403.44,301.63a10.56,10.56,0,1,0-13.89,15.28l15.64-11.32a10.23,10.23,0,0,0-1.75-4"/>
        <path class="cls-8" d="M356.34,300.43a9,9,0,0,0-12.46,2.33c-.06.08-.1.17-.15.25h0l-17.17,27.1h0A7.94,7.94,0,0,0,339.69,339h0l18.88-25.94h0l.18-.23a9,9,0,0,0-2.42-12.45"/>
        <path class="cls-21" d="M357.47,299.32a10.52,10.52,0,0,0-14.7,2.31,10.23,10.23,0,0,0-1.75,4l15.64,11.32a10.48,10.48,0,0,0,.81-17.59"/>
        <path class="cls-8" d="M360.53,397.37h0a6.48,6.48,0,0,0,6.44-5.69l4.17-33.78H346.57l7.63,34.39a6.48,6.48,0,0,0,6.33,5.08"/>
        <path class="cls-8" d="M385.68,397.37h0a6.48,6.48,0,0,1-6.44-5.69l-4.17-33.78h24.57L392,392.29a6.48,6.48,0,0,1-6.33,5.08"/>
        <path class="cls-22" d="M405.35,349.47c0-17.4-14.44-31.5-32.24-31.5s-32.25,14.1-32.25,31.5A30.77,30.77,0,0,0,344,362.89h58.27a30.63,30.63,0,0,0,3.11-13.42"/>
        <path class="cls-23" d="M388.66,310.85c0,7.28-7,13.19-15.55,13.19s-15.55-5.91-15.55-13.19,7-13.2,15.55-13.2,15.55,5.91,15.55,13.2"/>
        <g class="cls-24">
          <polygon class="cls-6" points="389.91 292.71 356.31 292.71 373.11 310.85 389.91 292.71"/>
        </g>
        <path class="cls-6" d="M316,260.8a10.58,10.58,0,1,0,10.58-10.58A10.58,10.58,0,0,0,316,260.8"/>
        <path class="cls-6" d="M430.24,260.8a10.58,10.58,0,1,1-10.58-10.58,10.58,10.58,0,0,1,10.58,10.58"/>
        <path class="cls-8" d="M373.11,299.15c-26.7,0-48.35-20.73-48.35-48.93,0-35.65,21.65-54.89,48.35-54.89s48.34,19.24,48.34,54.89c0,28.2-21.64,48.93-48.34,48.93"/>
        <path class="cls-15" d="M420.47,260.42a48.22,48.22,0,0,1-5.55,15.63,47.36,47.36,0,0,1-10.72,12.79,49.15,49.15,0,0,1-62.2,0,46.9,46.9,0,0,1-16.25-28.42,48.86,48.86,0,0,0,17,27.49,49.27,49.27,0,0,0,60.68,0,48.94,48.94,0,0,0,17-27.49"/>
        <path class="cls-16" d="M358.86,252.14c0,3.09-1.69,5.6-3.78,5.6s-3.78-2.51-3.78-5.6,1.7-5.6,3.78-5.6,3.78,2.51,3.78,5.6"/>
        <path class="cls-16" d="M394.91,252.14c0,3.09-1.69,5.6-3.78,5.6s-3.78-2.51-3.78-5.6,1.69-5.6,3.78-5.6,3.78,2.51,3.78,5.6"/>
        <path class="cls-17" d="M351.32,264.12c0,3.25-3.28,5.87-7.33,5.87s-7.32-2.62-7.32-5.87,3.28-5.86,7.32-5.86,7.33,2.62,7.33,5.86"/>
        <path class="cls-17" d="M394.89,264.12c0,3.25,3.28,5.87,7.33,5.87s7.32-2.62,7.32-5.87-3.28-5.86-7.32-5.86-7.33,2.62-7.33,5.86"/>
        <path d="M361,269.67a8.54,8.54,0,0,0,3.23,4.14,11.87,11.87,0,0,0,5,1.84,13.53,13.53,0,0,0,5.34-.28,8.08,8.08,0,0,0,4.42-2.75v0a.52.52,0,0,1,.88.54A8.14,8.14,0,0,1,375,277a13.2,13.2,0,0,1-6.14.55,11.92,11.92,0,0,1-5.73-2.39,8.48,8.48,0,0,1-3.17-5.28.52.52,0,0,1,.43-.59.51.51,0,0,1,.56.34"/>
        <path class="cls-20" d="M344.3,228a11.67,11.67,0,0,1,1.95-3.91,11.9,11.9,0,0,1,3.33-3,12.61,12.61,0,0,1,4.14-1.65,11.5,11.5,0,0,1,4.46-.07,1.74,1.74,0,0,1,.11,3.4l-.33.07a30.75,30.75,0,0,0-3.08.88,14.82,14.82,0,0,0-2.83,1.37,12.76,12.76,0,0,0-2.43,1.92,25.55,25.55,0,0,0-2.15,2.48l-.13.16a1.76,1.76,0,0,1-3-1.62"/>
        <path class="cls-20" d="M328.8,226c6.49-18.69,30.95-35.62,33.87,4.29,0,0,32.22,12.61,61.5-8.68-38.8-77.43-104.91-16.17-95.37,4.39"/>
        <path class="cls-25" d="M328.8,226a38.39,38.39,0,0,1,7.33-13.33,27,27,0,0,1,5.78-5.13,13.94,13.94,0,0,1,7.46-2.51,9.83,9.83,0,0,1,7.31,3.25,20.62,20.62,0,0,1,4,6.81,58,58,0,0,1,3,15.13l-.61-.83a68.83,68.83,0,0,0,15.47,3.36,74.72,74.72,0,0,0,23.77-1.48,64.09,64.09,0,0,0,7.62-2.4c5.08-1.69,9.7-4.45,14.29-7.26a64.63,64.63,0,0,1-13.93,8.18,68.38,68.38,0,0,1-7.67,2.71,71.87,71.87,0,0,1-8,1.63,67.11,67.11,0,0,1-16.27.41l-4.06-.47c-1.34-.24-2.69-.43-4-.71a53.94,53.94,0,0,1-7.93-2.17l-.57-.21,0-.62A57.24,57.24,0,0,0,359,215.67a19.38,19.38,0,0,0-3.57-6.28,8.52,8.52,0,0,0-6.09-2.92,12.63,12.63,0,0,0-6.81,2.07,27.19,27.19,0,0,0-5.73,4.72,40.29,40.29,0,0,0-8,12.71"/>
      </g>
    </g>
    <g id="nina">
      <g>
        <g class="cls-3">
          <g class="cls-26">
            <path class="cls-5" d="M542.42,396.36c0,2.34-15,4.23-33.49,4.23s-33.49-1.89-33.49-4.23,15-4.23,33.49-4.23,33.49,1.9,33.49,4.23"/>
          </g>
        </g>
        <path class="cls-27" d="M538.15,235.35c1.58,3.94-1.61,8.93-7.13,11.14s-15.34,1.9-22.09,1.47c4.83-8.78,10.85-13.53,16.37-15.74S536.57,231.41,538.15,235.35Z"/>
        <path class="cls-27" d="M479.71,235.35c-1.58,3.94,1.61,8.93,7.13,11.14s15.34,1.9,22.09,1.47c-4.83-8.78-10.85-13.53-16.37-15.74S481.29,231.41,479.71,235.35Z"/>
        <path class="cls-8" d="M542.42,356.59l-11.54-14.38,0,0-.12-.18a6.86,6.86,0,0,0-10.32,9c.05.06.11.1.16.15v0l12.7,13.3,0,0a6.07,6.07,0,0,0,9.13-8"/>
        <path class="cls-28" d="M530.74,342s-2.64,2-5.49,4.52-4.83,4.52-4.83,4.52a6.86,6.86,0,0,1,10.32-9"/>
        <path class="cls-8" d="M496.78,341.44a6.83,6.83,0,0,0-9.65.61c-.05.05-.08.12-.13.18l0,0-11.54,14.38a6.07,6.07,0,0,0,9.13,8l0,0,12.7-13.3,0,0c.05-.05.12-.09.17-.15a6.83,6.83,0,0,0-.67-9.64"/>
        <path class="cls-28" d="M487.13,342s2.63,2,5.48,4.52,4.84,4.52,4.84,4.52a6.86,6.86,0,0,0-10.32-9"/>
        <path class="cls-8" d="M508.39,373.05l-8.27,20.42a6.25,6.25,0,0,1-12-3.19l3-21.95Z"/>
        <path class="cls-8" d="M509.48,373.05l8.26,20.42a6.25,6.25,0,0,0,12-3.19l-3-21.95Z"/>
        <path class="cls-29" d="M522.55,336.94l7.68,35.54s-8.18,3.16-21.3,3.16-21.3-3.16-21.3-3.16l7.68-35.54"/>
        <path class="cls-14" d="M558.37,291.84c0,25.68-22.13,46.49-49.44,46.49s-49.44-20.81-49.44-46.49,22.13-46.49,49.44-46.49,49.44,20.81,49.44,46.49"/>
        <path class="cls-28" d="M518.21,339c0,5.73-4.15,10.38-9.28,10.38s-9.28-4.65-9.28-10.38,4.15-10.39,9.28-10.39,9.28,4.65,9.28,10.39"/>
        <path class="cls-8" d="M554.53,295.6a45.6,45.6,0,1,1-45.6-45.38,45.49,45.49,0,0,1,45.6,45.38"/>
        <path class="cls-15" d="M552.86,307.82a44,44,0,0,1-5.92,13.54,45.59,45.59,0,0,1-76,0A43.71,43.71,0,0,1,465,307.82a46.49,46.49,0,0,0,16.76,23.47,45.87,45.87,0,0,0,54.33,0,46.55,46.55,0,0,0,16.76-23.47"/>
        <path d="M529.61,297.65c0,3.4-1.93,6.15-4.31,6.15s-4.31-2.75-4.31-6.15,1.93-6.14,4.31-6.14,4.31,2.75,4.31,6.14"/>
        <path d="M488.26,297.65c0,3.4,1.93,6.15,4.3,6.15s4.31-2.75,4.31-6.15-1.93-6.14-4.31-6.14-4.3,2.75-4.3,6.14"/>
        <path class="cls-17" d="M544.2,309.6c0,3.24-2.92,5.87-6.52,5.87s-6.52-2.63-6.52-5.87,2.92-5.87,6.52-5.87,6.52,2.63,6.52,5.87"/>
        <path d="M500.84,309.94a9,9,0,0,0,3.06,4.62,7.76,7.76,0,0,0,10.06,0,9.11,9.11,0,0,0,3.07-4.62v0a.52.52,0,0,1,.63-.37.52.52,0,0,1,.38.54,8.94,8.94,0,0,1-2.94,5.79,8.89,8.89,0,0,1-12.34,0,9,9,0,0,1-2.94-5.79.51.51,0,0,1,.48-.55.5.5,0,0,1,.53.38Z"/>
        <path class="cls-14" d="M508.93,268.07a29.92,29.92,0,0,0,45.64,5.86c-7.46-16.79-25.08-28.58-45.64-28.58s-38.18,11.79-45.64,28.58a29.92,29.92,0,0,0,45.64-5.86"/>
        <path class="cls-18" d="M523.67,274.79a8,8,0,0,1,4.24-.12,9.1,9.1,0,0,1,3.89,2,8.89,8.89,0,0,1,3,7.79.85.85,0,0,1-1,.7.83.83,0,0,1-.66-.57v0A12.44,12.44,0,0,0,529.7,279a11,11,0,0,0-5.88-2.61h0a.84.84,0,0,1-.69-1,.85.85,0,0,1,.57-.67"/>
        <path class="cls-18" d="M494,276.43a11,11,0,0,0-5.88,2.61,12.34,12.34,0,0,0-3.41,5.55v0a.85.85,0,0,1-1.06.54.86.86,0,0,1-.57-.67,8.89,8.89,0,0,1,3-7.79,9,9,0,0,1,3.88-2,8,8,0,0,1,4.24.12.85.85,0,0,1,.55,1.06.84.84,0,0,1-.66.57Z"/>
      </g>
    </g>
    <g id="abuelo">
      <g>
        <g class="cls-3">
          <g class="cls-30">
            <path class="cls-5" d="M725.21,396.36c0,2.34-24.34,4.23-54.36,4.23s-54.35-1.89-54.35-4.23,24.34-4.23,54.35-4.23,54.36,1.9,54.36,4.23"/>
          </g>
        </g>
        <path class="cls-31" d="M603.82,325.7c-1.33,3.66,3.36,8.72,10.47,11.29s13.94,1.69,15.26-2-3.36-8.71-10.46-11.28-13.94-1.7-15.27,2"/>
        <path class="cls-32" d="M687.74,356.29H627l7.08,31.41a12.39,12.39,0,0,0,24.19-.06L661,375.21h19.73l2.74,12.43a12.39,12.39,0,0,0,24.19.06l7.08-31.41Z"/>
        <path class="cls-8" d="M633.05,346.56c-.91-6.18-9.65-20.76,4.46-30.29a7.69,7.69,0,1,0-8.67-12.7c-17,12.09-36.7,25-12.63,52.16"/>
        <path class="cls-8" d="M746.37,353.26A13.27,13.27,0,1,1,733.1,340a13.27,13.27,0,0,1,13.27,13.27"/>
        <path class="cls-8" d="M719.83,353.26c0-6.25.68-29.05-14.66-36.43A7.69,7.69,0,0,1,711.9,303c21.2,10.59,34.47,28.08,34.47,50.26"/>
        <path class="cls-9" d="M715.5,336.58c0-6.24-3.4-16.86-10.33-19.75-3.92-1.63-5.41-6.46-3.55-10.28a7.67,7.67,0,0,1,8.44-4.18,60.81,60.81,0,0,1,29.81,18.9s-9.7,11.27-24.37,15.31"/>
        <path class="cls-9" d="M630.15,337.31c-.9-6.18.92-17.17,7.36-21,3.64-2.19,4.41-7.18,2-10.69a7.66,7.66,0,0,0-9-2.9,60.76,60.76,0,0,0-26.75,23c4-4.41,21.35-5.07,26.33,11.61"/>
        <path class="cls-10" d="M720,347c0-29.8-22-54-49.14-54s-49.13,24.16-49.13,54a59.32,59.32,0,0,0,1.57,13.58h95.13A59.32,59.32,0,0,0,720,347"/>
        <g class="cls-33">
          <path class="cls-11" d="M701.08,351.13c0-32.08-13.53-58.08-30.23-58.08s-30.22,26-30.22,58.08a109.58,109.58,0,0,0,1,14.62h58.52A109.55,109.55,0,0,0,701.08,351.13Z"/>
        </g>
        <path class="cls-12" d="M670.85,322.35l22.68-26.75A41.4,41.4,0,0,1,710.14,309l-14.21,9.71-8.61-5-2.15,8.65Z"/>
        <path class="cls-13" d="M710.14,309q-3.33,2.75-6.77,5.35t-6.93,5.09l-.44.32-.51-.28c-1.46-.79-2.9-1.6-4.34-2.42s-2.88-1.63-4.31-2.48l1.42-.6c-.72,2.88-1.5,5.74-2.28,8.61l-.18.65-.63,0c-2.38-.09-4.77-.17-7.16-.31-1.19-.05-2.38-.15-3.58-.23s-2.38-.17-3.58-.29c1.2-.13,2.39-.21,3.58-.29s2.39-.19,3.58-.24c2.39-.13,4.78-.22,7.16-.3l-.8.63c.65-2.9,1.3-5.8,2-8.68l.3-1.23,1.12.62c1.44.81,2.87,1.66,4.3,2.49s2.85,1.68,4.27,2.55l-1,0q3.6-2.35,7.27-4.61t7.44-4.36"/>
        <path class="cls-12" d="M670.85,322.35,648.18,295.6A41.4,41.4,0,0,0,631.57,309l14.21,9.71,8.6-5,2.15,8.65Z"/>
        <path class="cls-13" d="M631.57,309q3.78,2.12,7.44,4.36t7.27,4.61l-.95,0c1.41-.87,2.84-1.71,4.27-2.55s2.86-1.68,4.3-2.49l1.12-.62.3,1.23c.71,2.88,1.37,5.78,2,8.68l-.81-.63c2.39.08,4.78.17,7.16.3,1.2.05,2.39.16,3.58.24s2.39.16,3.58.29c-1.19.12-2.38.21-3.58.29s-2.38.18-3.58.23c-2.38.14-4.77.22-7.16.31l-.62,0-.18-.65c-.79-2.87-1.56-5.73-2.29-8.61l1.43.6c-1.43.85-2.87,1.66-4.31,2.48s-2.88,1.63-4.34,2.42l-.51.28-.44-.32q-3.49-2.49-6.93-5.09T631.57,309"/>
        <polygon class="cls-6" points="648.18 295.6 670.85 322.35 693.53 295.6 648.18 295.6"/>
        <path class="cls-34" d="M710.17,259.78c1.89,7.13,8.64,11.53,15.09,9.83s10.14-8.87,8.26-16-8.64-11.53-15.09-9.82S708.29,252.65,710.17,259.78Z"/>
        <path class="cls-34" d="M710,249.24c1.72,6.52,7.6,10.61,13.12,9.15s8.61-7.92,6.89-14.44-7.6-10.61-13.12-9.15S708.26,242.73,710,249.24Z"/>
        <path class="cls-34" d="M631.53,259.78c-1.88,7.13-8.63,11.53-15.08,9.83s-10.14-8.87-8.26-16,8.64-11.53,15.08-9.82S633.42,252.65,631.53,259.78Z"/>
        <path class="cls-34" d="M631.72,249.24c-1.72,6.52-7.59,10.61-13.12,9.15S610,250.47,611.72,244s7.59-10.61,13.12-9.15S633.45,242.73,631.72,249.24Z"/>
        <path class="cls-6" d="M631.57,270.14a11.7,11.7,0,1,1-11.7-11.7,11.7,11.7,0,0,1,11.7,11.7"/>
        <path class="cls-6" d="M710.14,270.14a11.7,11.7,0,1,0,11.7-11.7,11.7,11.7,0,0,0-11.7,11.7"/>
        <path class="cls-8" d="M724,257.32C724,285.84,700.2,309,670.85,309s-53.13-23.12-53.13-51.64,23.79-51.64,53.13-51.64S724,228.8,724,257.32"/>
        <path class="cls-15" d="M722.38,270a49.41,49.41,0,0,1-6.82,16,52.83,52.83,0,0,1-11.89,12.76,54.17,54.17,0,0,1-65.5.1,53,53,0,0,1-11.93-12.72,49.55,49.55,0,0,1-6.87-15.93,52.65,52.65,0,0,0,19.52,27.68,54.42,54.42,0,0,0,64.06-.09A52.58,52.58,0,0,0,722.38,270"/>
        <path class="cls-35" d="M685,265.93c-4.88-3.17-11-2.43-14.12,1.58-3.07-4-9.23-4.75-14.12-1.58-9,5.82-11,18.67-11,18.67s12.54,3.41,21.51-2.41a12,12,0,0,0,3.56-3.54,12.05,12.05,0,0,0,3.57,3.54c9,5.82,21.51,2.41,21.51,2.41s-2-12.85-11-18.67"/>
        <path d="M656.53,255.28c0,2.79-1.87,5.06-4.17,5.06s-4.18-2.27-4.18-5.06,1.87-5.06,4.18-5.06,4.17,2.27,4.17,5.06"/>
        <path class="cls-17" d="M643.13,270.14a8.47,8.47,0,1,1-8.46-8.16,8.32,8.32,0,0,1,8.46,8.16"/>
        <path class="cls-17" d="M698.58,270.14A8.47,8.47,0,1,0,707,262a8.32,8.32,0,0,0-8.46,8.16"/>
        <path d="M685.17,255.28c0,2.79,1.87,5.06,4.18,5.06s4.18-2.27,4.18-5.06-1.87-5.06-4.18-5.06-4.18,2.27-4.18,5.06"/>
        <path class="cls-36" d="M696.1,239.33c5.79,3.67,12,4.25,13.88,1.29s-1.29-8.34-7.08-12-12-4.25-13.89-1.29,1.3,8.33,7.09,12"/>
        <path class="cls-36" d="M645.61,239.33c-5.79,3.67-12,4.25-13.89,1.29s1.3-8.34,7.09-12,12-4.25,13.89-1.29-1.3,8.33-7.09,12"/>
        <path class="cls-35" d="M650.68,209.17c5.93,12.3,29.82,14.44,35.93-.88,2.45-6.14-.72-13.8-7.87-14.78,0,0,2.86,6.93-.56,7.92s-15-11.78-27.5,7.74"/>
        <path class="cls-37" d="M615.12,397.37h-.35a2.81,2.81,0,0,1-2.8-2.81V345a2.81,2.81,0,0,1,2.8-2.8h.35a2.81,2.81,0,0,1,2.8,2.8v49.54a2.81,2.81,0,0,1-2.8,2.81"/>
        <path class="cls-8" d="M603.79,333.05c-.77,5.92,3.88,11.42,10.4,12.26s12.42-3.26,13.19-9.19-3.88-11.41-10.4-12.26-12.42,3.27-13.19,9.19"/>
        <path class="cls-8" d="M600.15,342.83c0,7.13,6.44,12.9,14.37,12.9s14.36-5.77,14.36-12.9-6.43-12.89-14.36-12.89-14.37,5.77-14.37,12.89"/>
        <path class="cls-38" d="M628.88,342.83a12.74,12.74,0,0,0-4.88-8.89,15.57,15.57,0,0,0-19,0,12.78,12.78,0,0,0-4.89,8.89,11.18,11.18,0,0,1,.87-5.33,13.51,13.51,0,0,1,3.24-4.48,15.54,15.54,0,0,1,20.52,0A13.51,13.51,0,0,1,628,337.5a11.29,11.29,0,0,1,.86,5.33"/>
      </g>
    </g>
  </g>
</svg>
